  0
SECTION
  2
HEADER
  9
$ANGBASE
  50
0.0
  9
$ANGDIR
  70
1
  9
$MEASUREMENT
  70
1
  0
ENDSEC
  0
SECTION
  2
TABLES
  0
TABLE
  2
LTYPE
  70
4
  0
LTYPE
  5
40F
  2
CONTINUOUS
  70
0
  3
Solid line
  72
65
  73
0
  40
0.0
  0
LTYPE
  5
410
  2
DASHDOT
 70
0
  3
Dash Dot ____ _ ____ _
 72
65
 73
4
 40
2.0
 49
1.25
 49
-0.25
 49
0.25
 49
-0.25
  0
LTYPE
  5
411
  2
DASHED
 70
0
  3
Dashed __ __ __ __ __
 72
65
 73
2
 40
0.75
 49
0.5
 49
-0.25
  0
LTYPE
  5
43B
  2
DOTTED
 70
0
  3
Dotted .  .  .  .
 72
65
 73
2
 40
0.2
 49
0.0
 49
-0.2
  0
ENDTAB
  0
TABLE
  2
STYLE
  70
4
  0
STYLE
  2
KICAD
  70
0
  40
0
  41
1
  42
1
  50
0
  71
0
  3
isocp.shx
  0
STYLE
  2
KICADB
  70
0
  40
0
  41
1
  42
1
  50
0
  71
0
  3
isocp.shx
  0
STYLE
  2
KICADI
  70
0
  40
0
  41
1
  42
1
  50
15
  71
0
  3
isocp.shx
  0
STYLE
  2
KICADBI
  70
0
  40
0
  41
1
  42
1
  50
15
  71
0
  3
isocp.shx
  0
ENDTAB
  0
TABLE
  2
LAYER
  70
1
  0
LAYER
  2
BLACK
  70
0
  62
7
  6
CONTINUOUS
  0
ENDTAB
  0
ENDSEC
  0
SECTION
  2
ENTITIES
0
LINE
8
BLACK
6
CONTINUOUS
10
162.806
20
-57.7699
11
163.059
21
-57.856
0
LINE
8
BLACK
6
CONTINUOUS
10
163.059
20
-57.856
11
163.3
21
-57.9746
0
LINE
8
BLACK
6
CONTINUOUS
10
163.3
20
-57.9746
11
163.523
21
-58.1236
0
LINE
8
BLACK
6
CONTINUOUS
10
163.523
20
-58.1236
11
163.725
21
-58.3004
0
LINE
8
BLACK
6
CONTINUOUS
10
163.725
20
-58.3004
11
163.901
21
-58.502
0
LINE
8
BLACK
6
CONTINUOUS
10
163.901
20
-58.502
11
164.05
21
-58.725
0
LINE
8
BLACK
6
CONTINUOUS
10
164.05
20
-58.725
11
164.169
21
-58.9655
0
LINE
8
BLACK
6
CONTINUOUS
10
164.169
20
-58.9655
11
164.255
21
-59.2194
0
LINE
8
BLACK
6
CONTINUOUS
10
164.255
20
-59.2194
11
164.307
21
-59.4824
0
LINE
8
BLACK
6
CONTINUOUS
10
164.307
20
-59.4824
11
164.325
21
-59.75
0
LINE
8
BLACK
6
CONTINUOUS
10
164.325
20
-59.75
11
164.325
21
-59.75
0
LINE
8
BLACK
6
CONTINUOUS
10
164.325
20
-59.75
11
164.321
21
-59.7587
0
LINE
8
BLACK
6
CONTINUOUS
10
164.321
20
-59.7587
11
164.338
21
-60.0051
0
LINE
8
BLACK
6
CONTINUOUS
10
164.338
20
-60.0051
11
164.387
21
-60.2558
0
LINE
8
BLACK
6
CONTINUOUS
10
164.387
20
-60.2558
11
164.47
21
-60.4978
0
LINE
8
BLACK
6
CONTINUOUS
10
164.47
20
-60.4978
11
164.583
21
-60.7271
0
LINE
8
BLACK
6
CONTINUOUS
10
164.583
20
-60.7271
11
164.725
21
-60.9396
0
LINE
8
BLACK
6
CONTINUOUS
10
164.725
20
-60.9396
11
164.893
21
-61.1318
0
LINE
8
BLACK
6
CONTINUOUS
10
164.893
20
-61.1318
11
165.085
21
-61.3004
0
LINE
8
BLACK
6
CONTINUOUS
10
165.085
20
-61.3004
11
165.298
21
-61.4424
0
LINE
8
BLACK
6
CONTINUOUS
10
165.298
20
-61.4424
11
165.527
21
-61.5554
0
LINE
8
BLACK
6
CONTINUOUS
10
165.527
20
-61.5554
11
165.769
21
-61.6376
0
LINE
8
BLACK
6
CONTINUOUS
10
165.769
20
-61.6376
11
166.02
21
-61.6875
0
LINE
8
BLACK
6
CONTINUOUS
10
166.02
20
-61.6875
11
166.266
21
-61.7036
0
LINE
8
BLACK
6
CONTINUOUS
10
166.266
20
-61.7036
11
166.275
21
-61.7
0
LINE
8
BLACK
6
CONTINUOUS
10
166.275
20
-61.7
11
180.275
21
-61.7
0
LINE
8
BLACK
6
CONTINUOUS
10
180.275
20
-61.7
11
180.514
21
-61.714
0
LINE
8
BLACK
6
CONTINUOUS
10
180.514
20
-61.714
11
180.75
21
-61.7557
0
LINE
8
BLACK
6
CONTINUOUS
10
180.75
20
-61.7557
11
180.979
21
-61.8247
0
LINE
8
BLACK
6
CONTINUOUS
10
180.979
20
-61.8247
11
181.199
21
-61.9199
0
LINE
8
BLACK
6
CONTINUOUS
10
181.199
20
-61.9199
11
181.406
21
-62.04
0
LINE
8
BLACK
6
CONTINUOUS
10
181.406
20
-62.04
11
181.597
21
-62.1835
0
LINE
8
BLACK
6
CONTINUOUS
10
181.597
20
-62.1835
11
181.771
21
-62.3484
0
LINE
8
BLACK
6
CONTINUOUS
10
181.771
20
-62.3484
11
181.924
21
-62.5323
0
LINE
8
BLACK
6
CONTINUOUS
10
181.924
20
-62.5323
11
182.054
21
-62.7317
0
LINE
8
BLACK
6
CONTINUOUS
10
182.054
20
-62.7317
11
182.054
21
-62.7318
0
LINE
8
BLACK
6
CONTINUOUS
10
182.054
20
-62.7318
11
182.054
21
-62.7319
0
LINE
8
BLACK
6
CONTINUOUS
10
182.054
20
-62.7319
11
182.055
21
-62.7329
0
LINE
8
BLACK
6
CONTINUOUS
10
182.055
20
-62.7329
11
182.056
21
-62.7415
0
LINE
8
BLACK
6
CONTINUOUS
10
182.056
20
-62.7415
11
182.199
21
-62.9457
0
LINE
8
BLACK
6
CONTINUOUS
10
182.199
20
-62.9457
11
182.372
21
-63.1368
0
LINE
8
BLACK
6
CONTINUOUS
10
182.372
20
-63.1368
11
182.569
21
-63.3041
0
LINE
8
BLACK
6
CONTINUOUS
10
182.569
20
-63.3041
11
182.786
21
-63.4449
0
LINE
8
BLACK
6
CONTINUOUS
10
182.786
20
-63.4449
11
183.018
21
-63.5569
0
LINE
8
BLACK
6
CONTINUOUS
10
183.018
20
-63.5569
11
183.264
21
-63.6383
0
LINE
8
BLACK
6
CONTINUOUS
10
183.264
20
-63.6383
11
183.517
21
-63.6876
0
LINE
8
BLACK
6
CONTINUOUS
10
183.517
20
-63.6876
11
183.766
21
-63.7036
0
LINE
8
BLACK
6
CONTINUOUS
10
183.766
20
-63.7036
11
183.775
21
-63.7
0
LINE
8
BLACK
6
CONTINUOUS
10
183.775
20
-63.7
11
198.275
21
-63.7
0
LINE
8
BLACK
6
CONTINUOUS
10
198.275
20
-63.7
11
198.543
21
-63.7175
0
LINE
8
BLACK
6
CONTINUOUS
10
198.543
20
-63.7175
11
198.806
21
-63.7699
0
LINE
8
BLACK
6
CONTINUOUS
10
198.806
20
-63.7699
11
199.059
21
-63.856
0
LINE
8
BLACK
6
CONTINUOUS
10
199.059
20
-63.856
11
199.3
21
-63.9746
0
LINE
8
BLACK
6
CONTINUOUS
10
199.3
20
-63.9746
11
199.523
21
-64.1236
0
LINE
8
BLACK
6
CONTINUOUS
10
199.523
20
-64.1236
11
199.725
21
-64.3004
0
LINE
8
BLACK
6
CONTINUOUS
10
199.725
20
-64.3004
11
199.901
21
-64.502
0
LINE
8
BLACK
6
CONTINUOUS
10
199.901
20
-64.502
11
200.05
21
-64.725
0
LINE
8
BLACK
6
CONTINUOUS
10
200.05
20
-64.725
11
200.169
21
-64.9655
0
LINE
8
BLACK
6
CONTINUOUS
10
200.169
20
-64.9655
11
200.255
21
-65.2194
0
LINE
8
BLACK
6
CONTINUOUS
10
200.255
20
-65.2194
11
200.307
21
-65.4824
0
LINE
8
BLACK
6
CONTINUOUS
10
200.307
20
-65.4824
11
200.325
21
-65.75
0
LINE
8
BLACK
6
CONTINUOUS
10
200.325
20
-65.75
11
200.325
21
-65.75
0
LINE
8
BLACK
6
CONTINUOUS
10
200.325
20
-65.75
11
200.325
21
-112.75
0
LINE
8
BLACK
6
CONTINUOUS
10
200.325
20
-112.75
11
200.321
21
-112.759
0
LINE
8
BLACK
6
CONTINUOUS
10
200.321
20
-112.759
11
200.338
21
-113.005
0
LINE
8
BLACK
6
CONTINUOUS
10
200.338
20
-113.005
11
200.387
21
-113.256
0
LINE
8
BLACK
6
CONTINUOUS
10
200.387
20
-113.256
11
200.47
21
-113.498
0
LINE
8
BLACK
6
CONTINUOUS
10
200.47
20
-113.498
11
200.583
21
-113.727
0
LINE
8
BLACK
6
CONTINUOUS
10
200.583
20
-113.727
11
200.725
21
-113.94
0
LINE
8
BLACK
6
CONTINUOUS
10
200.725
20
-113.94
11
200.893
21
-114.132
0
LINE
8
BLACK
6
CONTINUOUS
10
200.893
20
-114.132
11
201.085
21
-114.3
0
LINE
8
BLACK
6
CONTINUOUS
10
201.085
20
-114.3
11
201.298
21
-114.442
0
LINE
8
BLACK
6
CONTINUOUS
10
201.298
20
-114.442
11
201.527
21
-114.555
0
LINE
8
BLACK
6
CONTINUOUS
10
201.527
20
-114.555
11
201.769
21
-114.638
0
LINE
8
BLACK
6
CONTINUOUS
10
201.769
20
-114.638
11
202.02
21
-114.687
0
LINE
8
BLACK
6
CONTINUOUS
10
202.02
20
-114.687
11
202.266
21
-114.704
0
LINE
8
BLACK
6
CONTINUOUS
10
202.266
20
-114.704
11
202.275
21
-114.7
0
LINE
8
BLACK
6
CONTINUOUS
10
202.275
20
-114.7
11
207.275
21
-114.7
0
LINE
8
BLACK
6
CONTINUOUS
10
207.275
20
-114.7
11
207.543
21
-114.718
0
LINE
8
BLACK
6
CONTINUOUS
10
207.543
20
-114.718
11
207.806
21
-114.77
0
LINE
8
BLACK
6
CONTINUOUS
10
207.806
20
-114.77
11
208.059
21
-114.856
0
LINE
8
BLACK
6
CONTINUOUS
10
208.059
20
-114.856
11
208.3
21
-114.975
0
LINE
8
BLACK
6
CONTINUOUS
10
208.3
20
-114.975
11
208.523
21
-115.124
0
LINE
8
BLACK
6
CONTINUOUS
10
208.523
20
-115.124
11
208.725
21
-115.3
0
LINE
8
BLACK
6
CONTINUOUS
10
208.725
20
-115.3
11
208.901
21
-115.502
0
LINE
8
BLACK
6
CONTINUOUS
10
208.901
20
-115.502
11
209.05
21
-115.725
0
LINE
8
BLACK
6
CONTINUOUS
10
209.05
20
-115.725
11
209.169
21
-115.966
0
LINE
8
BLACK
6
CONTINUOUS
10
209.169
20
-115.966
11
209.255
21
-116.219
0
LINE
8
BLACK
6
CONTINUOUS
10
209.255
20
-116.219
11
209.307
21
-116.482
0
LINE
8
BLACK
6
CONTINUOUS
10
209.307
20
-116.482
11
209.325
21
-116.75
0
LINE
8
BLACK
6
CONTINUOUS
10
209.325
20
-116.75
11
209.325
21
-116.75
0
LINE
8
BLACK
6
CONTINUOUS
10
209.325
20
-116.75
11
209.325
21
-133.75
0
LINE
8
BLACK
6
CONTINUOUS
10
209.325
20
-133.75
11
209.307
21
-134.018
0
LINE
8
BLACK
6
CONTINUOUS
10
209.307
20
-134.018
11
209.255
21
-134.281
0
LINE
8
BLACK
6
CONTINUOUS
10
209.255
20
-134.281
11
209.169
21
-134.535
0
LINE
8
BLACK
6
CONTINUOUS
10
209.169
20
-134.535
11
209.05
21
-134.775
0
LINE
8
BLACK
6
CONTINUOUS
10
209.05
20
-134.775
11
208.901
21
-134.998
0
LINE
8
BLACK
6
CONTINUOUS
10
208.901
20
-134.998
11
208.725
21
-135.2
0
LINE
8
BLACK
6
CONTINUOUS
10
208.725
20
-135.2
11
208.523
21
-135.376
0
LINE
8
BLACK
6
CONTINUOUS
10
208.523
20
-135.376
11
208.3
21
-135.525
0
LINE
8
BLACK
6
CONTINUOUS
10
208.3
20
-135.525
11
208.059
21
-135.644
0
LINE
8
BLACK
6
CONTINUOUS
10
208.059
20
-135.644
11
207.806
21
-135.73
0
LINE
8
BLACK
6
CONTINUOUS
10
207.806
20
-135.73
11
207.543
21
-135.782
0
LINE
8
BLACK
6
CONTINUOUS
10
207.543
20
-135.782
11
207.275
21
-135.8
0
LINE
8
BLACK
6
CONTINUOUS
10
207.275
20
-135.8
11
207.275
21
-135.8
0
LINE
8
BLACK
6
CONTINUOUS
10
207.275
20
-135.8
11
194.25
21
-135.8
0
LINE
8
BLACK
6
CONTINUOUS
10
194.25
20
-135.8
11
194.242
21
-135.797
0
LINE
8
BLACK
6
CONTINUOUS
10
194.242
20
-135.797
11
193.056
21
-135.824
0
LINE
8
BLACK
6
CONTINUOUS
10
193.056
20
-135.824
11
191.863
21
-135.88
0
LINE
8
BLACK
6
CONTINUOUS
10
191.863
20
-135.88
11
190.671
21
-135.963
0
LINE
8
BLACK
6
CONTINUOUS
10
190.671
20
-135.963
11
189.481
21
-136.074
0
LINE
8
BLACK
6
CONTINUOUS
10
189.481
20
-136.074
11
188.295
21
-136.213
0
LINE
8
BLACK
6
CONTINUOUS
10
188.295
20
-136.213
11
187.112
21
-136.38
0
LINE
8
BLACK
6
CONTINUOUS
10
187.112
20
-136.38
11
185.933
21
-136.574
0
LINE
8
BLACK
6
CONTINUOUS
10
185.933
20
-136.574
11
184.767
21
-136.794
0
LINE
8
BLACK
6
CONTINUOUS
10
184.767
20
-136.794
11
184.76
21
-136.799
0
LINE
8
BLACK
6
CONTINUOUS
10
184.76
20
-136.799
11
171.785
21
-139.549
0
LINE
8
BLACK
6
CONTINUOUS
10
171.785
20
-139.549
11
171.785
21
-139.549
0
LINE
8
BLACK
6
CONTINUOUS
10
171.785
20
-139.549
11
171.515
21
-139.598
0
LINE
8
BLACK
6
CONTINUOUS
10
171.515
20
-139.598
11
171.239
21
-139.611
0
LINE
8
BLACK
6
CONTINUOUS
10
171.239
20
-139.611
11
170.964
21
-139.589
0
LINE
8
BLACK
6
CONTINUOUS
10
170.964
20
-139.589
11
170.694
21
-139.53
0
LINE
8
BLACK
6
CONTINUOUS
10
170.694
20
-139.53
11
170.434
21
-139.437
0
LINE
8
BLACK
6
CONTINUOUS
10
170.434
20
-139.437
11
170.189
21
-139.311
0
LINE
8
BLACK
6
CONTINUOUS
10
170.189
20
-139.311
11
169.962
21
-139.153
0
LINE
8
BLACK
6
CONTINUOUS
10
169.962
20
-139.153
11
169.757
21
-138.968
0
LINE
8
BLACK
6
CONTINUOUS
10
169.757
20
-138.968
11
169.578
21
-138.757
0
LINE
8
BLACK
6
CONTINUOUS
10
169.578
20
-138.757
11
169.429
21
-138.525
0
LINE
8
BLACK
6
CONTINUOUS
10
169.429
20
-138.525
11
169.311
21
-138.275
0
LINE
8
BLACK
6
CONTINUOUS
10
169.311
20
-138.275
11
169.226
21
-138.012
0
LINE
8
BLACK
6
CONTINUOUS
10
169.226
20
-138.012
11
169.227
21
-138.011
0
LINE
8
BLACK
6
CONTINUOUS
10
169.227
20
-138.011
11
169.226
21
-138.01
0
LINE
8
BLACK
6
CONTINUOUS
10
169.226
20
-138.01
11
168.02
21
-132.356
0
LINE
8
BLACK
6
CONTINUOUS
10
168.02
20
-132.356
11
168.02
21
-132.356
0
LINE
8
BLACK
6
CONTINUOUS
10
168.02
20
-132.356
11
168.02
21
-132.356
0
LINE
8
BLACK
6
CONTINUOUS
10
168.02
20
-132.356
11
168.022
21
-132.345
0
LINE
8
BLACK
6
CONTINUOUS
10
168.022
20
-132.345
11
167.825
21
-131.5
0
LINE
8
BLACK
6
CONTINUOUS
10
167.825
20
-131.5
11
167.588
21
-130.654
0
LINE
8
BLACK
6
CONTINUOUS
10
167.588
20
-130.654
11
167.315
21
-129.819
0
LINE
8
BLACK
6
CONTINUOUS
10
167.315
20
-129.819
11
167.005
21
-128.997
0
LINE
8
BLACK
6
CONTINUOUS
10
167.005
20
-128.997
11
166.66
21
-128.189
0
LINE
8
BLACK
6
CONTINUOUS
10
166.66
20
-128.189
11
166.28
21
-127.397
0
LINE
8
BLACK
6
CONTINUOUS
10
166.28
20
-127.397
11
165.866
21
-126.623
0
LINE
8
BLACK
6
CONTINUOUS
10
165.866
20
-126.623
11
165.418
21
-125.867
0
LINE
8
BLACK
6
CONTINUOUS
10
165.418
20
-125.867
11
164.938
21
-125.131
0
LINE
8
BLACK
6
CONTINUOUS
10
164.938
20
-125.131
11
164.426
21
-124.417
0
LINE
8
BLACK
6
CONTINUOUS
10
164.426
20
-124.417
11
163.883
21
-123.727
0
LINE
8
BLACK
6
CONTINUOUS
10
163.883
20
-123.727
11
163.311
21
-123.06
0
LINE
8
BLACK
6
CONTINUOUS
10
163.311
20
-123.06
11
162.71
21
-122.419
0
LINE
8
BLACK
6
CONTINUOUS
10
162.71
20
-122.419
11
162.082
21
-121.805
0
LINE
8
BLACK
6
CONTINUOUS
10
162.082
20
-121.805
11
161.428
21
-121.219
0
LINE
8
BLACK
6
CONTINUOUS
10
161.428
20
-121.219
11
160.749
21
-120.662
0
LINE
8
BLACK
6
CONTINUOUS
10
160.749
20
-120.662
11
160.046
21
-120.135
0
LINE
8
BLACK
6
CONTINUOUS
10
160.046
20
-120.135
11
159.321
21
-119.639
0
LINE
8
BLACK
6
CONTINUOUS
10
159.321
20
-119.639
11
158.575
21
-119.175
0
LINE
8
BLACK
6
CONTINUOUS
10
158.575
20
-119.175
11
157.809
21
-118.745
0
LINE
8
BLACK
6
CONTINUOUS
10
157.809
20
-118.745
11
157.025
21
-118.348
0
LINE
8
BLACK
6
CONTINUOUS
10
157.025
20
-118.348
11
156.225
21
-117.985
0
LINE
8
BLACK
6
CONTINUOUS
10
156.225
20
-117.985
11
155.41
21
-117.658
0
LINE
8
BLACK
6
CONTINUOUS
10
155.41
20
-117.658
11
154.581
21
-117.367
0
LINE
8
BLACK
6
CONTINUOUS
10
154.581
20
-117.367
11
153.74
21
-117.113
0
LINE
8
BLACK
6
CONTINUOUS
10
153.74
20
-117.113
11
152.889
21
-116.895
0
LINE
8
BLACK
6
CONTINUOUS
10
152.889
20
-116.895
11
152.029
21
-116.714
0
LINE
8
BLACK
6
CONTINUOUS
10
152.029
20
-116.714
11
151.163
21
-116.572
0
LINE
8
BLACK
6
CONTINUOUS
10
151.163
20
-116.572
11
150.29
21
-116.467
0
LINE
8
BLACK
6
CONTINUOUS
10
150.29
20
-116.467
11
149.414
21
-116.4
0
LINE
8
BLACK
6
CONTINUOUS
10
149.414
20
-116.4
11
148.536
21
-116.372
0
LINE
8
BLACK
6
CONTINUOUS
10
148.536
20
-116.372
11
147.658
21
-116.382
0
LINE
8
BLACK
6
CONTINUOUS
10
147.658
20
-116.382
11
146.781
21
-116.43
0
LINE
8
BLACK
6
CONTINUOUS
10
146.781
20
-116.43
11
145.907
21
-116.516
0
LINE
8
BLACK
6
CONTINUOUS
10
145.907
20
-116.516
11
145.037
21
-116.641
0
LINE
8
BLACK
6
CONTINUOUS
10
145.037
20
-116.641
11
144.174
21
-116.803
0
LINE
8
BLACK
6
CONTINUOUS
10
144.174
20
-116.803
11
143.318
21
-117.003
0
LINE
8
BLACK
6
CONTINUOUS
10
143.318
20
-117.003
11
142.473
21
-117.24
0
LINE
8
BLACK
6
CONTINUOUS
10
142.473
20
-117.24
11
141.638
21
-117.513
0
LINE
8
BLACK
6
CONTINUOUS
10
141.638
20
-117.513
11
140.816
21
-117.823
0
LINE
8
BLACK
6
CONTINUOUS
10
140.816
20
-117.823
11
140.008
21
-118.169
0
LINE
8
BLACK
6
CONTINUOUS
10
140.008
20
-118.169
11
139.216
21
-118.549
0
LINE
8
BLACK
6
CONTINUOUS
10
139.216
20
-118.549
11
138.442
21
-118.963
0
LINE
8
BLACK
6
CONTINUOUS
10
138.442
20
-118.963
11
137.686
21
-119.411
0
LINE
8
BLACK
6
CONTINUOUS
10
137.686
20
-119.411
11
136.95
21
-119.891
0
LINE
8
BLACK
6
CONTINUOUS
10
136.95
20
-119.891
11
136.237
21
-120.403
0
LINE
8
BLACK
6
CONTINUOUS
10
136.237
20
-120.403
11
135.546
21
-120.946
0
LINE
8
BLACK
6
CONTINUOUS
10
135.546
20
-120.946
11
134.879
21
-121.518
0
LINE
8
BLACK
6
CONTINUOUS
10
134.879
20
-121.518
11
134.238
21
-122.119
0
LINE
8
BLACK
6
CONTINUOUS
10
134.238
20
-122.119
11
133.624
21
-122.747
0
LINE
8
BLACK
6
CONTINUOUS
10
133.624
20
-122.747
11
133.038
21
-123.402
0
LINE
8
BLACK
6
CONTINUOUS
10
133.038
20
-123.402
11
132.481
21
-124.081
0
LINE
8
BLACK
6
CONTINUOUS
10
132.481
20
-124.081
11
131.955
21
-124.784
0
LINE
8
BLACK
6
CONTINUOUS
10
131.955
20
-124.784
11
131.459
21
-125.509
0
LINE
8
BLACK
6
CONTINUOUS
10
131.459
20
-125.509
11
130.995
21
-126.256
0
LINE
8
BLACK
6
CONTINUOUS
10
130.995
20
-126.256
11
130.572
21
-127.009
0
LINE
8
BLACK
6
CONTINUOUS
10
130.572
20
-127.009
11
130.572
21
-127.016
0
LINE
8
BLACK
6
CONTINUOUS
10
130.572
20
-127.016
11
130.467
21
-127.286
0
LINE
8
BLACK
6
CONTINUOUS
10
130.467
20
-127.286
11
130.334
21
-127.544
0
LINE
8
BLACK
6
CONTINUOUS
10
130.334
20
-127.544
11
130.175
21
-127.787
0
LINE
8
BLACK
6
CONTINUOUS
10
130.175
20
-127.787
11
129.992
21
-128.012
0
LINE
8
BLACK
6
CONTINUOUS
10
129.992
20
-128.012
11
129.787
21
-128.217
0
LINE
8
BLACK
6
CONTINUOUS
10
129.787
20
-128.217
11
129.562
21
-128.4
0
LINE
8
BLACK
6
CONTINUOUS
10
129.562
20
-128.4
11
129.319
21
-128.559
0
LINE
8
BLACK
6
CONTINUOUS
10
129.319
20
-128.559
11
129.061
21
-128.692
0
LINE
8
BLACK
6
CONTINUOUS
10
129.061
20
-128.692
11
128.791
21
-128.797
0
LINE
8
BLACK
6
CONTINUOUS
10
128.791
20
-128.797
11
128.791
21
-128.797
0
LINE
8
BLACK
6
CONTINUOUS
10
128.791
20
-128.797
11
128.788
21
-128.797
0
LINE
8
BLACK
6
CONTINUOUS
10
128.788
20
-128.797
11
128.785
21
-128.799
0
LINE
8
BLACK
6
CONTINUOUS
10
128.785
20
-128.799
11
111.285
21
-132.549
0
LINE
8
BLACK
6
CONTINUOUS
10
111.285
20
-132.549
11
111.285
21
-132.549
0
LINE
8
BLACK
6
CONTINUOUS
10
111.285
20
-132.549
11
111.015
21
-132.598
0
LINE
8
BLACK
6
CONTINUOUS
10
111.015
20
-132.598
11
110.739
21
-132.611
0
LINE
8
BLACK
6
CONTINUOUS
10
110.739
20
-132.611
11
110.464
21
-132.589
0
LINE
8
BLACK
6
CONTINUOUS
10
110.464
20
-132.589
11
110.194
21
-132.53
0
LINE
8
BLACK
6
CONTINUOUS
10
110.194
20
-132.53
11
109.934
21
-132.437
0
LINE
8
BLACK
6
CONTINUOUS
10
109.934
20
-132.437
11
109.689
21
-132.311
0
LINE
8
BLACK
6
CONTINUOUS
10
109.689
20
-132.311
11
109.462
21
-132.153
0
LINE
8
BLACK
6
CONTINUOUS
10
109.462
20
-132.153
11
109.257
21
-131.968
0
LINE
8
BLACK
6
CONTINUOUS
10
109.257
20
-131.968
11
109.078
21
-131.757
0
LINE
8
BLACK
6
CONTINUOUS
10
109.078
20
-131.757
11
108.929
21
-131.525
0
LINE
8
BLACK
6
CONTINUOUS
10
108.929
20
-131.525
11
108.811
21
-131.275
0
LINE
8
BLACK
6
CONTINUOUS
10
108.811
20
-131.275
11
108.727
21
-131.013
0
LINE
8
BLACK
6
CONTINUOUS
10
108.727
20
-131.013
11
108.727
21
-131.013
0
LINE
8
BLACK
6
CONTINUOUS
10
108.727
20
-131.013
11
108.727
21
-131.013
0
LINE
8
BLACK
6
CONTINUOUS
10
108.727
20
-131.013
11
108.726
21
-131.012
0
LINE
8
BLACK
6
CONTINUOUS
10
108.726
20
-131.012
11
108.728
21
-131.001
0
LINE
8
BLACK
6
CONTINUOUS
10
108.728
20
-131.001
11
108.511
21
-130.266
0
LINE
8
BLACK
6
CONTINUOUS
10
108.511
20
-130.266
11
108.254
21
-129.532
0
LINE
8
BLACK
6
CONTINUOUS
10
108.254
20
-129.532
11
107.962
21
-128.812
0
LINE
8
BLACK
6
CONTINUOUS
10
107.962
20
-128.812
11
107.633
21
-128.107
0
LINE
8
BLACK
6
CONTINUOUS
10
107.633
20
-128.107
11
107.271
21
-127.419
0
LINE
8
BLACK
6
CONTINUOUS
10
107.271
20
-127.419
11
106.874
21
-126.751
0
LINE
8
BLACK
6
CONTINUOUS
10
106.874
20
-126.751
11
106.445
21
-126.102
0
LINE
8
BLACK
6
CONTINUOUS
10
106.445
20
-126.102
11
105.985
21
-125.476
0
LINE
8
BLACK
6
CONTINUOUS
10
105.985
20
-125.476
11
105.494
21
-124.873
0
LINE
8
BLACK
6
CONTINUOUS
10
105.494
20
-124.873
11
104.974
21
-124.295
0
LINE
8
BLACK
6
CONTINUOUS
10
104.974
20
-124.295
11
104.426
21
-123.744
0
LINE
8
BLACK
6
CONTINUOUS
10
104.426
20
-123.744
11
103.851
21
-123.22
0
LINE
8
BLACK
6
CONTINUOUS
10
103.851
20
-123.22
11
103.251
21
-122.726
0
LINE
8
BLACK
6
CONTINUOUS
10
103.251
20
-122.726
11
102.627
21
-122.262
0
LINE
8
BLACK
6
CONTINUOUS
10
102.627
20
-122.262
11
101.981
21
-121.829
0
LINE
8
BLACK
6
CONTINUOUS
10
101.981
20
-121.829
11
101.314
21
-121.429
0
LINE
8
BLACK
6
CONTINUOUS
10
101.314
20
-121.429
11
100.628
21
-121.063
0
LINE
8
BLACK
6
CONTINUOUS
10
100.628
20
-121.063
11
99.9253
21
-120.731
0
LINE
8
BLACK
6
CONTINUOUS
10
99.9253
20
-120.731
11
99.2067
21
-120.434
0
LINE
8
BLACK
6
CONTINUOUS
10
99.2067
20
-120.434
11
98.4743
21
-120.173
0
LINE
8
BLACK
6
CONTINUOUS
10
98.4743
20
-120.173
11
97.7299
21
-119.949
0
LINE
8
BLACK
6
CONTINUOUS
10
97.7299
20
-119.949
11
96.9753
21
-119.762
0
LINE
8
BLACK
6
CONTINUOUS
10
96.9753
20
-119.762
11
96.2123
21
-119.612
0
LINE
8
BLACK
6
CONTINUOUS
10
96.2123
20
-119.612
11
95.4429
21
-119.501
0
LINE
8
BLACK
6
CONTINUOUS
10
95.4429
20
-119.501
11
94.6689
21
-119.427
0
LINE
8
BLACK
6
CONTINUOUS
10
94.6689
20
-119.427
11
93.8922
21
-119.392
0
LINE
8
BLACK
6
CONTINUOUS
10
93.8922
20
-119.392
11
93.1147
21
-119.396
0
LINE
8
BLACK
6
CONTINUOUS
10
93.1147
20
-119.396
11
92.3384
21
-119.438
0
LINE
8
BLACK
6
CONTINUOUS
10
92.3384
20
-119.438
11
91.5651
21
-119.519
0
LINE
8
BLACK
6
CONTINUOUS
10
91.5651
20
-119.519
11
90.7967
21
-119.637
0
LINE
8
BLACK
6
CONTINUOUS
10
90.7967
20
-119.637
11
90.0462
21
-119.792
0
LINE
8
BLACK
6
CONTINUOUS
10
90.0462
20
-119.792
11
90.0371
21
-119.799
0
LINE
8
BLACK
6
CONTINUOUS
10
90.0371
20
-119.799
11
90.0364
21
-119.799
0
LINE
8
BLACK
6
CONTINUOUS
10
90.0364
20
-119.799
11
90.0363
21
-119.799
0
LINE
8
BLACK
6
CONTINUOUS
10
90.0363
20
-119.799
11
90.0361
21
-119.799
0
LINE
8
BLACK
6
CONTINUOUS
10
90.0361
20
-119.799
11
89.7654
21
-119.848
0
LINE
8
BLACK
6
CONTINUOUS
10
89.7654
20
-119.848
11
89.4895
21
-119.861
0
LINE
8
BLACK
6
CONTINUOUS
10
89.4895
20
-119.861
11
89.2142
21
-119.839
0
LINE
8
BLACK
6
CONTINUOUS
10
89.2142
20
-119.839
11
88.9443
21
-119.78
0
LINE
8
BLACK
6
CONTINUOUS
10
88.9443
20
-119.78
11
88.6842
21
-119.687
0
LINE
8
BLACK
6
CONTINUOUS
10
88.6842
20
-119.687
11
88.4386
21
-119.561
0
LINE
8
BLACK
6
CONTINUOUS
10
88.4386
20
-119.561
11
88.2116
21
-119.403
0
LINE
8
BLACK
6
CONTINUOUS
10
88.2116
20
-119.403
11
88.007
21
-119.218
0
LINE
8
BLACK
6
CONTINUOUS
10
88.007
20
-119.218
11
87.8284
21
-119.007
0
LINE
8
BLACK
6
CONTINUOUS
10
87.8284
20
-119.007
11
87.6788
21
-118.775
0
LINE
8
BLACK
6
CONTINUOUS
10
87.6788
20
-118.775
11
87.5609
21
-118.525
0
LINE
8
BLACK
6
CONTINUOUS
10
87.5609
20
-118.525
11
87.4765
21
-118.262
0
LINE
8
BLACK
6
CONTINUOUS
10
87.4765
20
-118.262
11
87.4766
21
-118.261
0
LINE
8
BLACK
6
CONTINUOUS
10
87.4766
20
-118.261
11
87.4761
21
-118.26
0
LINE
8
BLACK
6
CONTINUOUS
10
87.4761
20
-118.26
11
83.9761
21
-101.51
0
LINE
8
BLACK
6
CONTINUOUS
10
83.9761
20
-101.51
11
83.9761
21
-101.51
0
LINE
8
BLACK
6
CONTINUOUS
10
83.9761
20
-101.51
11
83.9272
21
-101.24
0
LINE
8
BLACK
6
CONTINUOUS
10
83.9272
20
-101.24
11
83.9137
21
-100.964
0
LINE
8
BLACK
6
CONTINUOUS
10
83.9137
20
-100.964
11
83.9364
21
-100.689
0
LINE
8
BLACK
6
CONTINUOUS
10
83.9364
20
-100.689
11
83.9949
21
-100.419
0
LINE
8
BLACK
6
CONTINUOUS
10
83.9949
20
-100.419
11
84.088
21
-100.159
0
LINE
8
BLACK
6
CONTINUOUS
10
84.088
20
-100.159
11
84.2144
21
-99.9136
0
LINE
8
BLACK
6
CONTINUOUS
10
84.2144
20
-99.9136
11
84.3716
21
-99.6866
0
LINE
8
BLACK
6
CONTINUOUS
10
84.3716
20
-99.6866
11
84.5572
21
-99.482
0
LINE
8
BLACK
6
CONTINUOUS
10
84.5572
20
-99.482
11
84.7679
21
-99.3034
0
LINE
8
BLACK
6
CONTINUOUS
10
84.7679
20
-99.3034
11
85.0001
21
-99.1538
0
LINE
8
BLACK
6
CONTINUOUS
10
85.0001
20
-99.1538
11
85.2499
21
-99.0359
0
LINE
8
BLACK
6
CONTINUOUS
10
85.2499
20
-99.0359
11
85.5129
21
-98.9515
0
LINE
8
BLACK
6
CONTINUOUS
10
85.5129
20
-98.9515
11
85.5129
21
-98.9515
0
LINE
8
BLACK
6
CONTINUOUS
10
85.5129
20
-98.9515
11
85.5138
21
-98.9516
0
LINE
8
BLACK
6
CONTINUOUS
10
85.5138
20
-98.9516
11
85.5146
21
-98.9511
0
LINE
8
BLACK
6
CONTINUOUS
10
85.5146
20
-98.9511
11
109.015
21
-93.9511
0
LINE
8
BLACK
6
CONTINUOUS
10
109.015
20
-93.9511
11
109.025
21
-93.953
0
LINE
8
BLACK
6
CONTINUOUS
10
109.025
20
-93.953
11
109.777
21
-93.7426
0
LINE
8
BLACK
6
CONTINUOUS
10
109.777
20
-93.7426
11
110.529
21
-93.4933
0
LINE
8
BLACK
6
CONTINUOUS
10
110.529
20
-93.4933
11
111.269
21
-93.2086
0
LINE
8
BLACK
6
CONTINUOUS
10
111.269
20
-93.2086
11
111.994
21
-92.8893
0
LINE
8
BLACK
6
CONTINUOUS
10
111.994
20
-92.8893
11
112.703
21
-92.536
0
LINE
8
BLACK
6
CONTINUOUS
10
112.703
20
-92.536
11
113.395
21
-92.1496
0
LINE
8
BLACK
6
CONTINUOUS
10
113.395
20
-92.1496
11
114.067
21
-91.7309
0
LINE
8
BLACK
6
CONTINUOUS
10
114.067
20
-91.7309
11
114.719
21
-91.2807
0
LINE
8
BLACK
6
CONTINUOUS
10
114.719
20
-91.2807
11
115.35
21
-90.8003
0
LINE
8
BLACK
6
CONTINUOUS
10
115.35
20
-90.8003
11
115.956
21
-90.2905
0
LINE
8
BLACK
6
CONTINUOUS
10
115.956
20
-90.2905
11
116.538
21
-89.7526
0
LINE
8
BLACK
6
CONTINUOUS
10
116.538
20
-89.7526
11
117.094
21
-89.1878
0
LINE
8
BLACK
6
CONTINUOUS
10
117.094
20
-89.1878
11
117.622
21
-88.5974
0
LINE
8
BLACK
6
CONTINUOUS
10
117.622
20
-88.5974
11
118.122
21
-87.9825
0
LINE
8
BLACK
6
CONTINUOUS
10
118.122
20
-87.9825
11
118.592
21
-87.3447
0
LINE
8
BLACK
6
CONTINUOUS
10
118.592
20
-87.3447
11
119.032
21
-86.6854
0
LINE
8
BLACK
6
CONTINUOUS
10
119.032
20
-86.6854
11
119.439
21
-86.006
0
LINE
8
BLACK
6
CONTINUOUS
10
119.439
20
-86.006
11
119.815
21
-85.3081
0
LINE
8
BLACK
6
CONTINUOUS
10
119.815
20
-85.3081
11
120.156
21
-84.5932
0
LINE
8
BLACK
6
CONTINUOUS
10
120.156
20
-84.5932
11
120.464
21
-83.863
0
LINE
8
BLACK
6
CONTINUOUS
10
120.464
20
-83.863
11
120.737
21
-83.119
0
LINE
8
BLACK
6
CONTINUOUS
10
120.737
20
-83.119
11
120.974
21
-82.3629
0
LINE
8
BLACK
6
CONTINUOUS
10
120.974
20
-82.3629
11
121.175
21
-81.5965
0
LINE
8
BLACK
6
CONTINUOUS
10
121.175
20
-81.5965
11
121.339
21
-80.8214
0
LINE
8
BLACK
6
CONTINUOUS
10
121.339
20
-80.8214
11
121.467
21
-80.0394
0
LINE
8
BLACK
6
CONTINUOUS
10
121.467
20
-80.0394
11
121.558
21
-79.2522
0
LINE
8
BLACK
6
CONTINUOUS
10
121.558
20
-79.2522
11
121.611
21
-78.4616
0
LINE
8
BLACK
6
CONTINUOUS
10
121.611
20
-78.4616
11
121.627
21
-77.6694
0
LINE
8
BLACK
6
CONTINUOUS
10
121.627
20
-77.6694
11
121.605
21
-76.8885
0
LINE
8
BLACK
6
CONTINUOUS
10
121.605
20
-76.8885
11
121.6
21
-76.8788
0
LINE
8
BLACK
6
CONTINUOUS
10
121.6
20
-76.8788
11
120.725
21
-65.5038
0
LINE
8
BLACK
6
CONTINUOUS
10
120.725
20
-65.5038
11
120.725
21
-65.5036
0
LINE
8
BLACK
6
CONTINUOUS
10
120.725
20
-65.5036
11
120.709
21
-65.2365
0
LINE
8
BLACK
6
CONTINUOUS
10
120.709
20
-65.2365
11
120.729
21
-64.967
0
LINE
8
BLACK
6
CONTINUOUS
10
120.729
20
-64.967
11
120.783
21
-64.7023
0
LINE
8
BLACK
6
CONTINUOUS
10
120.783
20
-64.7023
11
120.872
21
-64.4471
0
LINE
8
BLACK
6
CONTINUOUS
10
120.872
20
-64.4471
11
120.993
21
-64.2055
0
LINE
8
BLACK
6
CONTINUOUS
10
120.993
20
-64.2055
11
121.145
21
-63.9819
0
LINE
8
BLACK
6
CONTINUOUS
10
121.145
20
-63.9819
11
121.324
21
-63.7799
0
LINE
8
BLACK
6
CONTINUOUS
10
121.324
20
-63.7799
11
121.528
21
-63.6031
0
LINE
8
BLACK
6
CONTINUOUS
10
121.528
20
-63.6031
11
121.754
21
-63.4544
0
LINE
8
BLACK
6
CONTINUOUS
10
121.754
20
-63.4544
11
121.997
21
-63.3365
0
LINE
8
BLACK
6
CONTINUOUS
10
121.997
20
-63.3365
11
122.253
21
-63.2514
0
LINE
8
BLACK
6
CONTINUOUS
10
122.253
20
-63.2514
11
122.519
21
-63.2004
0
LINE
8
BLACK
6
CONTINUOUS
10
122.519
20
-63.2004
11
122.519
21
-63.2004
0
LINE
8
BLACK
6
CONTINUOUS
10
122.519
20
-63.2004
11
122.521
21
-63.2009
0
LINE
8
BLACK
6
CONTINUOUS
10
122.521
20
-63.2009
11
122.523
21
-63.2001
0
LINE
8
BLACK
6
CONTINUOUS
10
122.523
20
-63.2001
11
138.498
21
-62.4501
0
LINE
8
BLACK
6
CONTINUOUS
10
138.498
20
-62.4501
11
138.507
21
-62.4534
0
LINE
8
BLACK
6
CONTINUOUS
10
138.507
20
-62.4534
11
138.858
21
-62.419
0
LINE
8
BLACK
6
CONTINUOUS
10
138.858
20
-62.419
11
139.213
21
-62.35
0
LINE
8
BLACK
6
CONTINUOUS
10
139.213
20
-62.35
11
139.56
21
-62.248
0
LINE
8
BLACK
6
CONTINUOUS
10
139.56
20
-62.248
11
139.896
21
-62.1137
0
LINE
8
BLACK
6
CONTINUOUS
10
139.896
20
-62.1137
11
140.218
21
-61.9484
0
LINE
8
BLACK
6
CONTINUOUS
10
140.218
20
-61.9484
11
140.523
21
-61.7536
0
LINE
8
BLACK
6
CONTINUOUS
10
140.523
20
-61.7536
11
140.809
21
-61.531
0
LINE
8
BLACK
6
CONTINUOUS
10
140.809
20
-61.531
11
141.072
21
-61.2826
0
LINE
8
BLACK
6
CONTINUOUS
10
141.072
20
-61.2826
11
141.311
21
-61.0105
0
LINE
8
BLACK
6
CONTINUOUS
10
141.311
20
-61.0105
11
141.523
21
-60.7172
0
LINE
8
BLACK
6
CONTINUOUS
10
141.523
20
-60.7172
11
141.706
21
-60.4052
0
LINE
8
BLACK
6
CONTINUOUS
10
141.706
20
-60.4052
11
141.859
21
-60.0774
0
LINE
8
BLACK
6
CONTINUOUS
10
141.859
20
-60.0774
11
141.977
21
-59.7491
0
LINE
8
BLACK
6
CONTINUOUS
10
141.977
20
-59.7491
11
141.975
21
-59.7441
0
LINE
8
BLACK
6
CONTINUOUS
10
141.975
20
-59.7441
11
141.975
21
-59.7441
0
LINE
8
BLACK
6
CONTINUOUS
10
141.975
20
-59.7441
11
142.025
21
-59.4683
0
LINE
8
BLACK
6
CONTINUOUS
10
142.025
20
-59.4683
11
142.108
21
-59.2005
0
LINE
8
BLACK
6
CONTINUOUS
10
142.108
20
-59.2005
11
142.222
21
-58.9446
0
LINE
8
BLACK
6
CONTINUOUS
10
142.222
20
-58.9446
11
142.366
21
-58.7044
0
LINE
8
BLACK
6
CONTINUOUS
10
142.366
20
-58.7044
11
142.539
21
-58.4834
0
LINE
8
BLACK
6
CONTINUOUS
10
142.539
20
-58.4834
11
142.737
21
-58.2849
0
LINE
8
BLACK
6
CONTINUOUS
10
142.737
20
-58.2849
11
142.957
21
-58.1117
0
LINE
8
BLACK
6
CONTINUOUS
10
142.957
20
-58.1117
11
143.197
21
-57.9664
0
LINE
8
BLACK
6
CONTINUOUS
10
143.197
20
-57.9664
11
143.452
21
-57.8511
0
LINE
8
BLACK
6
CONTINUOUS
10
143.452
20
-57.8511
11
143.72
21
-57.7676
0
LINE
8
BLACK
6
CONTINUOUS
10
143.72
20
-57.7676
11
143.995
21
-57.7169
0
LINE
8
BLACK
6
CONTINUOUS
10
143.995
20
-57.7169
11
144.275
21
-57.7
0
LINE
8
BLACK
6
CONTINUOUS
10
144.275
20
-57.7
11
144.275
21
-57.7
0
LINE
8
BLACK
6
CONTINUOUS
10
144.275
20
-57.7
11
162.275
21
-57.7
0
LINE
8
BLACK
6
CONTINUOUS
10
162.275
20
-57.7
11
162.543
21
-57.7175
0
LINE
8
BLACK
6
CONTINUOUS
10
162.543
20
-57.7175
11
162.806
21
-57.7699
0
LINE
8
BLACK
6
CONTINUOUS
10
144.266
20
-57.7964
11
144.007
21
-57.8122
0
LINE
8
BLACK
6
CONTINUOUS
10
144.007
20
-57.8122
11
143.743
21
-57.8607
0
LINE
8
BLACK
6
CONTINUOUS
10
143.743
20
-57.8607
11
143.486
21
-57.9408
0
LINE
8
BLACK
6
CONTINUOUS
10
143.486
20
-57.9408
11
143.241
21
-58.0513
0
LINE
8
BLACK
6
CONTINUOUS
10
143.241
20
-58.0513
11
143.012
21
-58.1906
0
LINE
8
BLACK
6
CONTINUOUS
10
143.012
20
-58.1906
11
142.8
21
-58.3566
0
LINE
8
BLACK
6
CONTINUOUS
10
142.8
20
-58.3566
11
142.611
21
-58.5469
0
LINE
8
BLACK
6
CONTINUOUS
10
142.611
20
-58.5469
11
142.445
21
-58.7587
0
LINE
8
BLACK
6
CONTINUOUS
10
142.445
20
-58.7587
11
142.307
21
-58.989
0
LINE
8
BLACK
6
CONTINUOUS
10
142.307
20
-58.989
11
142.197
21
-59.2343
0
LINE
8
BLACK
6
CONTINUOUS
10
142.197
20
-59.2343
11
142.118
21
-59.491
0
LINE
8
BLACK
6
CONTINUOUS
10
142.118
20
-59.491
11
142.072
21
-59.747
0
LINE
8
BLACK
6
CONTINUOUS
10
142.072
20
-59.747
11
142.075
21
-59.7559
0
LINE
8
BLACK
6
CONTINUOUS
10
142.075
20
-59.7559
11
142.072
21
-59.7599
0
LINE
8
BLACK
6
CONTINUOUS
10
142.072
20
-59.7599
11
142.073
21
-59.7646
0
LINE
8
BLACK
6
CONTINUOUS
10
142.073
20
-59.7646
11
142.073
21
-59.7646
0
LINE
8
BLACK
6
CONTINUOUS
10
142.073
20
-59.7646
11
141.948
21
-60.1139
0
LINE
8
BLACK
6
CONTINUOUS
10
141.948
20
-60.1139
11
141.791
21
-60.4498
0
LINE
8
BLACK
6
CONTINUOUS
10
141.791
20
-60.4498
11
141.603
21
-60.7696
0
LINE
8
BLACK
6
CONTINUOUS
10
141.603
20
-60.7696
11
141.385
21
-61.0702
0
LINE
8
BLACK
6
CONTINUOUS
10
141.385
20
-61.0702
11
141.141
21
-61.349
0
LINE
8
BLACK
6
CONTINUOUS
10
141.141
20
-61.349
11
140.871
21
-61.6037
0
LINE
8
BLACK
6
CONTINUOUS
10
140.871
20
-61.6037
11
140.579
21
-61.8318
0
LINE
8
BLACK
6
CONTINUOUS
10
140.579
20
-61.8318
11
140.266
21
-62.0315
0
LINE
8
BLACK
6
CONTINUOUS
10
140.266
20
-62.0315
11
139.936
21
-62.2009
0
LINE
8
BLACK
6
CONTINUOUS
10
139.936
20
-62.2009
11
139.592
21
-62.3385
0
LINE
8
BLACK
6
CONTINUOUS
10
139.592
20
-62.3385
11
139.236
21
-62.4431
0
LINE
8
BLACK
6
CONTINUOUS
10
139.236
20
-62.4431
11
138.872
21
-62.5138
0
LINE
8
BLACK
6
CONTINUOUS
10
138.872
20
-62.5138
11
138.503
21
-62.55
0
LINE
8
BLACK
6
CONTINUOUS
10
138.503
20
-62.55
11
138.503
21
-62.5499
0
LINE
8
BLACK
6
CONTINUOUS
10
138.503
20
-62.5499
11
138.502
21
-62.5499
0
LINE
8
BLACK
6
CONTINUOUS
10
138.502
20
-62.5499
11
138.502
21
-62.5499
0
LINE
8
BLACK
6
CONTINUOUS
10
138.502
20
-62.5499
11
122.527
21
-63.2999
0
LINE
8
BLACK
6
CONTINUOUS
10
122.527
20
-63.2999
11
122.52
21
-63.2974
0
LINE
8
BLACK
6
CONTINUOUS
10
122.52
20
-63.2974
11
122.278
21
-63.344
0
LINE
8
BLACK
6
CONTINUOUS
10
122.278
20
-63.344
11
122.033
21
-63.4253
0
LINE
8
BLACK
6
CONTINUOUS
10
122.033
20
-63.4253
11
121.801
21
-63.5377
0
LINE
8
BLACK
6
CONTINUOUS
10
121.801
20
-63.5377
11
121.586
21
-63.6795
0
LINE
8
BLACK
6
CONTINUOUS
10
121.586
20
-63.6795
11
121.391
21
-63.8481
0
LINE
8
BLACK
6
CONTINUOUS
10
121.391
20
-63.8481
11
121.22
21
-64.0407
0
LINE
8
BLACK
6
CONTINUOUS
10
121.22
20
-64.0407
11
121.076
21
-64.254
0
LINE
8
BLACK
6
CONTINUOUS
10
121.076
20
-64.254
11
120.96
21
-64.4843
0
LINE
8
BLACK
6
CONTINUOUS
10
120.96
20
-64.4843
11
120.876
21
-64.7277
0
LINE
8
BLACK
6
CONTINUOUS
10
120.876
20
-64.7277
11
120.824
21
-64.9801
0
LINE
8
BLACK
6
CONTINUOUS
10
120.824
20
-64.9801
11
120.805
21
-65.2371
0
LINE
8
BLACK
6
CONTINUOUS
10
120.805
20
-65.2371
11
120.82
21
-65.4855
0
LINE
8
BLACK
6
CONTINUOUS
10
120.82
20
-65.4855
11
120.825
21
-65.4938
0
LINE
8
BLACK
6
CONTINUOUS
10
120.825
20
-65.4938
11
120.824
21
-65.495
0
LINE
8
BLACK
6
CONTINUOUS
10
120.824
20
-65.495
11
120.825
21
-65.4962
0
LINE
8
BLACK
6
CONTINUOUS
10
120.825
20
-65.4962
11
121.7
21
-76.8712
0
LINE
8
BLACK
6
CONTINUOUS
10
121.7
20
-76.8712
11
121.7
21
-76.8718
0
LINE
8
BLACK
6
CONTINUOUS
10
121.7
20
-76.8718
11
121.7
21
-76.8724
0
LINE
8
BLACK
6
CONTINUOUS
10
121.7
20
-76.8724
11
121.7
21
-76.8724
0
LINE
8
BLACK
6
CONTINUOUS
10
121.7
20
-76.8724
11
121.722
21
-77.669
0
LINE
8
BLACK
6
CONTINUOUS
10
121.722
20
-77.669
11
121.706
21
-78.4658
0
LINE
8
BLACK
6
CONTINUOUS
10
121.706
20
-78.4658
11
121.653
21
-79.2608
0
LINE
8
BLACK
6
CONTINUOUS
10
121.653
20
-79.2608
11
121.561
21
-80.0525
0
LINE
8
BLACK
6
CONTINUOUS
10
121.561
20
-80.0525
11
121.433
21
-80.839
0
LINE
8
BLACK
6
CONTINUOUS
10
121.433
20
-80.839
11
121.267
21
-81.6185
0
LINE
8
BLACK
6
CONTINUOUS
10
121.267
20
-81.6185
11
121.065
21
-82.3893
0
LINE
8
BLACK
6
CONTINUOUS
10
121.065
20
-82.3893
11
120.827
21
-83.1496
0
LINE
8
BLACK
6
CONTINUOUS
10
120.827
20
-83.1496
11
120.553
21
-83.8979
0
LINE
8
BLACK
6
CONTINUOUS
10
120.553
20
-83.8979
11
120.243
21
-84.6323
0
LINE
8
BLACK
6
CONTINUOUS
10
120.243
20
-84.6323
11
119.9
21
-85.3513
0
LINE
8
BLACK
6
CONTINUOUS
10
119.9
20
-85.3513
11
119.522
21
-86.0532
0
LINE
8
BLACK
6
CONTINUOUS
10
119.522
20
-86.0532
11
119.112
21
-86.7364
0
LINE
8
BLACK
6
CONTINUOUS
10
119.112
20
-86.7364
11
118.67
21
-87.3995
0
LINE
8
BLACK
6
CONTINUOUS
10
118.67
20
-87.3995
11
118.197
21
-88.0409
0
LINE
8
BLACK
6
CONTINUOUS
10
118.197
20
-88.0409
11
117.695
21
-88.6592
0
LINE
8
BLACK
6
CONTINUOUS
10
117.695
20
-88.6592
11
117.163
21
-89.2531
0
LINE
8
BLACK
6
CONTINUOUS
10
117.163
20
-89.2531
11
116.604
21
-89.8211
0
LINE
8
BLACK
6
CONTINUOUS
10
116.604
20
-89.8211
11
116.019
21
-90.362
0
LINE
8
BLACK
6
CONTINUOUS
10
116.019
20
-90.362
11
115.409
21
-90.8747
0
LINE
8
BLACK
6
CONTINUOUS
10
115.409
20
-90.8747
11
114.775
21
-91.3579
0
LINE
8
BLACK
6
CONTINUOUS
10
114.775
20
-91.3579
11
114.12
21
-91.8106
0
LINE
8
BLACK
6
CONTINUOUS
10
114.12
20
-91.8106
11
113.443
21
-92.2317
0
LINE
8
BLACK
6
CONTINUOUS
10
113.443
20
-92.2317
11
112.747
21
-92.6203
0
LINE
8
BLACK
6
CONTINUOUS
10
112.747
20
-92.6203
11
112.034
21
-92.9756
0
LINE
8
BLACK
6
CONTINUOUS
10
112.034
20
-92.9756
11
111.305
21
-93.2968
0
LINE
8
BLACK
6
CONTINUOUS
10
111.305
20
-93.2968
11
110.561
21
-93.583
0
LINE
8
BLACK
6
CONTINUOUS
10
110.561
20
-93.583
11
109.805
21
-93.8338
0
LINE
8
BLACK
6
CONTINUOUS
10
109.805
20
-93.8338
11
109.037
21
-94.0485
0
LINE
8
BLACK
6
CONTINUOUS
10
109.037
20
-94.0485
11
109.037
21
-94.0485
0
LINE
8
BLACK
6
CONTINUOUS
10
109.037
20
-94.0485
11
109.036
21
-94.0483
0
LINE
8
BLACK
6
CONTINUOUS
10
109.036
20
-94.0483
11
109.035
21
-94.0489
0
LINE
8
BLACK
6
CONTINUOUS
10
109.035
20
-94.0489
11
85.5354
21
-99.0489
0
LINE
8
BLACK
6
CONTINUOUS
10
85.5354
20
-99.0489
11
85.5268
21
-99.0473
0
LINE
8
BLACK
6
CONTINUOUS
10
85.5268
20
-99.0473
11
85.285
21
-99.1249
0
LINE
8
BLACK
6
CONTINUOUS
10
85.285
20
-99.1249
11
85.0466
21
-99.2375
0
LINE
8
BLACK
6
CONTINUOUS
10
85.0466
20
-99.2375
11
84.8249
21
-99.3803
0
LINE
8
BLACK
6
CONTINUOUS
10
84.8249
20
-99.3803
11
84.6237
21
-99.5508
0
LINE
8
BLACK
6
CONTINUOUS
10
84.6237
20
-99.5508
11
84.4466
21
-99.7461
0
LINE
8
BLACK
6
CONTINUOUS
10
84.4466
20
-99.7461
11
84.2964
21
-99.9628
0
LINE
8
BLACK
6
CONTINUOUS
10
84.2964
20
-99.9628
11
84.1758
21
-100.197
0
LINE
8
BLACK
6
CONTINUOUS
10
84.1758
20
-100.197
11
84.0869
21
-100.446
0
LINE
8
BLACK
6
CONTINUOUS
10
84.0869
20
-100.446
11
84.0311
21
-100.703
0
LINE
8
BLACK
6
CONTINUOUS
10
84.0311
20
-100.703
11
84.0094
21
-100.966
0
LINE
8
BLACK
6
CONTINUOUS
10
84.0094
20
-100.966
11
84.0222
21
-101.229
0
LINE
8
BLACK
6
CONTINUOUS
10
84.0222
20
-101.229
11
84.0677
21
-101.48
0
LINE
8
BLACK
6
CONTINUOUS
10
84.0677
20
-101.48
11
84.0735
21
-101.488
0
LINE
8
BLACK
6
CONTINUOUS
10
84.0735
20
-101.488
11
84.0734
21
-101.489
0
LINE
8
BLACK
6
CONTINUOUS
10
84.0734
20
-101.489
11
84.0739
21
-101.49
0
LINE
8
BLACK
6
CONTINUOUS
10
84.0739
20
-101.49
11
87.5739
21
-118.24
0
LINE
8
BLACK
6
CONTINUOUS
10
87.5739
20
-118.24
11
87.5723
21
-118.248
0
LINE
8
BLACK
6
CONTINUOUS
10
87.5723
20
-118.248
11
87.6499
21
-118.49
0
LINE
8
BLACK
6
CONTINUOUS
10
87.6499
20
-118.49
11
87.7625
21
-118.728
0
LINE
8
BLACK
6
CONTINUOUS
10
87.7625
20
-118.728
11
87.9053
21
-118.95
0
LINE
8
BLACK
6
CONTINUOUS
10
87.9053
20
-118.95
11
88.0758
21
-119.151
0
LINE
8
BLACK
6
CONTINUOUS
10
88.0758
20
-119.151
11
88.2711
21
-119.328
0
LINE
8
BLACK
6
CONTINUOUS
10
88.2711
20
-119.328
11
88.4878
21
-119.479
0
LINE
8
BLACK
6
CONTINUOUS
10
88.4878
20
-119.479
11
88.7223
21
-119.599
0
LINE
8
BLACK
6
CONTINUOUS
10
88.7223
20
-119.599
11
88.9706
21
-119.688
0
LINE
8
BLACK
6
CONTINUOUS
10
88.9706
20
-119.688
11
89.2283
21
-119.744
0
LINE
8
BLACK
6
CONTINUOUS
10
89.2283
20
-119.744
11
89.4911
21
-119.766
0
LINE
8
BLACK
6
CONTINUOUS
10
89.4911
20
-119.766
11
89.7545
21
-119.753
0
LINE
8
BLACK
6
CONTINUOUS
10
89.7545
20
-119.753
11
90.005
21
-119.707
0
LINE
8
BLACK
6
CONTINUOUS
10
90.005
20
-119.707
11
90.0129
21
-119.701
0
LINE
8
BLACK
6
CONTINUOUS
10
90.0129
20
-119.701
11
90.0133
21
-119.702
0
LINE
8
BLACK
6
CONTINUOUS
10
90.0133
20
-119.702
11
90.0137
21
-119.701
0
LINE
8
BLACK
6
CONTINUOUS
10
90.0137
20
-119.701
11
90.7558
21
-119.548
0
LINE
8
BLACK
6
CONTINUOUS
10
90.7558
20
-119.548
11
91.5044
21
-119.431
0
LINE
8
BLACK
6
CONTINUOUS
10
91.5044
20
-119.431
11
92.2578
21
-119.349
0
LINE
8
BLACK
6
CONTINUOUS
10
92.2578
20
-119.349
11
93.0142
21
-119.304
0
LINE
8
BLACK
6
CONTINUOUS
10
93.0142
20
-119.304
11
93.7719
21
-119.295
0
LINE
8
BLACK
6
CONTINUOUS
10
93.7719
20
-119.295
11
94.5292
21
-119.323
0
LINE
8
BLACK
6
CONTINUOUS
10
94.5292
20
-119.323
11
95.2842
21
-119.387
0
LINE
8
BLACK
6
CONTINUOUS
10
95.2842
20
-119.387
11
96.0353
21
-119.487
0
LINE
8
BLACK
6
CONTINUOUS
10
96.0353
20
-119.487
11
96.7808
21
-119.623
0
LINE
8
BLACK
6
CONTINUOUS
10
96.7808
20
-119.623
11
97.5189
21
-119.794
0
LINE
8
BLACK
6
CONTINUOUS
10
97.5189
20
-119.794
11
98.2479
21
-120.001
0
LINE
8
BLACK
6
CONTINUOUS
10
98.2479
20
-120.001
11
98.9661
21
-120.242
0
LINE
8
BLACK
6
CONTINUOUS
10
98.9661
20
-120.242
11
99.6719
21
-120.518
0
LINE
8
BLACK
6
CONTINUOUS
10
99.6719
20
-120.518
11
100.364
21
-120.827
0
LINE
8
BLACK
6
CONTINUOUS
10
100.364
20
-120.827
11
101.04
21
-121.17
0
LINE
8
BLACK
6
CONTINUOUS
10
101.04
20
-121.17
11
101.699
21
-121.544
0
LINE
8
BLACK
6
CONTINUOUS
10
101.699
20
-121.544
11
102.339
21
-121.949
0
LINE
8
BLACK
6
CONTINUOUS
10
102.339
20
-121.949
11
102.959
21
-122.385
0
LINE
8
BLACK
6
CONTINUOUS
10
102.959
20
-122.385
11
103.557
21
-122.849
0
LINE
8
BLACK
6
CONTINUOUS
10
103.557
20
-122.849
11
104.133
21
-123.343
0
LINE
8
BLACK
6
CONTINUOUS
10
104.133
20
-123.343
11
104.684
21
-123.863
0
LINE
8
BLACK
6
CONTINUOUS
10
104.684
20
-123.863
11
105.21
21
-124.409
0
LINE
8
BLACK
6
CONTINUOUS
10
105.21
20
-124.409
11
105.708
21
-124.979
0
LINE
8
BLACK
6
CONTINUOUS
10
105.708
20
-124.979
11
106.179
21
-125.573
0
LINE
8
BLACK
6
CONTINUOUS
10
106.179
20
-125.573
11
106.621
21
-126.189
0
LINE
8
BLACK
6
CONTINUOUS
10
106.621
20
-126.189
11
107.032
21
-126.825
0
LINE
8
BLACK
6
CONTINUOUS
10
107.032
20
-126.825
11
107.413
21
-127.48
0
LINE
8
BLACK
6
CONTINUOUS
10
107.413
20
-127.48
11
107.762
21
-128.153
0
LINE
8
BLACK
6
CONTINUOUS
10
107.762
20
-128.153
11
108.078
21
-128.841
0
LINE
8
BLACK
6
CONTINUOUS
10
108.078
20
-128.841
11
108.361
21
-129.544
0
LINE
8
BLACK
6
CONTINUOUS
10
108.361
20
-129.544
11
108.609
21
-130.26
0
LINE
8
BLACK
6
CONTINUOUS
10
108.609
20
-130.26
11
108.823
21
-130.987
0
LINE
8
BLACK
6
CONTINUOUS
10
108.823
20
-130.987
11
108.823
21
-130.987
0
LINE
8
BLACK
6
CONTINUOUS
10
108.823
20
-130.987
11
108.823
21
-130.987
0
LINE
8
BLACK
6
CONTINUOUS
10
108.823
20
-130.987
11
108.824
21
-130.988
0
LINE
8
BLACK
6
CONTINUOUS
10
108.824
20
-130.988
11
108.822
21
-130.998
0
LINE
8
BLACK
6
CONTINUOUS
10
108.822
20
-130.998
11
108.9
21
-131.24
0
LINE
8
BLACK
6
CONTINUOUS
10
108.9
20
-131.24
11
109.012
21
-131.478
0
LINE
8
BLACK
6
CONTINUOUS
10
109.012
20
-131.478
11
109.155
21
-131.7
0
LINE
8
BLACK
6
CONTINUOUS
10
109.155
20
-131.7
11
109.326
21
-131.901
0
LINE
8
BLACK
6
CONTINUOUS
10
109.326
20
-131.901
11
109.521
21
-132.078
0
LINE
8
BLACK
6
CONTINUOUS
10
109.521
20
-132.078
11
109.738
21
-132.229
0
LINE
8
BLACK
6
CONTINUOUS
10
109.738
20
-132.229
11
109.972
21
-132.349
0
LINE
8
BLACK
6
CONTINUOUS
10
109.972
20
-132.349
11
110.221
21
-132.438
0
LINE
8
BLACK
6
CONTINUOUS
10
110.221
20
-132.438
11
110.478
21
-132.494
0
LINE
8
BLACK
6
CONTINUOUS
10
110.478
20
-132.494
11
110.741
21
-132.516
0
LINE
8
BLACK
6
CONTINUOUS
10
110.741
20
-132.516
11
111.004
21
-132.503
0
LINE
8
BLACK
6
CONTINUOUS
10
111.004
20
-132.503
11
111.255
21
-132.457
0
LINE
8
BLACK
6
CONTINUOUS
10
111.255
20
-132.457
11
111.263
21
-132.451
0
LINE
8
BLACK
6
CONTINUOUS
10
111.263
20
-132.451
11
111.264
21
-132.452
0
LINE
8
BLACK
6
CONTINUOUS
10
111.264
20
-132.452
11
111.265
21
-132.451
0
LINE
8
BLACK
6
CONTINUOUS
10
111.265
20
-132.451
11
128.765
21
-128.701
0
LINE
8
BLACK
6
CONTINUOUS
10
128.765
20
-128.701
11
128.77
21
-128.702
0
LINE
8
BLACK
6
CONTINUOUS
10
128.77
20
-128.702
11
129.021
21
-128.604
0
LINE
8
BLACK
6
CONTINUOUS
10
129.021
20
-128.604
11
129.27
21
-128.475
0
LINE
8
BLACK
6
CONTINUOUS
10
129.27
20
-128.475
11
129.505
21
-128.322
0
LINE
8
BLACK
6
CONTINUOUS
10
129.505
20
-128.322
11
129.722
21
-128.145
0
LINE
8
BLACK
6
CONTINUOUS
10
129.722
20
-128.145
11
129.92
21
-127.947
0
LINE
8
BLACK
6
CONTINUOUS
10
129.92
20
-127.947
11
130.097
21
-127.73
0
LINE
8
BLACK
6
CONTINUOUS
10
130.097
20
-127.73
11
130.25
21
-127.495
0
LINE
8
BLACK
6
CONTINUOUS
10
130.25
20
-127.495
11
130.379
21
-127.246
0
LINE
8
BLACK
6
CONTINUOUS
10
130.379
20
-127.246
11
130.478
21
-126.993
0
LINE
8
BLACK
6
CONTINUOUS
10
130.478
20
-126.993
11
130.478
21
-126.984
0
LINE
8
BLACK
6
CONTINUOUS
10
130.478
20
-126.984
11
130.48
21
-126.981
0
LINE
8
BLACK
6
CONTINUOUS
10
130.48
20
-126.981
11
130.481
21
-126.976
0
LINE
8
BLACK
6
CONTINUOUS
10
130.481
20
-126.976
11
130.913
21
-126.207
0
LINE
8
BLACK
6
CONTINUOUS
10
130.913
20
-126.207
11
131.379
21
-125.457
0
LINE
8
BLACK
6
CONTINUOUS
10
131.379
20
-125.457
11
131.877
21
-124.729
0
LINE
8
BLACK
6
CONTINUOUS
10
131.877
20
-124.729
11
132.406
21
-124.022
0
LINE
8
BLACK
6
CONTINUOUS
10
132.406
20
-124.022
11
132.966
21
-123.34
0
LINE
8
BLACK
6
CONTINUOUS
10
132.966
20
-123.34
11
133.555
21
-122.682
0
LINE
8
BLACK
6
CONTINUOUS
10
133.555
20
-122.682
11
134.172
21
-122.051
0
LINE
8
BLACK
6
CONTINUOUS
10
134.172
20
-122.051
11
134.816
21
-121.448
0
LINE
8
BLACK
6
CONTINUOUS
10
134.816
20
-121.448
11
135.485
21
-120.873
0
LINE
8
BLACK
6
CONTINUOUS
10
135.485
20
-120.873
11
136.179
21
-120.327
0
LINE
8
BLACK
6
CONTINUOUS
10
136.179
20
-120.327
11
136.897
21
-119.813
0
LINE
8
BLACK
6
CONTINUOUS
10
136.897
20
-119.813
11
137.636
21
-119.33
0
LINE
8
BLACK
6
CONTINUOUS
10
137.636
20
-119.33
11
138.395
21
-118.88
0
LINE
8
BLACK
6
CONTINUOUS
10
138.395
20
-118.88
11
139.173
21
-118.464
0
LINE
8
BLACK
6
CONTINUOUS
10
139.173
20
-118.464
11
139.969
21
-118.082
0
LINE
8
BLACK
6
CONTINUOUS
10
139.969
20
-118.082
11
140.78
21
-117.735
0
LINE
8
BLACK
6
CONTINUOUS
10
140.78
20
-117.735
11
141.606
21
-117.424
0
LINE
8
BLACK
6
CONTINUOUS
10
141.606
20
-117.424
11
142.445
21
-117.149
0
LINE
8
BLACK
6
CONTINUOUS
10
142.445
20
-117.149
11
143.295
21
-116.911
0
LINE
8
BLACK
6
CONTINUOUS
10
143.295
20
-116.911
11
144.154
21
-116.71
0
LINE
8
BLACK
6
CONTINUOUS
10
144.154
20
-116.71
11
145.022
21
-116.547
0
LINE
8
BLACK
6
CONTINUOUS
10
145.022
20
-116.547
11
145.895
21
-116.422
0
LINE
8
BLACK
6
CONTINUOUS
10
145.895
20
-116.422
11
146.774
21
-116.335
0
LINE
8
BLACK
6
CONTINUOUS
10
146.774
20
-116.335
11
147.655
21
-116.286
0
LINE
8
BLACK
6
CONTINUOUS
10
147.655
20
-116.286
11
148.537
21
-116.276
0
LINE
8
BLACK
6
CONTINUOUS
10
148.537
20
-116.276
11
149.42
21
-116.305
0
LINE
8
BLACK
6
CONTINUOUS
10
149.42
20
-116.305
11
150.3
21
-116.372
0
LINE
8
BLACK
6
CONTINUOUS
10
150.3
20
-116.372
11
151.176
21
-116.477
0
LINE
8
BLACK
6
CONTINUOUS
10
151.176
20
-116.477
11
152.047
21
-116.621
0
LINE
8
BLACK
6
CONTINUOUS
10
152.047
20
-116.621
11
152.911
21
-116.802
0
LINE
8
BLACK
6
CONTINUOUS
10
152.911
20
-116.802
11
153.766
21
-117.021
0
LINE
8
BLACK
6
CONTINUOUS
10
153.766
20
-117.021
11
154.61
21
-117.277
0
LINE
8
BLACK
6
CONTINUOUS
10
154.61
20
-117.277
11
155.443
21
-117.569
0
LINE
8
BLACK
6
CONTINUOUS
10
155.443
20
-117.569
11
156.262
21
-117.898
0
LINE
8
BLACK
6
CONTINUOUS
10
156.262
20
-117.898
11
157.066
21
-118.262
0
LINE
8
BLACK
6
CONTINUOUS
10
157.066
20
-118.262
11
157.854
21
-118.661
0
LINE
8
BLACK
6
CONTINUOUS
10
157.854
20
-118.661
11
158.623
21
-119.093
0
LINE
8
BLACK
6
CONTINUOUS
10
158.623
20
-119.093
11
159.373
21
-119.559
0
LINE
8
BLACK
6
CONTINUOUS
10
159.373
20
-119.559
11
160.101
21
-120.057
0
LINE
8
BLACK
6
CONTINUOUS
10
160.101
20
-120.057
11
160.808
21
-120.587
0
LINE
8
BLACK
6
CONTINUOUS
10
160.808
20
-120.587
11
161.49
21
-121.146
0
LINE
8
BLACK
6
CONTINUOUS
10
161.49
20
-121.146
11
162.147
21
-121.735
0
LINE
8
BLACK
6
CONTINUOUS
10
162.147
20
-121.735
11
162.778
21
-122.352
0
LINE
8
BLACK
6
CONTINUOUS
10
162.778
20
-122.352
11
163.382
21
-122.996
0
LINE
8
BLACK
6
CONTINUOUS
10
163.382
20
-122.996
11
163.957
21
-123.666
0
LINE
8
BLACK
6
CONTINUOUS
10
163.957
20
-123.666
11
164.502
21
-124.36
0
LINE
8
BLACK
6
CONTINUOUS
10
164.502
20
-124.36
11
165.016
21
-125.078
0
LINE
8
BLACK
6
CONTINUOUS
10
165.016
20
-125.078
11
165.499
21
-125.817
0
LINE
8
BLACK
6
CONTINUOUS
10
165.499
20
-125.817
11
165.949
21
-126.576
0
LINE
8
BLACK
6
CONTINUOUS
10
165.949
20
-126.576
11
166.365
21
-127.354
0
LINE
8
BLACK
6
CONTINUOUS
10
166.365
20
-127.354
11
166.747
21
-128.15
0
LINE
8
BLACK
6
CONTINUOUS
10
166.747
20
-128.15
11
167.094
21
-128.962
0
LINE
8
BLACK
6
CONTINUOUS
10
167.094
20
-128.962
11
167.405
21
-129.787
0
LINE
8
BLACK
6
CONTINUOUS
10
167.405
20
-129.787
11
167.679
21
-130.626
0
LINE
8
BLACK
6
CONTINUOUS
10
167.679
20
-130.626
11
167.917
21
-131.476
0
LINE
8
BLACK
6
CONTINUOUS
10
167.917
20
-131.476
11
168.118
21
-132.336
0
LINE
8
BLACK
6
CONTINUOUS
10
168.118
20
-132.336
11
168.118
21
-132.336
0
LINE
8
BLACK
6
CONTINUOUS
10
168.118
20
-132.336
11
169.324
21
-137.99
0
LINE
8
BLACK
6
CONTINUOUS
10
169.324
20
-137.99
11
169.322
21
-137.998
0
LINE
8
BLACK
6
CONTINUOUS
10
169.322
20
-137.998
11
169.4
21
-138.24
0
LINE
8
BLACK
6
CONTINUOUS
10
169.4
20
-138.24
11
169.512
21
-138.478
0
LINE
8
BLACK
6
CONTINUOUS
10
169.512
20
-138.478
11
169.655
21
-138.7
0
LINE
8
BLACK
6
CONTINUOUS
10
169.655
20
-138.7
11
169.826
21
-138.901
0
LINE
8
BLACK
6
CONTINUOUS
10
169.826
20
-138.901
11
170.021
21
-139.078
0
LINE
8
BLACK
6
CONTINUOUS
10
170.021
20
-139.078
11
170.238
21
-139.229
0
LINE
8
BLACK
6
CONTINUOUS
10
170.238
20
-139.229
11
170.472
21
-139.349
0
LINE
8
BLACK
6
CONTINUOUS
10
170.472
20
-139.349
11
170.721
21
-139.438
0
LINE
8
BLACK
6
CONTINUOUS
10
170.721
20
-139.438
11
170.978
21
-139.494
0
LINE
8
BLACK
6
CONTINUOUS
10
170.978
20
-139.494
11
171.241
21
-139.516
0
LINE
8
BLACK
6
CONTINUOUS
10
171.241
20
-139.516
11
171.504
21
-139.503
0
LINE
8
BLACK
6
CONTINUOUS
10
171.504
20
-139.503
11
171.755
21
-139.457
0
LINE
8
BLACK
6
CONTINUOUS
10
171.755
20
-139.457
11
171.763
21
-139.451
0
LINE
8
BLACK
6
CONTINUOUS
10
171.763
20
-139.451
11
171.764
21
-139.452
0
LINE
8
BLACK
6
CONTINUOUS
10
171.764
20
-139.452
11
171.765
21
-139.451
0
LINE
8
BLACK
6
CONTINUOUS
10
171.765
20
-139.451
11
184.74
21
-136.701
0
LINE
8
BLACK
6
CONTINUOUS
10
184.74
20
-136.701
11
184.74
21
-136.701
0
LINE
8
BLACK
6
CONTINUOUS
10
184.74
20
-136.701
11
184.74
21
-136.701
0
LINE
8
BLACK
6
CONTINUOUS
10
184.74
20
-136.701
11
185.916
21
-136.479
0
LINE
8
BLACK
6
CONTINUOUS
10
185.916
20
-136.479
11
187.097
21
-136.284
0
LINE
8
BLACK
6
CONTINUOUS
10
187.097
20
-136.284
11
188.283
21
-136.117
0
LINE
8
BLACK
6
CONTINUOUS
10
188.283
20
-136.117
11
189.471
21
-135.978
0
LINE
8
BLACK
6
CONTINUOUS
10
189.471
20
-135.978
11
190.663
21
-135.867
0
LINE
8
BLACK
6
CONTINUOUS
10
190.663
20
-135.867
11
191.857
21
-135.783
0
LINE
8
BLACK
6
CONTINUOUS
10
191.857
20
-135.783
11
193.053
21
-135.728
0
LINE
8
BLACK
6
CONTINUOUS
10
193.053
20
-135.728
11
194.249
21
-135.7
0
LINE
8
BLACK
6
CONTINUOUS
10
194.249
20
-135.7
11
194.249
21
-135.7
0
LINE
8
BLACK
6
CONTINUOUS
10
194.249
20
-135.7
11
194.25
21
-135.7
0
LINE
8
BLACK
6
CONTINUOUS
10
194.25
20
-135.7
11
194.25
21
-135.7
0
LINE
8
BLACK
6
CONTINUOUS
10
194.25
20
-135.7
11
207.275
21
-135.7
0
LINE
8
BLACK
6
CONTINUOUS
10
207.275
20
-135.7
11
207.284
21
-135.704
0
LINE
8
BLACK
6
CONTINUOUS
10
207.284
20
-135.704
11
207.53
21
-135.687
0
LINE
8
BLACK
6
CONTINUOUS
10
207.53
20
-135.687
11
207.781
21
-135.638
0
LINE
8
BLACK
6
CONTINUOUS
10
207.781
20
-135.638
11
208.023
21
-135.555
0
LINE
8
BLACK
6
CONTINUOUS
10
208.023
20
-135.555
11
208.252
21
-135.442
0
LINE
8
BLACK
6
CONTINUOUS
10
208.252
20
-135.442
11
208.465
21
-135.3
0
LINE
8
BLACK
6
CONTINUOUS
10
208.465
20
-135.3
11
208.657
21
-135.132
0
LINE
8
BLACK
6
CONTINUOUS
10
208.657
20
-135.132
11
208.825
21
-134.94
0
LINE
8
BLACK
6
CONTINUOUS
10
208.825
20
-134.94
11
208.967
21
-134.727
0
LINE
8
BLACK
6
CONTINUOUS
10
208.967
20
-134.727
11
209.08
21
-134.498
0
LINE
8
BLACK
6
CONTINUOUS
10
209.08
20
-134.498
11
209.163
21
-134.256
0
LINE
8
BLACK
6
CONTINUOUS
10
209.163
20
-134.256
11
209.212
21
-134.005
0
LINE
8
BLACK
6
CONTINUOUS
10
209.212
20
-134.005
11
209.229
21
-133.759
0
LINE
8
BLACK
6
CONTINUOUS
10
209.229
20
-133.759
11
209.225
21
-133.75
0
LINE
8
BLACK
6
CONTINUOUS
10
209.225
20
-133.75
11
209.225
21
-116.75
0
LINE
8
BLACK
6
CONTINUOUS
10
209.225
20
-116.75
11
209.229
21
-116.741
0
LINE
8
BLACK
6
CONTINUOUS
10
209.229
20
-116.741
11
209.212
21
-116.495
0
LINE
8
BLACK
6
CONTINUOUS
10
209.212
20
-116.495
11
209.163
21
-116.244
0
LINE
8
BLACK
6
CONTINUOUS
10
209.163
20
-116.244
11
209.08
21
-116.002
0
LINE
8
BLACK
6
CONTINUOUS
10
209.08
20
-116.002
11
208.967
21
-115.773
0
LINE
8
BLACK
6
CONTINUOUS
10
208.967
20
-115.773
11
208.825
21
-115.56
0
LINE
8
BLACK
6
CONTINUOUS
10
208.825
20
-115.56
11
208.657
21
-115.368
0
LINE
8
BLACK
6
CONTINUOUS
10
208.657
20
-115.368
11
208.465
21
-115.2
0
LINE
8
BLACK
6
CONTINUOUS
10
208.465
20
-115.2
11
208.252
21
-115.058
0
LINE
8
BLACK
6
CONTINUOUS
10
208.252
20
-115.058
11
208.023
21
-114.945
0
LINE
8
BLACK
6
CONTINUOUS
10
208.023
20
-114.945
11
207.781
21
-114.862
0
LINE
8
BLACK
6
CONTINUOUS
10
207.781
20
-114.862
11
207.53
21
-114.813
0
LINE
8
BLACK
6
CONTINUOUS
10
207.53
20
-114.813
11
207.284
21
-114.796
0
LINE
8
BLACK
6
CONTINUOUS
10
207.284
20
-114.796
11
207.275
21
-114.8
0
LINE
8
BLACK
6
CONTINUOUS
10
207.275
20
-114.8
11
202.275
21
-114.8
0
LINE
8
BLACK
6
CONTINUOUS
10
202.275
20
-114.8
11
202.007
21
-114.782
0
LINE
8
BLACK
6
CONTINUOUS
10
202.007
20
-114.782
11
201.744
21
-114.73
0
LINE
8
BLACK
6
CONTINUOUS
10
201.744
20
-114.73
11
201.49
21
-114.644
0
LINE
8
BLACK
6
CONTINUOUS
10
201.49
20
-114.644
11
201.25
21
-114.525
0
LINE
8
BLACK
6
CONTINUOUS
10
201.25
20
-114.525
11
201.027
21
-114.376
0
LINE
8
BLACK
6
CONTINUOUS
10
201.027
20
-114.376
11
200.825
21
-114.2
0
LINE
8
BLACK
6
CONTINUOUS
10
200.825
20
-114.2
11
200.649
21
-113.998
0
LINE
8
BLACK
6
CONTINUOUS
10
200.649
20
-113.998
11
200.5
21
-113.775
0
LINE
8
BLACK
6
CONTINUOUS
10
200.5
20
-113.775
11
200.381
21
-113.535
0
LINE
8
BLACK
6
CONTINUOUS
10
200.381
20
-113.535
11
200.295
21
-113.281
0
LINE
8
BLACK
6
CONTINUOUS
10
200.295
20
-113.281
11
200.243
21
-113.018
0
LINE
8
BLACK
6
CONTINUOUS
10
200.243
20
-113.018
11
200.225
21
-112.75
0
LINE
8
BLACK
6
CONTINUOUS
10
200.225
20
-112.75
11
200.225
21
-112.75
0
LINE
8
BLACK
6
CONTINUOUS
10
200.225
20
-112.75
11
200.225
21
-65.75
0
LINE
8
BLACK
6
CONTINUOUS
10
200.225
20
-65.75
11
200.229
21
-65.7413
0
LINE
8
BLACK
6
CONTINUOUS
10
200.229
20
-65.7413
11
200.212
21
-65.4949
0
LINE
8
BLACK
6
CONTINUOUS
10
200.212
20
-65.4949
11
200.163
21
-65.2442
0
LINE
8
BLACK
6
CONTINUOUS
10
200.163
20
-65.2442
11
200.08
21
-65.0022
0
LINE
8
BLACK
6
CONTINUOUS
10
200.08
20
-65.0022
11
199.967
21
-64.7729
0
LINE
8
BLACK
6
CONTINUOUS
10
199.967
20
-64.7729
11
199.825
21
-64.5604
0
LINE
8
BLACK
6
CONTINUOUS
10
199.825
20
-64.5604
11
199.657
21
-64.3682
0
LINE
8
BLACK
6
CONTINUOUS
10
199.657
20
-64.3682
11
199.465
21
-64.1996
0
LINE
8
BLACK
6
CONTINUOUS
10
199.465
20
-64.1996
11
199.252
21
-64.0576
0
LINE
8
BLACK
6
CONTINUOUS
10
199.252
20
-64.0576
11
199.023
21
-63.9446
0
LINE
8
BLACK
6
CONTINUOUS
10
199.023
20
-63.9446
11
198.781
21
-63.8624
0
LINE
8
BLACK
6
CONTINUOUS
10
198.781
20
-63.8624
11
198.53
21
-63.8125
0
LINE
8
BLACK
6
CONTINUOUS
10
198.53
20
-63.8125
11
198.284
21
-63.7964
0
LINE
8
BLACK
6
CONTINUOUS
10
198.284
20
-63.7964
11
198.275
21
-63.8
0
LINE
8
BLACK
6
CONTINUOUS
10
198.275
20
-63.8
11
183.775
21
-63.8
0
LINE
8
BLACK
6
CONTINUOUS
10
183.775
20
-63.8
11
183.505
21
-63.7827
0
LINE
8
BLACK
6
CONTINUOUS
10
183.505
20
-63.7827
11
183.239
21
-63.731
0
LINE
8
BLACK
6
CONTINUOUS
10
183.239
20
-63.731
11
182.983
21
-63.6458
0
LINE
8
BLACK
6
CONTINUOUS
10
182.983
20
-63.6458
11
182.739
21
-63.5285
0
LINE
8
BLACK
6
CONTINUOUS
10
182.739
20
-63.5285
11
182.512
21
-63.381
0
LINE
8
BLACK
6
CONTINUOUS
10
182.512
20
-63.381
11
182.306
21
-63.2057
0
LINE
8
BLACK
6
CONTINUOUS
10
182.306
20
-63.2057
11
182.124
21
-63.0055
0
LINE
8
BLACK
6
CONTINUOUS
10
182.124
20
-63.0055
11
181.969
21
-62.7837
0
LINE
8
BLACK
6
CONTINUOUS
10
181.969
20
-62.7837
11
181.969
21
-62.7837
0
LINE
8
BLACK
6
CONTINUOUS
10
181.969
20
-62.7837
11
181.969
21
-62.783
0
LINE
8
BLACK
6
CONTINUOUS
10
181.969
20
-62.783
11
181.968
21
-62.7825
0
LINE
8
BLACK
6
CONTINUOUS
10
181.968
20
-62.7825
11
181.967
21
-62.7732
0
LINE
8
BLACK
6
CONTINUOUS
10
181.967
20
-62.7732
11
181.83
21
-62.5664
0
LINE
8
BLACK
6
CONTINUOUS
10
181.83
20
-62.5664
11
181.661
21
-62.3728
0
LINE
8
BLACK
6
CONTINUOUS
10
181.661
20
-62.3728
11
181.469
21
-62.203
0
LINE
8
BLACK
6
CONTINUOUS
10
181.469
20
-62.203
11
181.256
21
-62.0598
0
LINE
8
BLACK
6
CONTINUOUS
10
181.256
20
-62.0598
11
181.026
21
-61.9458
0
LINE
8
BLACK
6
CONTINUOUS
10
181.026
20
-61.9458
11
180.783
21
-61.863
0
LINE
8
BLACK
6
CONTINUOUS
10
180.783
20
-61.863
11
180.531
21
-61.8127
0
LINE
8
BLACK
6
CONTINUOUS
10
180.531
20
-61.8127
11
180.284
21
-61.7964
0
LINE
8
BLACK
6
CONTINUOUS
10
180.284
20
-61.7964
11
180.275
21
-61.8
0
LINE
8
BLACK
6
CONTINUOUS
10
180.275
20
-61.8
11
166.275
21
-61.8
0
LINE
8
BLACK
6
CONTINUOUS
10
166.275
20
-61.8
11
166.007
21
-61.7825
0
LINE
8
BLACK
6
CONTINUOUS
10
166.007
20
-61.7825
11
165.744
21
-61.7301
0
LINE
8
BLACK
6
CONTINUOUS
10
165.744
20
-61.7301
11
165.49
21
-61.644
0
LINE
8
BLACK
6
CONTINUOUS
10
165.49
20
-61.644
11
165.25
21
-61.5254
0
LINE
8
BLACK
6
CONTINUOUS
10
165.25
20
-61.5254
11
165.027
21
-61.3764
0
LINE
8
BLACK
6
CONTINUOUS
10
165.027
20
-61.3764
11
164.825
21
-61.1996
0
LINE
8
BLACK
6
CONTINUOUS
10
164.825
20
-61.1996
11
164.649
21
-60.998
0
LINE
8
BLACK
6
CONTINUOUS
10
164.649
20
-60.998
11
164.5
21
-60.775
0
LINE
8
BLACK
6
CONTINUOUS
10
164.5
20
-60.775
11
164.381
21
-60.5345
0
LINE
8
BLACK
6
CONTINUOUS
10
164.381
20
-60.5345
11
164.295
21
-60.2806
0
LINE
8
BLACK
6
CONTINUOUS
10
164.295
20
-60.2806
11
164.243
21
-60.0176
0
LINE
8
BLACK
6
CONTINUOUS
10
164.243
20
-60.0176
11
164.225
21
-59.75
0
LINE
8
BLACK
6
CONTINUOUS
10
164.225
20
-59.75
11
164.225
21
-59.75
0
LINE
8
BLACK
6
CONTINUOUS
10
164.225
20
-59.75
11
164.225
21
-59.75
0
LINE
8
BLACK
6
CONTINUOUS
10
164.225
20
-59.75
11
164.229
21
-59.7413
0
LINE
8
BLACK
6
CONTINUOUS
10
164.229
20
-59.7413
11
164.212
21
-59.4949
0
LINE
8
BLACK
6
CONTINUOUS
10
164.212
20
-59.4949
11
164.163
21
-59.2442
0
LINE
8
BLACK
6
CONTINUOUS
10
164.163
20
-59.2442
11
164.08
21
-59.0022
0
LINE
8
BLACK
6
CONTINUOUS
10
164.08
20
-59.0022
11
163.967
21
-58.7729
0
LINE
8
BLACK
6
CONTINUOUS
10
163.967
20
-58.7729
11
163.825
21
-58.5604
0
LINE
8
BLACK
6
CONTINUOUS
10
163.825
20
-58.5604
11
163.657
21
-58.3682
0
LINE
8
BLACK
6
CONTINUOUS
10
163.657
20
-58.3682
11
163.465
21
-58.1996
0
LINE
8
BLACK
6
CONTINUOUS
10
163.465
20
-58.1996
11
163.252
21
-58.0576
0
LINE
8
BLACK
6
CONTINUOUS
10
163.252
20
-58.0576
11
163.023
21
-57.9446
0
LINE
8
BLACK
6
CONTINUOUS
10
163.023
20
-57.9446
11
162.781
21
-57.8624
0
LINE
8
BLACK
6
CONTINUOUS
10
162.781
20
-57.8624
11
162.53
21
-57.8125
0
LINE
8
BLACK
6
CONTINUOUS
10
162.53
20
-57.8125
11
162.284
21
-57.7964
0
LINE
8
BLACK
6
CONTINUOUS
10
162.284
20
-57.7964
11
162.275
21
-57.8
0
LINE
8
BLACK
6
CONTINUOUS
10
162.275
20
-57.8
11
144.275
21
-57.8
0
LINE
8
BLACK
6
CONTINUOUS
10
144.275
20
-57.8
11
144.266
21
-57.7964
  0
ENDSEC
  0
EOF
