  0
SECTION
  2
HEADER
  9
$ANGBASE
  50
0.0
  9
$ANGDIR
  70
1
  9
$MEASUREMENT
  70
1
  0
ENDSEC
  0
SECTION
  2
TABLES
  0
TABLE
  2
LTYPE
  70
4
  0
LTYPE
  5
40F
  2
CONTINUOUS
  70
0
  3
Solid line
  72
65
  73
0
  40
0.0
  0
LTYPE
  5
410
  2
DASHDOT
 70
0
  3
Dash Dot ____ _ ____ _
 72
65
 73
4
 40
2.0
 49
1.25
 49
-0.25
 49
0.25
 49
-0.25
  0
LTYPE
  5
411
  2
DASHED
 70
0
  3
Dashed __ __ __ __ __
 72
65
 73
2
 40
0.75
 49
0.5
 49
-0.25
  0
LTYPE
  5
43B
  2
DOTTED
 70
0
  3
Dotted .  .  .  .
 72
65
 73
2
 40
0.2
 49
0.0
 49
-0.2
  0
ENDTAB
  0
TABLE
  2
STYLE
  70
4
  0
STYLE
  2
KICAD
  70
0
  40
0
  41
1
  42
1
  50
0
  71
0
  3
isocp.shx
  0
STYLE
  2
KICADB
  70
0
  40
0
  41
1
  42
1
  50
0
  71
0
  3
isocp.shx
  0
STYLE
  2
KICADI
  70
0
  40
0
  41
1
  42
1
  50
15
  71
0
  3
isocp.shx
  0
STYLE
  2
KICADBI
  70
0
  40
0
  41
1
  42
1
  50
15
  71
0
  3
isocp.shx
  0
ENDTAB
  0
TABLE
  2
LAYER
  70
1
  0
LAYER
  2
BLACK
  70
0
  62
7
  6
CONTINUOUS
  0
ENDTAB
  0
ENDSEC
  0
SECTION
  2
ENTITIES
0
LINE
8
BLACK
6
CONTINUOUS
10
187.838
20
-117.275
11
188.113
21
-117.338
0
LINE
8
BLACK
6
CONTINUOUS
10
188.113
20
-117.338
11
188.377
21
-117.44
0
LINE
8
BLACK
6
CONTINUOUS
10
188.377
20
-117.44
11
188.623
21
-117.578
0
LINE
8
BLACK
6
CONTINUOUS
10
188.623
20
-117.578
11
188.848
21
-117.75
0
LINE
8
BLACK
6
CONTINUOUS
10
188.848
20
-117.75
11
189.046
21
-117.951
0
LINE
8
BLACK
6
CONTINUOUS
10
189.046
20
-117.951
11
189.214
21
-118.178
0
LINE
8
BLACK
6
CONTINUOUS
10
189.214
20
-118.178
11
189.348
21
-118.427
0
LINE
8
BLACK
6
CONTINUOUS
10
189.348
20
-118.427
11
189.446
21
-118.692
0
LINE
8
BLACK
6
CONTINUOUS
10
189.446
20
-118.692
11
189.505
21
-118.968
0
LINE
8
BLACK
6
CONTINUOUS
10
189.505
20
-118.968
11
189.525
21
-119.25
0
LINE
8
BLACK
6
CONTINUOUS
10
189.525
20
-119.25
11
189.521
21
-119.376
0
LINE
8
BLACK
6
CONTINUOUS
10
189.521
20
-119.376
11
189.483
21
-119.656
0
LINE
8
BLACK
6
CONTINUOUS
10
189.483
20
-119.656
11
189.407
21
-119.927
0
LINE
8
BLACK
6
CONTINUOUS
10
189.407
20
-119.927
11
189.293
21
-120.186
0
LINE
8
BLACK
6
CONTINUOUS
10
189.293
20
-120.186
11
189.143
21
-120.426
0
LINE
8
BLACK
6
CONTINUOUS
10
189.143
20
-120.426
11
188.961
21
-120.642
0
LINE
8
BLACK
6
CONTINUOUS
10
188.961
20
-120.642
11
188.751
21
-120.83
0
LINE
8
BLACK
6
CONTINUOUS
10
188.751
20
-120.83
11
188.516
21
-120.987
0
LINE
8
BLACK
6
CONTINUOUS
10
188.516
20
-120.987
11
188.261
21
-121.11
0
LINE
8
BLACK
6
CONTINUOUS
10
188.261
20
-121.11
11
187.992
21
-121.195
0
LINE
8
BLACK
6
CONTINUOUS
10
187.992
20
-121.195
11
187.713
21
-121.241
0
LINE
8
BLACK
6
CONTINUOUS
10
187.713
20
-121.241
11
187.431
21
-121.248
0
LINE
8
BLACK
6
CONTINUOUS
10
187.431
20
-121.248
11
187.15
21
-121.215
0
LINE
8
BLACK
6
CONTINUOUS
10
187.15
20
-121.215
11
186.877
21
-121.142
0
LINE
8
BLACK
6
CONTINUOUS
10
186.877
20
-121.142
11
186.617
21
-121.032
0
LINE
8
BLACK
6
CONTINUOUS
10
186.617
20
-121.032
11
186.375
21
-120.886
0
LINE
8
BLACK
6
CONTINUOUS
10
186.375
20
-120.886
11
186.156
21
-120.708
0
LINE
8
BLACK
6
CONTINUOUS
10
186.156
20
-120.708
11
185.964
21
-120.5
0
LINE
8
BLACK
6
CONTINUOUS
10
185.964
20
-120.5
11
185.804
21
-120.268
0
LINE
8
BLACK
6
CONTINUOUS
10
185.804
20
-120.268
11
185.677
21
-120.015
0
LINE
8
BLACK
6
CONTINUOUS
10
185.677
20
-120.015
11
185.588
21
-119.747
0
LINE
8
BLACK
6
CONTINUOUS
10
185.588
20
-119.747
11
185.537
21
-119.469
0
LINE
8
BLACK
6
CONTINUOUS
10
185.537
20
-119.469
11
185.526
21
-119.187
0
LINE
8
BLACK
6
CONTINUOUS
10
185.526
20
-119.187
11
185.555
21
-118.906
0
LINE
8
BLACK
6
CONTINUOUS
10
185.555
20
-118.906
11
185.623
21
-118.632
0
LINE
8
BLACK
6
CONTINUOUS
10
185.623
20
-118.632
11
185.729
21
-118.37
0
LINE
8
BLACK
6
CONTINUOUS
10
185.729
20
-118.37
11
185.871
21
-118.126
0
LINE
8
BLACK
6
CONTINUOUS
10
185.871
20
-118.126
11
186.046
21
-117.904
0
LINE
8
BLACK
6
CONTINUOUS
10
186.046
20
-117.904
11
186.25
21
-117.709
0
LINE
8
BLACK
6
CONTINUOUS
10
186.25
20
-117.709
11
186.48
21
-117.545
0
LINE
8
BLACK
6
CONTINUOUS
10
186.48
20
-117.545
11
186.731
21
-117.414
0
LINE
8
BLACK
6
CONTINUOUS
10
186.731
20
-117.414
11
186.997
21
-117.321
0
LINE
8
BLACK
6
CONTINUOUS
10
186.997
20
-117.321
11
187.274
21
-117.266
0
LINE
8
BLACK
6
CONTINUOUS
10
187.274
20
-117.266
11
187.556
21
-117.25
0
LINE
8
BLACK
6
CONTINUOUS
10
187.556
20
-117.25
11
187.838
21
-117.275
0
LINE
8
BLACK
6
CONTINUOUS
10
107.588
20
-112.025
11
107.863
21
-112.088
0
LINE
8
BLACK
6
CONTINUOUS
10
107.863
20
-112.088
11
108.127
21
-112.19
0
LINE
8
BLACK
6
CONTINUOUS
10
108.127
20
-112.19
11
108.373
21
-112.328
0
LINE
8
BLACK
6
CONTINUOUS
10
108.373
20
-112.328
11
108.598
21
-112.5
0
LINE
8
BLACK
6
CONTINUOUS
10
108.598
20
-112.5
11
108.796
21
-112.701
0
LINE
8
BLACK
6
CONTINUOUS
10
108.796
20
-112.701
11
108.964
21
-112.928
0
LINE
8
BLACK
6
CONTINUOUS
10
108.964
20
-112.928
11
109.098
21
-113.177
0
LINE
8
BLACK
6
CONTINUOUS
10
109.098
20
-113.177
11
109.196
21
-113.442
0
LINE
8
BLACK
6
CONTINUOUS
10
109.196
20
-113.442
11
109.255
21
-113.718
0
LINE
8
BLACK
6
CONTINUOUS
10
109.255
20
-113.718
11
109.275
21
-114
0
LINE
8
BLACK
6
CONTINUOUS
10
109.275
20
-114
11
109.271
21
-114.126
0
LINE
8
BLACK
6
CONTINUOUS
10
109.271
20
-114.126
11
109.233
21
-114.406
0
LINE
8
BLACK
6
CONTINUOUS
10
109.233
20
-114.406
11
109.157
21
-114.677
0
LINE
8
BLACK
6
CONTINUOUS
10
109.157
20
-114.677
11
109.043
21
-114.936
0
LINE
8
BLACK
6
CONTINUOUS
10
109.043
20
-114.936
11
108.893
21
-115.176
0
LINE
8
BLACK
6
CONTINUOUS
10
108.893
20
-115.176
11
108.711
21
-115.392
0
LINE
8
BLACK
6
CONTINUOUS
10
108.711
20
-115.392
11
108.501
21
-115.58
0
LINE
8
BLACK
6
CONTINUOUS
10
108.501
20
-115.58
11
108.266
21
-115.737
0
LINE
8
BLACK
6
CONTINUOUS
10
108.266
20
-115.737
11
108.011
21
-115.86
0
LINE
8
BLACK
6
CONTINUOUS
10
108.011
20
-115.86
11
107.742
21
-115.945
0
LINE
8
BLACK
6
CONTINUOUS
10
107.742
20
-115.945
11
107.463
21
-115.991
0
LINE
8
BLACK
6
CONTINUOUS
10
107.463
20
-115.991
11
107.181
21
-115.998
0
LINE
8
BLACK
6
CONTINUOUS
10
107.181
20
-115.998
11
106.9
21
-115.965
0
LINE
8
BLACK
6
CONTINUOUS
10
106.9
20
-115.965
11
106.627
21
-115.892
0
LINE
8
BLACK
6
CONTINUOUS
10
106.627
20
-115.892
11
106.367
21
-115.782
0
LINE
8
BLACK
6
CONTINUOUS
10
106.367
20
-115.782
11
106.125
21
-115.636
0
LINE
8
BLACK
6
CONTINUOUS
10
106.125
20
-115.636
11
105.906
21
-115.458
0
LINE
8
BLACK
6
CONTINUOUS
10
105.906
20
-115.458
11
105.714
21
-115.25
0
LINE
8
BLACK
6
CONTINUOUS
10
105.714
20
-115.25
11
105.554
21
-115.018
0
LINE
8
BLACK
6
CONTINUOUS
10
105.554
20
-115.018
11
105.427
21
-114.765
0
LINE
8
BLACK
6
CONTINUOUS
10
105.427
20
-114.765
11
105.338
21
-114.497
0
LINE
8
BLACK
6
CONTINUOUS
10
105.338
20
-114.497
11
105.287
21
-114.219
0
LINE
8
BLACK
6
CONTINUOUS
10
105.287
20
-114.219
11
105.276
21
-113.937
0
LINE
8
BLACK
6
CONTINUOUS
10
105.276
20
-113.937
11
105.305
21
-113.656
0
LINE
8
BLACK
6
CONTINUOUS
10
105.305
20
-113.656
11
105.373
21
-113.382
0
LINE
8
BLACK
6
CONTINUOUS
10
105.373
20
-113.382
11
105.479
21
-113.12
0
LINE
8
BLACK
6
CONTINUOUS
10
105.479
20
-113.12
11
105.621
21
-112.876
0
LINE
8
BLACK
6
CONTINUOUS
10
105.621
20
-112.876
11
105.796
21
-112.654
0
LINE
8
BLACK
6
CONTINUOUS
10
105.796
20
-112.654
11
106
21
-112.459
0
LINE
8
BLACK
6
CONTINUOUS
10
106
20
-112.459
11
106.23
21
-112.295
0
LINE
8
BLACK
6
CONTINUOUS
10
106.23
20
-112.295
11
106.481
21
-112.164
0
LINE
8
BLACK
6
CONTINUOUS
10
106.481
20
-112.164
11
106.747
21
-112.071
0
LINE
8
BLACK
6
CONTINUOUS
10
106.747
20
-112.071
11
107.024
21
-112.016
0
LINE
8
BLACK
6
CONTINUOUS
10
107.024
20
-112.016
11
107.306
21
-112
0
LINE
8
BLACK
6
CONTINUOUS
10
107.306
20
-112
11
107.588
21
-112.025
0
LINE
8
BLACK
6
CONTINUOUS
10
194.37
20
-105.38
11
194.549
21
-105.42
0
LINE
8
BLACK
6
CONTINUOUS
10
194.549
20
-105.42
11
194.715
21
-105.498
0
LINE
8
BLACK
6
CONTINUOUS
10
194.715
20
-105.498
11
194.861
21
-105.609
0
LINE
8
BLACK
6
CONTINUOUS
10
194.861
20
-105.609
11
194.98
21
-105.75
0
LINE
8
BLACK
6
CONTINUOUS
10
194.98
20
-105.75
11
195.065
21
-105.912
0
LINE
8
BLACK
6
CONTINUOUS
10
195.065
20
-105.912
11
195.114
21
-106.089
0
LINE
8
BLACK
6
CONTINUOUS
10
195.114
20
-106.089
11
195.124
21
-106.272
0
LINE
8
BLACK
6
CONTINUOUS
10
195.124
20
-106.272
11
195.094
21
-106.454
0
LINE
8
BLACK
6
CONTINUOUS
10
195.094
20
-106.454
11
195.026
21
-106.624
0
LINE
8
BLACK
6
CONTINUOUS
10
195.026
20
-106.624
11
194.922
21
-106.776
0
LINE
8
BLACK
6
CONTINUOUS
10
194.922
20
-106.776
11
194.789
21
-106.902
0
LINE
8
BLACK
6
CONTINUOUS
10
194.789
20
-106.902
11
194.632
21
-106.997
0
LINE
8
BLACK
6
CONTINUOUS
10
194.632
20
-106.997
11
194.458
21
-107.055
0
LINE
8
BLACK
6
CONTINUOUS
10
194.458
20
-107.055
11
194.275
21
-107.075
0
LINE
8
BLACK
6
CONTINUOUS
10
194.275
20
-107.075
11
193.475
21
-107.075
0
LINE
8
BLACK
6
CONTINUOUS
10
193.475
20
-107.075
11
193.38
21
-107.07
0
LINE
8
BLACK
6
CONTINUOUS
10
193.38
20
-107.07
11
193.201
21
-107.03
0
LINE
8
BLACK
6
CONTINUOUS
10
193.201
20
-107.03
11
193.035
21
-106.952
0
LINE
8
BLACK
6
CONTINUOUS
10
193.035
20
-106.952
11
192.889
21
-106.841
0
LINE
8
BLACK
6
CONTINUOUS
10
192.889
20
-106.841
11
192.77
21
-106.7
0
LINE
8
BLACK
6
CONTINUOUS
10
192.77
20
-106.7
11
192.685
21
-106.538
0
LINE
8
BLACK
6
CONTINUOUS
10
192.685
20
-106.538
11
192.636
21
-106.361
0
LINE
8
BLACK
6
CONTINUOUS
10
192.636
20
-106.361
11
192.626
21
-106.178
0
LINE
8
BLACK
6
CONTINUOUS
10
192.626
20
-106.178
11
192.656
21
-105.996
0
LINE
8
BLACK
6
CONTINUOUS
10
192.656
20
-105.996
11
192.724
21
-105.826
0
LINE
8
BLACK
6
CONTINUOUS
10
192.724
20
-105.826
11
192.828
21
-105.674
0
LINE
8
BLACK
6
CONTINUOUS
10
192.828
20
-105.674
11
192.961
21
-105.548
0
LINE
8
BLACK
6
CONTINUOUS
10
192.961
20
-105.548
11
193.118
21
-105.453
0
LINE
8
BLACK
6
CONTINUOUS
10
193.118
20
-105.453
11
193.292
21
-105.395
0
LINE
8
BLACK
6
CONTINUOUS
10
193.292
20
-105.395
11
193.475
21
-105.375
0
LINE
8
BLACK
6
CONTINUOUS
10
193.475
20
-105.375
11
194.275
21
-105.375
0
LINE
8
BLACK
6
CONTINUOUS
10
194.275
20
-105.375
11
194.37
21
-105.38
0
LINE
8
BLACK
6
CONTINUOUS
10
190.37
20
-105.38
11
190.549
21
-105.42
0
LINE
8
BLACK
6
CONTINUOUS
10
190.549
20
-105.42
11
190.715
21
-105.498
0
LINE
8
BLACK
6
CONTINUOUS
10
190.715
20
-105.498
11
190.861
21
-105.609
0
LINE
8
BLACK
6
CONTINUOUS
10
190.861
20
-105.609
11
190.98
21
-105.75
0
LINE
8
BLACK
6
CONTINUOUS
10
190.98
20
-105.75
11
191.065
21
-105.912
0
LINE
8
BLACK
6
CONTINUOUS
10
191.065
20
-105.912
11
191.114
21
-106.089
0
LINE
8
BLACK
6
CONTINUOUS
10
191.114
20
-106.089
11
191.124
21
-106.272
0
LINE
8
BLACK
6
CONTINUOUS
10
191.124
20
-106.272
11
191.094
21
-106.454
0
LINE
8
BLACK
6
CONTINUOUS
10
191.094
20
-106.454
11
191.026
21
-106.624
0
LINE
8
BLACK
6
CONTINUOUS
10
191.026
20
-106.624
11
190.922
21
-106.776
0
LINE
8
BLACK
6
CONTINUOUS
10
190.922
20
-106.776
11
190.789
21
-106.902
0
LINE
8
BLACK
6
CONTINUOUS
10
190.789
20
-106.902
11
190.632
21
-106.997
0
LINE
8
BLACK
6
CONTINUOUS
10
190.632
20
-106.997
11
190.458
21
-107.055
0
LINE
8
BLACK
6
CONTINUOUS
10
190.458
20
-107.055
11
190.275
21
-107.075
0
LINE
8
BLACK
6
CONTINUOUS
10
190.275
20
-107.075
11
189.475
21
-107.075
0
LINE
8
BLACK
6
CONTINUOUS
10
189.475
20
-107.075
11
189.38
21
-107.07
0
LINE
8
BLACK
6
CONTINUOUS
10
189.38
20
-107.07
11
189.201
21
-107.03
0
LINE
8
BLACK
6
CONTINUOUS
10
189.201
20
-107.03
11
189.035
21
-106.952
0
LINE
8
BLACK
6
CONTINUOUS
10
189.035
20
-106.952
11
188.889
21
-106.841
0
LINE
8
BLACK
6
CONTINUOUS
10
188.889
20
-106.841
11
188.77
21
-106.7
0
LINE
8
BLACK
6
CONTINUOUS
10
188.77
20
-106.7
11
188.685
21
-106.538
0
LINE
8
BLACK
6
CONTINUOUS
10
188.685
20
-106.538
11
188.636
21
-106.361
0
LINE
8
BLACK
6
CONTINUOUS
10
188.636
20
-106.361
11
188.626
21
-106.178
0
LINE
8
BLACK
6
CONTINUOUS
10
188.626
20
-106.178
11
188.656
21
-105.996
0
LINE
8
BLACK
6
CONTINUOUS
10
188.656
20
-105.996
11
188.724
21
-105.826
0
LINE
8
BLACK
6
CONTINUOUS
10
188.724
20
-105.826
11
188.828
21
-105.674
0
LINE
8
BLACK
6
CONTINUOUS
10
188.828
20
-105.674
11
188.961
21
-105.548
0
LINE
8
BLACK
6
CONTINUOUS
10
188.961
20
-105.548
11
189.118
21
-105.453
0
LINE
8
BLACK
6
CONTINUOUS
10
189.118
20
-105.453
11
189.292
21
-105.395
0
LINE
8
BLACK
6
CONTINUOUS
10
189.292
20
-105.395
11
189.475
21
-105.375
0
LINE
8
BLACK
6
CONTINUOUS
10
189.475
20
-105.375
11
190.275
21
-105.375
0
LINE
8
BLACK
6
CONTINUOUS
10
190.275
20
-105.375
11
190.37
21
-105.38
0
LINE
8
BLACK
6
CONTINUOUS
10
197.37
20
-105.38
11
197.549
21
-105.42
0
LINE
8
BLACK
6
CONTINUOUS
10
197.549
20
-105.42
11
197.715
21
-105.498
0
LINE
8
BLACK
6
CONTINUOUS
10
197.715
20
-105.498
11
197.861
21
-105.609
0
LINE
8
BLACK
6
CONTINUOUS
10
197.861
20
-105.609
11
197.98
21
-105.75
0
LINE
8
BLACK
6
CONTINUOUS
10
197.98
20
-105.75
11
198.065
21
-105.912
0
LINE
8
BLACK
6
CONTINUOUS
10
198.065
20
-105.912
11
198.114
21
-106.089
0
LINE
8
BLACK
6
CONTINUOUS
10
198.114
20
-106.089
11
198.124
21
-106.272
0
LINE
8
BLACK
6
CONTINUOUS
10
198.124
20
-106.272
11
198.094
21
-106.454
0
LINE
8
BLACK
6
CONTINUOUS
10
198.094
20
-106.454
11
198.026
21
-106.624
0
LINE
8
BLACK
6
CONTINUOUS
10
198.026
20
-106.624
11
197.922
21
-106.776
0
LINE
8
BLACK
6
CONTINUOUS
10
197.922
20
-106.776
11
197.789
21
-106.902
0
LINE
8
BLACK
6
CONTINUOUS
10
197.789
20
-106.902
11
197.632
21
-106.997
0
LINE
8
BLACK
6
CONTINUOUS
10
197.632
20
-106.997
11
197.458
21
-107.055
0
LINE
8
BLACK
6
CONTINUOUS
10
197.458
20
-107.055
11
197.275
21
-107.075
0
LINE
8
BLACK
6
CONTINUOUS
10
197.275
20
-107.075
11
196.475
21
-107.075
0
LINE
8
BLACK
6
CONTINUOUS
10
196.475
20
-107.075
11
196.38
21
-107.07
0
LINE
8
BLACK
6
CONTINUOUS
10
196.38
20
-107.07
11
196.201
21
-107.03
0
LINE
8
BLACK
6
CONTINUOUS
10
196.201
20
-107.03
11
196.035
21
-106.952
0
LINE
8
BLACK
6
CONTINUOUS
10
196.035
20
-106.952
11
195.889
21
-106.841
0
LINE
8
BLACK
6
CONTINUOUS
10
195.889
20
-106.841
11
195.77
21
-106.7
0
LINE
8
BLACK
6
CONTINUOUS
10
195.77
20
-106.7
11
195.685
21
-106.538
0
LINE
8
BLACK
6
CONTINUOUS
10
195.685
20
-106.538
11
195.636
21
-106.361
0
LINE
8
BLACK
6
CONTINUOUS
10
195.636
20
-106.361
11
195.626
21
-106.178
0
LINE
8
BLACK
6
CONTINUOUS
10
195.626
20
-106.178
11
195.656
21
-105.996
0
LINE
8
BLACK
6
CONTINUOUS
10
195.656
20
-105.996
11
195.724
21
-105.826
0
LINE
8
BLACK
6
CONTINUOUS
10
195.724
20
-105.826
11
195.828
21
-105.674
0
LINE
8
BLACK
6
CONTINUOUS
10
195.828
20
-105.674
11
195.961
21
-105.548
0
LINE
8
BLACK
6
CONTINUOUS
10
195.961
20
-105.548
11
196.118
21
-105.453
0
LINE
8
BLACK
6
CONTINUOUS
10
196.118
20
-105.453
11
196.292
21
-105.395
0
LINE
8
BLACK
6
CONTINUOUS
10
196.292
20
-105.395
11
196.475
21
-105.375
0
LINE
8
BLACK
6
CONTINUOUS
10
196.475
20
-105.375
11
197.275
21
-105.375
0
LINE
8
BLACK
6
CONTINUOUS
10
197.275
20
-105.375
11
197.37
21
-105.38
0
LINE
8
BLACK
6
CONTINUOUS
10
180.075
20
-106.15
11
178.275
21
-106.15
0
LINE
8
BLACK
6
CONTINUOUS
10
178.275
20
-106.15
11
178.275
21
-105.05
0
LINE
8
BLACK
6
CONTINUOUS
10
178.275
20
-105.05
11
180.075
21
-105.05
0
LINE
8
BLACK
6
CONTINUOUS
10
180.075
20
-105.05
11
180.075
21
-106.15
0
LINE
8
BLACK
6
CONTINUOUS
10
186.275
20
-106.15
11
184.475
21
-106.15
0
LINE
8
BLACK
6
CONTINUOUS
10
184.475
20
-106.15
11
184.475
21
-105.05
0
LINE
8
BLACK
6
CONTINUOUS
10
184.475
20
-105.05
11
186.275
21
-105.05
0
LINE
8
BLACK
6
CONTINUOUS
10
186.275
20
-105.05
11
186.275
21
-106.15
0
LINE
8
BLACK
6
CONTINUOUS
10
188.87
20
-103.63
11
189.049
21
-103.67
0
LINE
8
BLACK
6
CONTINUOUS
10
189.049
20
-103.67
11
189.215
21
-103.748
0
LINE
8
BLACK
6
CONTINUOUS
10
189.215
20
-103.748
11
189.361
21
-103.859
0
LINE
8
BLACK
6
CONTINUOUS
10
189.361
20
-103.859
11
189.48
21
-104
0
LINE
8
BLACK
6
CONTINUOUS
10
189.48
20
-104
11
189.565
21
-104.162
0
LINE
8
BLACK
6
CONTINUOUS
10
189.565
20
-104.162
11
189.614
21
-104.339
0
LINE
8
BLACK
6
CONTINUOUS
10
189.614
20
-104.339
11
189.624
21
-104.522
0
LINE
8
BLACK
6
CONTINUOUS
10
189.624
20
-104.522
11
189.594
21
-104.704
0
LINE
8
BLACK
6
CONTINUOUS
10
189.594
20
-104.704
11
189.526
21
-104.874
0
LINE
8
BLACK
6
CONTINUOUS
10
189.526
20
-104.874
11
189.422
21
-105.026
0
LINE
8
BLACK
6
CONTINUOUS
10
189.422
20
-105.026
11
189.289
21
-105.152
0
LINE
8
BLACK
6
CONTINUOUS
10
189.289
20
-105.152
11
189.132
21
-105.247
0
LINE
8
BLACK
6
CONTINUOUS
10
189.132
20
-105.247
11
188.958
21
-105.305
0
LINE
8
BLACK
6
CONTINUOUS
10
188.958
20
-105.305
11
188.775
21
-105.325
0
LINE
8
BLACK
6
CONTINUOUS
10
188.775
20
-105.325
11
187.975
21
-105.325
0
LINE
8
BLACK
6
CONTINUOUS
10
187.975
20
-105.325
11
187.88
21
-105.32
0
LINE
8
BLACK
6
CONTINUOUS
10
187.88
20
-105.32
11
187.701
21
-105.28
0
LINE
8
BLACK
6
CONTINUOUS
10
187.701
20
-105.28
11
187.535
21
-105.202
0
LINE
8
BLACK
6
CONTINUOUS
10
187.535
20
-105.202
11
187.389
21
-105.091
0
LINE
8
BLACK
6
CONTINUOUS
10
187.389
20
-105.091
11
187.27
21
-104.95
0
LINE
8
BLACK
6
CONTINUOUS
10
187.27
20
-104.95
11
187.185
21
-104.788
0
LINE
8
BLACK
6
CONTINUOUS
10
187.185
20
-104.788
11
187.136
21
-104.611
0
LINE
8
BLACK
6
CONTINUOUS
10
187.136
20
-104.611
11
187.126
21
-104.428
0
LINE
8
BLACK
6
CONTINUOUS
10
187.126
20
-104.428
11
187.156
21
-104.246
0
LINE
8
BLACK
6
CONTINUOUS
10
187.156
20
-104.246
11
187.224
21
-104.076
0
LINE
8
BLACK
6
CONTINUOUS
10
187.224
20
-104.076
11
187.328
21
-103.924
0
LINE
8
BLACK
6
CONTINUOUS
10
187.328
20
-103.924
11
187.461
21
-103.798
0
LINE
8
BLACK
6
CONTINUOUS
10
187.461
20
-103.798
11
187.618
21
-103.703
0
LINE
8
BLACK
6
CONTINUOUS
10
187.618
20
-103.703
11
187.792
21
-103.645
0
LINE
8
BLACK
6
CONTINUOUS
10
187.792
20
-103.645
11
187.975
21
-103.625
0
LINE
8
BLACK
6
CONTINUOUS
10
187.975
20
-103.625
11
188.775
21
-103.625
0
LINE
8
BLACK
6
CONTINUOUS
10
188.775
20
-103.625
11
188.87
21
-103.63
0
LINE
8
BLACK
6
CONTINUOUS
10
198.83
20
-103.545
11
198.975
21
-103.605
0
LINE
8
BLACK
6
CONTINUOUS
10
198.975
20
-103.605
11
199.099
21
-103.701
0
LINE
8
BLACK
6
CONTINUOUS
10
199.099
20
-103.701
11
199.195
21
-103.825
0
LINE
8
BLACK
6
CONTINUOUS
10
199.195
20
-103.825
11
199.255
21
-103.97
0
LINE
8
BLACK
6
CONTINUOUS
10
199.255
20
-103.97
11
199.275
21
-104.125
0
LINE
8
BLACK
6
CONTINUOUS
10
199.275
20
-104.125
11
199.255
21
-104.28
0
LINE
8
BLACK
6
CONTINUOUS
10
199.255
20
-104.28
11
199.195
21
-104.425
0
LINE
8
BLACK
6
CONTINUOUS
10
199.195
20
-104.425
11
199.099
21
-104.549
0
LINE
8
BLACK
6
CONTINUOUS
10
199.099
20
-104.549
11
198.975
21
-104.645
0
LINE
8
BLACK
6
CONTINUOUS
10
198.975
20
-104.645
11
198.83
21
-104.705
0
LINE
8
BLACK
6
CONTINUOUS
10
198.83
20
-104.705
11
198.675
21
-104.725
0
LINE
8
BLACK
6
CONTINUOUS
10
198.675
20
-104.725
11
198.52
21
-104.705
0
LINE
8
BLACK
6
CONTINUOUS
10
198.52
20
-104.705
11
198.375
21
-104.645
0
LINE
8
BLACK
6
CONTINUOUS
10
198.375
20
-104.645
11
198.251
21
-104.549
0
LINE
8
BLACK
6
CONTINUOUS
10
198.251
20
-104.549
11
198.155
21
-104.425
0
LINE
8
BLACK
6
CONTINUOUS
10
198.155
20
-104.425
11
198.095
21
-104.28
0
LINE
8
BLACK
6
CONTINUOUS
10
198.095
20
-104.28
11
198.075
21
-104.125
0
LINE
8
BLACK
6
CONTINUOUS
10
198.075
20
-104.125
11
198.095
21
-103.97
0
LINE
8
BLACK
6
CONTINUOUS
10
198.095
20
-103.97
11
198.155
21
-103.825
0
LINE
8
BLACK
6
CONTINUOUS
10
198.155
20
-103.825
11
198.251
21
-103.701
0
LINE
8
BLACK
6
CONTINUOUS
10
198.251
20
-103.701
11
198.375
21
-103.605
0
LINE
8
BLACK
6
CONTINUOUS
10
198.375
20
-103.605
11
198.52
21
-103.545
0
LINE
8
BLACK
6
CONTINUOUS
10
198.52
20
-103.545
11
198.675
21
-103.525
0
LINE
8
BLACK
6
CONTINUOUS
10
198.675
20
-103.525
11
198.83
21
-103.545
0
LINE
8
BLACK
6
CONTINUOUS
10
191.83
20
-103.545
11
191.975
21
-103.605
0
LINE
8
BLACK
6
CONTINUOUS
10
191.975
20
-103.605
11
192.099
21
-103.701
0
LINE
8
BLACK
6
CONTINUOUS
10
192.099
20
-103.701
11
192.195
21
-103.825
0
LINE
8
BLACK
6
CONTINUOUS
10
192.195
20
-103.825
11
192.255
21
-103.97
0
LINE
8
BLACK
6
CONTINUOUS
10
192.255
20
-103.97
11
192.275
21
-104.125
0
LINE
8
BLACK
6
CONTINUOUS
10
192.275
20
-104.125
11
192.255
21
-104.28
0
LINE
8
BLACK
6
CONTINUOUS
10
192.255
20
-104.28
11
192.195
21
-104.425
0
LINE
8
BLACK
6
CONTINUOUS
10
192.195
20
-104.425
11
192.099
21
-104.549
0
LINE
8
BLACK
6
CONTINUOUS
10
192.099
20
-104.549
11
191.975
21
-104.645
0
LINE
8
BLACK
6
CONTINUOUS
10
191.975
20
-104.645
11
191.83
21
-104.705
0
LINE
8
BLACK
6
CONTINUOUS
10
191.83
20
-104.705
11
191.675
21
-104.725
0
LINE
8
BLACK
6
CONTINUOUS
10
191.675
20
-104.725
11
191.52
21
-104.705
0
LINE
8
BLACK
6
CONTINUOUS
10
191.52
20
-104.705
11
191.375
21
-104.645
0
LINE
8
BLACK
6
CONTINUOUS
10
191.375
20
-104.645
11
191.251
21
-104.549
0
LINE
8
BLACK
6
CONTINUOUS
10
191.251
20
-104.549
11
191.155
21
-104.425
0
LINE
8
BLACK
6
CONTINUOUS
10
191.155
20
-104.425
11
191.095
21
-104.28
0
LINE
8
BLACK
6
CONTINUOUS
10
191.095
20
-104.28
11
191.075
21
-104.125
0
LINE
8
BLACK
6
CONTINUOUS
10
191.075
20
-104.125
11
191.095
21
-103.97
0
LINE
8
BLACK
6
CONTINUOUS
10
191.095
20
-103.97
11
191.155
21
-103.825
0
LINE
8
BLACK
6
CONTINUOUS
10
191.155
20
-103.825
11
191.251
21
-103.701
0
LINE
8
BLACK
6
CONTINUOUS
10
191.251
20
-103.701
11
191.375
21
-103.605
0
LINE
8
BLACK
6
CONTINUOUS
10
191.375
20
-103.605
11
191.52
21
-103.545
0
LINE
8
BLACK
6
CONTINUOUS
10
191.52
20
-103.545
11
191.675
21
-103.525
0
LINE
8
BLACK
6
CONTINUOUS
10
191.675
20
-103.525
11
191.83
21
-103.545
0
LINE
8
BLACK
6
CONTINUOUS
10
143.562
20
-99.1188
11
143.844
21
-99.175
0
LINE
8
BLACK
6
CONTINUOUS
10
143.844
20
-99.175
11
144.117
21
-99.2675
0
LINE
8
BLACK
6
CONTINUOUS
10
144.117
20
-99.2675
11
144.375
21
-99.3947
0
LINE
8
BLACK
6
CONTINUOUS
10
144.375
20
-99.3947
11
144.614
21
-99.5546
0
LINE
8
BLACK
6
CONTINUOUS
10
144.614
20
-99.5546
11
144.831
21
-99.7444
0
LINE
8
BLACK
6
CONTINUOUS
10
144.831
20
-99.7444
11
145.02
21
-99.9607
0
LINE
8
BLACK
6
CONTINUOUS
10
145.02
20
-99.9607
11
145.18
21
-100.2
0
LINE
8
BLACK
6
CONTINUOUS
10
145.18
20
-100.2
11
145.308
21
-100.458
0
LINE
8
BLACK
6
CONTINUOUS
10
145.308
20
-100.458
11
145.4
21
-100.731
0
LINE
8
BLACK
6
CONTINUOUS
10
145.4
20
-100.731
11
145.456
21
-101.013
0
LINE
8
BLACK
6
CONTINUOUS
10
145.456
20
-101.013
11
145.475
21
-101.3
0
LINE
8
BLACK
6
CONTINUOUS
10
145.475
20
-101.3
11
145.456
21
-101.587
0
LINE
8
BLACK
6
CONTINUOUS
10
145.456
20
-101.587
11
145.4
21
-101.869
0
LINE
8
BLACK
6
CONTINUOUS
10
145.4
20
-101.869
11
145.308
21
-102.142
0
LINE
8
BLACK
6
CONTINUOUS
10
145.308
20
-102.142
11
145.18
21
-102.4
0
LINE
8
BLACK
6
CONTINUOUS
10
145.18
20
-102.4
11
145.02
21
-102.639
0
LINE
8
BLACK
6
CONTINUOUS
10
145.02
20
-102.639
11
144.831
21
-102.856
0
LINE
8
BLACK
6
CONTINUOUS
10
144.831
20
-102.856
11
144.614
21
-103.045
0
LINE
8
BLACK
6
CONTINUOUS
10
144.614
20
-103.045
11
144.375
21
-103.205
0
LINE
8
BLACK
6
CONTINUOUS
10
144.375
20
-103.205
11
144.117
21
-103.333
0
LINE
8
BLACK
6
CONTINUOUS
10
144.117
20
-103.333
11
143.844
21
-103.425
0
LINE
8
BLACK
6
CONTINUOUS
10
143.844
20
-103.425
11
143.562
21
-103.481
0
LINE
8
BLACK
6
CONTINUOUS
10
143.562
20
-103.481
11
143.275
21
-103.5
0
LINE
8
BLACK
6
CONTINUOUS
10
143.275
20
-103.5
11
142.988
21
-103.481
0
LINE
8
BLACK
6
CONTINUOUS
10
142.988
20
-103.481
11
142.706
21
-103.425
0
LINE
8
BLACK
6
CONTINUOUS
10
142.706
20
-103.425
11
142.433
21
-103.333
0
LINE
8
BLACK
6
CONTINUOUS
10
142.433
20
-103.333
11
142.175
21
-103.205
0
LINE
8
BLACK
6
CONTINUOUS
10
142.175
20
-103.205
11
141.936
21
-103.045
0
LINE
8
BLACK
6
CONTINUOUS
10
141.936
20
-103.045
11
141.719
21
-102.856
0
LINE
8
BLACK
6
CONTINUOUS
10
141.719
20
-102.856
11
141.53
21
-102.639
0
LINE
8
BLACK
6
CONTINUOUS
10
141.53
20
-102.639
11
141.37
21
-102.4
0
LINE
8
BLACK
6
CONTINUOUS
10
141.37
20
-102.4
11
141.242
21
-102.142
0
LINE
8
BLACK
6
CONTINUOUS
10
141.242
20
-102.142
11
141.15
21
-101.869
0
LINE
8
BLACK
6
CONTINUOUS
10
141.15
20
-101.869
11
141.094
21
-101.587
0
LINE
8
BLACK
6
CONTINUOUS
10
141.094
20
-101.587
11
141.075
21
-101.3
0
LINE
8
BLACK
6
CONTINUOUS
10
141.075
20
-101.3
11
141.094
21
-101.013
0
LINE
8
BLACK
6
CONTINUOUS
10
141.094
20
-101.013
11
141.15
21
-100.731
0
LINE
8
BLACK
6
CONTINUOUS
10
141.15
20
-100.731
11
141.242
21
-100.458
0
LINE
8
BLACK
6
CONTINUOUS
10
141.242
20
-100.458
11
141.37
21
-100.2
0
LINE
8
BLACK
6
CONTINUOUS
10
141.37
20
-100.2
11
141.53
21
-99.9607
0
LINE
8
BLACK
6
CONTINUOUS
10
141.53
20
-99.9607
11
141.719
21
-99.7444
0
LINE
8
BLACK
6
CONTINUOUS
10
141.719
20
-99.7444
11
141.936
21
-99.5546
0
LINE
8
BLACK
6
CONTINUOUS
10
141.936
20
-99.5546
11
142.175
21
-99.3947
0
LINE
8
BLACK
6
CONTINUOUS
10
142.175
20
-99.3947
11
142.433
21
-99.2675
0
LINE
8
BLACK
6
CONTINUOUS
10
142.433
20
-99.2675
11
142.706
21
-99.175
0
LINE
8
BLACK
6
CONTINUOUS
10
142.706
20
-99.175
11
142.988
21
-99.1188
0
LINE
8
BLACK
6
CONTINUOUS
10
142.988
20
-99.1188
11
143.275
21
-99.1
0
LINE
8
BLACK
6
CONTINUOUS
10
143.275
20
-99.1
11
143.562
21
-99.1188
0
LINE
8
BLACK
6
CONTINUOUS
10
198.83
20
-101.795
11
198.975
21
-101.855
0
LINE
8
BLACK
6
CONTINUOUS
10
198.975
20
-101.855
11
199.099
21
-101.951
0
LINE
8
BLACK
6
CONTINUOUS
10
199.099
20
-101.951
11
199.195
21
-102.075
0
LINE
8
BLACK
6
CONTINUOUS
10
199.195
20
-102.075
11
199.255
21
-102.22
0
LINE
8
BLACK
6
CONTINUOUS
10
199.255
20
-102.22
11
199.275
21
-102.375
0
LINE
8
BLACK
6
CONTINUOUS
10
199.275
20
-102.375
11
199.255
21
-102.53
0
LINE
8
BLACK
6
CONTINUOUS
10
199.255
20
-102.53
11
199.195
21
-102.675
0
LINE
8
BLACK
6
CONTINUOUS
10
199.195
20
-102.675
11
199.099
21
-102.799
0
LINE
8
BLACK
6
CONTINUOUS
10
199.099
20
-102.799
11
198.975
21
-102.895
0
LINE
8
BLACK
6
CONTINUOUS
10
198.975
20
-102.895
11
198.83
21
-102.955
0
LINE
8
BLACK
6
CONTINUOUS
10
198.83
20
-102.955
11
198.675
21
-102.975
0
LINE
8
BLACK
6
CONTINUOUS
10
198.675
20
-102.975
11
198.52
21
-102.955
0
LINE
8
BLACK
6
CONTINUOUS
10
198.52
20
-102.955
11
198.375
21
-102.895
0
LINE
8
BLACK
6
CONTINUOUS
10
198.375
20
-102.895
11
198.251
21
-102.799
0
LINE
8
BLACK
6
CONTINUOUS
10
198.251
20
-102.799
11
198.155
21
-102.675
0
LINE
8
BLACK
6
CONTINUOUS
10
198.155
20
-102.675
11
198.095
21
-102.53
0
LINE
8
BLACK
6
CONTINUOUS
10
198.095
20
-102.53
11
198.075
21
-102.375
0
LINE
8
BLACK
6
CONTINUOUS
10
198.075
20
-102.375
11
198.095
21
-102.22
0
LINE
8
BLACK
6
CONTINUOUS
10
198.095
20
-102.22
11
198.155
21
-102.075
0
LINE
8
BLACK
6
CONTINUOUS
10
198.155
20
-102.075
11
198.251
21
-101.951
0
LINE
8
BLACK
6
CONTINUOUS
10
198.251
20
-101.951
11
198.375
21
-101.855
0
LINE
8
BLACK
6
CONTINUOUS
10
198.375
20
-101.855
11
198.52
21
-101.795
0
LINE
8
BLACK
6
CONTINUOUS
10
198.52
20
-101.795
11
198.675
21
-101.775
0
LINE
8
BLACK
6
CONTINUOUS
10
198.675
20
-101.775
11
198.83
21
-101.795
0
LINE
8
BLACK
6
CONTINUOUS
10
191.83
20
-101.795
11
191.975
21
-101.855
0
LINE
8
BLACK
6
CONTINUOUS
10
191.975
20
-101.855
11
192.099
21
-101.951
0
LINE
8
BLACK
6
CONTINUOUS
10
192.099
20
-101.951
11
192.195
21
-102.075
0
LINE
8
BLACK
6
CONTINUOUS
10
192.195
20
-102.075
11
192.255
21
-102.22
0
LINE
8
BLACK
6
CONTINUOUS
10
192.255
20
-102.22
11
192.275
21
-102.375
0
LINE
8
BLACK
6
CONTINUOUS
10
192.275
20
-102.375
11
192.255
21
-102.53
0
LINE
8
BLACK
6
CONTINUOUS
10
192.255
20
-102.53
11
192.195
21
-102.675
0
LINE
8
BLACK
6
CONTINUOUS
10
192.195
20
-102.675
11
192.099
21
-102.799
0
LINE
8
BLACK
6
CONTINUOUS
10
192.099
20
-102.799
11
191.975
21
-102.895
0
LINE
8
BLACK
6
CONTINUOUS
10
191.975
20
-102.895
11
191.83
21
-102.955
0
LINE
8
BLACK
6
CONTINUOUS
10
191.83
20
-102.955
11
191.675
21
-102.975
0
LINE
8
BLACK
6
CONTINUOUS
10
191.675
20
-102.975
11
191.52
21
-102.955
0
LINE
8
BLACK
6
CONTINUOUS
10
191.52
20
-102.955
11
191.375
21
-102.895
0
LINE
8
BLACK
6
CONTINUOUS
10
191.375
20
-102.895
11
191.251
21
-102.799
0
LINE
8
BLACK
6
CONTINUOUS
10
191.251
20
-102.799
11
191.155
21
-102.675
0
LINE
8
BLACK
6
CONTINUOUS
10
191.155
20
-102.675
11
191.095
21
-102.53
0
LINE
8
BLACK
6
CONTINUOUS
10
191.095
20
-102.53
11
191.075
21
-102.375
0
LINE
8
BLACK
6
CONTINUOUS
10
191.075
20
-102.375
11
191.095
21
-102.22
0
LINE
8
BLACK
6
CONTINUOUS
10
191.095
20
-102.22
11
191.155
21
-102.075
0
LINE
8
BLACK
6
CONTINUOUS
10
191.155
20
-102.075
11
191.251
21
-101.951
0
LINE
8
BLACK
6
CONTINUOUS
10
191.251
20
-101.951
11
191.375
21
-101.855
0
LINE
8
BLACK
6
CONTINUOUS
10
191.375
20
-101.855
11
191.52
21
-101.795
0
LINE
8
BLACK
6
CONTINUOUS
10
191.52
20
-101.795
11
191.675
21
-101.775
0
LINE
8
BLACK
6
CONTINUOUS
10
191.675
20
-101.775
11
191.83
21
-101.795
0
LINE
8
BLACK
6
CONTINUOUS
10
188.87
20
-101.18
11
189.049
21
-101.22
0
LINE
8
BLACK
6
CONTINUOUS
10
189.049
20
-101.22
11
189.215
21
-101.298
0
LINE
8
BLACK
6
CONTINUOUS
10
189.215
20
-101.298
11
189.361
21
-101.409
0
LINE
8
BLACK
6
CONTINUOUS
10
189.361
20
-101.409
11
189.48
21
-101.55
0
LINE
8
BLACK
6
CONTINUOUS
10
189.48
20
-101.55
11
189.565
21
-101.712
0
LINE
8
BLACK
6
CONTINUOUS
10
189.565
20
-101.712
11
189.614
21
-101.889
0
LINE
8
BLACK
6
CONTINUOUS
10
189.614
20
-101.889
11
189.624
21
-102.072
0
LINE
8
BLACK
6
CONTINUOUS
10
189.624
20
-102.072
11
189.594
21
-102.254
0
LINE
8
BLACK
6
CONTINUOUS
10
189.594
20
-102.254
11
189.526
21
-102.424
0
LINE
8
BLACK
6
CONTINUOUS
10
189.526
20
-102.424
11
189.422
21
-102.576
0
LINE
8
BLACK
6
CONTINUOUS
10
189.422
20
-102.576
11
189.289
21
-102.702
0
LINE
8
BLACK
6
CONTINUOUS
10
189.289
20
-102.702
11
189.132
21
-102.797
0
LINE
8
BLACK
6
CONTINUOUS
10
189.132
20
-102.797
11
188.958
21
-102.855
0
LINE
8
BLACK
6
CONTINUOUS
10
188.958
20
-102.855
11
188.775
21
-102.875
0
LINE
8
BLACK
6
CONTINUOUS
10
188.775
20
-102.875
11
187.975
21
-102.875
0
LINE
8
BLACK
6
CONTINUOUS
10
187.975
20
-102.875
11
187.88
21
-102.87
0
LINE
8
BLACK
6
CONTINUOUS
10
187.88
20
-102.87
11
187.701
21
-102.83
0
LINE
8
BLACK
6
CONTINUOUS
10
187.701
20
-102.83
11
187.535
21
-102.752
0
LINE
8
BLACK
6
CONTINUOUS
10
187.535
20
-102.752
11
187.389
21
-102.641
0
LINE
8
BLACK
6
CONTINUOUS
10
187.389
20
-102.641
11
187.27
21
-102.5
0
LINE
8
BLACK
6
CONTINUOUS
10
187.27
20
-102.5
11
187.185
21
-102.338
0
LINE
8
BLACK
6
CONTINUOUS
10
187.185
20
-102.338
11
187.136
21
-102.161
0
LINE
8
BLACK
6
CONTINUOUS
10
187.136
20
-102.161
11
187.126
21
-101.978
0
LINE
8
BLACK
6
CONTINUOUS
10
187.126
20
-101.978
11
187.156
21
-101.796
0
LINE
8
BLACK
6
CONTINUOUS
10
187.156
20
-101.796
11
187.224
21
-101.626
0
LINE
8
BLACK
6
CONTINUOUS
10
187.224
20
-101.626
11
187.328
21
-101.474
0
LINE
8
BLACK
6
CONTINUOUS
10
187.328
20
-101.474
11
187.461
21
-101.348
0
LINE
8
BLACK
6
CONTINUOUS
10
187.461
20
-101.348
11
187.618
21
-101.253
0
LINE
8
BLACK
6
CONTINUOUS
10
187.618
20
-101.253
11
187.792
21
-101.195
0
LINE
8
BLACK
6
CONTINUOUS
10
187.792
20
-101.195
11
187.975
21
-101.175
0
LINE
8
BLACK
6
CONTINUOUS
10
187.975
20
-101.175
11
188.775
21
-101.175
0
LINE
8
BLACK
6
CONTINUOUS
10
188.775
20
-101.175
11
188.87
21
-101.18
0
LINE
8
BLACK
6
CONTINUOUS
10
180.075
20
-102.45
11
178.275
21
-102.45
0
LINE
8
BLACK
6
CONTINUOUS
10
178.275
20
-102.45
11
178.275
21
-101.35
0
LINE
8
BLACK
6
CONTINUOUS
10
178.275
20
-101.35
11
180.075
21
-101.35
0
LINE
8
BLACK
6
CONTINUOUS
10
180.075
20
-101.35
11
180.075
21
-102.45
0
LINE
8
BLACK
6
CONTINUOUS
10
186.275
20
-102.45
11
184.475
21
-102.45
0
LINE
8
BLACK
6
CONTINUOUS
10
184.475
20
-102.45
11
184.475
21
-101.35
0
LINE
8
BLACK
6
CONTINUOUS
10
184.475
20
-101.35
11
186.275
21
-101.35
0
LINE
8
BLACK
6
CONTINUOUS
10
186.275
20
-101.35
11
186.275
21
-102.45
0
LINE
8
BLACK
6
CONTINUOUS
10
197.37
20
-99.4303
11
197.549
21
-99.4703
0
LINE
8
BLACK
6
CONTINUOUS
10
197.549
20
-99.4703
11
197.715
21
-99.5479
0
LINE
8
BLACK
6
CONTINUOUS
10
197.715
20
-99.5479
11
197.861
21
-99.6595
0
LINE
8
BLACK
6
CONTINUOUS
10
197.861
20
-99.6595
11
197.98
21
-99.7997
0
LINE
8
BLACK
6
CONTINUOUS
10
197.98
20
-99.7997
11
198.065
21
-99.9621
0
LINE
8
BLACK
6
CONTINUOUS
10
198.065
20
-99.9621
11
198.114
21
-100.139
0
LINE
8
BLACK
6
CONTINUOUS
10
198.114
20
-100.139
11
198.124
21
-100.322
0
LINE
8
BLACK
6
CONTINUOUS
10
198.124
20
-100.322
11
198.094
21
-100.504
0
LINE
8
BLACK
6
CONTINUOUS
10
198.094
20
-100.504
11
198.026
21
-100.674
0
LINE
8
BLACK
6
CONTINUOUS
10
198.026
20
-100.674
11
197.922
21
-100.826
0
LINE
8
BLACK
6
CONTINUOUS
10
197.922
20
-100.826
11
197.789
21
-100.952
0
LINE
8
BLACK
6
CONTINUOUS
10
197.789
20
-100.952
11
197.632
21
-101.047
0
LINE
8
BLACK
6
CONTINUOUS
10
197.632
20
-101.047
11
197.458
21
-101.105
0
LINE
8
BLACK
6
CONTINUOUS
10
197.458
20
-101.105
11
197.275
21
-101.125
0
LINE
8
BLACK
6
CONTINUOUS
10
197.275
20
-101.125
11
196.475
21
-101.125
0
LINE
8
BLACK
6
CONTINUOUS
10
196.475
20
-101.125
11
196.38
21
-101.12
0
LINE
8
BLACK
6
CONTINUOUS
10
196.38
20
-101.12
11
196.201
21
-101.08
0
LINE
8
BLACK
6
CONTINUOUS
10
196.201
20
-101.08
11
196.035
21
-101.002
0
LINE
8
BLACK
6
CONTINUOUS
10
196.035
20
-101.002
11
195.889
21
-100.891
0
LINE
8
BLACK
6
CONTINUOUS
10
195.889
20
-100.891
11
195.77
21
-100.75
0
LINE
8
BLACK
6
CONTINUOUS
10
195.77
20
-100.75
11
195.685
21
-100.588
0
LINE
8
BLACK
6
CONTINUOUS
10
195.685
20
-100.588
11
195.636
21
-100.411
0
LINE
8
BLACK
6
CONTINUOUS
10
195.636
20
-100.411
11
195.626
21
-100.228
0
LINE
8
BLACK
6
CONTINUOUS
10
195.626
20
-100.228
11
195.656
21
-100.046
0
LINE
8
BLACK
6
CONTINUOUS
10
195.656
20
-100.046
11
195.724
21
-99.876
0
LINE
8
BLACK
6
CONTINUOUS
10
195.724
20
-99.876
11
195.828
21
-99.7241
0
LINE
8
BLACK
6
CONTINUOUS
10
195.828
20
-99.7241
11
195.961
21
-99.598
0
LINE
8
BLACK
6
CONTINUOUS
10
195.961
20
-99.598
11
196.118
21
-99.5034
0
LINE
8
BLACK
6
CONTINUOUS
10
196.118
20
-99.5034
11
196.292
21
-99.4448
0
LINE
8
BLACK
6
CONTINUOUS
10
196.292
20
-99.4448
11
196.475
21
-99.425
0
LINE
8
BLACK
6
CONTINUOUS
10
196.475
20
-99.425
11
197.275
21
-99.425
0
LINE
8
BLACK
6
CONTINUOUS
10
197.275
20
-99.425
11
197.37
21
-99.4303
0
LINE
8
BLACK
6
CONTINUOUS
10
194.37
20
-99.4303
11
194.549
21
-99.4703
0
LINE
8
BLACK
6
CONTINUOUS
10
194.549
20
-99.4703
11
194.715
21
-99.5479
0
LINE
8
BLACK
6
CONTINUOUS
10
194.715
20
-99.5479
11
194.861
21
-99.6595
0
LINE
8
BLACK
6
CONTINUOUS
10
194.861
20
-99.6595
11
194.98
21
-99.7997
0
LINE
8
BLACK
6
CONTINUOUS
10
194.98
20
-99.7997
11
195.065
21
-99.9621
0
LINE
8
BLACK
6
CONTINUOUS
10
195.065
20
-99.9621
11
195.114
21
-100.139
0
LINE
8
BLACK
6
CONTINUOUS
10
195.114
20
-100.139
11
195.124
21
-100.322
0
LINE
8
BLACK
6
CONTINUOUS
10
195.124
20
-100.322
11
195.094
21
-100.504
0
LINE
8
BLACK
6
CONTINUOUS
10
195.094
20
-100.504
11
195.026
21
-100.674
0
LINE
8
BLACK
6
CONTINUOUS
10
195.026
20
-100.674
11
194.922
21
-100.826
0
LINE
8
BLACK
6
CONTINUOUS
10
194.922
20
-100.826
11
194.789
21
-100.952
0
LINE
8
BLACK
6
CONTINUOUS
10
194.789
20
-100.952
11
194.632
21
-101.047
0
LINE
8
BLACK
6
CONTINUOUS
10
194.632
20
-101.047
11
194.458
21
-101.105
0
LINE
8
BLACK
6
CONTINUOUS
10
194.458
20
-101.105
11
194.275
21
-101.125
0
LINE
8
BLACK
6
CONTINUOUS
10
194.275
20
-101.125
11
193.475
21
-101.125
0
LINE
8
BLACK
6
CONTINUOUS
10
193.475
20
-101.125
11
193.38
21
-101.12
0
LINE
8
BLACK
6
CONTINUOUS
10
193.38
20
-101.12
11
193.201
21
-101.08
0
LINE
8
BLACK
6
CONTINUOUS
10
193.201
20
-101.08
11
193.035
21
-101.002
0
LINE
8
BLACK
6
CONTINUOUS
10
193.035
20
-101.002
11
192.889
21
-100.891
0
LINE
8
BLACK
6
CONTINUOUS
10
192.889
20
-100.891
11
192.77
21
-100.75
0
LINE
8
BLACK
6
CONTINUOUS
10
192.77
20
-100.75
11
192.685
21
-100.588
0
LINE
8
BLACK
6
CONTINUOUS
10
192.685
20
-100.588
11
192.636
21
-100.411
0
LINE
8
BLACK
6
CONTINUOUS
10
192.636
20
-100.411
11
192.626
21
-100.228
0
LINE
8
BLACK
6
CONTINUOUS
10
192.626
20
-100.228
11
192.656
21
-100.046
0
LINE
8
BLACK
6
CONTINUOUS
10
192.656
20
-100.046
11
192.724
21
-99.876
0
LINE
8
BLACK
6
CONTINUOUS
10
192.724
20
-99.876
11
192.828
21
-99.7241
0
LINE
8
BLACK
6
CONTINUOUS
10
192.828
20
-99.7241
11
192.961
21
-99.598
0
LINE
8
BLACK
6
CONTINUOUS
10
192.961
20
-99.598
11
193.118
21
-99.5034
0
LINE
8
BLACK
6
CONTINUOUS
10
193.118
20
-99.5034
11
193.292
21
-99.4448
0
LINE
8
BLACK
6
CONTINUOUS
10
193.292
20
-99.4448
11
193.475
21
-99.425
0
LINE
8
BLACK
6
CONTINUOUS
10
193.475
20
-99.425
11
194.275
21
-99.425
0
LINE
8
BLACK
6
CONTINUOUS
10
194.275
20
-99.425
11
194.37
21
-99.4303
0
LINE
8
BLACK
6
CONTINUOUS
10
190.37
20
-99.4303
11
190.549
21
-99.4703
0
LINE
8
BLACK
6
CONTINUOUS
10
190.549
20
-99.4703
11
190.715
21
-99.5479
0
LINE
8
BLACK
6
CONTINUOUS
10
190.715
20
-99.5479
11
190.861
21
-99.6595
0
LINE
8
BLACK
6
CONTINUOUS
10
190.861
20
-99.6595
11
190.98
21
-99.7997
0
LINE
8
BLACK
6
CONTINUOUS
10
190.98
20
-99.7997
11
191.065
21
-99.9621
0
LINE
8
BLACK
6
CONTINUOUS
10
191.065
20
-99.9621
11
191.114
21
-100.139
0
LINE
8
BLACK
6
CONTINUOUS
10
191.114
20
-100.139
11
191.124
21
-100.322
0
LINE
8
BLACK
6
CONTINUOUS
10
191.124
20
-100.322
11
191.094
21
-100.504
0
LINE
8
BLACK
6
CONTINUOUS
10
191.094
20
-100.504
11
191.026
21
-100.674
0
LINE
8
BLACK
6
CONTINUOUS
10
191.026
20
-100.674
11
190.922
21
-100.826
0
LINE
8
BLACK
6
CONTINUOUS
10
190.922
20
-100.826
11
190.789
21
-100.952
0
LINE
8
BLACK
6
CONTINUOUS
10
190.789
20
-100.952
11
190.632
21
-101.047
0
LINE
8
BLACK
6
CONTINUOUS
10
190.632
20
-101.047
11
190.458
21
-101.105
0
LINE
8
BLACK
6
CONTINUOUS
10
190.458
20
-101.105
11
190.275
21
-101.125
0
LINE
8
BLACK
6
CONTINUOUS
10
190.275
20
-101.125
11
189.475
21
-101.125
0
LINE
8
BLACK
6
CONTINUOUS
10
189.475
20
-101.125
11
189.38
21
-101.12
0
LINE
8
BLACK
6
CONTINUOUS
10
189.38
20
-101.12
11
189.201
21
-101.08
0
LINE
8
BLACK
6
CONTINUOUS
10
189.201
20
-101.08
11
189.035
21
-101.002
0
LINE
8
BLACK
6
CONTINUOUS
10
189.035
20
-101.002
11
188.889
21
-100.891
0
LINE
8
BLACK
6
CONTINUOUS
10
188.889
20
-100.891
11
188.77
21
-100.75
0
LINE
8
BLACK
6
CONTINUOUS
10
188.77
20
-100.75
11
188.685
21
-100.588
0
LINE
8
BLACK
6
CONTINUOUS
10
188.685
20
-100.588
11
188.636
21
-100.411
0
LINE
8
BLACK
6
CONTINUOUS
10
188.636
20
-100.411
11
188.626
21
-100.228
0
LINE
8
BLACK
6
CONTINUOUS
10
188.626
20
-100.228
11
188.656
21
-100.046
0
LINE
8
BLACK
6
CONTINUOUS
10
188.656
20
-100.046
11
188.724
21
-99.876
0
LINE
8
BLACK
6
CONTINUOUS
10
188.724
20
-99.876
11
188.828
21
-99.7241
0
LINE
8
BLACK
6
CONTINUOUS
10
188.828
20
-99.7241
11
188.961
21
-99.598
0
LINE
8
BLACK
6
CONTINUOUS
10
188.961
20
-99.598
11
189.118
21
-99.5034
0
LINE
8
BLACK
6
CONTINUOUS
10
189.118
20
-99.5034
11
189.292
21
-99.4448
0
LINE
8
BLACK
6
CONTINUOUS
10
189.292
20
-99.4448
11
189.475
21
-99.425
0
LINE
8
BLACK
6
CONTINUOUS
10
189.475
20
-99.425
11
190.275
21
-99.425
0
LINE
8
BLACK
6
CONTINUOUS
10
190.275
20
-99.425
11
190.37
21
-99.4303
0
LINE
8
BLACK
6
CONTINUOUS
10
197.895
20
-93.4
11
197.095
21
-93.4
0
LINE
8
BLACK
6
CONTINUOUS
10
197.095
20
-93.4
11
197.095
21
-92.4
0
LINE
8
BLACK
6
CONTINUOUS
10
197.095
20
-92.4
11
197.895
21
-92.4
0
LINE
8
BLACK
6
CONTINUOUS
10
197.895
20
-92.4
11
197.895
21
-93.4
0
LINE
8
BLACK
6
CONTINUOUS
10
200.105
20
-93.4
11
199.305
21
-93.4
0
LINE
8
BLACK
6
CONTINUOUS
10
199.305
20
-93.4
11
199.305
21
-92.4
0
LINE
8
BLACK
6
CONTINUOUS
10
199.305
20
-92.4
11
200.105
21
-92.4
0
LINE
8
BLACK
6
CONTINUOUS
10
200.105
20
-92.4
11
200.105
21
-93.4
0
LINE
8
BLACK
6
CONTINUOUS
10
197.595
20
-91.85
11
196.095
21
-91.85
0
LINE
8
BLACK
6
CONTINUOUS
10
196.095
20
-91.85
11
196.095
21
-91.15
0
LINE
8
BLACK
6
CONTINUOUS
10
196.095
20
-91.15
11
197.595
21
-91.15
0
LINE
8
BLACK
6
CONTINUOUS
10
197.595
20
-91.15
11
197.595
21
-91.85
0
LINE
8
BLACK
6
CONTINUOUS
10
198.672
20
-90.3049
11
198.794
21
-90.3415
0
LINE
8
BLACK
6
CONTINUOUS
10
198.794
20
-90.3415
11
198.901
21
-90.4109
0
LINE
8
BLACK
6
CONTINUOUS
10
198.901
20
-90.4109
11
198.984
21
-90.5076
0
LINE
8
BLACK
6
CONTINUOUS
10
198.984
20
-90.5076
11
199.037
21
-90.6237
0
LINE
8
BLACK
6
CONTINUOUS
10
199.037
20
-90.6237
11
199.055
21
-90.75
0
LINE
8
BLACK
6
CONTINUOUS
10
199.055
20
-90.75
11
199.055
21
-90.761
0
LINE
8
BLACK
6
CONTINUOUS
10
199.055
20
-90.761
11
199.034
21
-90.8868
0
LINE
8
BLACK
6
CONTINUOUS
10
199.034
20
-90.8868
11
198.978
21
-91.0016
0
LINE
8
BLACK
6
CONTINUOUS
10
198.978
20
-91.0016
11
198.892
21
-91.0962
0
LINE
8
BLACK
6
CONTINUOUS
10
198.892
20
-91.0962
11
198.784
21
-91.163
0
LINE
8
BLACK
6
CONTINUOUS
10
198.784
20
-91.163
11
198.661
21
-91.1966
0
LINE
8
BLACK
6
CONTINUOUS
10
198.661
20
-91.1966
11
198.533
21
-91.1942
0
LINE
8
BLACK
6
CONTINUOUS
10
198.533
20
-91.1942
11
198.411
21
-91.1562
0
LINE
8
BLACK
6
CONTINUOUS
10
198.411
20
-91.1562
11
198.305
21
-91.0855
0
LINE
8
BLACK
6
CONTINUOUS
10
198.305
20
-91.0855
11
198.223
21
-90.9878
0
LINE
8
BLACK
6
CONTINUOUS
10
198.223
20
-90.9878
11
198.172
21
-90.871
0
LINE
8
BLACK
6
CONTINUOUS
10
198.172
20
-90.871
11
198.155
21
-90.7445
0
LINE
8
BLACK
6
CONTINUOUS
10
198.155
20
-90.7445
11
198.175
21
-90.6184
0
LINE
8
BLACK
6
CONTINUOUS
10
198.175
20
-90.6184
11
198.229
21
-90.5029
0
LINE
8
BLACK
6
CONTINUOUS
10
198.229
20
-90.5029
11
198.313
21
-90.4073
0
LINE
8
BLACK
6
CONTINUOUS
10
198.313
20
-90.4073
11
198.421
21
-90.3392
0
LINE
8
BLACK
6
CONTINUOUS
10
198.421
20
-90.3392
11
198.544
21
-90.3042
0
LINE
8
BLACK
6
CONTINUOUS
10
198.544
20
-90.3042
11
198.672
21
-90.3049
0
LINE
8
BLACK
6
CONTINUOUS
10
197.595
20
-90.35
11
196.095
21
-90.35
0
LINE
8
BLACK
6
CONTINUOUS
10
196.095
20
-90.35
11
196.095
21
-89.65
0
LINE
8
BLACK
6
CONTINUOUS
10
196.095
20
-89.65
11
197.595
21
-89.65
0
LINE
8
BLACK
6
CONTINUOUS
10
197.595
20
-89.65
11
197.595
21
-90.35
0
LINE
8
BLACK
6
CONTINUOUS
10
180.563
20
-85.0246
11
180.838
21
-85.0884
0
LINE
8
BLACK
6
CONTINUOUS
10
180.838
20
-85.0884
11
181.102
21
-85.1903
0
LINE
8
BLACK
6
CONTINUOUS
10
181.102
20
-85.1903
11
181.348
21
-85.3284
0
LINE
8
BLACK
6
CONTINUOUS
10
181.348
20
-85.3284
11
181.573
21
-85.4998
0
LINE
8
BLACK
6
CONTINUOUS
10
181.573
20
-85.4998
11
181.771
21
-85.7011
0
LINE
8
BLACK
6
CONTINUOUS
10
181.771
20
-85.7011
11
181.939
21
-85.9283
0
LINE
8
BLACK
6
CONTINUOUS
10
181.939
20
-85.9283
11
182.073
21
-86.177
0
LINE
8
BLACK
6
CONTINUOUS
10
182.073
20
-86.177
11
182.171
21
-86.442
0
LINE
8
BLACK
6
CONTINUOUS
10
182.171
20
-86.442
11
182.23
21
-86.7182
0
LINE
8
BLACK
6
CONTINUOUS
10
182.23
20
-86.7182
11
182.25
21
-87
0
LINE
8
BLACK
6
CONTINUOUS
10
182.25
20
-87
11
182.246
21
-87.1256
0
LINE
8
BLACK
6
CONTINUOUS
10
182.246
20
-87.1256
11
182.208
21
-87.4056
0
LINE
8
BLACK
6
CONTINUOUS
10
182.208
20
-87.4056
11
182.132
21
-87.6775
0
LINE
8
BLACK
6
CONTINUOUS
10
182.132
20
-87.6775
11
182.018
21
-87.9359
0
LINE
8
BLACK
6
CONTINUOUS
10
182.018
20
-87.9359
11
181.868
21
-88.1756
0
LINE
8
BLACK
6
CONTINUOUS
10
181.868
20
-88.1756
11
181.686
21
-88.3918
0
LINE
8
BLACK
6
CONTINUOUS
10
181.686
20
-88.3918
11
181.476
21
-88.5803
0
LINE
8
BLACK
6
CONTINUOUS
10
181.476
20
-88.5803
11
181.241
21
-88.7373
0
LINE
8
BLACK
6
CONTINUOUS
10
181.241
20
-88.7373
11
180.986
21
-88.8596
0
LINE
8
BLACK
6
CONTINUOUS
10
180.986
20
-88.8596
11
180.717
21
-88.9447
0
LINE
8
BLACK
6
CONTINUOUS
10
180.717
20
-88.9447
11
180.438
21
-88.9911
0
LINE
8
BLACK
6
CONTINUOUS
10
180.438
20
-88.9911
11
180.156
21
-88.9978
0
LINE
8
BLACK
6
CONTINUOUS
10
180.156
20
-88.9978
11
179.875
21
-88.9646
0
LINE
8
BLACK
6
CONTINUOUS
10
179.875
20
-88.9646
11
179.602
21
-88.8922
0
LINE
8
BLACK
6
CONTINUOUS
10
179.602
20
-88.8922
11
179.342
21
-88.782
0
LINE
8
BLACK
6
CONTINUOUS
10
179.342
20
-88.782
11
179.1
21
-88.6363
0
LINE
8
BLACK
6
CONTINUOUS
10
179.1
20
-88.6363
11
178.881
21
-88.4579
0
LINE
8
BLACK
6
CONTINUOUS
10
178.881
20
-88.4579
11
178.689
21
-88.2505
0
LINE
8
BLACK
6
CONTINUOUS
10
178.689
20
-88.2505
11
178.529
21
-88.0181
0
LINE
8
BLACK
6
CONTINUOUS
10
178.529
20
-88.0181
11
178.402
21
-87.7654
0
LINE
8
BLACK
6
CONTINUOUS
10
178.402
20
-87.7654
11
178.313
21
-87.4974
0
LINE
8
BLACK
6
CONTINUOUS
10
178.313
20
-87.4974
11
178.262
21
-87.2195
0
LINE
8
BLACK
6
CONTINUOUS
10
178.262
20
-87.2195
11
178.251
21
-86.9372
0
LINE
8
BLACK
6
CONTINUOUS
10
178.251
20
-86.9372
11
178.28
21
-86.6561
0
LINE
8
BLACK
6
CONTINUOUS
10
178.28
20
-86.6561
11
178.348
21
-86.382
0
LINE
8
BLACK
6
CONTINUOUS
10
178.348
20
-86.382
11
178.454
21
-86.1201
0
LINE
8
BLACK
6
CONTINUOUS
10
178.454
20
-86.1201
11
178.596
21
-85.8758
0
LINE
8
BLACK
6
CONTINUOUS
10
178.596
20
-85.8758
11
178.771
21
-85.654
0
LINE
8
BLACK
6
CONTINUOUS
10
178.771
20
-85.654
11
178.975
21
-85.459
0
LINE
8
BLACK
6
CONTINUOUS
10
178.975
20
-85.459
11
179.205
21
-85.2947
0
LINE
8
BLACK
6
CONTINUOUS
10
179.205
20
-85.2947
11
179.456
21
-85.1645
0
LINE
8
BLACK
6
CONTINUOUS
10
179.456
20
-85.1645
11
179.722
21
-85.0709
0
LINE
8
BLACK
6
CONTINUOUS
10
179.722
20
-85.0709
11
179.999
21
-85.0158
0
LINE
8
BLACK
6
CONTINUOUS
10
179.999
20
-85.0158
11
180.281
21
-85.0002
0
LINE
8
BLACK
6
CONTINUOUS
10
180.281
20
-85.0002
11
180.563
21
-85.0246
0
LINE
8
BLACK
6
CONTINUOUS
10
198.672
20
-87.3049
11
198.794
21
-87.3415
0
LINE
8
BLACK
6
CONTINUOUS
10
198.794
20
-87.3415
11
198.901
21
-87.4109
0
LINE
8
BLACK
6
CONTINUOUS
10
198.901
20
-87.4109
11
198.984
21
-87.5076
0
LINE
8
BLACK
6
CONTINUOUS
10
198.984
20
-87.5076
11
199.037
21
-87.6237
0
LINE
8
BLACK
6
CONTINUOUS
10
199.037
20
-87.6237
11
199.055
21
-87.75
0
LINE
8
BLACK
6
CONTINUOUS
10
199.055
20
-87.75
11
199.055
21
-87.761
0
LINE
8
BLACK
6
CONTINUOUS
10
199.055
20
-87.761
11
199.034
21
-87.8868
0
LINE
8
BLACK
6
CONTINUOUS
10
199.034
20
-87.8868
11
198.978
21
-88.0016
0
LINE
8
BLACK
6
CONTINUOUS
10
198.978
20
-88.0016
11
198.892
21
-88.0962
0
LINE
8
BLACK
6
CONTINUOUS
10
198.892
20
-88.0962
11
198.784
21
-88.163
0
LINE
8
BLACK
6
CONTINUOUS
10
198.784
20
-88.163
11
198.661
21
-88.1966
0
LINE
8
BLACK
6
CONTINUOUS
10
198.661
20
-88.1966
11
198.533
21
-88.1942
0
LINE
8
BLACK
6
CONTINUOUS
10
198.533
20
-88.1942
11
198.411
21
-88.1562
0
LINE
8
BLACK
6
CONTINUOUS
10
198.411
20
-88.1562
11
198.305
21
-88.0855
0
LINE
8
BLACK
6
CONTINUOUS
10
198.305
20
-88.0855
11
198.223
21
-87.9878
0
LINE
8
BLACK
6
CONTINUOUS
10
198.223
20
-87.9878
11
198.172
21
-87.871
0
LINE
8
BLACK
6
CONTINUOUS
10
198.172
20
-87.871
11
198.155
21
-87.7445
0
LINE
8
BLACK
6
CONTINUOUS
10
198.155
20
-87.7445
11
198.175
21
-87.6184
0
LINE
8
BLACK
6
CONTINUOUS
10
198.175
20
-87.6184
11
198.229
21
-87.5029
0
LINE
8
BLACK
6
CONTINUOUS
10
198.229
20
-87.5029
11
198.313
21
-87.4073
0
LINE
8
BLACK
6
CONTINUOUS
10
198.313
20
-87.4073
11
198.421
21
-87.3392
0
LINE
8
BLACK
6
CONTINUOUS
10
198.421
20
-87.3392
11
198.544
21
-87.3042
0
LINE
8
BLACK
6
CONTINUOUS
10
198.544
20
-87.3042
11
198.672
21
-87.3049
0
LINE
8
BLACK
6
CONTINUOUS
10
197.595
20
-87.35
11
196.095
21
-87.35
0
LINE
8
BLACK
6
CONTINUOUS
10
196.095
20
-87.35
11
196.095
21
-86.65
0
LINE
8
BLACK
6
CONTINUOUS
10
196.095
20
-86.65
11
197.595
21
-86.65
0
LINE
8
BLACK
6
CONTINUOUS
10
197.595
20
-86.65
11
197.595
21
-87.35
0
LINE
8
BLACK
6
CONTINUOUS
10
188.363
20
-85.557
11
188.525
21
-85.5979
0
LINE
8
BLACK
6
CONTINUOUS
10
188.525
20
-85.5979
11
188.674
21
-85.6764
0
LINE
8
BLACK
6
CONTINUOUS
10
188.674
20
-85.6764
11
188.799
21
-85.7881
0
LINE
8
BLACK
6
CONTINUOUS
10
188.799
20
-85.7881
11
188.894
21
-85.9264
0
LINE
8
BLACK
6
CONTINUOUS
10
188.894
20
-85.9264
11
188.953
21
-86.0834
0
LINE
8
BLACK
6
CONTINUOUS
10
188.953
20
-86.0834
11
188.973
21
-86.25
0
LINE
8
BLACK
6
CONTINUOUS
10
188.973
20
-86.25
11
188.973
21
-86.2646
0
LINE
8
BLACK
6
CONTINUOUS
10
188.973
20
-86.2646
11
188.95
21
-86.4308
0
LINE
8
BLACK
6
CONTINUOUS
10
188.95
20
-86.4308
11
188.887
21
-86.5865
0
LINE
8
BLACK
6
CONTINUOUS
10
188.887
20
-86.5865
11
188.789
21
-86.7228
0
LINE
8
BLACK
6
CONTINUOUS
10
188.789
20
-86.7228
11
188.662
21
-86.8318
0
LINE
8
BLACK
6
CONTINUOUS
10
188.662
20
-86.8318
11
188.512
21
-86.9072
0
LINE
8
BLACK
6
CONTINUOUS
10
188.512
20
-86.9072
11
188.348
21
-86.9447
0
LINE
8
BLACK
6
CONTINUOUS
10
188.348
20
-86.9447
11
188.18
21
-86.942
0
LINE
8
BLACK
6
CONTINUOUS
10
188.18
20
-86.942
11
188.018
21
-86.8995
0
LINE
8
BLACK
6
CONTINUOUS
10
188.018
20
-86.8995
11
187.87
21
-86.8194
0
LINE
8
BLACK
6
CONTINUOUS
10
187.87
20
-86.8194
11
187.746
21
-86.7064
0
LINE
8
BLACK
6
CONTINUOUS
10
187.746
20
-86.7064
11
187.653
21
-86.5671
0
LINE
8
BLACK
6
CONTINUOUS
10
187.653
20
-86.5671
11
187.595
21
-86.4095
0
LINE
8
BLACK
6
CONTINUOUS
10
187.595
20
-86.4095
11
187.577
21
-86.2427
0
LINE
8
BLACK
6
CONTINUOUS
10
187.577
20
-86.2427
11
187.598
21
-86.0763
0
LINE
8
BLACK
6
CONTINUOUS
10
187.598
20
-86.0763
11
187.659
21
-85.9199
0
LINE
8
BLACK
6
CONTINUOUS
10
187.659
20
-85.9199
11
187.756
21
-85.7826
0
LINE
8
BLACK
6
CONTINUOUS
10
187.756
20
-85.7826
11
187.882
21
-85.6723
0
LINE
8
BLACK
6
CONTINUOUS
10
187.882
20
-85.6723
11
188.032
21
-85.5953
0
LINE
8
BLACK
6
CONTINUOUS
10
188.032
20
-85.5953
11
188.195
21
-85.5561
0
LINE
8
BLACK
6
CONTINUOUS
10
188.195
20
-85.5561
11
188.363
21
-85.557
0
LINE
8
BLACK
6
CONTINUOUS
10
190.363
20
-85.557
11
190.525
21
-85.5979
0
LINE
8
BLACK
6
CONTINUOUS
10
190.525
20
-85.5979
11
190.674
21
-85.6764
0
LINE
8
BLACK
6
CONTINUOUS
10
190.674
20
-85.6764
11
190.799
21
-85.7881
0
LINE
8
BLACK
6
CONTINUOUS
10
190.799
20
-85.7881
11
190.894
21
-85.9264
0
LINE
8
BLACK
6
CONTINUOUS
10
190.894
20
-85.9264
11
190.953
21
-86.0834
0
LINE
8
BLACK
6
CONTINUOUS
10
190.953
20
-86.0834
11
190.973
21
-86.25
0
LINE
8
BLACK
6
CONTINUOUS
10
190.973
20
-86.25
11
190.973
21
-86.2646
0
LINE
8
BLACK
6
CONTINUOUS
10
190.973
20
-86.2646
11
190.95
21
-86.4308
0
LINE
8
BLACK
6
CONTINUOUS
10
190.95
20
-86.4308
11
190.887
21
-86.5865
0
LINE
8
BLACK
6
CONTINUOUS
10
190.887
20
-86.5865
11
190.789
21
-86.7228
0
LINE
8
BLACK
6
CONTINUOUS
10
190.789
20
-86.7228
11
190.662
21
-86.8318
0
LINE
8
BLACK
6
CONTINUOUS
10
190.662
20
-86.8318
11
190.512
21
-86.9072
0
LINE
8
BLACK
6
CONTINUOUS
10
190.512
20
-86.9072
11
190.348
21
-86.9447
0
LINE
8
BLACK
6
CONTINUOUS
10
190.348
20
-86.9447
11
190.18
21
-86.942
0
LINE
8
BLACK
6
CONTINUOUS
10
190.18
20
-86.942
11
190.018
21
-86.8995
0
LINE
8
BLACK
6
CONTINUOUS
10
190.018
20
-86.8995
11
189.87
21
-86.8194
0
LINE
8
BLACK
6
CONTINUOUS
10
189.87
20
-86.8194
11
189.746
21
-86.7064
0
LINE
8
BLACK
6
CONTINUOUS
10
189.746
20
-86.7064
11
189.653
21
-86.5671
0
LINE
8
BLACK
6
CONTINUOUS
10
189.653
20
-86.5671
11
189.595
21
-86.4095
0
LINE
8
BLACK
6
CONTINUOUS
10
189.595
20
-86.4095
11
189.577
21
-86.2427
0
LINE
8
BLACK
6
CONTINUOUS
10
189.577
20
-86.2427
11
189.598
21
-86.0763
0
LINE
8
BLACK
6
CONTINUOUS
10
189.598
20
-86.0763
11
189.659
21
-85.9199
0
LINE
8
BLACK
6
CONTINUOUS
10
189.659
20
-85.9199
11
189.756
21
-85.7826
0
LINE
8
BLACK
6
CONTINUOUS
10
189.756
20
-85.7826
11
189.882
21
-85.6723
0
LINE
8
BLACK
6
CONTINUOUS
10
189.882
20
-85.6723
11
190.032
21
-85.5953
0
LINE
8
BLACK
6
CONTINUOUS
10
190.032
20
-85.5953
11
190.195
21
-85.5561
0
LINE
8
BLACK
6
CONTINUOUS
10
190.195
20
-85.5561
11
190.363
21
-85.557
0
LINE
8
BLACK
6
CONTINUOUS
10
200.105
20
-86.1
11
199.305
21
-86.1
0
LINE
8
BLACK
6
CONTINUOUS
10
199.305
20
-86.1
11
199.305
21
-85.1
0
LINE
8
BLACK
6
CONTINUOUS
10
199.305
20
-85.1
11
200.105
21
-85.1
0
LINE
8
BLACK
6
CONTINUOUS
10
200.105
20
-85.1
11
200.105
21
-86.1
0
LINE
8
BLACK
6
CONTINUOUS
10
197.895
20
-86.1
11
197.095
21
-86.1
0
LINE
8
BLACK
6
CONTINUOUS
10
197.095
20
-86.1
11
197.095
21
-85.1
0
LINE
8
BLACK
6
CONTINUOUS
10
197.095
20
-85.1
11
197.895
21
-85.1
0
LINE
8
BLACK
6
CONTINUOUS
10
197.895
20
-85.1
11
197.895
21
-86.1
0
LINE
8
BLACK
6
CONTINUOUS
10
171.238
20
-83.0291
11
171.398
21
-83.0861
0
LINE
8
BLACK
6
CONTINUOUS
10
171.398
20
-83.0861
11
171.542
21
-83.1771
0
LINE
8
BLACK
6
CONTINUOUS
10
171.542
20
-83.1771
11
171.661
21
-83.2976
0
LINE
8
BLACK
6
CONTINUOUS
10
171.661
20
-83.2976
11
171.751
21
-83.4417
0
LINE
8
BLACK
6
CONTINUOUS
10
171.751
20
-83.4417
11
171.807
21
-83.6021
0
LINE
8
BLACK
6
CONTINUOUS
10
171.807
20
-83.6021
11
171.826
21
-83.7709
0
LINE
8
BLACK
6
CONTINUOUS
10
171.826
20
-83.7709
11
171.826
21
-83.7922
0
LINE
8
BLACK
6
CONTINUOUS
10
171.826
20
-83.7922
11
171.802
21
-83.9604
0
LINE
8
BLACK
6
CONTINUOUS
10
171.802
20
-83.9604
11
171.742
21
-84.1193
0
LINE
8
BLACK
6
CONTINUOUS
10
171.742
20
-84.1193
11
171.648
21
-84.2608
0
LINE
8
BLACK
6
CONTINUOUS
10
171.648
20
-84.2608
11
171.525
21
-84.3779
0
LINE
8
BLACK
6
CONTINUOUS
10
171.525
20
-84.3779
11
171.379
21
-84.4649
0
LINE
8
BLACK
6
CONTINUOUS
10
171.379
20
-84.4649
11
171.217
21
-84.5174
0
LINE
8
BLACK
6
CONTINUOUS
10
171.217
20
-84.5174
11
171.048
21
-84.5328
0
LINE
8
BLACK
6
CONTINUOUS
10
171.048
20
-84.5328
11
170.88
21
-84.5103
0
LINE
8
BLACK
6
CONTINUOUS
10
170.88
20
-84.5103
11
170.721
21
-84.4511
0
LINE
8
BLACK
6
CONTINUOUS
10
170.721
20
-84.4511
11
170.579
21
-84.3581
0
LINE
8
BLACK
6
CONTINUOUS
10
170.579
20
-84.3581
11
170.461
21
-84.2359
0
LINE
8
BLACK
6
CONTINUOUS
10
170.461
20
-84.2359
11
170.373
21
-84.0906
0
LINE
8
BLACK
6
CONTINUOUS
10
170.373
20
-84.0906
11
170.319
21
-83.9294
0
LINE
8
BLACK
6
CONTINUOUS
10
170.319
20
-83.9294
11
170.302
21
-83.7603
0
LINE
8
BLACK
6
CONTINUOUS
10
170.302
20
-83.7603
11
170.324
21
-83.5918
0
LINE
8
BLACK
6
CONTINUOUS
10
170.324
20
-83.5918
11
170.382
21
-83.4321
0
LINE
8
BLACK
6
CONTINUOUS
10
170.382
20
-83.4321
11
170.474
21
-83.2893
0
LINE
8
BLACK
6
CONTINUOUS
10
170.474
20
-83.2893
11
170.595
21
-83.1705
0
LINE
8
BLACK
6
CONTINUOUS
10
170.595
20
-83.1705
11
170.74
21
-83.0815
0
LINE
8
BLACK
6
CONTINUOUS
10
170.74
20
-83.0815
11
170.901
21
-83.0267
0
LINE
8
BLACK
6
CONTINUOUS
10
170.901
20
-83.0267
11
171.07
21
-83.009
0
LINE
8
BLACK
6
CONTINUOUS
10
171.07
20
-83.009
11
171.238
21
-83.0291
0
LINE
8
BLACK
6
CONTINUOUS
10
168.698
20
-83.0291
11
168.858
21
-83.0861
0
LINE
8
BLACK
6
CONTINUOUS
10
168.858
20
-83.0861
11
169.002
21
-83.1771
0
LINE
8
BLACK
6
CONTINUOUS
10
169.002
20
-83.1771
11
169.121
21
-83.2976
0
LINE
8
BLACK
6
CONTINUOUS
10
169.121
20
-83.2976
11
169.211
21
-83.4417
0
LINE
8
BLACK
6
CONTINUOUS
10
169.211
20
-83.4417
11
169.267
21
-83.6021
0
LINE
8
BLACK
6
CONTINUOUS
10
169.267
20
-83.6021
11
169.286
21
-83.7709
0
LINE
8
BLACK
6
CONTINUOUS
10
169.286
20
-83.7709
11
169.286
21
-83.7922
0
LINE
8
BLACK
6
CONTINUOUS
10
169.286
20
-83.7922
11
169.262
21
-83.9604
0
LINE
8
BLACK
6
CONTINUOUS
10
169.262
20
-83.9604
11
169.202
21
-84.1193
0
LINE
8
BLACK
6
CONTINUOUS
10
169.202
20
-84.1193
11
169.108
21
-84.2608
0
LINE
8
BLACK
6
CONTINUOUS
10
169.108
20
-84.2608
11
168.985
21
-84.3779
0
LINE
8
BLACK
6
CONTINUOUS
10
168.985
20
-84.3779
11
168.839
21
-84.4649
0
LINE
8
BLACK
6
CONTINUOUS
10
168.839
20
-84.4649
11
168.677
21
-84.5174
0
LINE
8
BLACK
6
CONTINUOUS
10
168.677
20
-84.5174
11
168.508
21
-84.5328
0
LINE
8
BLACK
6
CONTINUOUS
10
168.508
20
-84.5328
11
168.34
21
-84.5103
0
LINE
8
BLACK
6
CONTINUOUS
10
168.34
20
-84.5103
11
168.181
21
-84.4511
0
LINE
8
BLACK
6
CONTINUOUS
10
168.181
20
-84.4511
11
168.039
21
-84.3581
0
LINE
8
BLACK
6
CONTINUOUS
10
168.039
20
-84.3581
11
167.921
21
-84.2359
0
LINE
8
BLACK
6
CONTINUOUS
10
167.921
20
-84.2359
11
167.833
21
-84.0906
0
LINE
8
BLACK
6
CONTINUOUS
10
167.833
20
-84.0906
11
167.779
21
-83.9294
0
LINE
8
BLACK
6
CONTINUOUS
10
167.779
20
-83.9294
11
167.762
21
-83.7603
0
LINE
8
BLACK
6
CONTINUOUS
10
167.762
20
-83.7603
11
167.784
21
-83.5918
0
LINE
8
BLACK
6
CONTINUOUS
10
167.784
20
-83.5918
11
167.842
21
-83.4321
0
LINE
8
BLACK
6
CONTINUOUS
10
167.842
20
-83.4321
11
167.934
21
-83.2893
0
LINE
8
BLACK
6
CONTINUOUS
10
167.934
20
-83.2893
11
168.055
21
-83.1705
0
LINE
8
BLACK
6
CONTINUOUS
10
168.055
20
-83.1705
11
168.2
21
-83.0815
0
LINE
8
BLACK
6
CONTINUOUS
10
168.2
20
-83.0815
11
168.361
21
-83.0267
0
LINE
8
BLACK
6
CONTINUOUS
10
168.361
20
-83.0267
11
168.53
21
-83.009
0
LINE
8
BLACK
6
CONTINUOUS
10
168.53
20
-83.009
11
168.698
21
-83.0291
0
LINE
8
BLACK
6
CONTINUOUS
10
173.778
20
-83.0291
11
173.938
21
-83.0861
0
LINE
8
BLACK
6
CONTINUOUS
10
173.938
20
-83.0861
11
174.082
21
-83.1771
0
LINE
8
BLACK
6
CONTINUOUS
10
174.082
20
-83.1771
11
174.201
21
-83.2976
0
LINE
8
BLACK
6
CONTINUOUS
10
174.201
20
-83.2976
11
174.291
21
-83.4417
0
LINE
8
BLACK
6
CONTINUOUS
10
174.291
20
-83.4417
11
174.347
21
-83.6021
0
LINE
8
BLACK
6
CONTINUOUS
10
174.347
20
-83.6021
11
174.366
21
-83.7709
0
LINE
8
BLACK
6
CONTINUOUS
10
174.366
20
-83.7709
11
174.366
21
-83.7922
0
LINE
8
BLACK
6
CONTINUOUS
10
174.366
20
-83.7922
11
174.342
21
-83.9604
0
LINE
8
BLACK
6
CONTINUOUS
10
174.342
20
-83.9604
11
174.282
21
-84.1193
0
LINE
8
BLACK
6
CONTINUOUS
10
174.282
20
-84.1193
11
174.188
21
-84.2608
0
LINE
8
BLACK
6
CONTINUOUS
10
174.188
20
-84.2608
11
174.065
21
-84.3779
0
LINE
8
BLACK
6
CONTINUOUS
10
174.065
20
-84.3779
11
173.919
21
-84.4649
0
LINE
8
BLACK
6
CONTINUOUS
10
173.919
20
-84.4649
11
173.757
21
-84.5174
0
LINE
8
BLACK
6
CONTINUOUS
10
173.757
20
-84.5174
11
173.588
21
-84.5328
0
LINE
8
BLACK
6
CONTINUOUS
10
173.588
20
-84.5328
11
173.42
21
-84.5103
0
LINE
8
BLACK
6
CONTINUOUS
10
173.42
20
-84.5103
11
173.261
21
-84.4511
0
LINE
8
BLACK
6
CONTINUOUS
10
173.261
20
-84.4511
11
173.119
21
-84.3581
0
LINE
8
BLACK
6
CONTINUOUS
10
173.119
20
-84.3581
11
173.001
21
-84.2359
0
LINE
8
BLACK
6
CONTINUOUS
10
173.001
20
-84.2359
11
172.913
21
-84.0906
0
LINE
8
BLACK
6
CONTINUOUS
10
172.913
20
-84.0906
11
172.859
21
-83.9294
0
LINE
8
BLACK
6
CONTINUOUS
10
172.859
20
-83.9294
11
172.842
21
-83.7603
0
LINE
8
BLACK
6
CONTINUOUS
10
172.842
20
-83.7603
11
172.864
21
-83.5918
0
LINE
8
BLACK
6
CONTINUOUS
10
172.864
20
-83.5918
11
172.922
21
-83.4321
0
LINE
8
BLACK
6
CONTINUOUS
10
172.922
20
-83.4321
11
173.014
21
-83.2893
0
LINE
8
BLACK
6
CONTINUOUS
10
173.014
20
-83.2893
11
173.135
21
-83.1705
0
LINE
8
BLACK
6
CONTINUOUS
10
173.135
20
-83.1705
11
173.28
21
-83.0815
0
LINE
8
BLACK
6
CONTINUOUS
10
173.28
20
-83.0815
11
173.441
21
-83.0267
0
LINE
8
BLACK
6
CONTINUOUS
10
173.441
20
-83.0267
11
173.61
21
-83.009
0
LINE
8
BLACK
6
CONTINUOUS
10
173.61
20
-83.009
11
173.778
21
-83.0291
0
LINE
8
BLACK
6
CONTINUOUS
10
176.318
20
-83.0291
11
176.478
21
-83.0861
0
LINE
8
BLACK
6
CONTINUOUS
10
176.478
20
-83.0861
11
176.622
21
-83.1771
0
LINE
8
BLACK
6
CONTINUOUS
10
176.622
20
-83.1771
11
176.741
21
-83.2976
0
LINE
8
BLACK
6
CONTINUOUS
10
176.741
20
-83.2976
11
176.831
21
-83.4417
0
LINE
8
BLACK
6
CONTINUOUS
10
176.831
20
-83.4417
11
176.887
21
-83.6021
0
LINE
8
BLACK
6
CONTINUOUS
10
176.887
20
-83.6021
11
176.906
21
-83.7709
0
LINE
8
BLACK
6
CONTINUOUS
10
176.906
20
-83.7709
11
176.906
21
-83.7922
0
LINE
8
BLACK
6
CONTINUOUS
10
176.906
20
-83.7922
11
176.882
21
-83.9604
0
LINE
8
BLACK
6
CONTINUOUS
10
176.882
20
-83.9604
11
176.822
21
-84.1193
0
LINE
8
BLACK
6
CONTINUOUS
10
176.822
20
-84.1193
11
176.728
21
-84.2608
0
LINE
8
BLACK
6
CONTINUOUS
10
176.728
20
-84.2608
11
176.605
21
-84.3779
0
LINE
8
BLACK
6
CONTINUOUS
10
176.605
20
-84.3779
11
176.459
21
-84.4649
0
LINE
8
BLACK
6
CONTINUOUS
10
176.459
20
-84.4649
11
176.297
21
-84.5174
0
LINE
8
BLACK
6
CONTINUOUS
10
176.297
20
-84.5174
11
176.128
21
-84.5328
0
LINE
8
BLACK
6
CONTINUOUS
10
176.128
20
-84.5328
11
175.96
21
-84.5103
0
LINE
8
BLACK
6
CONTINUOUS
10
175.96
20
-84.5103
11
175.801
21
-84.4511
0
LINE
8
BLACK
6
CONTINUOUS
10
175.801
20
-84.4511
11
175.659
21
-84.3581
0
LINE
8
BLACK
6
CONTINUOUS
10
175.659
20
-84.3581
11
175.541
21
-84.2359
0
LINE
8
BLACK
6
CONTINUOUS
10
175.541
20
-84.2359
11
175.453
21
-84.0906
0
LINE
8
BLACK
6
CONTINUOUS
10
175.453
20
-84.0906
11
175.399
21
-83.9294
0
LINE
8
BLACK
6
CONTINUOUS
10
175.399
20
-83.9294
11
175.382
21
-83.7603
0
LINE
8
BLACK
6
CONTINUOUS
10
175.382
20
-83.7603
11
175.404
21
-83.5918
0
LINE
8
BLACK
6
CONTINUOUS
10
175.404
20
-83.5918
11
175.462
21
-83.4321
0
LINE
8
BLACK
6
CONTINUOUS
10
175.462
20
-83.4321
11
175.554
21
-83.2893
0
LINE
8
BLACK
6
CONTINUOUS
10
175.554
20
-83.2893
11
175.675
21
-83.1705
0
LINE
8
BLACK
6
CONTINUOUS
10
175.675
20
-83.1705
11
175.82
21
-83.0815
0
LINE
8
BLACK
6
CONTINUOUS
10
175.82
20
-83.0815
11
175.981
21
-83.0267
0
LINE
8
BLACK
6
CONTINUOUS
10
175.981
20
-83.0267
11
176.15
21
-83.009
0
LINE
8
BLACK
6
CONTINUOUS
10
176.15
20
-83.009
11
176.318
21
-83.0291
0
LINE
8
BLACK
6
CONTINUOUS
10
178.858
20
-83.0291
11
179.018
21
-83.0861
0
LINE
8
BLACK
6
CONTINUOUS
10
179.018
20
-83.0861
11
179.162
21
-83.1771
0
LINE
8
BLACK
6
CONTINUOUS
10
179.162
20
-83.1771
11
179.281
21
-83.2976
0
LINE
8
BLACK
6
CONTINUOUS
10
179.281
20
-83.2976
11
179.371
21
-83.4417
0
LINE
8
BLACK
6
CONTINUOUS
10
179.371
20
-83.4417
11
179.427
21
-83.6021
0
LINE
8
BLACK
6
CONTINUOUS
10
179.427
20
-83.6021
11
179.446
21
-83.7709
0
LINE
8
BLACK
6
CONTINUOUS
10
179.446
20
-83.7709
11
179.446
21
-83.7922
0
LINE
8
BLACK
6
CONTINUOUS
10
179.446
20
-83.7922
11
179.422
21
-83.9604
0
LINE
8
BLACK
6
CONTINUOUS
10
179.422
20
-83.9604
11
179.362
21
-84.1193
0
LINE
8
BLACK
6
CONTINUOUS
10
179.362
20
-84.1193
11
179.268
21
-84.2608
0
LINE
8
BLACK
6
CONTINUOUS
10
179.268
20
-84.2608
11
179.145
21
-84.3779
0
LINE
8
BLACK
6
CONTINUOUS
10
179.145
20
-84.3779
11
178.999
21
-84.4649
0
LINE
8
BLACK
6
CONTINUOUS
10
178.999
20
-84.4649
11
178.837
21
-84.5174
0
LINE
8
BLACK
6
CONTINUOUS
10
178.837
20
-84.5174
11
178.668
21
-84.5328
0
LINE
8
BLACK
6
CONTINUOUS
10
178.668
20
-84.5328
11
178.5
21
-84.5103
0
LINE
8
BLACK
6
CONTINUOUS
10
178.5
20
-84.5103
11
178.341
21
-84.4511
0
LINE
8
BLACK
6
CONTINUOUS
10
178.341
20
-84.4511
11
178.199
21
-84.3581
0
LINE
8
BLACK
6
CONTINUOUS
10
178.199
20
-84.3581
11
178.081
21
-84.2359
0
LINE
8
BLACK
6
CONTINUOUS
10
178.081
20
-84.2359
11
177.993
21
-84.0906
0
LINE
8
BLACK
6
CONTINUOUS
10
177.993
20
-84.0906
11
177.939
21
-83.9294
0
LINE
8
BLACK
6
CONTINUOUS
10
177.939
20
-83.9294
11
177.922
21
-83.7603
0
LINE
8
BLACK
6
CONTINUOUS
10
177.922
20
-83.7603
11
177.944
21
-83.5918
0
LINE
8
BLACK
6
CONTINUOUS
10
177.944
20
-83.5918
11
178.002
21
-83.4321
0
LINE
8
BLACK
6
CONTINUOUS
10
178.002
20
-83.4321
11
178.094
21
-83.2893
0
LINE
8
BLACK
6
CONTINUOUS
10
178.094
20
-83.2893
11
178.215
21
-83.1705
0
LINE
8
BLACK
6
CONTINUOUS
10
178.215
20
-83.1705
11
178.36
21
-83.0815
0
LINE
8
BLACK
6
CONTINUOUS
10
178.36
20
-83.0815
11
178.521
21
-83.0267
0
LINE
8
BLACK
6
CONTINUOUS
10
178.521
20
-83.0267
11
178.69
21
-83.009
0
LINE
8
BLACK
6
CONTINUOUS
10
178.69
20
-83.009
11
178.858
21
-83.0291
0
LINE
8
BLACK
6
CONTINUOUS
10
181.398
20
-83.0291
11
181.558
21
-83.0861
0
LINE
8
BLACK
6
CONTINUOUS
10
181.558
20
-83.0861
11
181.702
21
-83.1771
0
LINE
8
BLACK
6
CONTINUOUS
10
181.702
20
-83.1771
11
181.821
21
-83.2976
0
LINE
8
BLACK
6
CONTINUOUS
10
181.821
20
-83.2976
11
181.911
21
-83.4417
0
LINE
8
BLACK
6
CONTINUOUS
10
181.911
20
-83.4417
11
181.967
21
-83.6021
0
LINE
8
BLACK
6
CONTINUOUS
10
181.967
20
-83.6021
11
181.986
21
-83.7709
0
LINE
8
BLACK
6
CONTINUOUS
10
181.986
20
-83.7709
11
181.986
21
-83.7922
0
LINE
8
BLACK
6
CONTINUOUS
10
181.986
20
-83.7922
11
181.962
21
-83.9604
0
LINE
8
BLACK
6
CONTINUOUS
10
181.962
20
-83.9604
11
181.902
21
-84.1193
0
LINE
8
BLACK
6
CONTINUOUS
10
181.902
20
-84.1193
11
181.808
21
-84.2608
0
LINE
8
BLACK
6
CONTINUOUS
10
181.808
20
-84.2608
11
181.685
21
-84.3779
0
LINE
8
BLACK
6
CONTINUOUS
10
181.685
20
-84.3779
11
181.539
21
-84.4649
0
LINE
8
BLACK
6
CONTINUOUS
10
181.539
20
-84.4649
11
181.377
21
-84.5174
0
LINE
8
BLACK
6
CONTINUOUS
10
181.377
20
-84.5174
11
181.208
21
-84.5328
0
LINE
8
BLACK
6
CONTINUOUS
10
181.208
20
-84.5328
11
181.04
21
-84.5103
0
LINE
8
BLACK
6
CONTINUOUS
10
181.04
20
-84.5103
11
180.881
21
-84.4511
0
LINE
8
BLACK
6
CONTINUOUS
10
180.881
20
-84.4511
11
180.739
21
-84.3581
0
LINE
8
BLACK
6
CONTINUOUS
10
180.739
20
-84.3581
11
180.621
21
-84.2359
0
LINE
8
BLACK
6
CONTINUOUS
10
180.621
20
-84.2359
11
180.533
21
-84.0906
0
LINE
8
BLACK
6
CONTINUOUS
10
180.533
20
-84.0906
11
180.479
21
-83.9294
0
LINE
8
BLACK
6
CONTINUOUS
10
180.479
20
-83.9294
11
180.462
21
-83.7603
0
LINE
8
BLACK
6
CONTINUOUS
10
180.462
20
-83.7603
11
180.484
21
-83.5918
0
LINE
8
BLACK
6
CONTINUOUS
10
180.484
20
-83.5918
11
180.542
21
-83.4321
0
LINE
8
BLACK
6
CONTINUOUS
10
180.542
20
-83.4321
11
180.634
21
-83.2893
0
LINE
8
BLACK
6
CONTINUOUS
10
180.634
20
-83.2893
11
180.755
21
-83.1705
0
LINE
8
BLACK
6
CONTINUOUS
10
180.755
20
-83.1705
11
180.9
21
-83.0815
0
LINE
8
BLACK
6
CONTINUOUS
10
180.9
20
-83.0815
11
181.061
21
-83.0267
0
LINE
8
BLACK
6
CONTINUOUS
10
181.061
20
-83.0267
11
181.23
21
-83.009
0
LINE
8
BLACK
6
CONTINUOUS
10
181.23
20
-83.009
11
181.398
21
-83.0291
0
LINE
8
BLACK
6
CONTINUOUS
10
183.938
20
-83.0291
11
184.098
21
-83.0861
0
LINE
8
BLACK
6
CONTINUOUS
10
184.098
20
-83.0861
11
184.242
21
-83.1771
0
LINE
8
BLACK
6
CONTINUOUS
10
184.242
20
-83.1771
11
184.361
21
-83.2976
0
LINE
8
BLACK
6
CONTINUOUS
10
184.361
20
-83.2976
11
184.451
21
-83.4417
0
LINE
8
BLACK
6
CONTINUOUS
10
184.451
20
-83.4417
11
184.507
21
-83.6021
0
LINE
8
BLACK
6
CONTINUOUS
10
184.507
20
-83.6021
11
184.526
21
-83.7709
0
LINE
8
BLACK
6
CONTINUOUS
10
184.526
20
-83.7709
11
184.526
21
-83.7922
0
LINE
8
BLACK
6
CONTINUOUS
10
184.526
20
-83.7922
11
184.502
21
-83.9604
0
LINE
8
BLACK
6
CONTINUOUS
10
184.502
20
-83.9604
11
184.442
21
-84.1193
0
LINE
8
BLACK
6
CONTINUOUS
10
184.442
20
-84.1193
11
184.348
21
-84.2608
0
LINE
8
BLACK
6
CONTINUOUS
10
184.348
20
-84.2608
11
184.225
21
-84.3779
0
LINE
8
BLACK
6
CONTINUOUS
10
184.225
20
-84.3779
11
184.079
21
-84.4649
0
LINE
8
BLACK
6
CONTINUOUS
10
184.079
20
-84.4649
11
183.917
21
-84.5174
0
LINE
8
BLACK
6
CONTINUOUS
10
183.917
20
-84.5174
11
183.748
21
-84.5328
0
LINE
8
BLACK
6
CONTINUOUS
10
183.748
20
-84.5328
11
183.58
21
-84.5103
0
LINE
8
BLACK
6
CONTINUOUS
10
183.58
20
-84.5103
11
183.421
21
-84.4511
0
LINE
8
BLACK
6
CONTINUOUS
10
183.421
20
-84.4511
11
183.279
21
-84.3581
0
LINE
8
BLACK
6
CONTINUOUS
10
183.279
20
-84.3581
11
183.161
21
-84.2359
0
LINE
8
BLACK
6
CONTINUOUS
10
183.161
20
-84.2359
11
183.073
21
-84.0906
0
LINE
8
BLACK
6
CONTINUOUS
10
183.073
20
-84.0906
11
183.019
21
-83.9294
0
LINE
8
BLACK
6
CONTINUOUS
10
183.019
20
-83.9294
11
183.002
21
-83.7603
0
LINE
8
BLACK
6
CONTINUOUS
10
183.002
20
-83.7603
11
183.024
21
-83.5918
0
LINE
8
BLACK
6
CONTINUOUS
10
183.024
20
-83.5918
11
183.082
21
-83.4321
0
LINE
8
BLACK
6
CONTINUOUS
10
183.082
20
-83.4321
11
183.174
21
-83.2893
0
LINE
8
BLACK
6
CONTINUOUS
10
183.174
20
-83.2893
11
183.295
21
-83.1705
0
LINE
8
BLACK
6
CONTINUOUS
10
183.295
20
-83.1705
11
183.44
21
-83.0815
0
LINE
8
BLACK
6
CONTINUOUS
10
183.44
20
-83.0815
11
183.601
21
-83.0267
0
LINE
8
BLACK
6
CONTINUOUS
10
183.601
20
-83.0267
11
183.77
21
-83.009
0
LINE
8
BLACK
6
CONTINUOUS
10
183.77
20
-83.009
11
183.938
21
-83.0291
0
LINE
8
BLACK
6
CONTINUOUS
10
186.478
20
-83.0291
11
186.638
21
-83.0861
0
LINE
8
BLACK
6
CONTINUOUS
10
186.638
20
-83.0861
11
186.782
21
-83.1771
0
LINE
8
BLACK
6
CONTINUOUS
10
186.782
20
-83.1771
11
186.901
21
-83.2976
0
LINE
8
BLACK
6
CONTINUOUS
10
186.901
20
-83.2976
11
186.991
21
-83.4417
0
LINE
8
BLACK
6
CONTINUOUS
10
186.991
20
-83.4417
11
187.047
21
-83.6021
0
LINE
8
BLACK
6
CONTINUOUS
10
187.047
20
-83.6021
11
187.066
21
-83.7709
0
LINE
8
BLACK
6
CONTINUOUS
10
187.066
20
-83.7709
11
187.066
21
-83.7922
0
LINE
8
BLACK
6
CONTINUOUS
10
187.066
20
-83.7922
11
187.042
21
-83.9604
0
LINE
8
BLACK
6
CONTINUOUS
10
187.042
20
-83.9604
11
186.982
21
-84.1193
0
LINE
8
BLACK
6
CONTINUOUS
10
186.982
20
-84.1193
11
186.888
21
-84.2608
0
LINE
8
BLACK
6
CONTINUOUS
10
186.888
20
-84.2608
11
186.765
21
-84.3779
0
LINE
8
BLACK
6
CONTINUOUS
10
186.765
20
-84.3779
11
186.619
21
-84.4649
0
LINE
8
BLACK
6
CONTINUOUS
10
186.619
20
-84.4649
11
186.457
21
-84.5174
0
LINE
8
BLACK
6
CONTINUOUS
10
186.457
20
-84.5174
11
186.288
21
-84.5328
0
LINE
8
BLACK
6
CONTINUOUS
10
186.288
20
-84.5328
11
186.12
21
-84.5103
0
LINE
8
BLACK
6
CONTINUOUS
10
186.12
20
-84.5103
11
185.961
21
-84.4511
0
LINE
8
BLACK
6
CONTINUOUS
10
185.961
20
-84.4511
11
185.819
21
-84.3581
0
LINE
8
BLACK
6
CONTINUOUS
10
185.819
20
-84.3581
11
185.701
21
-84.2359
0
LINE
8
BLACK
6
CONTINUOUS
10
185.701
20
-84.2359
11
185.613
21
-84.0906
0
LINE
8
BLACK
6
CONTINUOUS
10
185.613
20
-84.0906
11
185.559
21
-83.9294
0
LINE
8
BLACK
6
CONTINUOUS
10
185.559
20
-83.9294
11
185.542
21
-83.7603
0
LINE
8
BLACK
6
CONTINUOUS
10
185.542
20
-83.7603
11
185.564
21
-83.5918
0
LINE
8
BLACK
6
CONTINUOUS
10
185.564
20
-83.5918
11
185.622
21
-83.4321
0
LINE
8
BLACK
6
CONTINUOUS
10
185.622
20
-83.4321
11
185.714
21
-83.2893
0
LINE
8
BLACK
6
CONTINUOUS
10
185.714
20
-83.2893
11
185.835
21
-83.1705
0
LINE
8
BLACK
6
CONTINUOUS
10
185.835
20
-83.1705
11
185.98
21
-83.0815
0
LINE
8
BLACK
6
CONTINUOUS
10
185.98
20
-83.0815
11
186.141
21
-83.0267
0
LINE
8
BLACK
6
CONTINUOUS
10
186.141
20
-83.0267
11
186.31
21
-83.009
0
LINE
8
BLACK
6
CONTINUOUS
10
186.31
20
-83.009
11
186.478
21
-83.0291
0
LINE
8
BLACK
6
CONTINUOUS
10
189.018
20
-83.0291
11
189.178
21
-83.0861
0
LINE
8
BLACK
6
CONTINUOUS
10
189.178
20
-83.0861
11
189.322
21
-83.1771
0
LINE
8
BLACK
6
CONTINUOUS
10
189.322
20
-83.1771
11
189.441
21
-83.2976
0
LINE
8
BLACK
6
CONTINUOUS
10
189.441
20
-83.2976
11
189.531
21
-83.4417
0
LINE
8
BLACK
6
CONTINUOUS
10
189.531
20
-83.4417
11
189.587
21
-83.6021
0
LINE
8
BLACK
6
CONTINUOUS
10
189.587
20
-83.6021
11
189.606
21
-83.7709
0
LINE
8
BLACK
6
CONTINUOUS
10
189.606
20
-83.7709
11
189.606
21
-83.7922
0
LINE
8
BLACK
6
CONTINUOUS
10
189.606
20
-83.7922
11
189.582
21
-83.9604
0
LINE
8
BLACK
6
CONTINUOUS
10
189.582
20
-83.9604
11
189.522
21
-84.1193
0
LINE
8
BLACK
6
CONTINUOUS
10
189.522
20
-84.1193
11
189.428
21
-84.2608
0
LINE
8
BLACK
6
CONTINUOUS
10
189.428
20
-84.2608
11
189.305
21
-84.3779
0
LINE
8
BLACK
6
CONTINUOUS
10
189.305
20
-84.3779
11
189.159
21
-84.4649
0
LINE
8
BLACK
6
CONTINUOUS
10
189.159
20
-84.4649
11
188.997
21
-84.5174
0
LINE
8
BLACK
6
CONTINUOUS
10
188.997
20
-84.5174
11
188.828
21
-84.5328
0
LINE
8
BLACK
6
CONTINUOUS
10
188.828
20
-84.5328
11
188.66
21
-84.5103
0
LINE
8
BLACK
6
CONTINUOUS
10
188.66
20
-84.5103
11
188.501
21
-84.4511
0
LINE
8
BLACK
6
CONTINUOUS
10
188.501
20
-84.4511
11
188.359
21
-84.3581
0
LINE
8
BLACK
6
CONTINUOUS
10
188.359
20
-84.3581
11
188.241
21
-84.2359
0
LINE
8
BLACK
6
CONTINUOUS
10
188.241
20
-84.2359
11
188.153
21
-84.0906
0
LINE
8
BLACK
6
CONTINUOUS
10
188.153
20
-84.0906
11
188.099
21
-83.9294
0
LINE
8
BLACK
6
CONTINUOUS
10
188.099
20
-83.9294
11
188.082
21
-83.7603
0
LINE
8
BLACK
6
CONTINUOUS
10
188.082
20
-83.7603
11
188.104
21
-83.5918
0
LINE
8
BLACK
6
CONTINUOUS
10
188.104
20
-83.5918
11
188.162
21
-83.4321
0
LINE
8
BLACK
6
CONTINUOUS
10
188.162
20
-83.4321
11
188.254
21
-83.2893
0
LINE
8
BLACK
6
CONTINUOUS
10
188.254
20
-83.2893
11
188.375
21
-83.1705
0
LINE
8
BLACK
6
CONTINUOUS
10
188.375
20
-83.1705
11
188.52
21
-83.0815
0
LINE
8
BLACK
6
CONTINUOUS
10
188.52
20
-83.0815
11
188.681
21
-83.0267
0
LINE
8
BLACK
6
CONTINUOUS
10
188.681
20
-83.0267
11
188.85
21
-83.009
0
LINE
8
BLACK
6
CONTINUOUS
10
188.85
20
-83.009
11
189.018
21
-83.0291
0
LINE
8
BLACK
6
CONTINUOUS
10
191.558
20
-83.0291
11
191.718
21
-83.0861
0
LINE
8
BLACK
6
CONTINUOUS
10
191.718
20
-83.0861
11
191.862
21
-83.1771
0
LINE
8
BLACK
6
CONTINUOUS
10
191.862
20
-83.1771
11
191.981
21
-83.2976
0
LINE
8
BLACK
6
CONTINUOUS
10
191.981
20
-83.2976
11
192.071
21
-83.4417
0
LINE
8
BLACK
6
CONTINUOUS
10
192.071
20
-83.4417
11
192.127
21
-83.6021
0
LINE
8
BLACK
6
CONTINUOUS
10
192.127
20
-83.6021
11
192.146
21
-83.7709
0
LINE
8
BLACK
6
CONTINUOUS
10
192.146
20
-83.7709
11
192.146
21
-83.7922
0
LINE
8
BLACK
6
CONTINUOUS
10
192.146
20
-83.7922
11
192.122
21
-83.9604
0
LINE
8
BLACK
6
CONTINUOUS
10
192.122
20
-83.9604
11
192.062
21
-84.1193
0
LINE
8
BLACK
6
CONTINUOUS
10
192.062
20
-84.1193
11
191.968
21
-84.2608
0
LINE
8
BLACK
6
CONTINUOUS
10
191.968
20
-84.2608
11
191.845
21
-84.3779
0
LINE
8
BLACK
6
CONTINUOUS
10
191.845
20
-84.3779
11
191.699
21
-84.4649
0
LINE
8
BLACK
6
CONTINUOUS
10
191.699
20
-84.4649
11
191.537
21
-84.5174
0
LINE
8
BLACK
6
CONTINUOUS
10
191.537
20
-84.5174
11
191.368
21
-84.5328
0
LINE
8
BLACK
6
CONTINUOUS
10
191.368
20
-84.5328
11
191.2
21
-84.5103
0
LINE
8
BLACK
6
CONTINUOUS
10
191.2
20
-84.5103
11
191.041
21
-84.4511
0
LINE
8
BLACK
6
CONTINUOUS
10
191.041
20
-84.4511
11
190.899
21
-84.3581
0
LINE
8
BLACK
6
CONTINUOUS
10
190.899
20
-84.3581
11
190.781
21
-84.2359
0
LINE
8
BLACK
6
CONTINUOUS
10
190.781
20
-84.2359
11
190.693
21
-84.0906
0
LINE
8
BLACK
6
CONTINUOUS
10
190.693
20
-84.0906
11
190.639
21
-83.9294
0
LINE
8
BLACK
6
CONTINUOUS
10
190.639
20
-83.9294
11
190.622
21
-83.7603
0
LINE
8
BLACK
6
CONTINUOUS
10
190.622
20
-83.7603
11
190.644
21
-83.5918
0
LINE
8
BLACK
6
CONTINUOUS
10
190.644
20
-83.5918
11
190.702
21
-83.4321
0
LINE
8
BLACK
6
CONTINUOUS
10
190.702
20
-83.4321
11
190.794
21
-83.2893
0
LINE
8
BLACK
6
CONTINUOUS
10
190.794
20
-83.2893
11
190.915
21
-83.1705
0
LINE
8
BLACK
6
CONTINUOUS
10
190.915
20
-83.1705
11
191.06
21
-83.0815
0
LINE
8
BLACK
6
CONTINUOUS
10
191.06
20
-83.0815
11
191.221
21
-83.0267
0
LINE
8
BLACK
6
CONTINUOUS
10
191.221
20
-83.0267
11
191.39
21
-83.009
0
LINE
8
BLACK
6
CONTINUOUS
10
191.39
20
-83.009
11
191.558
21
-83.0291
0
LINE
8
BLACK
6
CONTINUOUS
10
194.098
20
-83.0291
11
194.258
21
-83.0861
0
LINE
8
BLACK
6
CONTINUOUS
10
194.258
20
-83.0861
11
194.402
21
-83.1771
0
LINE
8
BLACK
6
CONTINUOUS
10
194.402
20
-83.1771
11
194.521
21
-83.2976
0
LINE
8
BLACK
6
CONTINUOUS
10
194.521
20
-83.2976
11
194.611
21
-83.4417
0
LINE
8
BLACK
6
CONTINUOUS
10
194.611
20
-83.4417
11
194.667
21
-83.6021
0
LINE
8
BLACK
6
CONTINUOUS
10
194.667
20
-83.6021
11
194.686
21
-83.7709
0
LINE
8
BLACK
6
CONTINUOUS
10
194.686
20
-83.7709
11
194.686
21
-83.7922
0
LINE
8
BLACK
6
CONTINUOUS
10
194.686
20
-83.7922
11
194.662
21
-83.9604
0
LINE
8
BLACK
6
CONTINUOUS
10
194.662
20
-83.9604
11
194.602
21
-84.1193
0
LINE
8
BLACK
6
CONTINUOUS
10
194.602
20
-84.1193
11
194.508
21
-84.2608
0
LINE
8
BLACK
6
CONTINUOUS
10
194.508
20
-84.2608
11
194.385
21
-84.3779
0
LINE
8
BLACK
6
CONTINUOUS
10
194.385
20
-84.3779
11
194.239
21
-84.4649
0
LINE
8
BLACK
6
CONTINUOUS
10
194.239
20
-84.4649
11
194.077
21
-84.5174
0
LINE
8
BLACK
6
CONTINUOUS
10
194.077
20
-84.5174
11
193.908
21
-84.5328
0
LINE
8
BLACK
6
CONTINUOUS
10
193.908
20
-84.5328
11
193.74
21
-84.5103
0
LINE
8
BLACK
6
CONTINUOUS
10
193.74
20
-84.5103
11
193.581
21
-84.4511
0
LINE
8
BLACK
6
CONTINUOUS
10
193.581
20
-84.4511
11
193.439
21
-84.3581
0
LINE
8
BLACK
6
CONTINUOUS
10
193.439
20
-84.3581
11
193.321
21
-84.2359
0
LINE
8
BLACK
6
CONTINUOUS
10
193.321
20
-84.2359
11
193.233
21
-84.0906
0
LINE
8
BLACK
6
CONTINUOUS
10
193.233
20
-84.0906
11
193.179
21
-83.9294
0
LINE
8
BLACK
6
CONTINUOUS
10
193.179
20
-83.9294
11
193.162
21
-83.7603
0
LINE
8
BLACK
6
CONTINUOUS
10
193.162
20
-83.7603
11
193.184
21
-83.5918
0
LINE
8
BLACK
6
CONTINUOUS
10
193.184
20
-83.5918
11
193.242
21
-83.4321
0
LINE
8
BLACK
6
CONTINUOUS
10
193.242
20
-83.4321
11
193.334
21
-83.2893
0
LINE
8
BLACK
6
CONTINUOUS
10
193.334
20
-83.2893
11
193.455
21
-83.1705
0
LINE
8
BLACK
6
CONTINUOUS
10
193.455
20
-83.1705
11
193.6
21
-83.0815
0
LINE
8
BLACK
6
CONTINUOUS
10
193.6
20
-83.0815
11
193.761
21
-83.0267
0
LINE
8
BLACK
6
CONTINUOUS
10
193.761
20
-83.0267
11
193.93
21
-83.009
0
LINE
8
BLACK
6
CONTINUOUS
10
193.93
20
-83.009
11
194.098
21
-83.0291
0
LINE
8
BLACK
6
CONTINUOUS
10
196.638
20
-83.0291
11
196.798
21
-83.0861
0
LINE
8
BLACK
6
CONTINUOUS
10
196.798
20
-83.0861
11
196.942
21
-83.1771
0
LINE
8
BLACK
6
CONTINUOUS
10
196.942
20
-83.1771
11
197.061
21
-83.2976
0
LINE
8
BLACK
6
CONTINUOUS
10
197.061
20
-83.2976
11
197.151
21
-83.4417
0
LINE
8
BLACK
6
CONTINUOUS
10
197.151
20
-83.4417
11
197.207
21
-83.6021
0
LINE
8
BLACK
6
CONTINUOUS
10
197.207
20
-83.6021
11
197.226
21
-83.7709
0
LINE
8
BLACK
6
CONTINUOUS
10
197.226
20
-83.7709
11
197.226
21
-83.7922
0
LINE
8
BLACK
6
CONTINUOUS
10
197.226
20
-83.7922
11
197.202
21
-83.9604
0
LINE
8
BLACK
6
CONTINUOUS
10
197.202
20
-83.9604
11
197.142
21
-84.1193
0
LINE
8
BLACK
6
CONTINUOUS
10
197.142
20
-84.1193
11
197.048
21
-84.2608
0
LINE
8
BLACK
6
CONTINUOUS
10
197.048
20
-84.2608
11
196.925
21
-84.3779
0
LINE
8
BLACK
6
CONTINUOUS
10
196.925
20
-84.3779
11
196.779
21
-84.4649
0
LINE
8
BLACK
6
CONTINUOUS
10
196.779
20
-84.4649
11
196.617
21
-84.5174
0
LINE
8
BLACK
6
CONTINUOUS
10
196.617
20
-84.5174
11
196.448
21
-84.5328
0
LINE
8
BLACK
6
CONTINUOUS
10
196.448
20
-84.5328
11
196.28
21
-84.5103
0
LINE
8
BLACK
6
CONTINUOUS
10
196.28
20
-84.5103
11
196.121
21
-84.4511
0
LINE
8
BLACK
6
CONTINUOUS
10
196.121
20
-84.4511
11
195.979
21
-84.3581
0
LINE
8
BLACK
6
CONTINUOUS
10
195.979
20
-84.3581
11
195.861
21
-84.2359
0
LINE
8
BLACK
6
CONTINUOUS
10
195.861
20
-84.2359
11
195.773
21
-84.0906
0
LINE
8
BLACK
6
CONTINUOUS
10
195.773
20
-84.0906
11
195.719
21
-83.9294
0
LINE
8
BLACK
6
CONTINUOUS
10
195.719
20
-83.9294
11
195.702
21
-83.7603
0
LINE
8
BLACK
6
CONTINUOUS
10
195.702
20
-83.7603
11
195.724
21
-83.5918
0
LINE
8
BLACK
6
CONTINUOUS
10
195.724
20
-83.5918
11
195.782
21
-83.4321
0
LINE
8
BLACK
6
CONTINUOUS
10
195.782
20
-83.4321
11
195.874
21
-83.2893
0
LINE
8
BLACK
6
CONTINUOUS
10
195.874
20
-83.2893
11
195.995
21
-83.1705
0
LINE
8
BLACK
6
CONTINUOUS
10
195.995
20
-83.1705
11
196.14
21
-83.0815
0
LINE
8
BLACK
6
CONTINUOUS
10
196.14
20
-83.0815
11
196.301
21
-83.0267
0
LINE
8
BLACK
6
CONTINUOUS
10
196.301
20
-83.0267
11
196.47
21
-83.009
0
LINE
8
BLACK
6
CONTINUOUS
10
196.47
20
-83.009
11
196.638
21
-83.0291
0
LINE
8
BLACK
6
CONTINUOUS
10
124.512
20
-80.0688
11
124.794
21
-80.125
0
LINE
8
BLACK
6
CONTINUOUS
10
124.794
20
-80.125
11
125.067
21
-80.2175
0
LINE
8
BLACK
6
CONTINUOUS
10
125.067
20
-80.2175
11
125.325
21
-80.3447
0
LINE
8
BLACK
6
CONTINUOUS
10
125.325
20
-80.3447
11
125.564
21
-80.5046
0
LINE
8
BLACK
6
CONTINUOUS
10
125.564
20
-80.5046
11
125.781
21
-80.6944
0
LINE
8
BLACK
6
CONTINUOUS
10
125.781
20
-80.6944
11
125.97
21
-80.9107
0
LINE
8
BLACK
6
CONTINUOUS
10
125.97
20
-80.9107
11
126.13
21
-81.15
0
LINE
8
BLACK
6
CONTINUOUS
10
126.13
20
-81.15
11
126.258
21
-81.4081
0
LINE
8
BLACK
6
CONTINUOUS
10
126.258
20
-81.4081
11
126.35
21
-81.6806
0
LINE
8
BLACK
6
CONTINUOUS
10
126.35
20
-81.6806
11
126.406
21
-81.9628
0
LINE
8
BLACK
6
CONTINUOUS
10
126.406
20
-81.9628
11
126.425
21
-82.25
0
LINE
8
BLACK
6
CONTINUOUS
10
126.425
20
-82.25
11
126.406
21
-82.5372
0
LINE
8
BLACK
6
CONTINUOUS
10
126.406
20
-82.5372
11
126.35
21
-82.8194
0
LINE
8
BLACK
6
CONTINUOUS
10
126.35
20
-82.8194
11
126.258
21
-83.0919
0
LINE
8
BLACK
6
CONTINUOUS
10
126.258
20
-83.0919
11
126.13
21
-83.35
0
LINE
8
BLACK
6
CONTINUOUS
10
126.13
20
-83.35
11
125.97
21
-83.5893
0
LINE
8
BLACK
6
CONTINUOUS
10
125.97
20
-83.5893
11
125.781
21
-83.8056
0
LINE
8
BLACK
6
CONTINUOUS
10
125.781
20
-83.8056
11
125.564
21
-83.9954
0
LINE
8
BLACK
6
CONTINUOUS
10
125.564
20
-83.9954
11
125.325
21
-84.1553
0
LINE
8
BLACK
6
CONTINUOUS
10
125.325
20
-84.1553
11
125.067
21
-84.2825
0
LINE
8
BLACK
6
CONTINUOUS
10
125.067
20
-84.2825
11
124.794
21
-84.375
0
LINE
8
BLACK
6
CONTINUOUS
10
124.794
20
-84.375
11
124.512
21
-84.4312
0
LINE
8
BLACK
6
CONTINUOUS
10
124.512
20
-84.4312
11
124.225
21
-84.45
0
LINE
8
BLACK
6
CONTINUOUS
10
124.225
20
-84.45
11
123.938
21
-84.4312
0
LINE
8
BLACK
6
CONTINUOUS
10
123.938
20
-84.4312
11
123.656
21
-84.375
0
LINE
8
BLACK
6
CONTINUOUS
10
123.656
20
-84.375
11
123.383
21
-84.2825
0
LINE
8
BLACK
6
CONTINUOUS
10
123.383
20
-84.2825
11
123.125
21
-84.1553
0
LINE
8
BLACK
6
CONTINUOUS
10
123.125
20
-84.1553
11
122.886
21
-83.9954
0
LINE
8
BLACK
6
CONTINUOUS
10
122.886
20
-83.9954
11
122.669
21
-83.8056
0
LINE
8
BLACK
6
CONTINUOUS
10
122.669
20
-83.8056
11
122.48
21
-83.5893
0
LINE
8
BLACK
6
CONTINUOUS
10
122.48
20
-83.5893
11
122.32
21
-83.35
0
LINE
8
BLACK
6
CONTINUOUS
10
122.32
20
-83.35
11
122.192
21
-83.0919
0
LINE
8
BLACK
6
CONTINUOUS
10
122.192
20
-83.0919
11
122.1
21
-82.8194
0
LINE
8
BLACK
6
CONTINUOUS
10
122.1
20
-82.8194
11
122.044
21
-82.5372
0
LINE
8
BLACK
6
CONTINUOUS
10
122.044
20
-82.5372
11
122.025
21
-82.25
0
LINE
8
BLACK
6
CONTINUOUS
10
122.025
20
-82.25
11
122.044
21
-81.9628
0
LINE
8
BLACK
6
CONTINUOUS
10
122.044
20
-81.9628
11
122.1
21
-81.6806
0
LINE
8
BLACK
6
CONTINUOUS
10
122.1
20
-81.6806
11
122.192
21
-81.4081
0
LINE
8
BLACK
6
CONTINUOUS
10
122.192
20
-81.4081
11
122.32
21
-81.15
0
LINE
8
BLACK
6
CONTINUOUS
10
122.32
20
-81.15
11
122.48
21
-80.9107
0
LINE
8
BLACK
6
CONTINUOUS
10
122.48
20
-80.9107
11
122.669
21
-80.6944
0
LINE
8
BLACK
6
CONTINUOUS
10
122.669
20
-80.6944
11
122.886
21
-80.5046
0
LINE
8
BLACK
6
CONTINUOUS
10
122.886
20
-80.5046
11
123.125
21
-80.3447
0
LINE
8
BLACK
6
CONTINUOUS
10
123.125
20
-80.3447
11
123.383
21
-80.2175
0
LINE
8
BLACK
6
CONTINUOUS
10
123.383
20
-80.2175
11
123.656
21
-80.125
0
LINE
8
BLACK
6
CONTINUOUS
10
123.656
20
-80.125
11
123.938
21
-80.0688
0
LINE
8
BLACK
6
CONTINUOUS
10
123.938
20
-80.0688
11
124.225
21
-80.05
0
LINE
8
BLACK
6
CONTINUOUS
10
124.225
20
-80.05
11
124.512
21
-80.0688
0
LINE
8
BLACK
6
CONTINUOUS
10
162.612
20
-80.0688
11
162.894
21
-80.125
0
LINE
8
BLACK
6
CONTINUOUS
10
162.894
20
-80.125
11
163.167
21
-80.2175
0
LINE
8
BLACK
6
CONTINUOUS
10
163.167
20
-80.2175
11
163.425
21
-80.3447
0
LINE
8
BLACK
6
CONTINUOUS
10
163.425
20
-80.3447
11
163.664
21
-80.5046
0
LINE
8
BLACK
6
CONTINUOUS
10
163.664
20
-80.5046
11
163.881
21
-80.6944
0
LINE
8
BLACK
6
CONTINUOUS
10
163.881
20
-80.6944
11
164.07
21
-80.9107
0
LINE
8
BLACK
6
CONTINUOUS
10
164.07
20
-80.9107
11
164.23
21
-81.15
0
LINE
8
BLACK
6
CONTINUOUS
10
164.23
20
-81.15
11
164.358
21
-81.4081
0
LINE
8
BLACK
6
CONTINUOUS
10
164.358
20
-81.4081
11
164.45
21
-81.6806
0
LINE
8
BLACK
6
CONTINUOUS
10
164.45
20
-81.6806
11
164.506
21
-81.9628
0
LINE
8
BLACK
6
CONTINUOUS
10
164.506
20
-81.9628
11
164.525
21
-82.25
0
LINE
8
BLACK
6
CONTINUOUS
10
164.525
20
-82.25
11
164.506
21
-82.5372
0
LINE
8
BLACK
6
CONTINUOUS
10
164.506
20
-82.5372
11
164.45
21
-82.8194
0
LINE
8
BLACK
6
CONTINUOUS
10
164.45
20
-82.8194
11
164.358
21
-83.0919
0
LINE
8
BLACK
6
CONTINUOUS
10
164.358
20
-83.0919
11
164.23
21
-83.35
0
LINE
8
BLACK
6
CONTINUOUS
10
164.23
20
-83.35
11
164.07
21
-83.5893
0
LINE
8
BLACK
6
CONTINUOUS
10
164.07
20
-83.5893
11
163.881
21
-83.8056
0
LINE
8
BLACK
6
CONTINUOUS
10
163.881
20
-83.8056
11
163.664
21
-83.9954
0
LINE
8
BLACK
6
CONTINUOUS
10
163.664
20
-83.9954
11
163.425
21
-84.1553
0
LINE
8
BLACK
6
CONTINUOUS
10
163.425
20
-84.1553
11
163.167
21
-84.2825
0
LINE
8
BLACK
6
CONTINUOUS
10
163.167
20
-84.2825
11
162.894
21
-84.375
0
LINE
8
BLACK
6
CONTINUOUS
10
162.894
20
-84.375
11
162.612
21
-84.4312
0
LINE
8
BLACK
6
CONTINUOUS
10
162.612
20
-84.4312
11
162.325
21
-84.45
0
LINE
8
BLACK
6
CONTINUOUS
10
162.325
20
-84.45
11
162.038
21
-84.4312
0
LINE
8
BLACK
6
CONTINUOUS
10
162.038
20
-84.4312
11
161.756
21
-84.375
0
LINE
8
BLACK
6
CONTINUOUS
10
161.756
20
-84.375
11
161.483
21
-84.2825
0
LINE
8
BLACK
6
CONTINUOUS
10
161.483
20
-84.2825
11
161.225
21
-84.1553
0
LINE
8
BLACK
6
CONTINUOUS
10
161.225
20
-84.1553
11
160.986
21
-83.9954
0
LINE
8
BLACK
6
CONTINUOUS
10
160.986
20
-83.9954
11
160.769
21
-83.8056
0
LINE
8
BLACK
6
CONTINUOUS
10
160.769
20
-83.8056
11
160.58
21
-83.5893
0
LINE
8
BLACK
6
CONTINUOUS
10
160.58
20
-83.5893
11
160.42
21
-83.35
0
LINE
8
BLACK
6
CONTINUOUS
10
160.42
20
-83.35
11
160.292
21
-83.0919
0
LINE
8
BLACK
6
CONTINUOUS
10
160.292
20
-83.0919
11
160.2
21
-82.8194
0
LINE
8
BLACK
6
CONTINUOUS
10
160.2
20
-82.8194
11
160.144
21
-82.5372
0
LINE
8
BLACK
6
CONTINUOUS
10
160.144
20
-82.5372
11
160.125
21
-82.25
0
LINE
8
BLACK
6
CONTINUOUS
10
160.125
20
-82.25
11
160.144
21
-81.9628
0
LINE
8
BLACK
6
CONTINUOUS
10
160.144
20
-81.9628
11
160.2
21
-81.6806
0
LINE
8
BLACK
6
CONTINUOUS
10
160.2
20
-81.6806
11
160.292
21
-81.4081
0
LINE
8
BLACK
6
CONTINUOUS
10
160.292
20
-81.4081
11
160.42
21
-81.15
0
LINE
8
BLACK
6
CONTINUOUS
10
160.42
20
-81.15
11
160.58
21
-80.9107
0
LINE
8
BLACK
6
CONTINUOUS
10
160.58
20
-80.9107
11
160.769
21
-80.6944
0
LINE
8
BLACK
6
CONTINUOUS
10
160.769
20
-80.6944
11
160.986
21
-80.5046
0
LINE
8
BLACK
6
CONTINUOUS
10
160.986
20
-80.5046
11
161.225
21
-80.3447
0
LINE
8
BLACK
6
CONTINUOUS
10
161.225
20
-80.3447
11
161.483
21
-80.2175
0
LINE
8
BLACK
6
CONTINUOUS
10
161.483
20
-80.2175
11
161.756
21
-80.125
0
LINE
8
BLACK
6
CONTINUOUS
10
161.756
20
-80.125
11
162.038
21
-80.0688
0
LINE
8
BLACK
6
CONTINUOUS
10
162.038
20
-80.0688
11
162.325
21
-80.05
0
LINE
8
BLACK
6
CONTINUOUS
10
162.325
20
-80.05
11
162.612
21
-80.0688
0
LINE
8
BLACK
6
CONTINUOUS
10
144.838
20
-74.5246
11
145.113
21
-74.5884
0
LINE
8
BLACK
6
CONTINUOUS
10
145.113
20
-74.5884
11
145.377
21
-74.6903
0
LINE
8
BLACK
6
CONTINUOUS
10
145.377
20
-74.6903
11
145.623
21
-74.8284
0
LINE
8
BLACK
6
CONTINUOUS
10
145.623
20
-74.8284
11
145.848
21
-74.9998
0
LINE
8
BLACK
6
CONTINUOUS
10
145.848
20
-74.9998
11
146.046
21
-75.2011
0
LINE
8
BLACK
6
CONTINUOUS
10
146.046
20
-75.2011
11
146.214
21
-75.4283
0
LINE
8
BLACK
6
CONTINUOUS
10
146.214
20
-75.4283
11
146.348
21
-75.677
0
LINE
8
BLACK
6
CONTINUOUS
10
146.348
20
-75.677
11
146.446
21
-75.942
0
LINE
8
BLACK
6
CONTINUOUS
10
146.446
20
-75.942
11
146.505
21
-76.2182
0
LINE
8
BLACK
6
CONTINUOUS
10
146.505
20
-76.2182
11
146.525
21
-76.5
0
LINE
8
BLACK
6
CONTINUOUS
10
146.525
20
-76.5
11
146.521
21
-76.6256
0
LINE
8
BLACK
6
CONTINUOUS
10
146.521
20
-76.6256
11
146.483
21
-76.9056
0
LINE
8
BLACK
6
CONTINUOUS
10
146.483
20
-76.9056
11
146.407
21
-77.1775
0
LINE
8
BLACK
6
CONTINUOUS
10
146.407
20
-77.1775
11
146.293
21
-77.4359
0
LINE
8
BLACK
6
CONTINUOUS
10
146.293
20
-77.4359
11
146.143
21
-77.6756
0
LINE
8
BLACK
6
CONTINUOUS
10
146.143
20
-77.6756
11
145.961
21
-77.8918
0
LINE
8
BLACK
6
CONTINUOUS
10
145.961
20
-77.8918
11
145.751
21
-78.0803
0
LINE
8
BLACK
6
CONTINUOUS
10
145.751
20
-78.0803
11
145.516
21
-78.2373
0
LINE
8
BLACK
6
CONTINUOUS
10
145.516
20
-78.2373
11
145.261
21
-78.3596
0
LINE
8
BLACK
6
CONTINUOUS
10
145.261
20
-78.3596
11
144.992
21
-78.4447
0
LINE
8
BLACK
6
CONTINUOUS
10
144.992
20
-78.4447
11
144.713
21
-78.4911
0
LINE
8
BLACK
6
CONTINUOUS
10
144.713
20
-78.4911
11
144.431
21
-78.4978
0
LINE
8
BLACK
6
CONTINUOUS
10
144.431
20
-78.4978
11
144.15
21
-78.4646
0
LINE
8
BLACK
6
CONTINUOUS
10
144.15
20
-78.4646
11
143.877
21
-78.3922
0
LINE
8
BLACK
6
CONTINUOUS
10
143.877
20
-78.3922
11
143.617
21
-78.282
0
LINE
8
BLACK
6
CONTINUOUS
10
143.617
20
-78.282
11
143.375
21
-78.1363
0
LINE
8
BLACK
6
CONTINUOUS
10
143.375
20
-78.1363
11
143.156
21
-77.9579
0
LINE
8
BLACK
6
CONTINUOUS
10
143.156
20
-77.9579
11
142.964
21
-77.7505
0
LINE
8
BLACK
6
CONTINUOUS
10
142.964
20
-77.7505
11
142.804
21
-77.5181
0
LINE
8
BLACK
6
CONTINUOUS
10
142.804
20
-77.5181
11
142.677
21
-77.2654
0
LINE
8
BLACK
6
CONTINUOUS
10
142.677
20
-77.2654
11
142.588
21
-76.9974
0
LINE
8
BLACK
6
CONTINUOUS
10
142.588
20
-76.9974
11
142.537
21
-76.7195
0
LINE
8
BLACK
6
CONTINUOUS
10
142.537
20
-76.7195
11
142.526
21
-76.4372
0
LINE
8
BLACK
6
CONTINUOUS
10
142.526
20
-76.4372
11
142.555
21
-76.1561
0
LINE
8
BLACK
6
CONTINUOUS
10
142.555
20
-76.1561
11
142.623
21
-75.882
0
LINE
8
BLACK
6
CONTINUOUS
10
142.623
20
-75.882
11
142.729
21
-75.6201
0
LINE
8
BLACK
6
CONTINUOUS
10
142.729
20
-75.6201
11
142.871
21
-75.3758
0
LINE
8
BLACK
6
CONTINUOUS
10
142.871
20
-75.3758
11
143.046
21
-75.154
0
LINE
8
BLACK
6
CONTINUOUS
10
143.046
20
-75.154
11
143.25
21
-74.959
0
LINE
8
BLACK
6
CONTINUOUS
10
143.25
20
-74.959
11
143.48
21
-74.7947
0
LINE
8
BLACK
6
CONTINUOUS
10
143.48
20
-74.7947
11
143.731
21
-74.6645
0
LINE
8
BLACK
6
CONTINUOUS
10
143.731
20
-74.6645
11
143.997
21
-74.5709
0
LINE
8
BLACK
6
CONTINUOUS
10
143.997
20
-74.5709
11
144.274
21
-74.5158
0
LINE
8
BLACK
6
CONTINUOUS
10
144.274
20
-74.5158
11
144.556
21
-74.5002
0
LINE
8
BLACK
6
CONTINUOUS
10
144.556
20
-74.5002
11
144.838
21
-74.5246
0
LINE
8
BLACK
6
CONTINUOUS
10
191.558
20
-67.8091
11
191.718
21
-67.8661
0
LINE
8
BLACK
6
CONTINUOUS
10
191.718
20
-67.8661
11
191.862
21
-67.9571
0
LINE
8
BLACK
6
CONTINUOUS
10
191.862
20
-67.9571
11
191.981
21
-68.0776
0
LINE
8
BLACK
6
CONTINUOUS
10
191.981
20
-68.0776
11
192.071
21
-68.2217
0
LINE
8
BLACK
6
CONTINUOUS
10
192.071
20
-68.2217
11
192.127
21
-68.3821
0
LINE
8
BLACK
6
CONTINUOUS
10
192.127
20
-68.3821
11
192.146
21
-68.5509
0
LINE
8
BLACK
6
CONTINUOUS
10
192.146
20
-68.5509
11
192.146
21
-68.5722
0
LINE
8
BLACK
6
CONTINUOUS
10
192.146
20
-68.5722
11
192.122
21
-68.7404
0
LINE
8
BLACK
6
CONTINUOUS
10
192.122
20
-68.7404
11
192.062
21
-68.8993
0
LINE
8
BLACK
6
CONTINUOUS
10
192.062
20
-68.8993
11
191.968
21
-69.0408
0
LINE
8
BLACK
6
CONTINUOUS
10
191.968
20
-69.0408
11
191.845
21
-69.1579
0
LINE
8
BLACK
6
CONTINUOUS
10
191.845
20
-69.1579
11
191.699
21
-69.2449
0
LINE
8
BLACK
6
CONTINUOUS
10
191.699
20
-69.2449
11
191.537
21
-69.2974
0
LINE
8
BLACK
6
CONTINUOUS
10
191.537
20
-69.2974
11
191.368
21
-69.3128
0
LINE
8
BLACK
6
CONTINUOUS
10
191.368
20
-69.3128
11
191.2
21
-69.2903
0
LINE
8
BLACK
6
CONTINUOUS
10
191.2
20
-69.2903
11
191.041
21
-69.2311
0
LINE
8
BLACK
6
CONTINUOUS
10
191.041
20
-69.2311
11
190.899
21
-69.1381
0
LINE
8
BLACK
6
CONTINUOUS
10
190.899
20
-69.1381
11
190.781
21
-69.0159
0
LINE
8
BLACK
6
CONTINUOUS
10
190.781
20
-69.0159
11
190.693
21
-68.8706
0
LINE
8
BLACK
6
CONTINUOUS
10
190.693
20
-68.8706
11
190.639
21
-68.7094
0
LINE
8
BLACK
6
CONTINUOUS
10
190.639
20
-68.7094
11
190.622
21
-68.5403
0
LINE
8
BLACK
6
CONTINUOUS
10
190.622
20
-68.5403
11
190.644
21
-68.3718
0
LINE
8
BLACK
6
CONTINUOUS
10
190.644
20
-68.3718
11
190.702
21
-68.2121
0
LINE
8
BLACK
6
CONTINUOUS
10
190.702
20
-68.2121
11
190.794
21
-68.0693
0
LINE
8
BLACK
6
CONTINUOUS
10
190.794
20
-68.0693
11
190.915
21
-67.9505
0
LINE
8
BLACK
6
CONTINUOUS
10
190.915
20
-67.9505
11
191.06
21
-67.8615
0
LINE
8
BLACK
6
CONTINUOUS
10
191.06
20
-67.8615
11
191.221
21
-67.8067
0
LINE
8
BLACK
6
CONTINUOUS
10
191.221
20
-67.8067
11
191.39
21
-67.789
0
LINE
8
BLACK
6
CONTINUOUS
10
191.39
20
-67.789
11
191.558
21
-67.8091
0
LINE
8
BLACK
6
CONTINUOUS
10
189.018
20
-67.8091
11
189.178
21
-67.8661
0
LINE
8
BLACK
6
CONTINUOUS
10
189.178
20
-67.8661
11
189.322
21
-67.9571
0
LINE
8
BLACK
6
CONTINUOUS
10
189.322
20
-67.9571
11
189.441
21
-68.0776
0
LINE
8
BLACK
6
CONTINUOUS
10
189.441
20
-68.0776
11
189.531
21
-68.2217
0
LINE
8
BLACK
6
CONTINUOUS
10
189.531
20
-68.2217
11
189.587
21
-68.3821
0
LINE
8
BLACK
6
CONTINUOUS
10
189.587
20
-68.3821
11
189.606
21
-68.5509
0
LINE
8
BLACK
6
CONTINUOUS
10
189.606
20
-68.5509
11
189.606
21
-68.5722
0
LINE
8
BLACK
6
CONTINUOUS
10
189.606
20
-68.5722
11
189.582
21
-68.7404
0
LINE
8
BLACK
6
CONTINUOUS
10
189.582
20
-68.7404
11
189.522
21
-68.8993
0
LINE
8
BLACK
6
CONTINUOUS
10
189.522
20
-68.8993
11
189.428
21
-69.0408
0
LINE
8
BLACK
6
CONTINUOUS
10
189.428
20
-69.0408
11
189.305
21
-69.1579
0
LINE
8
BLACK
6
CONTINUOUS
10
189.305
20
-69.1579
11
189.159
21
-69.2449
0
LINE
8
BLACK
6
CONTINUOUS
10
189.159
20
-69.2449
11
188.997
21
-69.2974
0
LINE
8
BLACK
6
CONTINUOUS
10
188.997
20
-69.2974
11
188.828
21
-69.3128
0
LINE
8
BLACK
6
CONTINUOUS
10
188.828
20
-69.3128
11
188.66
21
-69.2903
0
LINE
8
BLACK
6
CONTINUOUS
10
188.66
20
-69.2903
11
188.501
21
-69.2311
0
LINE
8
BLACK
6
CONTINUOUS
10
188.501
20
-69.2311
11
188.359
21
-69.1381
0
LINE
8
BLACK
6
CONTINUOUS
10
188.359
20
-69.1381
11
188.241
21
-69.0159
0
LINE
8
BLACK
6
CONTINUOUS
10
188.241
20
-69.0159
11
188.153
21
-68.8706
0
LINE
8
BLACK
6
CONTINUOUS
10
188.153
20
-68.8706
11
188.099
21
-68.7094
0
LINE
8
BLACK
6
CONTINUOUS
10
188.099
20
-68.7094
11
188.082
21
-68.5403
0
LINE
8
BLACK
6
CONTINUOUS
10
188.082
20
-68.5403
11
188.104
21
-68.3718
0
LINE
8
BLACK
6
CONTINUOUS
10
188.104
20
-68.3718
11
188.162
21
-68.2121
0
LINE
8
BLACK
6
CONTINUOUS
10
188.162
20
-68.2121
11
188.254
21
-68.0693
0
LINE
8
BLACK
6
CONTINUOUS
10
188.254
20
-68.0693
11
188.375
21
-67.9505
0
LINE
8
BLACK
6
CONTINUOUS
10
188.375
20
-67.9505
11
188.52
21
-67.8615
0
LINE
8
BLACK
6
CONTINUOUS
10
188.52
20
-67.8615
11
188.681
21
-67.8067
0
LINE
8
BLACK
6
CONTINUOUS
10
188.681
20
-67.8067
11
188.85
21
-67.789
0
LINE
8
BLACK
6
CONTINUOUS
10
188.85
20
-67.789
11
189.018
21
-67.8091
0
LINE
8
BLACK
6
CONTINUOUS
10
186.478
20
-67.8091
11
186.638
21
-67.8661
0
LINE
8
BLACK
6
CONTINUOUS
10
186.638
20
-67.8661
11
186.782
21
-67.9571
0
LINE
8
BLACK
6
CONTINUOUS
10
186.782
20
-67.9571
11
186.901
21
-68.0776
0
LINE
8
BLACK
6
CONTINUOUS
10
186.901
20
-68.0776
11
186.991
21
-68.2217
0
LINE
8
BLACK
6
CONTINUOUS
10
186.991
20
-68.2217
11
187.047
21
-68.3821
0
LINE
8
BLACK
6
CONTINUOUS
10
187.047
20
-68.3821
11
187.066
21
-68.5509
0
LINE
8
BLACK
6
CONTINUOUS
10
187.066
20
-68.5509
11
187.066
21
-68.5722
0
LINE
8
BLACK
6
CONTINUOUS
10
187.066
20
-68.5722
11
187.042
21
-68.7404
0
LINE
8
BLACK
6
CONTINUOUS
10
187.042
20
-68.7404
11
186.982
21
-68.8993
0
LINE
8
BLACK
6
CONTINUOUS
10
186.982
20
-68.8993
11
186.888
21
-69.0408
0
LINE
8
BLACK
6
CONTINUOUS
10
186.888
20
-69.0408
11
186.765
21
-69.1579
0
LINE
8
BLACK
6
CONTINUOUS
10
186.765
20
-69.1579
11
186.619
21
-69.2449
0
LINE
8
BLACK
6
CONTINUOUS
10
186.619
20
-69.2449
11
186.457
21
-69.2974
0
LINE
8
BLACK
6
CONTINUOUS
10
186.457
20
-69.2974
11
186.288
21
-69.3128
0
LINE
8
BLACK
6
CONTINUOUS
10
186.288
20
-69.3128
11
186.12
21
-69.2903
0
LINE
8
BLACK
6
CONTINUOUS
10
186.12
20
-69.2903
11
185.961
21
-69.2311
0
LINE
8
BLACK
6
CONTINUOUS
10
185.961
20
-69.2311
11
185.819
21
-69.1381
0
LINE
8
BLACK
6
CONTINUOUS
10
185.819
20
-69.1381
11
185.701
21
-69.0159
0
LINE
8
BLACK
6
CONTINUOUS
10
185.701
20
-69.0159
11
185.613
21
-68.8706
0
LINE
8
BLACK
6
CONTINUOUS
10
185.613
20
-68.8706
11
185.559
21
-68.7094
0
LINE
8
BLACK
6
CONTINUOUS
10
185.559
20
-68.7094
11
185.542
21
-68.5403
0
LINE
8
BLACK
6
CONTINUOUS
10
185.542
20
-68.5403
11
185.564
21
-68.3718
0
LINE
8
BLACK
6
CONTINUOUS
10
185.564
20
-68.3718
11
185.622
21
-68.2121
0
LINE
8
BLACK
6
CONTINUOUS
10
185.622
20
-68.2121
11
185.714
21
-68.0693
0
LINE
8
BLACK
6
CONTINUOUS
10
185.714
20
-68.0693
11
185.835
21
-67.9505
0
LINE
8
BLACK
6
CONTINUOUS
10
185.835
20
-67.9505
11
185.98
21
-67.8615
0
LINE
8
BLACK
6
CONTINUOUS
10
185.98
20
-67.8615
11
186.141
21
-67.8067
0
LINE
8
BLACK
6
CONTINUOUS
10
186.141
20
-67.8067
11
186.31
21
-67.789
0
LINE
8
BLACK
6
CONTINUOUS
10
186.31
20
-67.789
11
186.478
21
-67.8091
0
LINE
8
BLACK
6
CONTINUOUS
10
183.938
20
-67.8091
11
184.098
21
-67.8661
0
LINE
8
BLACK
6
CONTINUOUS
10
184.098
20
-67.8661
11
184.242
21
-67.9571
0
LINE
8
BLACK
6
CONTINUOUS
10
184.242
20
-67.9571
11
184.361
21
-68.0776
0
LINE
8
BLACK
6
CONTINUOUS
10
184.361
20
-68.0776
11
184.451
21
-68.2217
0
LINE
8
BLACK
6
CONTINUOUS
10
184.451
20
-68.2217
11
184.507
21
-68.3821
0
LINE
8
BLACK
6
CONTINUOUS
10
184.507
20
-68.3821
11
184.526
21
-68.5509
0
LINE
8
BLACK
6
CONTINUOUS
10
184.526
20
-68.5509
11
184.526
21
-68.5722
0
LINE
8
BLACK
6
CONTINUOUS
10
184.526
20
-68.5722
11
184.502
21
-68.7404
0
LINE
8
BLACK
6
CONTINUOUS
10
184.502
20
-68.7404
11
184.442
21
-68.8993
0
LINE
8
BLACK
6
CONTINUOUS
10
184.442
20
-68.8993
11
184.348
21
-69.0408
0
LINE
8
BLACK
6
CONTINUOUS
10
184.348
20
-69.0408
11
184.225
21
-69.1579
0
LINE
8
BLACK
6
CONTINUOUS
10
184.225
20
-69.1579
11
184.079
21
-69.2449
0
LINE
8
BLACK
6
CONTINUOUS
10
184.079
20
-69.2449
11
183.917
21
-69.2974
0
LINE
8
BLACK
6
CONTINUOUS
10
183.917
20
-69.2974
11
183.748
21
-69.3128
0
LINE
8
BLACK
6
CONTINUOUS
10
183.748
20
-69.3128
11
183.58
21
-69.2903
0
LINE
8
BLACK
6
CONTINUOUS
10
183.58
20
-69.2903
11
183.421
21
-69.2311
0
LINE
8
BLACK
6
CONTINUOUS
10
183.421
20
-69.2311
11
183.279
21
-69.1381
0
LINE
8
BLACK
6
CONTINUOUS
10
183.279
20
-69.1381
11
183.161
21
-69.0159
0
LINE
8
BLACK
6
CONTINUOUS
10
183.161
20
-69.0159
11
183.073
21
-68.8706
0
LINE
8
BLACK
6
CONTINUOUS
10
183.073
20
-68.8706
11
183.019
21
-68.7094
0
LINE
8
BLACK
6
CONTINUOUS
10
183.019
20
-68.7094
11
183.002
21
-68.5403
0
LINE
8
BLACK
6
CONTINUOUS
10
183.002
20
-68.5403
11
183.024
21
-68.3718
0
LINE
8
BLACK
6
CONTINUOUS
10
183.024
20
-68.3718
11
183.082
21
-68.2121
0
LINE
8
BLACK
6
CONTINUOUS
10
183.082
20
-68.2121
11
183.174
21
-68.0693
0
LINE
8
BLACK
6
CONTINUOUS
10
183.174
20
-68.0693
11
183.295
21
-67.9505
0
LINE
8
BLACK
6
CONTINUOUS
10
183.295
20
-67.9505
11
183.44
21
-67.8615
0
LINE
8
BLACK
6
CONTINUOUS
10
183.44
20
-67.8615
11
183.601
21
-67.8067
0
LINE
8
BLACK
6
CONTINUOUS
10
183.601
20
-67.8067
11
183.77
21
-67.789
0
LINE
8
BLACK
6
CONTINUOUS
10
183.77
20
-67.789
11
183.938
21
-67.8091
0
LINE
8
BLACK
6
CONTINUOUS
10
181.398
20
-67.8091
11
181.558
21
-67.8661
0
LINE
8
BLACK
6
CONTINUOUS
10
181.558
20
-67.8661
11
181.702
21
-67.9571
0
LINE
8
BLACK
6
CONTINUOUS
10
181.702
20
-67.9571
11
181.821
21
-68.0776
0
LINE
8
BLACK
6
CONTINUOUS
10
181.821
20
-68.0776
11
181.911
21
-68.2217
0
LINE
8
BLACK
6
CONTINUOUS
10
181.911
20
-68.2217
11
181.967
21
-68.3821
0
LINE
8
BLACK
6
CONTINUOUS
10
181.967
20
-68.3821
11
181.986
21
-68.5509
0
LINE
8
BLACK
6
CONTINUOUS
10
181.986
20
-68.5509
11
181.986
21
-68.5722
0
LINE
8
BLACK
6
CONTINUOUS
10
181.986
20
-68.5722
11
181.962
21
-68.7404
0
LINE
8
BLACK
6
CONTINUOUS
10
181.962
20
-68.7404
11
181.902
21
-68.8993
0
LINE
8
BLACK
6
CONTINUOUS
10
181.902
20
-68.8993
11
181.808
21
-69.0408
0
LINE
8
BLACK
6
CONTINUOUS
10
181.808
20
-69.0408
11
181.685
21
-69.1579
0
LINE
8
BLACK
6
CONTINUOUS
10
181.685
20
-69.1579
11
181.539
21
-69.2449
0
LINE
8
BLACK
6
CONTINUOUS
10
181.539
20
-69.2449
11
181.377
21
-69.2974
0
LINE
8
BLACK
6
CONTINUOUS
10
181.377
20
-69.2974
11
181.208
21
-69.3128
0
LINE
8
BLACK
6
CONTINUOUS
10
181.208
20
-69.3128
11
181.04
21
-69.2903
0
LINE
8
BLACK
6
CONTINUOUS
10
181.04
20
-69.2903
11
180.881
21
-69.2311
0
LINE
8
BLACK
6
CONTINUOUS
10
180.881
20
-69.2311
11
180.739
21
-69.1381
0
LINE
8
BLACK
6
CONTINUOUS
10
180.739
20
-69.1381
11
180.621
21
-69.0159
0
LINE
8
BLACK
6
CONTINUOUS
10
180.621
20
-69.0159
11
180.533
21
-68.8706
0
LINE
8
BLACK
6
CONTINUOUS
10
180.533
20
-68.8706
11
180.479
21
-68.7094
0
LINE
8
BLACK
6
CONTINUOUS
10
180.479
20
-68.7094
11
180.462
21
-68.5403
0
LINE
8
BLACK
6
CONTINUOUS
10
180.462
20
-68.5403
11
180.484
21
-68.3718
0
LINE
8
BLACK
6
CONTINUOUS
10
180.484
20
-68.3718
11
180.542
21
-68.2121
0
LINE
8
BLACK
6
CONTINUOUS
10
180.542
20
-68.2121
11
180.634
21
-68.0693
0
LINE
8
BLACK
6
CONTINUOUS
10
180.634
20
-68.0693
11
180.755
21
-67.9505
0
LINE
8
BLACK
6
CONTINUOUS
10
180.755
20
-67.9505
11
180.9
21
-67.8615
0
LINE
8
BLACK
6
CONTINUOUS
10
180.9
20
-67.8615
11
181.061
21
-67.8067
0
LINE
8
BLACK
6
CONTINUOUS
10
181.061
20
-67.8067
11
181.23
21
-67.789
0
LINE
8
BLACK
6
CONTINUOUS
10
181.23
20
-67.789
11
181.398
21
-67.8091
0
LINE
8
BLACK
6
CONTINUOUS
10
178.858
20
-67.8091
11
179.018
21
-67.8661
0
LINE
8
BLACK
6
CONTINUOUS
10
179.018
20
-67.8661
11
179.162
21
-67.9571
0
LINE
8
BLACK
6
CONTINUOUS
10
179.162
20
-67.9571
11
179.281
21
-68.0776
0
LINE
8
BLACK
6
CONTINUOUS
10
179.281
20
-68.0776
11
179.371
21
-68.2217
0
LINE
8
BLACK
6
CONTINUOUS
10
179.371
20
-68.2217
11
179.427
21
-68.3821
0
LINE
8
BLACK
6
CONTINUOUS
10
179.427
20
-68.3821
11
179.446
21
-68.5509
0
LINE
8
BLACK
6
CONTINUOUS
10
179.446
20
-68.5509
11
179.446
21
-68.5722
0
LINE
8
BLACK
6
CONTINUOUS
10
179.446
20
-68.5722
11
179.422
21
-68.7404
0
LINE
8
BLACK
6
CONTINUOUS
10
179.422
20
-68.7404
11
179.362
21
-68.8993
0
LINE
8
BLACK
6
CONTINUOUS
10
179.362
20
-68.8993
11
179.268
21
-69.0408
0
LINE
8
BLACK
6
CONTINUOUS
10
179.268
20
-69.0408
11
179.145
21
-69.1579
0
LINE
8
BLACK
6
CONTINUOUS
10
179.145
20
-69.1579
11
178.999
21
-69.2449
0
LINE
8
BLACK
6
CONTINUOUS
10
178.999
20
-69.2449
11
178.837
21
-69.2974
0
LINE
8
BLACK
6
CONTINUOUS
10
178.837
20
-69.2974
11
178.668
21
-69.3128
0
LINE
8
BLACK
6
CONTINUOUS
10
178.668
20
-69.3128
11
178.5
21
-69.2903
0
LINE
8
BLACK
6
CONTINUOUS
10
178.5
20
-69.2903
11
178.341
21
-69.2311
0
LINE
8
BLACK
6
CONTINUOUS
10
178.341
20
-69.2311
11
178.199
21
-69.1381
0
LINE
8
BLACK
6
CONTINUOUS
10
178.199
20
-69.1381
11
178.081
21
-69.0159
0
LINE
8
BLACK
6
CONTINUOUS
10
178.081
20
-69.0159
11
177.993
21
-68.8706
0
LINE
8
BLACK
6
CONTINUOUS
10
177.993
20
-68.8706
11
177.939
21
-68.7094
0
LINE
8
BLACK
6
CONTINUOUS
10
177.939
20
-68.7094
11
177.922
21
-68.5403
0
LINE
8
BLACK
6
CONTINUOUS
10
177.922
20
-68.5403
11
177.944
21
-68.3718
0
LINE
8
BLACK
6
CONTINUOUS
10
177.944
20
-68.3718
11
178.002
21
-68.2121
0
LINE
8
BLACK
6
CONTINUOUS
10
178.002
20
-68.2121
11
178.094
21
-68.0693
0
LINE
8
BLACK
6
CONTINUOUS
10
178.094
20
-68.0693
11
178.215
21
-67.9505
0
LINE
8
BLACK
6
CONTINUOUS
10
178.215
20
-67.9505
11
178.36
21
-67.8615
0
LINE
8
BLACK
6
CONTINUOUS
10
178.36
20
-67.8615
11
178.521
21
-67.8067
0
LINE
8
BLACK
6
CONTINUOUS
10
178.521
20
-67.8067
11
178.69
21
-67.789
0
LINE
8
BLACK
6
CONTINUOUS
10
178.69
20
-67.789
11
178.858
21
-67.8091
0
LINE
8
BLACK
6
CONTINUOUS
10
176.318
20
-67.8091
11
176.478
21
-67.8661
0
LINE
8
BLACK
6
CONTINUOUS
10
176.478
20
-67.8661
11
176.622
21
-67.9571
0
LINE
8
BLACK
6
CONTINUOUS
10
176.622
20
-67.9571
11
176.741
21
-68.0776
0
LINE
8
BLACK
6
CONTINUOUS
10
176.741
20
-68.0776
11
176.831
21
-68.2217
0
LINE
8
BLACK
6
CONTINUOUS
10
176.831
20
-68.2217
11
176.887
21
-68.3821
0
LINE
8
BLACK
6
CONTINUOUS
10
176.887
20
-68.3821
11
176.906
21
-68.5509
0
LINE
8
BLACK
6
CONTINUOUS
10
176.906
20
-68.5509
11
176.906
21
-68.5722
0
LINE
8
BLACK
6
CONTINUOUS
10
176.906
20
-68.5722
11
176.882
21
-68.7404
0
LINE
8
BLACK
6
CONTINUOUS
10
176.882
20
-68.7404
11
176.822
21
-68.8993
0
LINE
8
BLACK
6
CONTINUOUS
10
176.822
20
-68.8993
11
176.728
21
-69.0408
0
LINE
8
BLACK
6
CONTINUOUS
10
176.728
20
-69.0408
11
176.605
21
-69.1579
0
LINE
8
BLACK
6
CONTINUOUS
10
176.605
20
-69.1579
11
176.459
21
-69.2449
0
LINE
8
BLACK
6
CONTINUOUS
10
176.459
20
-69.2449
11
176.297
21
-69.2974
0
LINE
8
BLACK
6
CONTINUOUS
10
176.297
20
-69.2974
11
176.128
21
-69.3128
0
LINE
8
BLACK
6
CONTINUOUS
10
176.128
20
-69.3128
11
175.96
21
-69.2903
0
LINE
8
BLACK
6
CONTINUOUS
10
175.96
20
-69.2903
11
175.801
21
-69.2311
0
LINE
8
BLACK
6
CONTINUOUS
10
175.801
20
-69.2311
11
175.659
21
-69.1381
0
LINE
8
BLACK
6
CONTINUOUS
10
175.659
20
-69.1381
11
175.541
21
-69.0159
0
LINE
8
BLACK
6
CONTINUOUS
10
175.541
20
-69.0159
11
175.453
21
-68.8706
0
LINE
8
BLACK
6
CONTINUOUS
10
175.453
20
-68.8706
11
175.399
21
-68.7094
0
LINE
8
BLACK
6
CONTINUOUS
10
175.399
20
-68.7094
11
175.382
21
-68.5403
0
LINE
8
BLACK
6
CONTINUOUS
10
175.382
20
-68.5403
11
175.404
21
-68.3718
0
LINE
8
BLACK
6
CONTINUOUS
10
175.404
20
-68.3718
11
175.462
21
-68.2121
0
LINE
8
BLACK
6
CONTINUOUS
10
175.462
20
-68.2121
11
175.554
21
-68.0693
0
LINE
8
BLACK
6
CONTINUOUS
10
175.554
20
-68.0693
11
175.675
21
-67.9505
0
LINE
8
BLACK
6
CONTINUOUS
10
175.675
20
-67.9505
11
175.82
21
-67.8615
0
LINE
8
BLACK
6
CONTINUOUS
10
175.82
20
-67.8615
11
175.981
21
-67.8067
0
LINE
8
BLACK
6
CONTINUOUS
10
175.981
20
-67.8067
11
176.15
21
-67.789
0
LINE
8
BLACK
6
CONTINUOUS
10
176.15
20
-67.789
11
176.318
21
-67.8091
0
LINE
8
BLACK
6
CONTINUOUS
10
173.778
20
-67.8091
11
173.938
21
-67.8661
0
LINE
8
BLACK
6
CONTINUOUS
10
173.938
20
-67.8661
11
174.082
21
-67.9571
0
LINE
8
BLACK
6
CONTINUOUS
10
174.082
20
-67.9571
11
174.201
21
-68.0776
0
LINE
8
BLACK
6
CONTINUOUS
10
174.201
20
-68.0776
11
174.291
21
-68.2217
0
LINE
8
BLACK
6
CONTINUOUS
10
174.291
20
-68.2217
11
174.347
21
-68.3821
0
LINE
8
BLACK
6
CONTINUOUS
10
174.347
20
-68.3821
11
174.366
21
-68.5509
0
LINE
8
BLACK
6
CONTINUOUS
10
174.366
20
-68.5509
11
174.366
21
-68.5722
0
LINE
8
BLACK
6
CONTINUOUS
10
174.366
20
-68.5722
11
174.342
21
-68.7404
0
LINE
8
BLACK
6
CONTINUOUS
10
174.342
20
-68.7404
11
174.282
21
-68.8993
0
LINE
8
BLACK
6
CONTINUOUS
10
174.282
20
-68.8993
11
174.188
21
-69.0408
0
LINE
8
BLACK
6
CONTINUOUS
10
174.188
20
-69.0408
11
174.065
21
-69.1579
0
LINE
8
BLACK
6
CONTINUOUS
10
174.065
20
-69.1579
11
173.919
21
-69.2449
0
LINE
8
BLACK
6
CONTINUOUS
10
173.919
20
-69.2449
11
173.757
21
-69.2974
0
LINE
8
BLACK
6
CONTINUOUS
10
173.757
20
-69.2974
11
173.588
21
-69.3128
0
LINE
8
BLACK
6
CONTINUOUS
10
173.588
20
-69.3128
11
173.42
21
-69.2903
0
LINE
8
BLACK
6
CONTINUOUS
10
173.42
20
-69.2903
11
173.261
21
-69.2311
0
LINE
8
BLACK
6
CONTINUOUS
10
173.261
20
-69.2311
11
173.119
21
-69.1381
0
LINE
8
BLACK
6
CONTINUOUS
10
173.119
20
-69.1381
11
173.001
21
-69.0159
0
LINE
8
BLACK
6
CONTINUOUS
10
173.001
20
-69.0159
11
172.913
21
-68.8706
0
LINE
8
BLACK
6
CONTINUOUS
10
172.913
20
-68.8706
11
172.859
21
-68.7094
0
LINE
8
BLACK
6
CONTINUOUS
10
172.859
20
-68.7094
11
172.842
21
-68.5403
0
LINE
8
BLACK
6
CONTINUOUS
10
172.842
20
-68.5403
11
172.864
21
-68.3718
0
LINE
8
BLACK
6
CONTINUOUS
10
172.864
20
-68.3718
11
172.922
21
-68.2121
0
LINE
8
BLACK
6
CONTINUOUS
10
172.922
20
-68.2121
11
173.014
21
-68.0693
0
LINE
8
BLACK
6
CONTINUOUS
10
173.014
20
-68.0693
11
173.135
21
-67.9505
0
LINE
8
BLACK
6
CONTINUOUS
10
173.135
20
-67.9505
11
173.28
21
-67.8615
0
LINE
8
BLACK
6
CONTINUOUS
10
173.28
20
-67.8615
11
173.441
21
-67.8067
0
LINE
8
BLACK
6
CONTINUOUS
10
173.441
20
-67.8067
11
173.61
21
-67.789
0
LINE
8
BLACK
6
CONTINUOUS
10
173.61
20
-67.789
11
173.778
21
-67.8091
0
LINE
8
BLACK
6
CONTINUOUS
10
171.238
20
-67.8091
11
171.398
21
-67.8661
0
LINE
8
BLACK
6
CONTINUOUS
10
171.398
20
-67.8661
11
171.542
21
-67.9571
0
LINE
8
BLACK
6
CONTINUOUS
10
171.542
20
-67.9571
11
171.661
21
-68.0776
0
LINE
8
BLACK
6
CONTINUOUS
10
171.661
20
-68.0776
11
171.751
21
-68.2217
0
LINE
8
BLACK
6
CONTINUOUS
10
171.751
20
-68.2217
11
171.807
21
-68.3821
0
LINE
8
BLACK
6
CONTINUOUS
10
171.807
20
-68.3821
11
171.826
21
-68.5509
0
LINE
8
BLACK
6
CONTINUOUS
10
171.826
20
-68.5509
11
171.826
21
-68.5722
0
LINE
8
BLACK
6
CONTINUOUS
10
171.826
20
-68.5722
11
171.802
21
-68.7404
0
LINE
8
BLACK
6
CONTINUOUS
10
171.802
20
-68.7404
11
171.742
21
-68.8993
0
LINE
8
BLACK
6
CONTINUOUS
10
171.742
20
-68.8993
11
171.648
21
-69.0408
0
LINE
8
BLACK
6
CONTINUOUS
10
171.648
20
-69.0408
11
171.525
21
-69.1579
0
LINE
8
BLACK
6
CONTINUOUS
10
171.525
20
-69.1579
11
171.379
21
-69.2449
0
LINE
8
BLACK
6
CONTINUOUS
10
171.379
20
-69.2449
11
171.217
21
-69.2974
0
LINE
8
BLACK
6
CONTINUOUS
10
171.217
20
-69.2974
11
171.048
21
-69.3128
0
LINE
8
BLACK
6
CONTINUOUS
10
171.048
20
-69.3128
11
170.88
21
-69.2903
0
LINE
8
BLACK
6
CONTINUOUS
10
170.88
20
-69.2903
11
170.721
21
-69.2311
0
LINE
8
BLACK
6
CONTINUOUS
10
170.721
20
-69.2311
11
170.579
21
-69.1381
0
LINE
8
BLACK
6
CONTINUOUS
10
170.579
20
-69.1381
11
170.461
21
-69.0159
0
LINE
8
BLACK
6
CONTINUOUS
10
170.461
20
-69.0159
11
170.373
21
-68.8706
0
LINE
8
BLACK
6
CONTINUOUS
10
170.373
20
-68.8706
11
170.319
21
-68.7094
0
LINE
8
BLACK
6
CONTINUOUS
10
170.319
20
-68.7094
11
170.302
21
-68.5403
0
LINE
8
BLACK
6
CONTINUOUS
10
170.302
20
-68.5403
11
170.324
21
-68.3718
0
LINE
8
BLACK
6
CONTINUOUS
10
170.324
20
-68.3718
11
170.382
21
-68.2121
0
LINE
8
BLACK
6
CONTINUOUS
10
170.382
20
-68.2121
11
170.474
21
-68.0693
0
LINE
8
BLACK
6
CONTINUOUS
10
170.474
20
-68.0693
11
170.595
21
-67.9505
0
LINE
8
BLACK
6
CONTINUOUS
10
170.595
20
-67.9505
11
170.74
21
-67.8615
0
LINE
8
BLACK
6
CONTINUOUS
10
170.74
20
-67.8615
11
170.901
21
-67.8067
0
LINE
8
BLACK
6
CONTINUOUS
10
170.901
20
-67.8067
11
171.07
21
-67.789
0
LINE
8
BLACK
6
CONTINUOUS
10
171.07
20
-67.789
11
171.238
21
-67.8091
0
LINE
8
BLACK
6
CONTINUOUS
10
168.698
20
-67.8091
11
168.858
21
-67.8661
0
LINE
8
BLACK
6
CONTINUOUS
10
168.858
20
-67.8661
11
169.002
21
-67.9571
0
LINE
8
BLACK
6
CONTINUOUS
10
169.002
20
-67.9571
11
169.121
21
-68.0776
0
LINE
8
BLACK
6
CONTINUOUS
10
169.121
20
-68.0776
11
169.211
21
-68.2217
0
LINE
8
BLACK
6
CONTINUOUS
10
169.211
20
-68.2217
11
169.267
21
-68.3821
0
LINE
8
BLACK
6
CONTINUOUS
10
169.267
20
-68.3821
11
169.286
21
-68.5509
0
LINE
8
BLACK
6
CONTINUOUS
10
169.286
20
-68.5509
11
169.286
21
-68.5722
0
LINE
8
BLACK
6
CONTINUOUS
10
169.286
20
-68.5722
11
169.262
21
-68.7404
0
LINE
8
BLACK
6
CONTINUOUS
10
169.262
20
-68.7404
11
169.202
21
-68.8993
0
LINE
8
BLACK
6
CONTINUOUS
10
169.202
20
-68.8993
11
169.108
21
-69.0408
0
LINE
8
BLACK
6
CONTINUOUS
10
169.108
20
-69.0408
11
168.985
21
-69.1579
0
LINE
8
BLACK
6
CONTINUOUS
10
168.985
20
-69.1579
11
168.839
21
-69.2449
0
LINE
8
BLACK
6
CONTINUOUS
10
168.839
20
-69.2449
11
168.677
21
-69.2974
0
LINE
8
BLACK
6
CONTINUOUS
10
168.677
20
-69.2974
11
168.508
21
-69.3128
0
LINE
8
BLACK
6
CONTINUOUS
10
168.508
20
-69.3128
11
168.34
21
-69.2903
0
LINE
8
BLACK
6
CONTINUOUS
10
168.34
20
-69.2903
11
168.181
21
-69.2311
0
LINE
8
BLACK
6
CONTINUOUS
10
168.181
20
-69.2311
11
168.039
21
-69.1381
0
LINE
8
BLACK
6
CONTINUOUS
10
168.039
20
-69.1381
11
167.921
21
-69.0159
0
LINE
8
BLACK
6
CONTINUOUS
10
167.921
20
-69.0159
11
167.833
21
-68.8706
0
LINE
8
BLACK
6
CONTINUOUS
10
167.833
20
-68.8706
11
167.779
21
-68.7094
0
LINE
8
BLACK
6
CONTINUOUS
10
167.779
20
-68.7094
11
167.762
21
-68.5403
0
LINE
8
BLACK
6
CONTINUOUS
10
167.762
20
-68.5403
11
167.784
21
-68.3718
0
LINE
8
BLACK
6
CONTINUOUS
10
167.784
20
-68.3718
11
167.842
21
-68.2121
0
LINE
8
BLACK
6
CONTINUOUS
10
167.842
20
-68.2121
11
167.934
21
-68.0693
0
LINE
8
BLACK
6
CONTINUOUS
10
167.934
20
-68.0693
11
168.055
21
-67.9505
0
LINE
8
BLACK
6
CONTINUOUS
10
168.055
20
-67.9505
11
168.2
21
-67.8615
0
LINE
8
BLACK
6
CONTINUOUS
10
168.2
20
-67.8615
11
168.361
21
-67.8067
0
LINE
8
BLACK
6
CONTINUOUS
10
168.361
20
-67.8067
11
168.53
21
-67.789
0
LINE
8
BLACK
6
CONTINUOUS
10
168.53
20
-67.789
11
168.698
21
-67.8091
0
LINE
8
BLACK
6
CONTINUOUS
10
194.098
20
-67.8091
11
194.258
21
-67.8661
0
LINE
8
BLACK
6
CONTINUOUS
10
194.258
20
-67.8661
11
194.402
21
-67.9571
0
LINE
8
BLACK
6
CONTINUOUS
10
194.402
20
-67.9571
11
194.521
21
-68.0776
0
LINE
8
BLACK
6
CONTINUOUS
10
194.521
20
-68.0776
11
194.611
21
-68.2217
0
LINE
8
BLACK
6
CONTINUOUS
10
194.611
20
-68.2217
11
194.667
21
-68.3821
0
LINE
8
BLACK
6
CONTINUOUS
10
194.667
20
-68.3821
11
194.686
21
-68.5509
0
LINE
8
BLACK
6
CONTINUOUS
10
194.686
20
-68.5509
11
194.686
21
-68.5722
0
LINE
8
BLACK
6
CONTINUOUS
10
194.686
20
-68.5722
11
194.662
21
-68.7404
0
LINE
8
BLACK
6
CONTINUOUS
10
194.662
20
-68.7404
11
194.602
21
-68.8993
0
LINE
8
BLACK
6
CONTINUOUS
10
194.602
20
-68.8993
11
194.508
21
-69.0408
0
LINE
8
BLACK
6
CONTINUOUS
10
194.508
20
-69.0408
11
194.385
21
-69.1579
0
LINE
8
BLACK
6
CONTINUOUS
10
194.385
20
-69.1579
11
194.239
21
-69.2449
0
LINE
8
BLACK
6
CONTINUOUS
10
194.239
20
-69.2449
11
194.077
21
-69.2974
0
LINE
8
BLACK
6
CONTINUOUS
10
194.077
20
-69.2974
11
193.908
21
-69.3128
0
LINE
8
BLACK
6
CONTINUOUS
10
193.908
20
-69.3128
11
193.74
21
-69.2903
0
LINE
8
BLACK
6
CONTINUOUS
10
193.74
20
-69.2903
11
193.581
21
-69.2311
0
LINE
8
BLACK
6
CONTINUOUS
10
193.581
20
-69.2311
11
193.439
21
-69.1381
0
LINE
8
BLACK
6
CONTINUOUS
10
193.439
20
-69.1381
11
193.321
21
-69.0159
0
LINE
8
BLACK
6
CONTINUOUS
10
193.321
20
-69.0159
11
193.233
21
-68.8706
0
LINE
8
BLACK
6
CONTINUOUS
10
193.233
20
-68.8706
11
193.179
21
-68.7094
0
LINE
8
BLACK
6
CONTINUOUS
10
193.179
20
-68.7094
11
193.162
21
-68.5403
0
LINE
8
BLACK
6
CONTINUOUS
10
193.162
20
-68.5403
11
193.184
21
-68.3718
0
LINE
8
BLACK
6
CONTINUOUS
10
193.184
20
-68.3718
11
193.242
21
-68.2121
0
LINE
8
BLACK
6
CONTINUOUS
10
193.242
20
-68.2121
11
193.334
21
-68.0693
0
LINE
8
BLACK
6
CONTINUOUS
10
193.334
20
-68.0693
11
193.455
21
-67.9505
0
LINE
8
BLACK
6
CONTINUOUS
10
193.455
20
-67.9505
11
193.6
21
-67.8615
0
LINE
8
BLACK
6
CONTINUOUS
10
193.6
20
-67.8615
11
193.761
21
-67.8067
0
LINE
8
BLACK
6
CONTINUOUS
10
193.761
20
-67.8067
11
193.93
21
-67.789
0
LINE
8
BLACK
6
CONTINUOUS
10
193.93
20
-67.789
11
194.098
21
-67.8091
0
LINE
8
BLACK
6
CONTINUOUS
10
196.638
20
-67.8091
11
196.798
21
-67.8661
0
LINE
8
BLACK
6
CONTINUOUS
10
196.798
20
-67.8661
11
196.942
21
-67.9571
0
LINE
8
BLACK
6
CONTINUOUS
10
196.942
20
-67.9571
11
197.061
21
-68.0776
0
LINE
8
BLACK
6
CONTINUOUS
10
197.061
20
-68.0776
11
197.151
21
-68.2217
0
LINE
8
BLACK
6
CONTINUOUS
10
197.151
20
-68.2217
11
197.207
21
-68.3821
0
LINE
8
BLACK
6
CONTINUOUS
10
197.207
20
-68.3821
11
197.226
21
-68.5509
0
LINE
8
BLACK
6
CONTINUOUS
10
197.226
20
-68.5509
11
197.226
21
-68.5722
0
LINE
8
BLACK
6
CONTINUOUS
10
197.226
20
-68.5722
11
197.202
21
-68.7404
0
LINE
8
BLACK
6
CONTINUOUS
10
197.202
20
-68.7404
11
197.142
21
-68.8993
0
LINE
8
BLACK
6
CONTINUOUS
10
197.142
20
-68.8993
11
197.048
21
-69.0408
0
LINE
8
BLACK
6
CONTINUOUS
10
197.048
20
-69.0408
11
196.925
21
-69.1579
0
LINE
8
BLACK
6
CONTINUOUS
10
196.925
20
-69.1579
11
196.779
21
-69.2449
0
LINE
8
BLACK
6
CONTINUOUS
10
196.779
20
-69.2449
11
196.617
21
-69.2974
0
LINE
8
BLACK
6
CONTINUOUS
10
196.617
20
-69.2974
11
196.448
21
-69.3128
0
LINE
8
BLACK
6
CONTINUOUS
10
196.448
20
-69.3128
11
196.28
21
-69.2903
0
LINE
8
BLACK
6
CONTINUOUS
10
196.28
20
-69.2903
11
196.121
21
-69.2311
0
LINE
8
BLACK
6
CONTINUOUS
10
196.121
20
-69.2311
11
195.979
21
-69.1381
0
LINE
8
BLACK
6
CONTINUOUS
10
195.979
20
-69.1381
11
195.861
21
-69.0159
0
LINE
8
BLACK
6
CONTINUOUS
10
195.861
20
-69.0159
11
195.773
21
-68.8706
0
LINE
8
BLACK
6
CONTINUOUS
10
195.773
20
-68.8706
11
195.719
21
-68.7094
0
LINE
8
BLACK
6
CONTINUOUS
10
195.719
20
-68.7094
11
195.702
21
-68.5403
0
LINE
8
BLACK
6
CONTINUOUS
10
195.702
20
-68.5403
11
195.724
21
-68.3718
0
LINE
8
BLACK
6
CONTINUOUS
10
195.724
20
-68.3718
11
195.782
21
-68.2121
0
LINE
8
BLACK
6
CONTINUOUS
10
195.782
20
-68.2121
11
195.874
21
-68.0693
0
LINE
8
BLACK
6
CONTINUOUS
10
195.874
20
-68.0693
11
195.995
21
-67.9505
0
LINE
8
BLACK
6
CONTINUOUS
10
195.995
20
-67.9505
11
196.14
21
-67.8615
0
LINE
8
BLACK
6
CONTINUOUS
10
196.14
20
-67.8615
11
196.301
21
-67.8067
0
LINE
8
BLACK
6
CONTINUOUS
10
196.301
20
-67.8067
11
196.47
21
-67.789
0
LINE
8
BLACK
6
CONTINUOUS
10
196.47
20
-67.789
11
196.638
21
-67.8091
0
LINE
8
BLACK
6
CONTINUOUS
10
143.562
20
-61.0188
11
143.844
21
-61.075
0
LINE
8
BLACK
6
CONTINUOUS
10
143.844
20
-61.075
11
144.117
21
-61.1675
0
LINE
8
BLACK
6
CONTINUOUS
10
144.117
20
-61.1675
11
144.375
21
-61.2947
0
LINE
8
BLACK
6
CONTINUOUS
10
144.375
20
-61.2947
11
144.614
21
-61.4546
0
LINE
8
BLACK
6
CONTINUOUS
10
144.614
20
-61.4546
11
144.831
21
-61.6444
0
LINE
8
BLACK
6
CONTINUOUS
10
144.831
20
-61.6444
11
145.02
21
-61.8607
0
LINE
8
BLACK
6
CONTINUOUS
10
145.02
20
-61.8607
11
145.18
21
-62.1
0
LINE
8
BLACK
6
CONTINUOUS
10
145.18
20
-62.1
11
145.308
21
-62.3581
0
LINE
8
BLACK
6
CONTINUOUS
10
145.308
20
-62.3581
11
145.4
21
-62.6306
0
LINE
8
BLACK
6
CONTINUOUS
10
145.4
20
-62.6306
11
145.456
21
-62.9128
0
LINE
8
BLACK
6
CONTINUOUS
10
145.456
20
-62.9128
11
145.475
21
-63.2
0
LINE
8
BLACK
6
CONTINUOUS
10
145.475
20
-63.2
11
145.456
21
-63.4872
0
LINE
8
BLACK
6
CONTINUOUS
10
145.456
20
-63.4872
11
145.4
21
-63.7694
0
LINE
8
BLACK
6
CONTINUOUS
10
145.4
20
-63.7694
11
145.308
21
-64.0419
0
LINE
8
BLACK
6
CONTINUOUS
10
145.308
20
-64.0419
11
145.18
21
-64.3
0
LINE
8
BLACK
6
CONTINUOUS
10
145.18
20
-64.3
11
145.02
21
-64.5393
0
LINE
8
BLACK
6
CONTINUOUS
10
145.02
20
-64.5393
11
144.831
21
-64.7556
0
LINE
8
BLACK
6
CONTINUOUS
10
144.831
20
-64.7556
11
144.614
21
-64.9454
0
LINE
8
BLACK
6
CONTINUOUS
10
144.614
20
-64.9454
11
144.375
21
-65.1053
0
LINE
8
BLACK
6
CONTINUOUS
10
144.375
20
-65.1053
11
144.117
21
-65.2325
0
LINE
8
BLACK
6
CONTINUOUS
10
144.117
20
-65.2325
11
143.844
21
-65.325
0
LINE
8
BLACK
6
CONTINUOUS
10
143.844
20
-65.325
11
143.562
21
-65.3812
0
LINE
8
BLACK
6
CONTINUOUS
10
143.562
20
-65.3812
11
143.275
21
-65.4
0
LINE
8
BLACK
6
CONTINUOUS
10
143.275
20
-65.4
11
142.988
21
-65.3812
0
LINE
8
BLACK
6
CONTINUOUS
10
142.988
20
-65.3812
11
142.706
21
-65.325
0
LINE
8
BLACK
6
CONTINUOUS
10
142.706
20
-65.325
11
142.433
21
-65.2325
0
LINE
8
BLACK
6
CONTINUOUS
10
142.433
20
-65.2325
11
142.175
21
-65.1053
0
LINE
8
BLACK
6
CONTINUOUS
10
142.175
20
-65.1053
11
141.936
21
-64.9454
0
LINE
8
BLACK
6
CONTINUOUS
10
141.936
20
-64.9454
11
141.719
21
-64.7556
0
LINE
8
BLACK
6
CONTINUOUS
10
141.719
20
-64.7556
11
141.53
21
-64.5393
0
LINE
8
BLACK
6
CONTINUOUS
10
141.53
20
-64.5393
11
141.37
21
-64.3
0
LINE
8
BLACK
6
CONTINUOUS
10
141.37
20
-64.3
11
141.242
21
-64.0419
0
LINE
8
BLACK
6
CONTINUOUS
10
141.242
20
-64.0419
11
141.15
21
-63.7694
0
LINE
8
BLACK
6
CONTINUOUS
10
141.15
20
-63.7694
11
141.094
21
-63.4872
0
LINE
8
BLACK
6
CONTINUOUS
10
141.094
20
-63.4872
11
141.075
21
-63.2
0
LINE
8
BLACK
6
CONTINUOUS
10
141.075
20
-63.2
11
141.094
21
-62.9128
0
LINE
8
BLACK
6
CONTINUOUS
10
141.094
20
-62.9128
11
141.15
21
-62.6306
0
LINE
8
BLACK
6
CONTINUOUS
10
141.15
20
-62.6306
11
141.242
21
-62.3581
0
LINE
8
BLACK
6
CONTINUOUS
10
141.242
20
-62.3581
11
141.37
21
-62.1
0
LINE
8
BLACK
6
CONTINUOUS
10
141.37
20
-62.1
11
141.53
21
-61.8607
0
LINE
8
BLACK
6
CONTINUOUS
10
141.53
20
-61.8607
11
141.719
21
-61.6444
0
LINE
8
BLACK
6
CONTINUOUS
10
141.719
20
-61.6444
11
141.936
21
-61.4546
0
LINE
8
BLACK
6
CONTINUOUS
10
141.936
20
-61.4546
11
142.175
21
-61.2947
0
LINE
8
BLACK
6
CONTINUOUS
10
142.175
20
-61.2947
11
142.433
21
-61.1675
0
LINE
8
BLACK
6
CONTINUOUS
10
142.433
20
-61.1675
11
142.706
21
-61.075
0
LINE
8
BLACK
6
CONTINUOUS
10
142.706
20
-61.075
11
142.988
21
-61.0188
0
LINE
8
BLACK
6
CONTINUOUS
10
142.988
20
-61.0188
11
143.275
21
-61
0
LINE
8
BLACK
6
CONTINUOUS
10
143.275
20
-61
11
143.562
21
-61.0188
  0
ENDSEC
  0
EOF
