  0
SECTION
  2
HEADER
  9
$ANGBASE
  50
0.0
  9
$ANGDIR
  70
1
  9
$MEASUREMENT
  70
1
  0
ENDSEC
  0
SECTION
  2
TABLES
  0
TABLE
  2
LTYPE
  70
4
  0
LTYPE
  5
40F
  2
CONTINUOUS
  70
0
  3
Solid line
  72
65
  73
0
  40
0.0
  0
LTYPE
  5
410
  2
DASHDOT
 70
0
  3
Dash Dot ____ _ ____ _
 72
65
 73
4
 40
2.0
 49
1.25
 49
-0.25
 49
0.25
 49
-0.25
  0
LTYPE
  5
411
  2
DASHED
 70
0
  3
Dashed __ __ __ __ __
 72
65
 73
2
 40
0.75
 49
0.5
 49
-0.25
  0
LTYPE
  5
43B
  2
DOTTED
 70
0
  3
Dotted .  .  .  .
 72
65
 73
2
 40
0.2
 49
0.0
 49
-0.2
  0
ENDTAB
  0
TABLE
  2
STYLE
  70
4
  0
STYLE
  2
KICAD
  70
0
  40
0
  41
1
  42
1
  50
0
  71
0
  3
isocp.shx
  0
STYLE
  2
KICADB
  70
0
  40
0
  41
1
  42
1
  50
0
  71
0
  3
isocp.shx
  0
STYLE
  2
KICADI
  70
0
  40
0
  41
1
  42
1
  50
15
  71
0
  3
isocp.shx
  0
STYLE
  2
KICADBI
  70
0
  40
0
  41
1
  42
1
  50
15
  71
0
  3
isocp.shx
  0
ENDTAB
  0
TABLE
  2
LAYER
  70
1
  0
LAYER
  2
BLACK
  70
0
  62
7
  6
CONTINUOUS
  0
ENDTAB
  0
ENDSEC
  0
SECTION
  2
ENTITIES
0
LINE
8
BLACK
6
CONTINUOUS
10
162.245
20
-58.26
11
162.26
21
-58.2623
0
LINE
8
BLACK
6
CONTINUOUS
10
162.26
20
-58.2623
11
162.26
21
-58.2623
0
LINE
8
BLACK
6
CONTINUOUS
10
162.26
20
-58.2623
11
162.269
21
-58.2637
0
LINE
8
BLACK
6
CONTINUOUS
10
162.269
20
-58.2637
11
162.284
21
-58.2617
0
LINE
8
BLACK
6
CONTINUOUS
10
162.284
20
-58.2617
11
162.309
21
-58.261
0
LINE
8
BLACK
6
CONTINUOUS
10
162.309
20
-58.261
11
162.478
21
-58.273
0
LINE
8
BLACK
6
CONTINUOUS
10
162.478
20
-58.273
11
162.496
21
-58.2756
0
LINE
8
BLACK
6
CONTINUOUS
10
162.496
20
-58.2756
11
162.686
21
-58.317
0
LINE
8
BLACK
6
CONTINUOUS
10
162.686
20
-58.317
11
162.704
21
-58.3221
0
LINE
8
BLACK
6
CONTINUOUS
10
162.704
20
-58.3221
11
162.886
21
-58.3901
0
LINE
8
BLACK
6
CONTINUOUS
10
162.886
20
-58.3901
11
162.903
21
-58.3976
0
LINE
8
BLACK
6
CONTINUOUS
10
162.903
20
-58.3976
11
163.073
21
-58.491
0
LINE
8
BLACK
6
CONTINUOUS
10
163.073
20
-58.491
11
163.089
21
-58.5007
0
LINE
8
BLACK
6
CONTINUOUS
10
163.089
20
-58.5007
11
163.245
21
-58.6174
0
LINE
8
BLACK
6
CONTINUOUS
10
163.245
20
-58.6174
11
163.258
21
-58.6292
0
LINE
8
BLACK
6
CONTINUOUS
10
163.258
20
-58.6292
11
163.396
21
-58.7669
0
LINE
8
BLACK
6
CONTINUOUS
10
163.396
20
-58.7669
11
163.408
21
-58.7805
0
LINE
8
BLACK
6
CONTINUOUS
10
163.408
20
-58.7805
11
163.524
21
-58.9364
0
LINE
8
BLACK
6
CONTINUOUS
10
163.524
20
-58.9364
11
163.534
21
-58.9515
0
LINE
8
BLACK
6
CONTINUOUS
10
163.534
20
-58.9515
11
163.627
21
-59.1225
0
LINE
8
BLACK
6
CONTINUOUS
10
163.627
20
-59.1225
11
163.635
21
-59.1389
0
LINE
8
BLACK
6
CONTINUOUS
10
163.635
20
-59.1389
11
163.703
21
-59.3214
0
LINE
8
BLACK
6
CONTINUOUS
10
163.703
20
-59.3214
11
163.708
21
-59.3386
0
LINE
8
BLACK
6
CONTINUOUS
10
163.708
20
-59.3386
11
163.749
21
-59.5289
0
LINE
8
BLACK
6
CONTINUOUS
10
163.749
20
-59.5289
11
163.752
21
-59.5467
0
LINE
8
BLACK
6
CONTINUOUS
10
163.752
20
-59.5467
11
163.763
21
-59.705
0
LINE
8
BLACK
6
CONTINUOUS
10
163.763
20
-59.705
11
163.762
21
-59.7278
0
LINE
8
BLACK
6
CONTINUOUS
10
163.762
20
-59.7278
11
163.763
21
-59.7278
0
LINE
8
BLACK
6
CONTINUOUS
10
163.763
20
-59.7278
11
163.762
21
-59.7327
0
LINE
8
BLACK
6
CONTINUOUS
10
163.762
20
-59.7327
11
163.761
21
-59.7375
0
LINE
8
BLACK
6
CONTINUOUS
10
163.761
20
-59.7375
11
163.761
21
-59.7435
0
LINE
8
BLACK
6
CONTINUOUS
10
163.761
20
-59.7435
11
163.761
21
-59.7437
0
LINE
8
BLACK
6
CONTINUOUS
10
163.761
20
-59.7437
11
163.761
21
-59.744
0
LINE
8
BLACK
6
CONTINUOUS
10
163.761
20
-59.744
11
163.761
21
-59.75
0
LINE
8
BLACK
6
CONTINUOUS
10
163.761
20
-59.75
11
163.762
21
-59.7548
0
LINE
8
BLACK
6
CONTINUOUS
10
163.762
20
-59.7548
11
163.762
21
-59.7573
0
LINE
8
BLACK
6
CONTINUOUS
10
163.762
20
-59.7573
11
163.763
21
-59.7629
0
LINE
8
BLACK
6
CONTINUOUS
10
163.763
20
-59.7629
11
163.772
21
-59.9197
0
LINE
8
BLACK
6
CONTINUOUS
10
163.772
20
-59.9197
11
163.774
21
-59.9572
0
LINE
8
BLACK
6
CONTINUOUS
10
163.774
20
-59.9572
11
163.78
21
-60.0529
0
LINE
8
BLACK
6
CONTINUOUS
10
163.78
20
-60.0529
11
163.835
21
-60.3514
0
LINE
8
BLACK
6
CONTINUOUS
10
163.835
20
-60.3514
11
163.925
21
-60.6412
0
LINE
8
BLACK
6
CONTINUOUS
10
163.925
20
-60.6412
11
164.05
21
-60.9179
0
LINE
8
BLACK
6
CONTINUOUS
10
164.05
20
-60.9179
11
164.052
21
-60.9211
0
LINE
8
BLACK
6
CONTINUOUS
10
164.052
20
-60.9211
11
164.052
21
-60.9212
0
LINE
8
BLACK
6
CONTINUOUS
10
164.052
20
-60.9212
11
164.099
21
-61.0001
0
LINE
8
BLACK
6
CONTINUOUS
10
164.099
20
-61.0001
11
164.207
21
-61.1776
0
LINE
8
BLACK
6
CONTINUOUS
10
164.207
20
-61.1776
11
164.209
21
-61.1806
0
LINE
8
BLACK
6
CONTINUOUS
10
164.209
20
-61.1806
11
164.209
21
-61.1806
0
LINE
8
BLACK
6
CONTINUOUS
10
164.209
20
-61.1806
11
164.253
21
-61.2363
0
LINE
8
BLACK
6
CONTINUOUS
10
164.253
20
-61.2363
11
164.394
21
-61.4165
0
LINE
8
BLACK
6
CONTINUOUS
10
164.394
20
-61.4165
11
164.609
21
-61.6311
0
LINE
8
BLACK
6
CONTINUOUS
10
164.609
20
-61.6311
11
164.847
21
-61.8182
0
LINE
8
BLACK
6
CONTINUOUS
10
164.847
20
-61.8182
11
165.025
21
-61.9255
0
LINE
8
BLACK
6
CONTINUOUS
10
165.025
20
-61.9255
11
165.104
21
-61.9733
0
LINE
8
BLACK
6
CONTINUOUS
10
165.104
20
-61.9733
11
165.104
21
-61.9733
0
LINE
8
BLACK
6
CONTINUOUS
10
165.104
20
-61.9733
11
165.107
21
-61.9752
0
LINE
8
BLACK
6
CONTINUOUS
10
165.107
20
-61.9752
11
165.148
21
-61.9937
0
LINE
8
BLACK
6
CONTINUOUS
10
165.148
20
-61.9937
11
165.38
21
-62.0982
0
LINE
8
BLACK
6
CONTINUOUS
10
165.38
20
-62.0982
11
165.38
21
-62.0982
0
LINE
8
BLACK
6
CONTINUOUS
10
165.38
20
-62.0982
11
165.384
21
-62.0998
0
LINE
8
BLACK
6
CONTINUOUS
10
165.384
20
-62.0998
11
165.674
21
-62.1901
0
LINE
8
BLACK
6
CONTINUOUS
10
165.674
20
-62.1901
11
165.972
21
-62.2448
0
LINE
8
BLACK
6
CONTINUOUS
10
165.972
20
-62.2448
11
165.976
21
-62.245
0
LINE
8
BLACK
6
CONTINUOUS
10
165.976
20
-62.245
11
165.976
21
-62.245
0
LINE
8
BLACK
6
CONTINUOUS
10
165.976
20
-62.245
11
166.108
21
-62.253
0
LINE
8
BLACK
6
CONTINUOUS
10
166.108
20
-62.253
11
166.244
21
-62.2612
0
LINE
8
BLACK
6
CONTINUOUS
10
166.244
20
-62.2612
11
166.257
21
-62.2627
0
LINE
8
BLACK
6
CONTINUOUS
10
166.257
20
-62.2627
11
166.262
21
-62.2636
0
LINE
8
BLACK
6
CONTINUOUS
10
166.262
20
-62.2636
11
166.269
21
-62.2637
0
LINE
8
BLACK
6
CONTINUOUS
10
166.269
20
-62.2637
11
166.27
21
-62.2637
0
LINE
8
BLACK
6
CONTINUOUS
10
166.27
20
-62.2637
11
166.27
21
-62.2637
0
LINE
8
BLACK
6
CONTINUOUS
10
166.27
20
-62.2637
11
166.275
21
-62.2637
0
LINE
8
BLACK
6
CONTINUOUS
10
166.275
20
-62.2637
11
166.303
21
-62.2598
0
LINE
8
BLACK
6
CONTINUOUS
10
166.303
20
-62.2598
11
166.32
21
-62.2585
0
LINE
8
BLACK
6
CONTINUOUS
10
166.32
20
-62.2585
11
180.226
21
-62.2585
0
LINE
8
BLACK
6
CONTINUOUS
10
180.226
20
-62.2585
11
180.245
21
-62.26
0
LINE
8
BLACK
6
CONTINUOUS
10
180.245
20
-62.26
11
180.26
21
-62.2623
0
LINE
8
BLACK
6
CONTINUOUS
10
180.26
20
-62.2623
11
180.26
21
-62.2623
0
LINE
8
BLACK
6
CONTINUOUS
10
180.26
20
-62.2623
11
180.269
21
-62.2637
0
LINE
8
BLACK
6
CONTINUOUS
10
180.269
20
-62.2637
11
180.283
21
-62.2618
0
LINE
8
BLACK
6
CONTINUOUS
10
180.283
20
-62.2618
11
180.309
21
-62.2611
0
LINE
8
BLACK
6
CONTINUOUS
10
180.309
20
-62.2611
11
180.376
21
-62.2661
0
LINE
8
BLACK
6
CONTINUOUS
10
180.376
20
-62.2661
11
180.489
21
-62.2746
0
LINE
8
BLACK
6
CONTINUOUS
10
180.489
20
-62.2746
11
180.507
21
-62.2774
0
LINE
8
BLACK
6
CONTINUOUS
10
180.507
20
-62.2774
11
180.707
21
-62.3232
0
LINE
8
BLACK
6
CONTINUOUS
10
180.707
20
-62.3232
11
180.725
21
-62.3288
0
LINE
8
BLACK
6
CONTINUOUS
10
180.725
20
-62.3288
11
180.916
21
-62.404
0
LINE
8
BLACK
6
CONTINUOUS
10
180.916
20
-62.404
11
180.933
21
-62.4122
0
LINE
8
BLACK
6
CONTINUOUS
10
180.933
20
-62.4122
11
181.11
21
-62.515
0
LINE
8
BLACK
6
CONTINUOUS
10
181.11
20
-62.515
11
181.126
21
-62.5257
0
LINE
8
BLACK
6
CONTINUOUS
10
181.126
20
-62.5257
11
181.286
21
-62.654
0
LINE
8
BLACK
6
CONTINUOUS
10
181.286
20
-62.654
11
181.299
21
-62.6669
0
LINE
8
BLACK
6
CONTINUOUS
10
181.299
20
-62.6669
11
181.438
21
-62.8175
0
LINE
8
BLACK
6
CONTINUOUS
10
181.438
20
-62.8175
11
181.45
21
-62.8324
0
LINE
8
BLACK
6
CONTINUOUS
10
181.45
20
-62.8324
11
181.547
21
-62.9758
0
LINE
8
BLACK
6
CONTINUOUS
10
181.547
20
-62.9758
11
181.555
21
-62.9909
0
LINE
8
BLACK
6
CONTINUOUS
10
181.555
20
-62.9909
11
181.555
21
-62.9909
0
LINE
8
BLACK
6
CONTINUOUS
10
181.555
20
-62.9909
11
181.559
21
-62.9976
0
LINE
8
BLACK
6
CONTINUOUS
10
181.559
20
-62.9976
11
181.56
21
-62.9997
0
LINE
8
BLACK
6
CONTINUOUS
10
181.56
20
-62.9997
11
181.562
21
-63.0071
0
LINE
8
BLACK
6
CONTINUOUS
10
181.562
20
-63.0071
11
181.565
21
-63.0101
0
LINE
8
BLACK
6
CONTINUOUS
10
181.565
20
-63.0101
11
181.566
21
-63.0136
0
LINE
8
BLACK
6
CONTINUOUS
10
181.566
20
-63.0136
11
181.572
21
-63.0244
0
LINE
8
BLACK
6
CONTINUOUS
10
181.572
20
-63.0244
11
181.577
21
-63.0297
0
LINE
8
BLACK
6
CONTINUOUS
10
181.577
20
-63.0297
11
181.583
21
-63.0382
0
LINE
8
BLACK
6
CONTINUOUS
10
181.583
20
-63.0382
11
181.723
21
-63.2415
0
LINE
8
BLACK
6
CONTINUOUS
10
181.723
20
-63.2415
11
181.739
21
-63.2654
0
LINE
8
BLACK
6
CONTINUOUS
10
181.739
20
-63.2654
11
181.932
21
-63.4865
0
LINE
8
BLACK
6
CONTINUOUS
10
181.932
20
-63.4865
11
181.935
21
-63.4889
0
LINE
8
BLACK
6
CONTINUOUS
10
181.935
20
-63.4889
11
181.935
21
-63.4889
0
LINE
8
BLACK
6
CONTINUOUS
10
181.935
20
-63.4889
11
182.146
21
-63.6818
0
LINE
8
BLACK
6
CONTINUOUS
10
182.146
20
-63.6818
11
182.149
21
-63.6843
0
LINE
8
BLACK
6
CONTINUOUS
10
182.149
20
-63.6843
11
182.151
21
-63.6864
0
LINE
8
BLACK
6
CONTINUOUS
10
182.151
20
-63.6864
11
182.151
21
-63.6864
0
LINE
8
BLACK
6
CONTINUOUS
10
182.151
20
-63.6864
11
182.383
21
-63.8541
0
LINE
8
BLACK
6
CONTINUOUS
10
182.383
20
-63.8541
11
182.383
21
-63.8541
0
LINE
8
BLACK
6
CONTINUOUS
10
182.383
20
-63.8541
11
182.386
21
-63.8562
0
LINE
8
BLACK
6
CONTINUOUS
10
182.386
20
-63.8562
11
182.389
21
-63.8579
0
LINE
8
BLACK
6
CONTINUOUS
10
182.389
20
-63.8579
11
182.389
21
-63.8579
0
LINE
8
BLACK
6
CONTINUOUS
10
182.389
20
-63.8579
11
182.407
21
-63.8678
0
LINE
8
BLACK
6
CONTINUOUS
10
182.407
20
-63.8678
11
182.642
21
-64
0
LINE
8
BLACK
6
CONTINUOUS
10
182.642
20
-64
11
182.645
21
-64.0014
0
LINE
8
BLACK
6
CONTINUOUS
10
182.645
20
-64.0014
11
182.645
21
-64.0014
0
LINE
8
BLACK
6
CONTINUOUS
10
182.645
20
-64.0014
11
182.877
21
-64.0993
0
LINE
8
BLACK
6
CONTINUOUS
10
182.877
20
-64.0993
11
182.912
21
-64.1138
0
LINE
8
BLACK
6
CONTINUOUS
10
182.912
20
-64.1138
11
183.193
21
-64.1962
0
LINE
8
BLACK
6
CONTINUOUS
10
183.193
20
-64.1962
11
183.482
21
-64.246
0
LINE
8
BLACK
6
CONTINUOUS
10
183.482
20
-64.246
11
183.741
21
-64.2608
0
LINE
8
BLACK
6
CONTINUOUS
10
183.741
20
-64.2608
11
183.755
21
-64.2623
0
LINE
8
BLACK
6
CONTINUOUS
10
183.755
20
-64.2623
11
183.762
21
-64.2636
0
LINE
8
BLACK
6
CONTINUOUS
10
183.762
20
-64.2636
11
183.769
21
-64.2637
0
LINE
8
BLACK
6
CONTINUOUS
10
183.769
20
-64.2637
11
183.77
21
-64.2637
0
LINE
8
BLACK
6
CONTINUOUS
10
183.77
20
-64.2637
11
183.77
21
-64.2637
0
LINE
8
BLACK
6
CONTINUOUS
10
183.77
20
-64.2637
11
183.775
21
-64.2637
0
LINE
8
BLACK
6
CONTINUOUS
10
183.775
20
-64.2637
11
183.803
21
-64.2598
0
LINE
8
BLACK
6
CONTINUOUS
10
183.803
20
-64.2598
11
183.82
21
-64.2585
0
LINE
8
BLACK
6
CONTINUOUS
10
183.82
20
-64.2585
11
198.226
21
-64.2585
0
LINE
8
BLACK
6
CONTINUOUS
10
198.226
20
-64.2585
11
198.245
21
-64.26
0
LINE
8
BLACK
6
CONTINUOUS
10
198.245
20
-64.26
11
198.26
21
-64.2623
0
LINE
8
BLACK
6
CONTINUOUS
10
198.26
20
-64.2623
11
198.26
21
-64.2623
0
LINE
8
BLACK
6
CONTINUOUS
10
198.26
20
-64.2623
11
198.269
21
-64.2637
0
LINE
8
BLACK
6
CONTINUOUS
10
198.269
20
-64.2637
11
198.284
21
-64.2617
0
LINE
8
BLACK
6
CONTINUOUS
10
198.284
20
-64.2617
11
198.309
21
-64.261
0
LINE
8
BLACK
6
CONTINUOUS
10
198.309
20
-64.261
11
198.478
21
-64.273
0
LINE
8
BLACK
6
CONTINUOUS
10
198.478
20
-64.273
11
198.496
21
-64.2756
0
LINE
8
BLACK
6
CONTINUOUS
10
198.496
20
-64.2756
11
198.686
21
-64.317
0
LINE
8
BLACK
6
CONTINUOUS
10
198.686
20
-64.317
11
198.704
21
-64.3221
0
LINE
8
BLACK
6
CONTINUOUS
10
198.704
20
-64.3221
11
198.886
21
-64.3901
0
LINE
8
BLACK
6
CONTINUOUS
10
198.886
20
-64.3901
11
198.903
21
-64.3976
0
LINE
8
BLACK
6
CONTINUOUS
10
198.903
20
-64.3976
11
199.073
21
-64.491
0
LINE
8
BLACK
6
CONTINUOUS
10
199.073
20
-64.491
11
199.089
21
-64.5007
0
LINE
8
BLACK
6
CONTINUOUS
10
199.089
20
-64.5007
11
199.245
21
-64.6174
0
LINE
8
BLACK
6
CONTINUOUS
10
199.245
20
-64.6174
11
199.258
21
-64.6292
0
LINE
8
BLACK
6
CONTINUOUS
10
199.258
20
-64.6292
11
199.396
21
-64.7669
0
LINE
8
BLACK
6
CONTINUOUS
10
199.396
20
-64.7669
11
199.408
21
-64.7805
0
LINE
8
BLACK
6
CONTINUOUS
10
199.408
20
-64.7805
11
199.524
21
-64.9364
0
LINE
8
BLACK
6
CONTINUOUS
10
199.524
20
-64.9364
11
199.534
21
-64.9515
0
LINE
8
BLACK
6
CONTINUOUS
10
199.534
20
-64.9515
11
199.57
21
-65.017
0
LINE
8
BLACK
6
CONTINUOUS
10
199.57
20
-65.017
11
199.627
21
-65.1225
0
LINE
8
BLACK
6
CONTINUOUS
10
199.627
20
-65.1225
11
199.635
21
-65.1389
0
LINE
8
BLACK
6
CONTINUOUS
10
199.635
20
-65.1389
11
199.703
21
-65.3214
0
LINE
8
BLACK
6
CONTINUOUS
10
199.703
20
-65.3214
11
199.708
21
-65.3386
0
LINE
8
BLACK
6
CONTINUOUS
10
199.708
20
-65.3386
11
199.749
21
-65.5289
0
LINE
8
BLACK
6
CONTINUOUS
10
199.749
20
-65.5289
11
199.752
21
-65.5467
0
LINE
8
BLACK
6
CONTINUOUS
10
199.752
20
-65.5467
11
199.764
21
-65.7086
0
LINE
8
BLACK
6
CONTINUOUS
10
199.764
20
-65.7086
11
199.763
21
-65.7266
0
LINE
8
BLACK
6
CONTINUOUS
10
199.763
20
-65.7266
11
199.763
21
-65.7349
0
LINE
8
BLACK
6
CONTINUOUS
10
199.763
20
-65.7349
11
199.761
21
-65.7437
0
LINE
8
BLACK
6
CONTINUOUS
10
199.761
20
-65.7437
11
199.762
21
-65.7526
0
LINE
8
BLACK
6
CONTINUOUS
10
199.762
20
-65.7526
11
199.762
21
-65.7526
0
LINE
8
BLACK
6
CONTINUOUS
10
199.762
20
-65.7526
11
199.765
21
-65.7753
0
LINE
8
BLACK
6
CONTINUOUS
10
199.765
20
-65.7753
11
199.766
21
-65.7916
0
LINE
8
BLACK
6
CONTINUOUS
10
199.766
20
-65.7916
11
199.766
21
-112.697
0
LINE
8
BLACK
6
CONTINUOUS
10
199.766
20
-112.697
11
199.765
21
-112.718
0
LINE
8
BLACK
6
CONTINUOUS
10
199.765
20
-112.718
11
199.761
21
-112.737
0
LINE
8
BLACK
6
CONTINUOUS
10
199.761
20
-112.737
11
199.761
21
-112.75
0
LINE
8
BLACK
6
CONTINUOUS
10
199.761
20
-112.75
11
199.762
21
-112.755
0
LINE
8
BLACK
6
CONTINUOUS
10
199.762
20
-112.755
11
199.762
21
-112.757
0
LINE
8
BLACK
6
CONTINUOUS
10
199.762
20
-112.757
11
199.763
21
-112.763
0
LINE
8
BLACK
6
CONTINUOUS
10
199.763
20
-112.763
11
199.78
21
-113.053
0
LINE
8
BLACK
6
CONTINUOUS
10
199.78
20
-113.053
11
199.835
21
-113.351
0
LINE
8
BLACK
6
CONTINUOUS
10
199.835
20
-113.351
11
199.925
21
-113.641
0
LINE
8
BLACK
6
CONTINUOUS
10
199.925
20
-113.641
11
200.05
21
-113.918
0
LINE
8
BLACK
6
CONTINUOUS
10
200.05
20
-113.918
11
200.207
21
-114.178
0
LINE
8
BLACK
6
CONTINUOUS
10
200.207
20
-114.178
11
200.209
21
-114.181
0
LINE
8
BLACK
6
CONTINUOUS
10
200.209
20
-114.181
11
200.209
21
-114.181
0
LINE
8
BLACK
6
CONTINUOUS
10
200.209
20
-114.181
11
200.253
21
-114.236
0
LINE
8
BLACK
6
CONTINUOUS
10
200.253
20
-114.236
11
200.394
21
-114.416
0
LINE
8
BLACK
6
CONTINUOUS
10
200.394
20
-114.416
11
200.609
21
-114.631
0
LINE
8
BLACK
6
CONTINUOUS
10
200.609
20
-114.631
11
200.847
21
-114.818
0
LINE
8
BLACK
6
CONTINUOUS
10
200.847
20
-114.818
11
200.931
21
-114.869
0
LINE
8
BLACK
6
CONTINUOUS
10
200.931
20
-114.869
11
201.104
21
-114.973
0
LINE
8
BLACK
6
CONTINUOUS
10
201.104
20
-114.973
11
201.104
21
-114.973
0
LINE
8
BLACK
6
CONTINUOUS
10
201.104
20
-114.973
11
201.107
21
-114.975
0
LINE
8
BLACK
6
CONTINUOUS
10
201.107
20
-114.975
11
201.245
21
-115.038
0
LINE
8
BLACK
6
CONTINUOUS
10
201.245
20
-115.038
11
201.38
21
-115.098
0
LINE
8
BLACK
6
CONTINUOUS
10
201.38
20
-115.098
11
201.38
21
-115.098
0
LINE
8
BLACK
6
CONTINUOUS
10
201.38
20
-115.098
11
201.384
21
-115.1
0
LINE
8
BLACK
6
CONTINUOUS
10
201.384
20
-115.1
11
201.674
21
-115.19
0
LINE
8
BLACK
6
CONTINUOUS
10
201.674
20
-115.19
11
201.972
21
-115.245
0
LINE
8
BLACK
6
CONTINUOUS
10
201.972
20
-115.245
11
201.976
21
-115.245
0
LINE
8
BLACK
6
CONTINUOUS
10
201.976
20
-115.245
11
201.976
21
-115.245
0
LINE
8
BLACK
6
CONTINUOUS
10
201.976
20
-115.245
11
202.108
21
-115.253
0
LINE
8
BLACK
6
CONTINUOUS
10
202.108
20
-115.253
11
202.244
21
-115.261
0
LINE
8
BLACK
6
CONTINUOUS
10
202.244
20
-115.261
11
202.257
21
-115.263
0
LINE
8
BLACK
6
CONTINUOUS
10
202.257
20
-115.263
11
202.262
21
-115.264
0
LINE
8
BLACK
6
CONTINUOUS
10
202.262
20
-115.264
11
202.269
21
-115.264
0
LINE
8
BLACK
6
CONTINUOUS
10
202.269
20
-115.264
11
202.27
21
-115.264
0
LINE
8
BLACK
6
CONTINUOUS
10
202.27
20
-115.264
11
202.27
21
-115.264
0
LINE
8
BLACK
6
CONTINUOUS
10
202.27
20
-115.264
11
202.275
21
-115.264
0
LINE
8
BLACK
6
CONTINUOUS
10
202.275
20
-115.264
11
202.303
21
-115.26
0
LINE
8
BLACK
6
CONTINUOUS
10
202.303
20
-115.26
11
202.32
21
-115.259
0
LINE
8
BLACK
6
CONTINUOUS
10
202.32
20
-115.259
11
207.226
21
-115.259
0
LINE
8
BLACK
6
CONTINUOUS
10
207.226
20
-115.259
11
207.245
21
-115.26
0
LINE
8
BLACK
6
CONTINUOUS
10
207.245
20
-115.26
11
207.26
21
-115.262
0
LINE
8
BLACK
6
CONTINUOUS
10
207.26
20
-115.262
11
207.26
21
-115.262
0
LINE
8
BLACK
6
CONTINUOUS
10
207.26
20
-115.262
11
207.269
21
-115.264
0
LINE
8
BLACK
6
CONTINUOUS
10
207.269
20
-115.264
11
207.284
21
-115.262
0
LINE
8
BLACK
6
CONTINUOUS
10
207.284
20
-115.262
11
207.309
21
-115.261
0
LINE
8
BLACK
6
CONTINUOUS
10
207.309
20
-115.261
11
207.478
21
-115.273
0
LINE
8
BLACK
6
CONTINUOUS
10
207.478
20
-115.273
11
207.496
21
-115.276
0
LINE
8
BLACK
6
CONTINUOUS
10
207.496
20
-115.276
11
207.686
21
-115.317
0
LINE
8
BLACK
6
CONTINUOUS
10
207.686
20
-115.317
11
207.704
21
-115.322
0
LINE
8
BLACK
6
CONTINUOUS
10
207.704
20
-115.322
11
207.886
21
-115.39
0
LINE
8
BLACK
6
CONTINUOUS
10
207.886
20
-115.39
11
207.903
21
-115.398
0
LINE
8
BLACK
6
CONTINUOUS
10
207.903
20
-115.398
11
208.073
21
-115.491
0
LINE
8
BLACK
6
CONTINUOUS
10
208.073
20
-115.491
11
208.089
21
-115.501
0
LINE
8
BLACK
6
CONTINUOUS
10
208.089
20
-115.501
11
208.245
21
-115.617
0
LINE
8
BLACK
6
CONTINUOUS
10
208.245
20
-115.617
11
208.258
21
-115.629
0
LINE
8
BLACK
6
CONTINUOUS
10
208.258
20
-115.629
11
208.396
21
-115.767
0
LINE
8
BLACK
6
CONTINUOUS
10
208.396
20
-115.767
11
208.408
21
-115.78
0
LINE
8
BLACK
6
CONTINUOUS
10
208.408
20
-115.78
11
208.5
21
-115.904
0
LINE
8
BLACK
6
CONTINUOUS
10
208.5
20
-115.904
11
208.524
21
-115.936
0
LINE
8
BLACK
6
CONTINUOUS
10
208.524
20
-115.936
11
208.534
21
-115.952
0
LINE
8
BLACK
6
CONTINUOUS
10
208.534
20
-115.952
11
208.608
21
-116.086
0
LINE
8
BLACK
6
CONTINUOUS
10
208.608
20
-116.086
11
208.627
21
-116.122
0
LINE
8
BLACK
6
CONTINUOUS
10
208.627
20
-116.122
11
208.635
21
-116.139
0
LINE
8
BLACK
6
CONTINUOUS
10
208.635
20
-116.139
11
208.703
21
-116.321
0
LINE
8
BLACK
6
CONTINUOUS
10
208.703
20
-116.321
11
208.708
21
-116.339
0
LINE
8
BLACK
6
CONTINUOUS
10
208.708
20
-116.339
11
208.749
21
-116.529
0
LINE
8
BLACK
6
CONTINUOUS
10
208.749
20
-116.529
11
208.752
21
-116.547
0
LINE
8
BLACK
6
CONTINUOUS
10
208.752
20
-116.547
11
208.764
21
-116.709
0
LINE
8
BLACK
6
CONTINUOUS
10
208.764
20
-116.709
11
208.763
21
-116.727
0
LINE
8
BLACK
6
CONTINUOUS
10
208.763
20
-116.727
11
208.763
21
-116.735
0
LINE
8
BLACK
6
CONTINUOUS
10
208.763
20
-116.735
11
208.761
21
-116.744
0
LINE
8
BLACK
6
CONTINUOUS
10
208.761
20
-116.744
11
208.762
21
-116.753
0
LINE
8
BLACK
6
CONTINUOUS
10
208.762
20
-116.753
11
208.762
21
-116.753
0
LINE
8
BLACK
6
CONTINUOUS
10
208.762
20
-116.753
11
208.765
21
-116.775
0
LINE
8
BLACK
6
CONTINUOUS
10
208.765
20
-116.775
11
208.766
21
-116.792
0
LINE
8
BLACK
6
CONTINUOUS
10
208.766
20
-116.792
11
208.766
21
-133.701
0
LINE
8
BLACK
6
CONTINUOUS
10
208.766
20
-133.701
11
208.765
21
-133.72
0
LINE
8
BLACK
6
CONTINUOUS
10
208.765
20
-133.72
11
208.763
21
-133.735
0
LINE
8
BLACK
6
CONTINUOUS
10
208.763
20
-133.735
11
208.763
21
-133.735
0
LINE
8
BLACK
6
CONTINUOUS
10
208.763
20
-133.735
11
208.761
21
-133.744
0
LINE
8
BLACK
6
CONTINUOUS
10
208.761
20
-133.744
11
208.763
21
-133.759
0
LINE
8
BLACK
6
CONTINUOUS
10
208.763
20
-133.759
11
208.764
21
-133.784
0
LINE
8
BLACK
6
CONTINUOUS
10
208.764
20
-133.784
11
208.752
21
-133.953
0
LINE
8
BLACK
6
CONTINUOUS
10
208.752
20
-133.953
11
208.749
21
-133.971
0
LINE
8
BLACK
6
CONTINUOUS
10
208.749
20
-133.971
11
208.708
21
-134.161
0
LINE
8
BLACK
6
CONTINUOUS
10
208.708
20
-134.161
11
208.703
21
-134.179
0
LINE
8
BLACK
6
CONTINUOUS
10
208.703
20
-134.179
11
208.638
21
-134.351
0
LINE
8
BLACK
6
CONTINUOUS
10
208.638
20
-134.351
11
208.635
21
-134.361
0
LINE
8
BLACK
6
CONTINUOUS
10
208.635
20
-134.361
11
208.627
21
-134.378
0
LINE
8
BLACK
6
CONTINUOUS
10
208.627
20
-134.378
11
208.534
21
-134.548
0
LINE
8
BLACK
6
CONTINUOUS
10
208.534
20
-134.548
11
208.524
21
-134.564
0
LINE
8
BLACK
6
CONTINUOUS
10
208.524
20
-134.564
11
208.408
21
-134.72
0
LINE
8
BLACK
6
CONTINUOUS
10
208.408
20
-134.72
11
208.396
21
-134.733
0
LINE
8
BLACK
6
CONTINUOUS
10
208.396
20
-134.733
11
208.258
21
-134.871
0
LINE
8
BLACK
6
CONTINUOUS
10
208.258
20
-134.871
11
208.245
21
-134.883
0
LINE
8
BLACK
6
CONTINUOUS
10
208.245
20
-134.883
11
208.197
21
-134.918
0
LINE
8
BLACK
6
CONTINUOUS
10
208.197
20
-134.918
11
208.089
21
-134.999
0
LINE
8
BLACK
6
CONTINUOUS
10
208.089
20
-134.999
11
208.073
21
-135.009
0
LINE
8
BLACK
6
CONTINUOUS
10
208.073
20
-135.009
11
207.902
21
-135.102
0
LINE
8
BLACK
6
CONTINUOUS
10
207.902
20
-135.102
11
207.886
21
-135.11
0
LINE
8
BLACK
6
CONTINUOUS
10
207.886
20
-135.11
11
207.704
21
-135.178
0
LINE
8
BLACK
6
CONTINUOUS
10
207.704
20
-135.178
11
207.686
21
-135.183
0
LINE
8
BLACK
6
CONTINUOUS
10
207.686
20
-135.183
11
207.496
21
-135.224
0
LINE
8
BLACK
6
CONTINUOUS
10
207.496
20
-135.224
11
207.478
21
-135.227
0
LINE
8
BLACK
6
CONTINUOUS
10
207.478
20
-135.227
11
207.316
21
-135.239
0
LINE
8
BLACK
6
CONTINUOUS
10
207.316
20
-135.239
11
207.298
21
-135.238
0
LINE
8
BLACK
6
CONTINUOUS
10
207.298
20
-135.238
11
207.29
21
-135.238
0
LINE
8
BLACK
6
CONTINUOUS
10
207.29
20
-135.238
11
207.281
21
-135.236
0
LINE
8
BLACK
6
CONTINUOUS
10
207.281
20
-135.236
11
207.272
21
-135.237
0
LINE
8
BLACK
6
CONTINUOUS
10
207.272
20
-135.237
11
207.272
21
-135.237
0
LINE
8
BLACK
6
CONTINUOUS
10
207.272
20
-135.237
11
207.257
21
-135.239
0
LINE
8
BLACK
6
CONTINUOUS
10
207.257
20
-135.239
11
207.25
21
-135.24
0
LINE
8
BLACK
6
CONTINUOUS
10
207.25
20
-135.24
11
207.233
21
-135.242
0
LINE
8
BLACK
6
CONTINUOUS
10
207.233
20
-135.242
11
201.342
21
-135.242
0
LINE
8
BLACK
6
CONTINUOUS
10
201.342
20
-135.242
11
194.3
21
-135.242
0
LINE
8
BLACK
6
CONTINUOUS
10
194.3
20
-135.242
11
194.28
21
-135.24
0
LINE
8
BLACK
6
CONTINUOUS
10
194.28
20
-135.24
11
194.277
21
-135.24
0
LINE
8
BLACK
6
CONTINUOUS
10
194.277
20
-135.24
11
194.257
21
-135.236
0
LINE
8
BLACK
6
CONTINUOUS
10
194.257
20
-135.236
11
194.25
21
-135.236
0
LINE
8
BLACK
6
CONTINUOUS
10
194.25
20
-135.236
11
194.249
21
-135.236
0
LINE
8
BLACK
6
CONTINUOUS
10
194.249
20
-135.236
11
194.249
21
-135.236
0
LINE
8
BLACK
6
CONTINUOUS
10
194.249
20
-135.236
11
194.244
21
-135.236
0
LINE
8
BLACK
6
CONTINUOUS
10
194.244
20
-135.236
11
194.239
21
-135.237
0
LINE
8
BLACK
6
CONTINUOUS
10
194.239
20
-135.237
11
194.239
21
-135.237
0
LINE
8
BLACK
6
CONTINUOUS
10
194.239
20
-135.237
11
194.223
21
-135.238
0
LINE
8
BLACK
6
CONTINUOUS
10
194.223
20
-135.238
11
193.037
21
-135.266
0
LINE
8
BLACK
6
CONTINUOUS
10
193.037
20
-135.266
11
193.037
21
-135.266
0
LINE
8
BLACK
6
CONTINUOUS
10
193.037
20
-135.266
11
193.037
21
-135.266
0
LINE
8
BLACK
6
CONTINUOUS
10
193.037
20
-135.266
11
191.83
21
-135.322
0
LINE
8
BLACK
6
CONTINUOUS
10
191.83
20
-135.322
11
191.707
21
-135.331
0
LINE
8
BLACK
6
CONTINUOUS
10
191.707
20
-135.331
11
190.626
21
-135.406
0
LINE
8
BLACK
6
CONTINUOUS
10
190.626
20
-135.406
11
190.626
21
-135.406
0
LINE
8
BLACK
6
CONTINUOUS
10
190.626
20
-135.406
11
190.626
21
-135.406
0
LINE
8
BLACK
6
CONTINUOUS
10
190.626
20
-135.406
11
190.039
21
-135.461
0
LINE
8
BLACK
6
CONTINUOUS
10
190.039
20
-135.461
11
189.424
21
-135.519
0
LINE
8
BLACK
6
CONTINUOUS
10
189.424
20
-135.519
11
189.424
21
-135.519
0
LINE
8
BLACK
6
CONTINUOUS
10
189.424
20
-135.519
11
189.423
21
-135.519
0
LINE
8
BLACK
6
CONTINUOUS
10
189.423
20
-135.519
11
189.422
21
-135.519
0
LINE
8
BLACK
6
CONTINUOUS
10
189.422
20
-135.519
11
189.422
21
-135.519
0
LINE
8
BLACK
6
CONTINUOUS
10
189.422
20
-135.519
11
188.224
21
-135.659
0
LINE
8
BLACK
6
CONTINUOUS
10
188.224
20
-135.659
11
188.224
21
-135.659
0
LINE
8
BLACK
6
CONTINUOUS
10
188.224
20
-135.659
11
188.223
21
-135.659
0
LINE
8
BLACK
6
CONTINUOUS
10
188.223
20
-135.659
11
188.223
21
-135.659
0
LINE
8
BLACK
6
CONTINUOUS
10
188.223
20
-135.659
11
188.223
21
-135.659
0
LINE
8
BLACK
6
CONTINUOUS
10
188.223
20
-135.659
11
187.028
21
-135.827
0
LINE
8
BLACK
6
CONTINUOUS
10
187.028
20
-135.827
11
187.028
21
-135.827
0
LINE
8
BLACK
6
CONTINUOUS
10
187.028
20
-135.827
11
187.028
21
-135.828
0
LINE
8
BLACK
6
CONTINUOUS
10
187.028
20
-135.828
11
187.027
21
-135.828
0
LINE
8
BLACK
6
CONTINUOUS
10
187.027
20
-135.828
11
187.027
21
-135.828
0
LINE
8
BLACK
6
CONTINUOUS
10
187.027
20
-135.828
11
185.837
21
-136.024
0
LINE
8
BLACK
6
CONTINUOUS
10
185.837
20
-136.024
11
185.837
21
-136.024
0
LINE
8
BLACK
6
CONTINUOUS
10
185.837
20
-136.024
11
185.836
21
-136.024
0
LINE
8
BLACK
6
CONTINUOUS
10
185.836
20
-136.024
11
184.682
21
-136.242
0
LINE
8
BLACK
6
CONTINUOUS
10
184.682
20
-136.242
11
184.671
21
-136.243
0
LINE
8
BLACK
6
CONTINUOUS
10
184.671
20
-136.243
11
184.671
21
-136.243
0
LINE
8
BLACK
6
CONTINUOUS
10
184.671
20
-136.243
11
184.666
21
-136.244
0
LINE
8
BLACK
6
CONTINUOUS
10
184.666
20
-136.244
11
184.661
21
-136.244
0
LINE
8
BLACK
6
CONTINUOUS
10
184.661
20
-136.244
11
184.656
21
-136.245
0
LINE
8
BLACK
6
CONTINUOUS
10
184.656
20
-136.245
11
184.656
21
-136.245
0
LINE
8
BLACK
6
CONTINUOUS
10
184.656
20
-136.245
11
184.654
21
-136.245
0
LINE
8
BLACK
6
CONTINUOUS
10
184.654
20
-136.245
11
184.654
21
-136.245
0
LINE
8
BLACK
6
CONTINUOUS
10
184.654
20
-136.245
11
184.649
21
-136.246
0
LINE
8
BLACK
6
CONTINUOUS
10
184.649
20
-136.246
11
184.644
21
-136.248
0
LINE
8
BLACK
6
CONTINUOUS
10
184.644
20
-136.248
11
184.619
21
-136.257
0
LINE
8
BLACK
6
CONTINUOUS
10
184.619
20
-136.257
11
184.603
21
-136.261
0
LINE
8
BLACK
6
CONTINUOUS
10
184.603
20
-136.261
11
171.707
21
-138.995
0
LINE
8
BLACK
6
CONTINUOUS
10
171.707
20
-138.995
11
171.692
21
-138.997
0
LINE
8
BLACK
6
CONTINUOUS
10
171.692
20
-138.997
11
171.665
21
-138.999
0
LINE
8
BLACK
6
CONTINUOUS
10
171.665
20
-138.999
11
171.665
21
-138.999
0
LINE
8
BLACK
6
CONTINUOUS
10
171.665
20
-138.999
11
171.656
21
-139
0
LINE
8
BLACK
6
CONTINUOUS
10
171.656
20
-139
11
171.642
21
-139.006
0
LINE
8
BLACK
6
CONTINUOUS
10
171.642
20
-139.006
11
171.618
21
-139.013
0
LINE
8
BLACK
6
CONTINUOUS
10
171.618
20
-139.013
11
171.568
21
-139.021
0
LINE
8
BLACK
6
CONTINUOUS
10
171.568
20
-139.021
11
171.442
21
-139.043
0
LINE
8
BLACK
6
CONTINUOUS
10
171.442
20
-139.043
11
171.424
21
-139.045
0
LINE
8
BLACK
6
CONTINUOUS
10
171.424
20
-139.045
11
171.311
21
-139.049
0
LINE
8
BLACK
6
CONTINUOUS
10
171.311
20
-139.049
11
171.221
21
-139.051
0
LINE
8
BLACK
6
CONTINUOUS
10
171.221
20
-139.051
11
171.203
21
-139.051
0
LINE
8
BLACK
6
CONTINUOUS
10
171.203
20
-139.051
11
171.085
21
-139.037
0
LINE
8
BLACK
6
CONTINUOUS
10
171.085
20
-139.037
11
171.001
21
-139.028
0
LINE
8
BLACK
6
CONTINUOUS
10
171.001
20
-139.028
11
170.983
21
-139.025
0
LINE
8
BLACK
6
CONTINUOUS
10
170.983
20
-139.025
11
170.786
21
-138.973
0
LINE
8
BLACK
6
CONTINUOUS
10
170.786
20
-138.973
11
170.769
21
-138.968
0
LINE
8
BLACK
6
CONTINUOUS
10
170.769
20
-138.968
11
170.581
21
-138.889
0
LINE
8
BLACK
6
CONTINUOUS
10
170.581
20
-138.889
11
170.565
21
-138.881
0
LINE
8
BLACK
6
CONTINUOUS
10
170.565
20
-138.881
11
170.391
21
-138.776
0
LINE
8
BLACK
6
CONTINUOUS
10
170.391
20
-138.776
11
170.376
21
-138.766
0
LINE
8
BLACK
6
CONTINUOUS
10
170.376
20
-138.766
11
170.335
21
-138.732
0
LINE
8
BLACK
6
CONTINUOUS
10
170.335
20
-138.732
11
170.218
21
-138.637
0
LINE
8
BLACK
6
CONTINUOUS
10
170.218
20
-138.637
11
170.205
21
-138.625
0
LINE
8
BLACK
6
CONTINUOUS
10
170.205
20
-138.625
11
170.067
21
-138.475
0
LINE
8
BLACK
6
CONTINUOUS
10
170.067
20
-138.475
11
170.056
21
-138.461
0
LINE
8
BLACK
6
CONTINUOUS
10
170.056
20
-138.461
11
169.941
21
-138.293
0
LINE
8
BLACK
6
CONTINUOUS
10
169.941
20
-138.293
11
169.931
21
-138.278
0
LINE
8
BLACK
6
CONTINUOUS
10
169.931
20
-138.278
11
169.841
21
-138.095
0
LINE
8
BLACK
6
CONTINUOUS
10
169.841
20
-138.095
11
169.834
21
-138.079
0
LINE
8
BLACK
6
CONTINUOUS
10
169.834
20
-138.079
11
169.781
21
-137.916
0
LINE
8
BLACK
6
CONTINUOUS
10
169.781
20
-137.916
11
169.778
21
-137.898
0
LINE
8
BLACK
6
CONTINUOUS
10
169.778
20
-137.898
11
169.776
21
-137.89
0
LINE
8
BLACK
6
CONTINUOUS
10
169.776
20
-137.89
11
169.775
21
-137.882
0
LINE
8
BLACK
6
CONTINUOUS
10
169.775
20
-137.882
11
169.767
21
-137.862
0
LINE
8
BLACK
6
CONTINUOUS
10
169.767
20
-137.862
11
169.761
21
-137.842
0
LINE
8
BLACK
6
CONTINUOUS
10
169.761
20
-137.842
11
168.733
21
-133.021
0
LINE
8
BLACK
6
CONTINUOUS
10
168.733
20
-133.021
11
168.578
21
-132.293
0
LINE
8
BLACK
6
CONTINUOUS
10
168.578
20
-132.293
11
168.575
21
-132.272
0
LINE
8
BLACK
6
CONTINUOUS
10
168.575
20
-132.272
11
168.574
21
-132.257
0
LINE
8
BLACK
6
CONTINUOUS
10
168.574
20
-132.257
11
168.574
21
-132.257
0
LINE
8
BLACK
6
CONTINUOUS
10
168.574
20
-132.257
11
168.574
21
-132.252
0
LINE
8
BLACK
6
CONTINUOUS
10
168.574
20
-132.252
11
168.572
21
-132.24
0
LINE
8
BLACK
6
CONTINUOUS
10
168.572
20
-132.24
11
168.57
21
-132.237
0
LINE
8
BLACK
6
CONTINUOUS
10
168.57
20
-132.237
11
168.57
21
-132.235
0
LINE
8
BLACK
6
CONTINUOUS
10
168.57
20
-132.235
11
168.37
21
-131.376
0
LINE
8
BLACK
6
CONTINUOUS
10
168.37
20
-131.376
11
168.345
21
-131.286
0
LINE
8
BLACK
6
CONTINUOUS
10
168.345
20
-131.286
11
168.132
21
-130.523
0
LINE
8
BLACK
6
CONTINUOUS
10
168.132
20
-130.523
11
168.132
21
-130.523
0
LINE
8
BLACK
6
CONTINUOUS
10
168.132
20
-130.523
11
168.132
21
-130.522
0
LINE
8
BLACK
6
CONTINUOUS
10
168.132
20
-130.522
11
167.985
21
-130.069
0
LINE
8
BLACK
6
CONTINUOUS
10
167.985
20
-130.069
11
167.858
21
-129.68
0
LINE
8
BLACK
6
CONTINUOUS
10
167.858
20
-129.68
11
167.858
21
-129.68
0
LINE
8
BLACK
6
CONTINUOUS
10
167.858
20
-129.68
11
167.857
21
-129.679
0
LINE
8
BLACK
6
CONTINUOUS
10
167.857
20
-129.679
11
167.694
21
-129.241
0
LINE
8
BLACK
6
CONTINUOUS
10
167.694
20
-129.241
11
167.547
21
-128.849
0
LINE
8
BLACK
6
CONTINUOUS
10
167.547
20
-128.849
11
167.547
21
-128.849
0
LINE
8
BLACK
6
CONTINUOUS
10
167.547
20
-128.849
11
167.547
21
-128.848
0
LINE
8
BLACK
6
CONTINUOUS
10
167.547
20
-128.848
11
167.259
21
-128.167
0
LINE
8
BLACK
6
CONTINUOUS
10
167.259
20
-128.167
11
167.202
21
-128.032
0
LINE
8
BLACK
6
CONTINUOUS
10
167.202
20
-128.032
11
167.202
21
-128.032
0
LINE
8
BLACK
6
CONTINUOUS
10
167.202
20
-128.032
11
167.201
21
-128.031
0
LINE
8
BLACK
6
CONTINUOUS
10
167.201
20
-128.031
11
167.163
21
-127.951
0
LINE
8
BLACK
6
CONTINUOUS
10
167.163
20
-127.951
11
166.964
21
-127.532
0
LINE
8
BLACK
6
CONTINUOUS
10
166.964
20
-127.532
11
166.821
21
-127.23
0
LINE
8
BLACK
6
CONTINUOUS
10
166.821
20
-127.23
11
166.82
21
-127.228
0
LINE
8
BLACK
6
CONTINUOUS
10
166.82
20
-127.228
11
166.82
21
-127.228
0
LINE
8
BLACK
6
CONTINUOUS
10
166.82
20
-127.228
11
166.407
21
-126.447
0
LINE
8
BLACK
6
CONTINUOUS
10
166.407
20
-126.447
11
166.406
21
-126.445
0
LINE
8
BLACK
6
CONTINUOUS
10
166.406
20
-126.445
11
166.406
21
-126.444
0
LINE
8
BLACK
6
CONTINUOUS
10
166.406
20
-126.444
11
166.406
21
-126.444
0
LINE
8
BLACK
6
CONTINUOUS
10
166.406
20
-126.444
11
165.959
21
-125.681
0
LINE
8
BLACK
6
CONTINUOUS
10
165.959
20
-125.681
11
165.959
21
-125.681
0
LINE
8
BLACK
6
CONTINUOUS
10
165.959
20
-125.681
11
165.959
21
-125.68
0
LINE
8
BLACK
6
CONTINUOUS
10
165.959
20
-125.68
11
165.479
21
-124.934
0
LINE
8
BLACK
6
CONTINUOUS
10
165.479
20
-124.934
11
164.967
21
-124.209
0
LINE
8
BLACK
6
CONTINUOUS
10
164.967
20
-124.209
11
164.425
21
-123.507
0
LINE
8
BLACK
6
CONTINUOUS
10
164.425
20
-123.507
11
163.853
21
-122.829
0
LINE
8
BLACK
6
CONTINUOUS
10
163.853
20
-122.829
11
163.852
21
-122.828
0
LINE
8
BLACK
6
CONTINUOUS
10
163.852
20
-122.828
11
163.852
21
-122.828
0
LINE
8
BLACK
6
CONTINUOUS
10
163.852
20
-122.828
11
163.541
21
-122.49
0
LINE
8
BLACK
6
CONTINUOUS
10
163.541
20
-122.49
11
163.253
21
-122.176
0
LINE
8
BLACK
6
CONTINUOUS
10
163.253
20
-122.176
11
162.875
21
-121.799
0
LINE
8
BLACK
6
CONTINUOUS
10
162.875
20
-121.799
11
162.626
21
-121.55
0
LINE
8
BLACK
6
CONTINUOUS
10
162.626
20
-121.55
11
162.626
21
-121.55
0
LINE
8
BLACK
6
CONTINUOUS
10
162.626
20
-121.55
11
162.625
21
-121.55
0
LINE
8
BLACK
6
CONTINUOUS
10
162.625
20
-121.55
11
162.624
21
-121.549
0
LINE
8
BLACK
6
CONTINUOUS
10
162.624
20
-121.549
11
162.624
21
-121.549
0
LINE
8
BLACK
6
CONTINUOUS
10
162.624
20
-121.549
11
162.194
21
-121.155
0
LINE
8
BLACK
6
CONTINUOUS
10
162.194
20
-121.155
11
161.971
21
-120.95
0
LINE
8
BLACK
6
CONTINUOUS
10
161.971
20
-120.95
11
161.292
21
-120.38
0
LINE
8
BLACK
6
CONTINUOUS
10
161.292
20
-120.38
11
161.19
21
-120.301
0
LINE
8
BLACK
6
CONTINUOUS
10
161.19
20
-120.301
11
160.918
21
-120.092
0
LINE
8
BLACK
6
CONTINUOUS
10
160.918
20
-120.092
11
160.589
21
-119.839
0
LINE
8
BLACK
6
CONTINUOUS
10
160.589
20
-119.839
11
159.863
21
-119.328
0
LINE
8
BLACK
6
CONTINUOUS
10
159.863
20
-119.328
11
159.117
21
-118.85
0
LINE
8
BLACK
6
CONTINUOUS
10
159.117
20
-118.85
11
159.116
21
-118.849
0
LINE
8
BLACK
6
CONTINUOUS
10
159.116
20
-118.849
11
159.116
21
-118.849
0
LINE
8
BLACK
6
CONTINUOUS
10
159.116
20
-118.849
11
158.351
21
-118.404
0
LINE
8
BLACK
6
CONTINUOUS
10
158.351
20
-118.404
11
158.351
21
-118.404
0
LINE
8
BLACK
6
CONTINUOUS
10
158.351
20
-118.404
11
158.35
21
-118.403
0
LINE
8
BLACK
6
CONTINUOUS
10
158.35
20
-118.403
11
158.24
21
-118.345
0
LINE
8
BLACK
6
CONTINUOUS
10
158.24
20
-118.345
11
157.567
21
-117.991
0
LINE
8
BLACK
6
CONTINUOUS
10
157.567
20
-117.991
11
157.567
21
-117.991
0
LINE
8
BLACK
6
CONTINUOUS
10
157.567
20
-117.991
11
157.565
21
-117.99
0
LINE
8
BLACK
6
CONTINUOUS
10
157.565
20
-117.99
11
156.763
21
-117.611
0
LINE
8
BLACK
6
CONTINUOUS
10
156.763
20
-117.611
11
156.762
21
-117.611
0
LINE
8
BLACK
6
CONTINUOUS
10
156.762
20
-117.611
11
155.947
21
-117.267
0
LINE
8
BLACK
6
CONTINUOUS
10
155.947
20
-117.267
11
155.947
21
-117.267
0
LINE
8
BLACK
6
CONTINUOUS
10
155.947
20
-117.267
11
155.946
21
-117.267
0
LINE
8
BLACK
6
CONTINUOUS
10
155.946
20
-117.267
11
155.488
21
-117.097
0
LINE
8
BLACK
6
CONTINUOUS
10
155.488
20
-117.097
11
155.116
21
-116.958
0
LINE
8
BLACK
6
CONTINUOUS
10
155.116
20
-116.958
11
155.116
21
-116.958
0
LINE
8
BLACK
6
CONTINUOUS
10
155.116
20
-116.958
11
155.115
21
-116.958
0
LINE
8
BLACK
6
CONTINUOUS
10
155.115
20
-116.958
11
154.472
21
-116.75
0
LINE
8
BLACK
6
CONTINUOUS
10
154.472
20
-116.75
11
154.272
21
-116.685
0
LINE
8
BLACK
6
CONTINUOUS
10
154.272
20
-116.685
11
154.272
21
-116.685
0
LINE
8
BLACK
6
CONTINUOUS
10
154.272
20
-116.685
11
154.271
21
-116.685
0
LINE
8
BLACK
6
CONTINUOUS
10
154.271
20
-116.685
11
154.269
21
-116.685
0
LINE
8
BLACK
6
CONTINUOUS
10
154.269
20
-116.685
11
154.269
21
-116.685
0
LINE
8
BLACK
6
CONTINUOUS
10
154.269
20
-116.685
11
153.772
21
-116.547
0
LINE
8
BLACK
6
CONTINUOUS
10
153.772
20
-116.547
11
153.416
21
-116.448
0
LINE
8
BLACK
6
CONTINUOUS
10
153.416
20
-116.448
11
152.552
21
-116.248
0
LINE
8
BLACK
6
CONTINUOUS
10
152.552
20
-116.248
11
152.55
21
-116.248
0
LINE
8
BLACK
6
CONTINUOUS
10
152.55
20
-116.248
11
152.55
21
-116.248
0
LINE
8
BLACK
6
CONTINUOUS
10
152.55
20
-116.248
11
151.681
21
-116.086
0
LINE
8
BLACK
6
CONTINUOUS
10
151.681
20
-116.086
11
151.681
21
-116.086
0
LINE
8
BLACK
6
CONTINUOUS
10
151.681
20
-116.086
11
151.68
21
-116.086
0
LINE
8
BLACK
6
CONTINUOUS
10
151.68
20
-116.086
11
151.123
21
-116.007
0
LINE
8
BLACK
6
CONTINUOUS
10
151.123
20
-116.007
11
150.803
21
-115.961
0
LINE
8
BLACK
6
CONTINUOUS
10
150.803
20
-115.961
11
150.803
21
-115.961
0
LINE
8
BLACK
6
CONTINUOUS
10
150.803
20
-115.961
11
150.802
21
-115.961
0
LINE
8
BLACK
6
CONTINUOUS
10
150.802
20
-115.961
11
150.8
21
-115.961
0
LINE
8
BLACK
6
CONTINUOUS
10
150.8
20
-115.961
11
150.8
21
-115.961
0
LINE
8
BLACK
6
CONTINUOUS
10
150.8
20
-115.961
11
149.92
21
-115.874
0
LINE
8
BLACK
6
CONTINUOUS
10
149.92
20
-115.874
11
149.92
21
-115.874
0
LINE
8
BLACK
6
CONTINUOUS
10
149.92
20
-115.874
11
149.919
21
-115.874
0
LINE
8
BLACK
6
CONTINUOUS
10
149.919
20
-115.874
11
149.918
21
-115.874
0
LINE
8
BLACK
6
CONTINUOUS
10
149.918
20
-115.874
11
149.918
21
-115.874
0
LINE
8
BLACK
6
CONTINUOUS
10
149.918
20
-115.874
11
149.035
21
-115.824
0
LINE
8
BLACK
6
CONTINUOUS
10
149.035
20
-115.824
11
149.035
21
-115.824
0
LINE
8
BLACK
6
CONTINUOUS
10
149.035
20
-115.824
11
149.033
21
-115.824
0
LINE
8
BLACK
6
CONTINUOUS
10
149.033
20
-115.824
11
148.464
21
-115.817
0
LINE
8
BLACK
6
CONTINUOUS
10
148.464
20
-115.817
11
148.148
21
-115.813
0
LINE
8
BLACK
6
CONTINUOUS
10
148.148
20
-115.813
11
148.148
21
-115.813
0
LINE
8
BLACK
6
CONTINUOUS
10
148.148
20
-115.813
11
148.146
21
-115.813
0
LINE
8
BLACK
6
CONTINUOUS
10
148.146
20
-115.813
11
148.145
21
-115.813
0
LINE
8
BLACK
6
CONTINUOUS
10
148.145
20
-115.813
11
148.145
21
-115.813
0
LINE
8
BLACK
6
CONTINUOUS
10
148.145
20
-115.813
11
147.261
21
-115.839
0
LINE
8
BLACK
6
CONTINUOUS
10
147.261
20
-115.839
11
147.261
21
-115.839
0
LINE
8
BLACK
6
CONTINUOUS
10
147.261
20
-115.839
11
147.26
21
-115.84
0
LINE
8
BLACK
6
CONTINUOUS
10
147.26
20
-115.84
11
146.375
21
-115.904
0
LINE
8
BLACK
6
CONTINUOUS
10
146.375
20
-115.904
11
145.494
21
-116.007
0
LINE
8
BLACK
6
CONTINUOUS
10
145.494
20
-116.007
11
144.618
21
-116.147
0
LINE
8
BLACK
6
CONTINUOUS
10
144.618
20
-116.147
11
144.617
21
-116.147
0
LINE
8
BLACK
6
CONTINUOUS
10
144.617
20
-116.147
11
144.617
21
-116.147
0
LINE
8
BLACK
6
CONTINUOUS
10
144.617
20
-116.147
11
144.202
21
-116.232
0
LINE
8
BLACK
6
CONTINUOUS
10
144.202
20
-116.232
11
143.749
21
-116.324
0
LINE
8
BLACK
6
CONTINUOUS
10
143.749
20
-116.324
11
143.748
21
-116.325
0
LINE
8
BLACK
6
CONTINUOUS
10
143.748
20
-116.325
11
143.748
21
-116.325
0
LINE
8
BLACK
6
CONTINUOUS
10
143.748
20
-116.325
11
142.89
21
-116.539
0
LINE
8
BLACK
6
CONTINUOUS
10
142.89
20
-116.539
11
142.89
21
-116.539
0
LINE
8
BLACK
6
CONTINUOUS
10
142.89
20
-116.539
11
142.889
21
-116.539
0
LINE
8
BLACK
6
CONTINUOUS
10
142.889
20
-116.539
11
142.887
21
-116.539
0
LINE
8
BLACK
6
CONTINUOUS
10
142.887
20
-116.539
11
142.887
21
-116.539
0
LINE
8
BLACK
6
CONTINUOUS
10
142.887
20
-116.539
11
142.681
21
-116.6
0
LINE
8
BLACK
6
CONTINUOUS
10
142.681
20
-116.6
11
142.038
21
-116.79
0
LINE
8
BLACK
6
CONTINUOUS
10
142.038
20
-116.79
11
141.199
21
-117.078
0
LINE
8
BLACK
6
CONTINUOUS
10
141.199
20
-117.078
11
141.198
21
-117.078
0
LINE
8
BLACK
6
CONTINUOUS
10
141.198
20
-117.078
11
141.198
21
-117.078
0
LINE
8
BLACK
6
CONTINUOUS
10
141.198
20
-117.078
11
140.901
21
-117.194
0
LINE
8
BLACK
6
CONTINUOUS
10
140.901
20
-117.194
11
140.373
21
-117.401
0
LINE
8
BLACK
6
CONTINUOUS
10
140.373
20
-117.401
11
140.372
21
-117.402
0
LINE
8
BLACK
6
CONTINUOUS
10
140.372
20
-117.402
11
139.896
21
-117.612
0
LINE
8
BLACK
6
CONTINUOUS
10
139.896
20
-117.612
11
139.562
21
-117.759
0
LINE
8
BLACK
6
CONTINUOUS
10
139.562
20
-117.759
11
139.56
21
-117.76
0
LINE
8
BLACK
6
CONTINUOUS
10
139.56
20
-117.76
11
139.56
21
-117.76
0
LINE
8
BLACK
6
CONTINUOUS
10
139.56
20
-117.76
11
138.767
21
-118.152
0
LINE
8
BLACK
6
CONTINUOUS
10
138.767
20
-118.152
11
138.767
21
-118.152
0
LINE
8
BLACK
6
CONTINUOUS
10
138.767
20
-118.152
11
138.766
21
-118.152
0
LINE
8
BLACK
6
CONTINUOUS
10
138.766
20
-118.152
11
138.765
21
-118.153
0
LINE
8
BLACK
6
CONTINUOUS
10
138.765
20
-118.153
11
138.765
21
-118.153
0
LINE
8
BLACK
6
CONTINUOUS
10
138.765
20
-118.153
11
138.444
21
-118.329
0
LINE
8
BLACK
6
CONTINUOUS
10
138.444
20
-118.329
11
137.989
21
-118.579
0
LINE
8
BLACK
6
CONTINUOUS
10
137.989
20
-118.579
11
137.987
21
-118.579
0
LINE
8
BLACK
6
CONTINUOUS
10
137.987
20
-118.579
11
137.244
21
-119.029
0
LINE
8
BLACK
6
CONTINUOUS
10
137.244
20
-119.029
11
137.23
21
-119.038
0
LINE
8
BLACK
6
CONTINUOUS
10
137.23
20
-119.038
11
136.492
21
-119.53
0
LINE
8
BLACK
6
CONTINUOUS
10
136.492
20
-119.53
11
136.128
21
-119.795
0
LINE
8
BLACK
6
CONTINUOUS
10
136.128
20
-119.795
11
135.776
21
-120.052
0
LINE
8
BLACK
6
CONTINUOUS
10
135.776
20
-120.052
11
135.776
21
-120.052
0
LINE
8
BLACK
6
CONTINUOUS
10
135.776
20
-120.052
11
135.775
21
-120.053
0
LINE
8
BLACK
6
CONTINUOUS
10
135.775
20
-120.053
11
135.774
21
-120.053
0
LINE
8
BLACK
6
CONTINUOUS
10
135.774
20
-120.053
11
135.774
21
-120.053
0
LINE
8
BLACK
6
CONTINUOUS
10
135.774
20
-120.053
11
135.363
21
-120.381
0
LINE
8
BLACK
6
CONTINUOUS
10
135.363
20
-120.381
11
135.081
21
-120.605
0
LINE
8
BLACK
6
CONTINUOUS
10
135.081
20
-120.605
11
134.412
21
-121.188
0
LINE
8
BLACK
6
CONTINUOUS
10
134.412
20
-121.188
11
133.769
21
-121.798
0
LINE
8
BLACK
6
CONTINUOUS
10
133.769
20
-121.798
11
133.152
21
-122.435
0
LINE
8
BLACK
6
CONTINUOUS
10
133.152
20
-122.435
11
132.563
21
-123.099
0
LINE
8
BLACK
6
CONTINUOUS
10
132.563
20
-123.099
11
132.003
21
-123.786
0
LINE
8
BLACK
6
CONTINUOUS
10
132.003
20
-123.786
11
132.002
21
-123.788
0
LINE
8
BLACK
6
CONTINUOUS
10
132.002
20
-123.788
11
132.002
21
-123.788
0
LINE
8
BLACK
6
CONTINUOUS
10
132.002
20
-123.788
11
131.474
21
-124.497
0
LINE
8
BLACK
6
CONTINUOUS
10
131.474
20
-124.497
11
131.474
21
-124.497
0
LINE
8
BLACK
6
CONTINUOUS
10
131.474
20
-124.497
11
131.473
21
-124.498
0
LINE
8
BLACK
6
CONTINUOUS
10
131.473
20
-124.498
11
131.394
21
-124.614
0
LINE
8
BLACK
6
CONTINUOUS
10
131.394
20
-124.614
11
131.175
21
-124.935
0
LINE
8
BLACK
6
CONTINUOUS
10
131.175
20
-124.935
11
130.974
21
-125.231
0
LINE
8
BLACK
6
CONTINUOUS
10
130.974
20
-125.231
11
130.973
21
-125.232
0
LINE
8
BLACK
6
CONTINUOUS
10
130.973
20
-125.232
11
130.973
21
-125.232
0
LINE
8
BLACK
6
CONTINUOUS
10
130.973
20
-125.232
11
130.934
21
-125.295
0
LINE
8
BLACK
6
CONTINUOUS
10
130.934
20
-125.295
11
130.507
21
-125.985
0
LINE
8
BLACK
6
CONTINUOUS
10
130.507
20
-125.985
11
130.17
21
-126.584
0
LINE
8
BLACK
6
CONTINUOUS
10
130.17
20
-126.584
11
130.082
21
-126.741
0
LINE
8
BLACK
6
CONTINUOUS
10
130.082
20
-126.741
11
130.08
21
-126.745
0
LINE
8
BLACK
6
CONTINUOUS
10
130.08
20
-126.745
11
130.078
21
-126.747
0
LINE
8
BLACK
6
CONTINUOUS
10
130.078
20
-126.747
11
130.076
21
-126.751
0
LINE
8
BLACK
6
CONTINUOUS
10
130.076
20
-126.751
11
130.076
21
-126.751
0
LINE
8
BLACK
6
CONTINUOUS
10
130.076
20
-126.751
11
130.074
21
-126.753
0
LINE
8
BLACK
6
CONTINUOUS
10
130.074
20
-126.753
11
130.072
21
-126.758
0
LINE
8
BLACK
6
CONTINUOUS
10
130.072
20
-126.758
11
130.07
21
-126.763
0
LINE
8
BLACK
6
CONTINUOUS
10
130.07
20
-126.763
11
130.07
21
-126.763
0
LINE
8
BLACK
6
CONTINUOUS
10
130.07
20
-126.763
11
130.061
21
-126.788
0
LINE
8
BLACK
6
CONTINUOUS
10
130.061
20
-126.788
11
130.054
21
-126.803
0
LINE
8
BLACK
6
CONTINUOUS
10
130.054
20
-126.803
11
130.04
21
-126.832
0
LINE
8
BLACK
6
CONTINUOUS
10
130.04
20
-126.832
11
130.038
21
-126.84
0
LINE
8
BLACK
6
CONTINUOUS
10
130.038
20
-126.84
11
130.036
21
-126.849
0
LINE
8
BLACK
6
CONTINUOUS
10
130.036
20
-126.849
11
130.03
21
-126.872
0
LINE
8
BLACK
6
CONTINUOUS
10
130.03
20
-126.872
11
129.948
21
-127.075
0
LINE
8
BLACK
6
CONTINUOUS
10
129.948
20
-127.075
11
129.942
21
-127.089
0
LINE
8
BLACK
6
CONTINUOUS
10
129.942
20
-127.089
11
129.825
21
-127.306
0
LINE
8
BLACK
6
CONTINUOUS
10
129.825
20
-127.306
11
129.817
21
-127.318
0
LINE
8
BLACK
6
CONTINUOUS
10
129.817
20
-127.318
11
129.675
21
-127.521
0
LINE
8
BLACK
6
CONTINUOUS
10
129.675
20
-127.521
11
129.666
21
-127.532
0
LINE
8
BLACK
6
CONTINUOUS
10
129.666
20
-127.532
11
129.502
21
-127.717
0
LINE
8
BLACK
6
CONTINUOUS
10
129.502
20
-127.717
11
129.492
21
-127.727
0
LINE
8
BLACK
6
CONTINUOUS
10
129.492
20
-127.727
11
129.307
21
-127.891
0
LINE
8
BLACK
6
CONTINUOUS
10
129.307
20
-127.891
11
129.296
21
-127.9
0
LINE
8
BLACK
6
CONTINUOUS
10
129.296
20
-127.9
11
129.093
21
-128.042
0
LINE
8
BLACK
6
CONTINUOUS
10
129.093
20
-128.042
11
129.081
21
-128.05
0
LINE
8
BLACK
6
CONTINUOUS
10
129.081
20
-128.05
11
128.864
21
-128.167
0
LINE
8
BLACK
6
CONTINUOUS
10
128.864
20
-128.167
11
128.85
21
-128.173
0
LINE
8
BLACK
6
CONTINUOUS
10
128.85
20
-128.173
11
128.654
21
-128.252
0
LINE
8
BLACK
6
CONTINUOUS
10
128.654
20
-128.252
11
128.628
21
-128.259
0
LINE
8
BLACK
6
CONTINUOUS
10
128.628
20
-128.259
11
128.619
21
-128.261
0
LINE
8
BLACK
6
CONTINUOUS
10
128.619
20
-128.261
11
128.61
21
-128.265
0
LINE
8
BLACK
6
CONTINUOUS
10
128.61
20
-128.265
11
128.599
21
-128.268
0
LINE
8
BLACK
6
CONTINUOUS
10
128.599
20
-128.268
11
122.009
21
-129.68
0
LINE
8
BLACK
6
CONTINUOUS
10
122.009
20
-129.68
11
111.206
21
-131.995
0
LINE
8
BLACK
6
CONTINUOUS
10
111.206
20
-131.995
11
111.191
21
-131.997
0
LINE
8
BLACK
6
CONTINUOUS
10
111.191
20
-131.997
11
111.156
21
-132
0
LINE
8
BLACK
6
CONTINUOUS
10
111.156
20
-132
11
111.142
21
-132.006
0
LINE
8
BLACK
6
CONTINUOUS
10
111.142
20
-132.006
11
111.118
21
-132.013
0
LINE
8
BLACK
6
CONTINUOUS
10
111.118
20
-132.013
11
111.068
21
-132.021
0
LINE
8
BLACK
6
CONTINUOUS
10
111.068
20
-132.021
11
110.942
21
-132.043
0
LINE
8
BLACK
6
CONTINUOUS
10
110.942
20
-132.043
11
110.924
21
-132.045
0
LINE
8
BLACK
6
CONTINUOUS
10
110.924
20
-132.045
11
110.811
21
-132.049
0
LINE
8
BLACK
6
CONTINUOUS
10
110.811
20
-132.049
11
110.721
21
-132.051
0
LINE
8
BLACK
6
CONTINUOUS
10
110.721
20
-132.051
11
110.703
21
-132.051
0
LINE
8
BLACK
6
CONTINUOUS
10
110.703
20
-132.051
11
110.585
21
-132.037
0
LINE
8
BLACK
6
CONTINUOUS
10
110.585
20
-132.037
11
110.501
21
-132.028
0
LINE
8
BLACK
6
CONTINUOUS
10
110.501
20
-132.028
11
110.483
21
-132.025
0
LINE
8
BLACK
6
CONTINUOUS
10
110.483
20
-132.025
11
110.286
21
-131.973
0
LINE
8
BLACK
6
CONTINUOUS
10
110.286
20
-131.973
11
110.269
21
-131.968
0
LINE
8
BLACK
6
CONTINUOUS
10
110.269
20
-131.968
11
110.081
21
-131.889
0
LINE
8
BLACK
6
CONTINUOUS
10
110.081
20
-131.889
11
110.065
21
-131.881
0
LINE
8
BLACK
6
CONTINUOUS
10
110.065
20
-131.881
11
109.891
21
-131.776
0
LINE
8
BLACK
6
CONTINUOUS
10
109.891
20
-131.776
11
109.876
21
-131.766
0
LINE
8
BLACK
6
CONTINUOUS
10
109.876
20
-131.766
11
109.835
21
-131.732
0
LINE
8
BLACK
6
CONTINUOUS
10
109.835
20
-131.732
11
109.718
21
-131.637
0
LINE
8
BLACK
6
CONTINUOUS
10
109.718
20
-131.637
11
109.705
21
-131.625
0
LINE
8
BLACK
6
CONTINUOUS
10
109.705
20
-131.625
11
109.567
21
-131.475
0
LINE
8
BLACK
6
CONTINUOUS
10
109.567
20
-131.475
11
109.556
21
-131.461
0
LINE
8
BLACK
6
CONTINUOUS
10
109.556
20
-131.461
11
109.441
21
-131.293
0
LINE
8
BLACK
6
CONTINUOUS
10
109.441
20
-131.293
11
109.431
21
-131.278
0
LINE
8
BLACK
6
CONTINUOUS
10
109.431
20
-131.278
11
109.341
21
-131.095
0
LINE
8
BLACK
6
CONTINUOUS
10
109.341
20
-131.095
11
109.334
21
-131.079
0
LINE
8
BLACK
6
CONTINUOUS
10
109.334
20
-131.079
11
109.281
21
-130.916
0
LINE
8
BLACK
6
CONTINUOUS
10
109.281
20
-130.916
11
109.278
21
-130.898
0
LINE
8
BLACK
6
CONTINUOUS
10
109.278
20
-130.898
11
109.277
21
-130.897
0
LINE
8
BLACK
6
CONTINUOUS
10
109.277
20
-130.897
11
109.277
21
-130.895
0
LINE
8
BLACK
6
CONTINUOUS
10
109.277
20
-130.895
11
109.275
21
-130.888
0
LINE
8
BLACK
6
CONTINUOUS
10
109.275
20
-130.888
11
109.275
21
-130.888
0
LINE
8
BLACK
6
CONTINUOUS
10
109.275
20
-130.888
11
109.275
21
-130.882
0
LINE
8
BLACK
6
CONTINUOUS
10
109.275
20
-130.882
11
109.274
21
-130.88
0
LINE
8
BLACK
6
CONTINUOUS
10
109.274
20
-130.88
11
109.274
21
-130.879
0
LINE
8
BLACK
6
CONTINUOUS
10
109.274
20
-130.879
11
109.271
21
-130.867
0
LINE
8
BLACK
6
CONTINUOUS
10
109.271
20
-130.867
11
109.27
21
-130.863
0
LINE
8
BLACK
6
CONTINUOUS
10
109.27
20
-130.863
11
109.269
21
-130.861
0
LINE
8
BLACK
6
CONTINUOUS
10
109.269
20
-130.861
11
109.051
21
-130.12
0
LINE
8
BLACK
6
CONTINUOUS
10
109.051
20
-130.12
11
109.051
21
-130.12
0
LINE
8
BLACK
6
CONTINUOUS
10
109.051
20
-130.12
11
109.05
21
-130.119
0
LINE
8
BLACK
6
CONTINUOUS
10
109.05
20
-130.119
11
108.794
21
-129.382
0
LINE
8
BLACK
6
CONTINUOUS
10
108.794
20
-129.382
11
108.738
21
-129.241
0
LINE
8
BLACK
6
CONTINUOUS
10
108.738
20
-129.241
11
108.504
21
-128.66
0
LINE
8
BLACK
6
CONTINUOUS
10
108.504
20
-128.66
11
108.504
21
-128.66
0
LINE
8
BLACK
6
CONTINUOUS
10
108.504
20
-128.66
11
108.503
21
-128.658
0
LINE
8
BLACK
6
CONTINUOUS
10
108.503
20
-128.658
11
108.178
21
-127.949
0
LINE
8
BLACK
6
CONTINUOUS
10
108.178
20
-127.949
11
108.177
21
-127.948
0
LINE
8
BLACK
6
CONTINUOUS
10
108.177
20
-127.948
11
108.177
21
-127.948
0
LINE
8
BLACK
6
CONTINUOUS
10
108.177
20
-127.948
11
107.82
21
-127.258
0
LINE
8
BLACK
6
CONTINUOUS
10
107.82
20
-127.258
11
107.82
21
-127.258
0
LINE
8
BLACK
6
CONTINUOUS
10
107.82
20
-127.258
11
107.819
21
-127.257
0
LINE
8
BLACK
6
CONTINUOUS
10
107.819
20
-127.257
11
107.427
21
-126.582
0
LINE
8
BLACK
6
CONTINUOUS
10
107.427
20
-126.582
11
107.003
21
-125.928
0
LINE
8
BLACK
6
CONTINUOUS
10
107.003
20
-125.928
11
107.003
21
-125.926
0
LINE
8
BLACK
6
CONTINUOUS
10
107.003
20
-125.926
11
107.003
21
-125.926
0
LINE
8
BLACK
6
CONTINUOUS
10
107.003
20
-125.926
11
106.55
21
-125.295
0
LINE
8
BLACK
6
CONTINUOUS
10
106.55
20
-125.295
11
106.55
21
-125.295
0
LINE
8
BLACK
6
CONTINUOUS
10
106.55
20
-125.295
11
106.549
21
-125.294
0
LINE
8
BLACK
6
CONTINUOUS
10
106.549
20
-125.294
11
106.328
21
-125.016
0
LINE
8
BLACK
6
CONTINUOUS
10
106.328
20
-125.016
11
106.065
21
-124.684
0
LINE
8
BLACK
6
CONTINUOUS
10
106.065
20
-124.684
11
106.065
21
-124.684
0
LINE
8
BLACK
6
CONTINUOUS
10
106.065
20
-124.684
11
106.064
21
-124.683
0
LINE
8
BLACK
6
CONTINUOUS
10
106.064
20
-124.683
11
106.063
21
-124.682
0
LINE
8
BLACK
6
CONTINUOUS
10
106.063
20
-124.682
11
106.063
21
-124.682
0
LINE
8
BLACK
6
CONTINUOUS
10
106.063
20
-124.682
11
105.651
21
-124.21
0
LINE
8
BLACK
6
CONTINUOUS
10
105.651
20
-124.21
11
105.551
21
-124.095
0
LINE
8
BLACK
6
CONTINUOUS
10
105.551
20
-124.095
11
105.01
21
-123.533
0
LINE
8
BLACK
6
CONTINUOUS
10
105.01
20
-123.533
11
104.443
21
-122.998
0
LINE
8
BLACK
6
CONTINUOUS
10
104.443
20
-122.998
11
104.025
21
-122.64
0
LINE
8
BLACK
6
CONTINUOUS
10
104.025
20
-122.64
11
103.851
21
-122.492
0
LINE
8
BLACK
6
CONTINUOUS
10
103.851
20
-122.492
11
103.851
21
-122.492
0
LINE
8
BLACK
6
CONTINUOUS
10
103.851
20
-122.492
11
103.85
21
-122.491
0
LINE
8
BLACK
6
CONTINUOUS
10
103.85
20
-122.491
11
103.234
21
-122.012
0
LINE
8
BLACK
6
CONTINUOUS
10
103.234
20
-122.012
11
102.596
21
-121.564
0
LINE
8
BLACK
6
CONTINUOUS
10
102.596
20
-121.564
11
101.937
21
-121.147
0
LINE
8
BLACK
6
CONTINUOUS
10
101.937
20
-121.147
11
101.259
21
-120.761
0
LINE
8
BLACK
6
CONTINUOUS
10
101.259
20
-120.761
11
100.563
21
-120.409
0
LINE
8
BLACK
6
CONTINUOUS
10
100.563
20
-120.409
11
99.8508
21
-120.091
0
LINE
8
BLACK
6
CONTINUOUS
10
99.8508
20
-120.091
11
99.8494
21
-120.09
0
LINE
8
BLACK
6
CONTINUOUS
10
99.8494
20
-120.09
11
99.8494
21
-120.09
0
LINE
8
BLACK
6
CONTINUOUS
10
99.8494
20
-120.09
11
99.335
21
-119.889
0
LINE
8
BLACK
6
CONTINUOUS
10
99.335
20
-119.889
11
99.1242
21
-119.807
0
LINE
8
BLACK
6
CONTINUOUS
10
99.1242
20
-119.807
11
99.1228
21
-119.807
0
LINE
8
BLACK
6
CONTINUOUS
10
99.1228
20
-119.807
11
99.1228
21
-119.807
0
LINE
8
BLACK
6
CONTINUOUS
10
99.1228
20
-119.807
11
98.3864
21
-119.559
0
LINE
8
BLACK
6
CONTINUOUS
10
98.3864
20
-119.559
11
98.3849
21
-119.558
0
LINE
8
BLACK
6
CONTINUOUS
10
98.3849
20
-119.558
11
97.6346
21
-119.346
0
LINE
8
BLACK
6
CONTINUOUS
10
97.6346
20
-119.346
11
96.8748
21
-119.169
0
LINE
8
BLACK
6
CONTINUOUS
10
96.8748
20
-119.169
11
96.1075
21
-119.029
0
LINE
8
BLACK
6
CONTINUOUS
10
96.1075
20
-119.029
11
96.106
21
-119.029
0
LINE
8
BLACK
6
CONTINUOUS
10
96.106
20
-119.029
11
96.106
21
-119.029
0
LINE
8
BLACK
6
CONTINUOUS
10
96.106
20
-119.029
11
95.3358
21
-118.926
0
LINE
8
BLACK
6
CONTINUOUS
10
95.3358
20
-118.926
11
95.3358
21
-118.926
0
LINE
8
BLACK
6
CONTINUOUS
10
95.3358
20
-118.926
11
95.3343
21
-118.926
0
LINE
8
BLACK
6
CONTINUOUS
10
95.3343
20
-118.926
11
95.0052
21
-118.898
0
LINE
8
BLACK
6
CONTINUOUS
10
95.0052
20
-118.898
11
94.5586
21
-118.861
0
LINE
8
BLACK
6
CONTINUOUS
10
94.5586
20
-118.861
11
94.5586
21
-118.861
0
LINE
8
BLACK
6
CONTINUOUS
10
94.5586
20
-118.861
11
94.5571
21
-118.86
0
LINE
8
BLACK
6
CONTINUOUS
10
94.5571
20
-118.86
11
94.5544
21
-118.86
0
LINE
8
BLACK
6
CONTINUOUS
10
94.5544
20
-118.86
11
93.7792
21
-118.832
0
LINE
8
BLACK
6
CONTINUOUS
10
93.7792
20
-118.832
11
93.7791
21
-118.832
0
LINE
8
BLACK
6
CONTINUOUS
10
93.7791
20
-118.832
11
93.7776
21
-118.832
0
LINE
8
BLACK
6
CONTINUOUS
10
93.7776
20
-118.832
11
93.6696
21
-118.833
0
LINE
8
BLACK
6
CONTINUOUS
10
93.6696
20
-118.833
11
92.9992
21
-118.841
0
LINE
8
BLACK
6
CONTINUOUS
10
92.9992
20
-118.841
11
92.9992
21
-118.841
0
LINE
8
BLACK
6
CONTINUOUS
10
92.9992
20
-118.841
11
92.9977
21
-118.841
0
LINE
8
BLACK
6
CONTINUOUS
10
92.9977
20
-118.841
11
92.2191
21
-118.888
0
LINE
8
BLACK
6
CONTINUOUS
10
92.2191
20
-118.888
11
92.2176
21
-118.888
0
LINE
8
BLACK
6
CONTINUOUS
10
92.2176
20
-118.888
11
92.2176
21
-118.888
0
LINE
8
BLACK
6
CONTINUOUS
10
92.2176
20
-118.888
11
91.4451
21
-118.971
0
LINE
8
BLACK
6
CONTINUOUS
10
91.4451
20
-118.971
11
91.4451
21
-118.971
0
LINE
8
BLACK
6
CONTINUOUS
10
91.4451
20
-118.971
11
91.4436
21
-118.971
0
LINE
8
BLACK
6
CONTINUOUS
10
91.4436
20
-118.971
11
90.6731
21
-119.092
0
LINE
8
BLACK
6
CONTINUOUS
10
90.6731
20
-119.092
11
89.9304
21
-119.246
0
LINE
8
BLACK
6
CONTINUOUS
10
89.9304
20
-119.246
11
89.925
21
-119.247
0
LINE
8
BLACK
6
CONTINUOUS
10
89.925
20
-119.247
11
89.9213
21
-119.247
0
LINE
8
BLACK
6
CONTINUOUS
10
89.9213
20
-119.247
11
89.9166
21
-119.248
0
LINE
8
BLACK
6
CONTINUOUS
10
89.9166
20
-119.248
11
89.9166
21
-119.248
0
LINE
8
BLACK
6
CONTINUOUS
10
89.9166
20
-119.248
11
89.9151
21
-119.248
0
LINE
8
BLACK
6
CONTINUOUS
10
89.9151
20
-119.248
11
89.9091
21
-119.25
0
LINE
8
BLACK
6
CONTINUOUS
10
89.9091
20
-119.25
11
89.9078
21
-119.25
0
LINE
8
BLACK
6
CONTINUOUS
10
89.9078
20
-119.25
11
89.9065
21
-119.25
0
LINE
8
BLACK
6
CONTINUOUS
10
89.9065
20
-119.25
11
89.8922
21
-119.256
0
LINE
8
BLACK
6
CONTINUOUS
10
89.8922
20
-119.256
11
89.8678
21
-119.263
0
LINE
8
BLACK
6
CONTINUOUS
10
89.8678
20
-119.263
11
89.8181
21
-119.271
0
LINE
8
BLACK
6
CONTINUOUS
10
89.8181
20
-119.271
11
89.6923
21
-119.293
0
LINE
8
BLACK
6
CONTINUOUS
10
89.6923
20
-119.293
11
89.6744
21
-119.295
0
LINE
8
BLACK
6
CONTINUOUS
10
89.6744
20
-119.295
11
89.5614
21
-119.299
0
LINE
8
BLACK
6
CONTINUOUS
10
89.5614
20
-119.299
11
89.4709
21
-119.301
0
LINE
8
BLACK
6
CONTINUOUS
10
89.4709
20
-119.301
11
89.453
21
-119.301
0
LINE
8
BLACK
6
CONTINUOUS
10
89.453
20
-119.301
11
89.3346
21
-119.287
0
LINE
8
BLACK
6
CONTINUOUS
10
89.3346
20
-119.287
11
89.2507
21
-119.278
0
LINE
8
BLACK
6
CONTINUOUS
10
89.2507
20
-119.278
11
89.233
21
-119.275
0
LINE
8
BLACK
6
CONTINUOUS
10
89.233
20
-119.275
11
89.036
21
-119.223
0
LINE
8
BLACK
6
CONTINUOUS
10
89.036
20
-119.223
11
89.019
21
-119.218
0
LINE
8
BLACK
6
CONTINUOUS
10
89.019
20
-119.218
11
88.8313
21
-119.139
0
LINE
8
BLACK
6
CONTINUOUS
10
88.8313
20
-119.139
11
88.8153
21
-119.131
0
LINE
8
BLACK
6
CONTINUOUS
10
88.8153
20
-119.131
11
88.6407
21
-119.026
0
LINE
8
BLACK
6
CONTINUOUS
10
88.6407
20
-119.026
11
88.626
21
-119.016
0
LINE
8
BLACK
6
CONTINUOUS
10
88.626
20
-119.016
11
88.5715
21
-118.971
0
LINE
8
BLACK
6
CONTINUOUS
10
88.5715
20
-118.971
11
88.4681
21
-118.887
0
LINE
8
BLACK
6
CONTINUOUS
10
88.4681
20
-118.887
11
88.455
21
-118.875
0
LINE
8
BLACK
6
CONTINUOUS
10
88.455
20
-118.875
11
88.3171
21
-118.725
0
LINE
8
BLACK
6
CONTINUOUS
10
88.3171
20
-118.725
11
88.3058
21
-118.711
0
LINE
8
BLACK
6
CONTINUOUS
10
88.3058
20
-118.711
11
88.1906
21
-118.543
0
LINE
8
BLACK
6
CONTINUOUS
10
88.1906
20
-118.543
11
88.1815
21
-118.528
0
LINE
8
BLACK
6
CONTINUOUS
10
88.1815
20
-118.528
11
88.0913
21
-118.345
0
LINE
8
BLACK
6
CONTINUOUS
10
88.0913
20
-118.345
11
88.0845
21
-118.329
0
LINE
8
BLACK
6
CONTINUOUS
10
88.0845
20
-118.329
11
88.0312
21
-118.166
0
LINE
8
BLACK
6
CONTINUOUS
10
88.0312
20
-118.166
11
88.0276
21
-118.148
0
LINE
8
BLACK
6
CONTINUOUS
10
88.0276
20
-118.148
11
88.0257
21
-118.14
0
LINE
8
BLACK
6
CONTINUOUS
10
88.0257
20
-118.14
11
88.0249
21
-118.132
0
LINE
8
BLACK
6
CONTINUOUS
10
88.0249
20
-118.132
11
88.0178
21
-118.114
0
LINE
8
BLACK
6
CONTINUOUS
10
88.0178
20
-118.114
11
88.0117
21
-118.093
0
LINE
8
BLACK
6
CONTINUOUS
10
88.0117
20
-118.093
11
87.9421
21
-117.76
0
LINE
8
BLACK
6
CONTINUOUS
10
87.9421
20
-117.76
11
84.5705
21
-101.625
0
LINE
8
BLACK
6
CONTINUOUS
10
84.5705
20
-101.625
11
84.5303
21
-101.432
0
LINE
8
BLACK
6
CONTINUOUS
10
84.5303
20
-101.432
11
84.5282
21
-101.418
0
LINE
8
BLACK
6
CONTINUOUS
10
84.5282
20
-101.418
11
84.5257
21
-101.39
0
LINE
8
BLACK
6
CONTINUOUS
10
84.5257
20
-101.39
11
84.5249
21
-101.382
0
LINE
8
BLACK
6
CONTINUOUS
10
84.5249
20
-101.382
11
84.5192
21
-101.367
0
LINE
8
BLACK
6
CONTINUOUS
10
84.5192
20
-101.367
11
84.5124
21
-101.343
0
LINE
8
BLACK
6
CONTINUOUS
10
84.5124
20
-101.343
11
84.4816
21
-101.167
0
LINE
8
BLACK
6
CONTINUOUS
10
84.4816
20
-101.167
11
84.4798
21
-101.149
0
LINE
8
BLACK
6
CONTINUOUS
10
84.4798
20
-101.149
11
84.4768
21
-101.053
0
LINE
8
BLACK
6
CONTINUOUS
10
84.4768
20
-101.053
11
84.4735
21
-100.946
0
LINE
8
BLACK
6
CONTINUOUS
10
84.4735
20
-100.946
11
84.4742
21
-100.928
0
LINE
8
BLACK
6
CONTINUOUS
10
84.4742
20
-100.928
11
84.497
21
-100.726
0
LINE
8
BLACK
6
CONTINUOUS
10
84.497
20
-100.726
11
84.5003
21
-100.708
0
LINE
8
BLACK
6
CONTINUOUS
10
84.5003
20
-100.708
11
84.5516
21
-100.511
0
LINE
8
BLACK
6
CONTINUOUS
10
84.5516
20
-100.511
11
84.5573
21
-100.494
0
LINE
8
BLACK
6
CONTINUOUS
10
84.5573
20
-100.494
11
84.6362
21
-100.306
0
LINE
8
BLACK
6
CONTINUOUS
10
84.6362
20
-100.306
11
84.6443
21
-100.29
0
LINE
8
BLACK
6
CONTINUOUS
10
84.6443
20
-100.29
11
84.749
21
-100.116
0
LINE
8
BLACK
6
CONTINUOUS
10
84.749
20
-100.116
11
84.7593
21
-100.101
0
LINE
8
BLACK
6
CONTINUOUS
10
84.7593
20
-100.101
11
84.8879
21
-99.9431
0
LINE
8
BLACK
6
CONTINUOUS
10
84.8879
20
-99.9431
11
84.9002
21
-99.93
0
LINE
8
BLACK
6
CONTINUOUS
10
84.9002
20
-99.93
11
85.0498
21
-99.7921
0
LINE
8
BLACK
6
CONTINUOUS
10
85.0498
20
-99.7921
11
85.0639
21
-99.7808
0
LINE
8
BLACK
6
CONTINUOUS
10
85.0639
20
-99.7808
11
85.2317
21
-99.6656
0
LINE
8
BLACK
6
CONTINUOUS
10
85.2317
20
-99.6656
11
85.2472
21
-99.6565
0
LINE
8
BLACK
6
CONTINUOUS
10
85.2472
20
-99.6565
11
85.4297
21
-99.5663
0
LINE
8
BLACK
6
CONTINUOUS
10
85.4297
20
-99.5663
11
85.4463
21
-99.5595
0
LINE
8
BLACK
6
CONTINUOUS
10
85.4463
20
-99.5595
11
85.6089
21
-99.5062
0
LINE
8
BLACK
6
CONTINUOUS
10
85.6089
20
-99.5062
11
85.6266
21
-99.5026
0
LINE
8
BLACK
6
CONTINUOUS
10
85.6266
20
-99.5026
11
85.6346
21
-99.5007
0
LINE
8
BLACK
6
CONTINUOUS
10
85.6346
20
-99.5007
11
85.6435
21
-99.4999
0
LINE
8
BLACK
6
CONTINUOUS
10
85.6435
20
-99.4999
11
85.6626
21
-99.4924
0
LINE
8
BLACK
6
CONTINUOUS
10
85.6626
20
-99.4924
11
85.6825
21
-99.4864
0
LINE
8
BLACK
6
CONTINUOUS
10
85.6825
20
-99.4864
11
109.091
21
-94.5058
0
LINE
8
BLACK
6
CONTINUOUS
10
109.091
20
-94.5058
11
109.107
21
-94.5035
0
LINE
8
BLACK
6
CONTINUOUS
10
109.107
20
-94.5035
11
109.139
21
-94.5008
0
LINE
8
BLACK
6
CONTINUOUS
10
109.139
20
-94.5008
11
109.144
21
-94.4997
0
LINE
8
BLACK
6
CONTINUOUS
10
109.144
20
-94.4997
11
109.144
21
-94.4997
0
LINE
8
BLACK
6
CONTINUOUS
10
109.144
20
-94.4997
11
109.147
21
-94.499
0
LINE
8
BLACK
6
CONTINUOUS
10
109.147
20
-94.499
11
109.147
21
-94.499
0
LINE
8
BLACK
6
CONTINUOUS
10
109.147
20
-94.499
11
109.152
21
-94.4979
0
LINE
8
BLACK
6
CONTINUOUS
10
109.152
20
-94.4979
11
109.156
21
-94.496
0
LINE
8
BLACK
6
CONTINUOUS
10
109.156
20
-94.496
11
109.161
21
-94.4946
0
LINE
8
BLACK
6
CONTINUOUS
10
109.161
20
-94.4946
11
109.913
21
-94.285
0
LINE
8
BLACK
6
CONTINUOUS
10
109.913
20
-94.285
11
109.913
21
-94.285
0
LINE
8
BLACK
6
CONTINUOUS
10
109.913
20
-94.285
11
109.914
21
-94.2846
0
LINE
8
BLACK
6
CONTINUOUS
10
109.914
20
-94.2846
11
110.295
21
-94.1593
0
LINE
8
BLACK
6
CONTINUOUS
10
110.295
20
-94.1593
11
110.664
21
-94.0378
0
LINE
8
BLACK
6
CONTINUOUS
10
110.664
20
-94.0378
11
110.664
21
-94.0378
0
LINE
8
BLACK
6
CONTINUOUS
10
110.664
20
-94.0378
11
110.666
21
-94.0373
0
LINE
8
BLACK
6
CONTINUOUS
10
110.666
20
-94.0373
11
110.667
21
-94.0368
0
LINE
8
BLACK
6
CONTINUOUS
10
110.667
20
-94.0368
11
110.667
21
-94.0368
0
LINE
8
BLACK
6
CONTINUOUS
10
110.667
20
-94.0368
11
111.404
21
-93.7564
0
LINE
8
BLACK
6
CONTINUOUS
10
111.404
20
-93.7564
11
111.406
21
-93.7559
0
LINE
8
BLACK
6
CONTINUOUS
10
111.406
20
-93.7559
11
111.407
21
-93.7553
0
LINE
8
BLACK
6
CONTINUOUS
10
111.407
20
-93.7553
11
111.407
21
-93.7553
0
LINE
8
BLACK
6
CONTINUOUS
10
111.407
20
-93.7553
11
112.13
21
-93.4415
0
LINE
8
BLACK
6
CONTINUOUS
10
112.13
20
-93.4415
11
112.132
21
-93.4409
0
LINE
8
BLACK
6
CONTINUOUS
10
112.132
20
-93.4409
11
112.843
21
-93.0931
0
LINE
8
BLACK
6
CONTINUOUS
10
112.843
20
-93.0931
11
112.908
21
-93.0572
0
LINE
8
BLACK
6
CONTINUOUS
10
112.908
20
-93.0572
11
113.343
21
-92.8193
0
LINE
8
BLACK
6
CONTINUOUS
10
113.343
20
-92.8193
11
113.537
21
-92.7131
0
LINE
8
BLACK
6
CONTINUOUS
10
113.537
20
-92.7131
11
113.538
21
-92.7123
0
LINE
8
BLACK
6
CONTINUOUS
10
113.538
20
-92.7123
11
113.538
21
-92.7123
0
LINE
8
BLACK
6
CONTINUOUS
10
113.538
20
-92.7123
11
113.983
21
-92.4415
0
LINE
8
BLACK
6
CONTINUOUS
10
113.983
20
-92.4415
11
114.213
21
-92.3017
0
LINE
8
BLACK
6
CONTINUOUS
10
114.213
20
-92.3017
11
114.87
21
-91.8598
0
LINE
8
BLACK
6
CONTINUOUS
10
114.87
20
-91.8598
11
114.871
21
-91.8589
0
LINE
8
BLACK
6
CONTINUOUS
10
114.871
20
-91.8589
11
114.871
21
-91.8589
0
LINE
8
BLACK
6
CONTINUOUS
10
114.871
20
-91.8589
11
115.505
21
-91.3892
0
LINE
8
BLACK
6
CONTINUOUS
10
115.505
20
-91.3892
11
115.505
21
-91.3892
0
LINE
8
BLACK
6
CONTINUOUS
10
115.505
20
-91.3892
11
115.506
21
-91.3883
0
LINE
8
BLACK
6
CONTINUOUS
10
115.506
20
-91.3883
11
115.507
21
-91.3874
0
LINE
8
BLACK
6
CONTINUOUS
10
115.507
20
-91.3874
11
115.507
21
-91.3874
0
LINE
8
BLACK
6
CONTINUOUS
10
115.507
20
-91.3874
11
116.118
21
-90.8892
0
LINE
8
BLACK
6
CONTINUOUS
10
116.118
20
-90.8892
11
116.118
21
-90.8892
0
LINE
8
BLACK
6
CONTINUOUS
10
116.118
20
-90.8892
11
116.119
21
-90.8883
0
LINE
8
BLACK
6
CONTINUOUS
10
116.119
20
-90.8883
11
116.12
21
-90.8873
0
LINE
8
BLACK
6
CONTINUOUS
10
116.12
20
-90.8873
11
116.708
21
-90.3616
0
LINE
8
BLACK
6
CONTINUOUS
10
116.708
20
-90.3616
11
116.708
21
-90.3616
0
LINE
8
BLACK
6
CONTINUOUS
10
116.708
20
-90.3616
11
116.709
21
-90.3607
0
LINE
8
BLACK
6
CONTINUOUS
10
116.709
20
-90.3607
11
117.275
21
-89.8066
0
LINE
8
BLACK
6
CONTINUOUS
10
117.275
20
-89.8066
11
117.814
21
-89.2273
0
LINE
8
BLACK
6
CONTINUOUS
10
117.814
20
-89.2273
11
118.326
21
-88.6239
0
LINE
8
BLACK
6
CONTINUOUS
10
118.326
20
-88.6239
11
118.81
21
-87.9978
0
LINE
8
BLACK
6
CONTINUOUS
10
118.81
20
-87.9978
11
119.265
21
-87.3501
0
LINE
8
BLACK
6
CONTINUOUS
10
119.265
20
-87.3501
11
119.69
21
-86.6823
0
LINE
8
BLACK
6
CONTINUOUS
10
119.69
20
-86.6823
11
120.084
21
-85.9957
0
LINE
8
BLACK
6
CONTINUOUS
10
120.084
20
-85.9957
11
120.446
21
-85.2919
0
LINE
8
BLACK
6
CONTINUOUS
10
120.446
20
-85.2919
11
120.776
21
-84.5722
0
LINE
8
BLACK
6
CONTINUOUS
10
120.776
20
-84.5722
11
120.776
21
-84.5709
0
LINE
8
BLACK
6
CONTINUOUS
10
120.776
20
-84.5709
11
120.776
21
-84.5708
0
LINE
8
BLACK
6
CONTINUOUS
10
120.776
20
-84.5708
11
121.071
21
-83.8396
0
LINE
8
BLACK
6
CONTINUOUS
10
121.071
20
-83.8396
11
121.071
21
-83.8395
0
LINE
8
BLACK
6
CONTINUOUS
10
121.071
20
-83.8395
11
121.072
21
-83.8382
0
LINE
8
BLACK
6
CONTINUOUS
10
121.072
20
-83.8382
11
121.334
21
-83.0914
0
LINE
8
BLACK
6
CONTINUOUS
10
121.334
20
-83.0914
11
121.562
21
-82.3334
0
LINE
8
BLACK
6
CONTINUOUS
10
121.562
20
-82.3334
11
121.755
21
-81.5658
0
LINE
8
BLACK
6
CONTINUOUS
10
121.755
20
-81.5658
11
121.913
21
-80.7902
0
LINE
8
BLACK
6
CONTINUOUS
10
121.913
20
-80.7902
11
122.035
21
-80.0081
0
LINE
8
BLACK
6
CONTINUOUS
10
122.035
20
-80.0081
11
122.121
21
-79.2213
0
LINE
8
BLACK
6
CONTINUOUS
10
122.121
20
-79.2213
11
122.171
21
-78.4314
0
LINE
8
BLACK
6
CONTINUOUS
10
122.171
20
-78.4314
11
122.185
21
-77.64
0
LINE
8
BLACK
6
CONTINUOUS
10
122.185
20
-77.64
11
122.163
21
-76.8721
0
LINE
8
BLACK
6
CONTINUOUS
10
122.163
20
-76.8721
11
122.163
21
-76.8654
0
LINE
8
BLACK
6
CONTINUOUS
10
122.163
20
-76.8654
11
122.164
21
-76.8613
0
LINE
8
BLACK
6
CONTINUOUS
10
122.164
20
-76.8613
11
122.163
21
-76.8487
0
LINE
8
BLACK
6
CONTINUOUS
10
122.163
20
-76.8487
11
122.156
21
-76.8133
0
LINE
8
BLACK
6
CONTINUOUS
10
122.156
20
-76.8133
11
122.154
21
-76.7987
0
LINE
8
BLACK
6
CONTINUOUS
10
122.154
20
-76.7987
11
121.285
21
-65.4952
0
LINE
8
BLACK
6
CONTINUOUS
10
121.285
20
-65.4952
11
121.284
21
-65.4818
0
LINE
8
BLACK
6
CONTINUOUS
10
121.284
20
-65.4818
11
121.285
21
-65.4515
0
LINE
8
BLACK
6
CONTINUOUS
10
121.285
20
-65.4515
11
121.285
21
-65.4515
0
LINE
8
BLACK
6
CONTINUOUS
10
121.285
20
-65.4515
11
121.286
21
-65.4425
0
LINE
8
BLACK
6
CONTINUOUS
10
121.286
20
-65.4425
11
121.282
21
-65.4276
0
LINE
8
BLACK
6
CONTINUOUS
10
121.282
20
-65.4276
11
121.278
21
-65.4026
0
LINE
8
BLACK
6
CONTINUOUS
10
121.278
20
-65.4026
11
121.269
21
-65.2312
0
LINE
8
BLACK
6
CONTINUOUS
10
121.269
20
-65.2312
11
121.269
21
-65.2132
0
LINE
8
BLACK
6
CONTINUOUS
10
121.269
20
-65.2132
11
121.287
21
-65.017
0
LINE
8
BLACK
6
CONTINUOUS
10
121.287
20
-65.017
11
121.29
21
-64.9993
0
LINE
8
BLACK
6
CONTINUOUS
10
121.29
20
-64.9993
11
121.335
21
-64.8076
0
LINE
8
BLACK
6
CONTINUOUS
10
121.335
20
-64.8076
11
121.34
21
-64.7904
0
LINE
8
BLACK
6
CONTINUOUS
10
121.34
20
-64.7904
11
121.413
21
-64.6072
0
LINE
8
BLACK
6
CONTINUOUS
10
121.413
20
-64.6072
11
121.42
21
-64.5909
0
LINE
8
BLACK
6
CONTINUOUS
10
121.42
20
-64.5909
11
121.518
21
-64.4198
0
LINE
8
BLACK
6
CONTINUOUS
10
121.518
20
-64.4198
11
121.528
21
-64.4049
0
LINE
8
BLACK
6
CONTINUOUS
10
121.528
20
-64.4049
11
121.649
21
-64.2494
0
LINE
8
BLACK
6
CONTINUOUS
10
121.649
20
-64.2494
11
121.661
21
-64.236
0
LINE
8
BLACK
6
CONTINUOUS
10
121.661
20
-64.236
11
121.803
21
-64.0993
0
LINE
8
BLACK
6
CONTINUOUS
10
121.803
20
-64.0993
11
121.817
21
-64.0878
0
LINE
8
BLACK
6
CONTINUOUS
10
121.817
20
-64.0878
11
121.976
21
-63.9726
0
LINE
8
BLACK
6
CONTINUOUS
10
121.976
20
-63.9726
11
121.992
21
-63.9632
0
LINE
8
BLACK
6
CONTINUOUS
10
121.992
20
-63.9632
11
122.166
21
-63.872
0
LINE
8
BLACK
6
CONTINUOUS
10
122.166
20
-63.872
11
122.183
21
-63.8648
0
LINE
8
BLACK
6
CONTINUOUS
10
122.183
20
-63.8648
11
122.369
21
-63.7994
0
LINE
8
BLACK
6
CONTINUOUS
10
122.369
20
-63.7994
11
122.386
21
-63.7946
0
LINE
8
BLACK
6
CONTINUOUS
10
122.386
20
-63.7946
11
122.547
21
-63.7626
0
LINE
8
BLACK
6
CONTINUOUS
10
122.547
20
-63.7626
11
122.565
21
-63.7612
0
LINE
8
BLACK
6
CONTINUOUS
10
122.565
20
-63.7612
11
122.574
21
-63.7602
0
LINE
8
BLACK
6
CONTINUOUS
10
122.574
20
-63.7602
11
122.582
21
-63.7605
0
LINE
8
BLACK
6
CONTINUOUS
10
122.582
20
-63.7605
11
122.591
21
-63.7582
0
LINE
8
BLACK
6
CONTINUOUS
10
122.591
20
-63.7582
11
122.597
21
-63.7576
0
LINE
8
BLACK
6
CONTINUOUS
10
122.597
20
-63.7576
11
122.615
21
-63.7548
0
LINE
8
BLACK
6
CONTINUOUS
10
122.615
20
-63.7548
11
138.472
21
-63.0104
0
LINE
8
BLACK
6
CONTINUOUS
10
138.472
20
-63.0104
11
138.492
21
-63.0111
0
LINE
8
BLACK
6
CONTINUOUS
10
138.492
20
-63.0111
11
138.509
21
-63.013
0
LINE
8
BLACK
6
CONTINUOUS
10
138.509
20
-63.013
11
138.509
21
-63.013
0
LINE
8
BLACK
6
CONTINUOUS
10
138.509
20
-63.013
11
138.513
21
-63.0136
0
LINE
8
BLACK
6
CONTINUOUS
10
138.513
20
-63.0136
11
138.519
21
-63.0133
0
LINE
8
BLACK
6
CONTINUOUS
10
138.519
20
-63.0133
11
138.521
21
-63.0133
0
LINE
8
BLACK
6
CONTINUOUS
10
138.521
20
-63.0133
11
138.521
21
-63.0133
0
LINE
8
BLACK
6
CONTINUOUS
10
138.521
20
-63.0133
11
138.526
21
-63.0131
0
LINE
8
BLACK
6
CONTINUOUS
10
138.526
20
-63.0131
11
138.531
21
-63.0121
0
LINE
8
BLACK
6
CONTINUOUS
10
138.531
20
-63.0121
11
138.533
21
-63.0119
0
LINE
8
BLACK
6
CONTINUOUS
10
138.533
20
-63.0119
11
138.542
21
-63.0106
0
LINE
8
BLACK
6
CONTINUOUS
10
138.542
20
-63.0106
11
138.906
21
-62.9761
0
LINE
8
BLACK
6
CONTINUOUS
10
138.906
20
-62.9761
11
138.906
21
-62.9761
0
LINE
8
BLACK
6
CONTINUOUS
10
138.906
20
-62.9761
11
138.909
21
-62.9758
0
LINE
8
BLACK
6
CONTINUOUS
10
138.909
20
-62.9758
11
139.209
21
-62.9207
0
LINE
8
BLACK
6
CONTINUOUS
10
139.209
20
-62.9207
11
139.285
21
-62.9068
0
LINE
8
BLACK
6
CONTINUOUS
10
139.285
20
-62.9068
11
139.285
21
-62.9068
0
LINE
8
BLACK
6
CONTINUOUS
10
139.285
20
-62.9068
11
139.288
21
-62.9063
0
LINE
8
BLACK
6
CONTINUOUS
10
139.288
20
-62.9063
11
139.517
21
-62.8431
0
LINE
8
BLACK
6
CONTINUOUS
10
139.517
20
-62.8431
11
139.656
21
-62.8047
0
LINE
8
BLACK
6
CONTINUOUS
10
139.656
20
-62.8047
11
139.656
21
-62.8047
0
LINE
8
BLACK
6
CONTINUOUS
10
139.656
20
-62.8047
11
139.659
21
-62.8039
0
LINE
8
BLACK
6
CONTINUOUS
10
139.659
20
-62.8039
11
139.828
21
-62.741
0
LINE
8
BLACK
6
CONTINUOUS
10
139.828
20
-62.741
11
140.017
21
-62.6706
0
LINE
8
BLACK
6
CONTINUOUS
10
140.017
20
-62.6706
11
140.017
21
-62.6706
0
LINE
8
BLACK
6
CONTINUOUS
10
140.017
20
-62.6706
11
140.019
21
-62.6696
0
LINE
8
BLACK
6
CONTINUOUS
10
140.019
20
-62.6696
11
140.022
21
-62.6684
0
LINE
8
BLACK
6
CONTINUOUS
10
140.022
20
-62.6684
11
140.022
21
-62.6684
0
LINE
8
BLACK
6
CONTINUOUS
10
140.022
20
-62.6684
11
140.364
21
-62.5055
0
LINE
8
BLACK
6
CONTINUOUS
10
140.364
20
-62.5055
11
140.364
21
-62.5055
0
LINE
8
BLACK
6
CONTINUOUS
10
140.364
20
-62.5055
11
140.367
21
-62.5043
0
LINE
8
BLACK
6
CONTINUOUS
10
140.367
20
-62.5043
11
140.699
21
-62.3093
0
LINE
8
BLACK
6
CONTINUOUS
10
140.699
20
-62.3093
11
140.765
21
-62.2623
0
LINE
8
BLACK
6
CONTINUOUS
10
140.765
20
-62.2623
11
140.991
21
-62.1009
0
LINE
8
BLACK
6
CONTINUOUS
10
140.991
20
-62.1009
11
141.012
21
-62.086
0
LINE
8
BLACK
6
CONTINUOUS
10
141.012
20
-62.086
11
141.305
21
-61.8362
0
LINE
8
BLACK
6
CONTINUOUS
10
141.305
20
-61.8362
11
141.323
21
-61.8182
0
LINE
8
BLACK
6
CONTINUOUS
10
141.323
20
-61.8182
11
141.505
21
-61.6334
0
LINE
8
BLACK
6
CONTINUOUS
10
141.505
20
-61.6334
11
141.575
21
-61.5618
0
LINE
8
BLACK
6
CONTINUOUS
10
141.575
20
-61.5618
11
141.82
21
-61.2649
0
LINE
8
BLACK
6
CONTINUOUS
10
141.82
20
-61.2649
11
141.821
21
-61.2627
0
LINE
8
BLACK
6
CONTINUOUS
10
141.821
20
-61.2627
11
141.821
21
-61.2627
0
LINE
8
BLACK
6
CONTINUOUS
10
141.821
20
-61.2627
11
142.036
21
-60.95
0
LINE
8
BLACK
6
CONTINUOUS
10
142.036
20
-60.95
11
142.038
21
-60.9478
0
LINE
8
BLACK
6
CONTINUOUS
10
142.038
20
-60.9478
11
142.211
21
-60.6412
0
LINE
8
BLACK
6
CONTINUOUS
10
142.211
20
-60.6412
11
142.226
21
-60.6152
0
LINE
8
BLACK
6
CONTINUOUS
10
142.226
20
-60.6152
11
142.226
21
-60.6152
0
LINE
8
BLACK
6
CONTINUOUS
10
142.226
20
-60.6152
11
142.227
21
-60.6128
0
LINE
8
BLACK
6
CONTINUOUS
10
142.227
20
-60.6128
11
142.387
21
-60.2626
0
LINE
8
BLACK
6
CONTINUOUS
10
142.387
20
-60.2626
11
142.495
21
-59.9572
0
LINE
8
BLACK
6
CONTINUOUS
10
142.495
20
-59.9572
11
142.496
21
-59.9576
0
LINE
8
BLACK
6
CONTINUOUS
10
142.496
20
-59.9576
11
142.496
21
-59.9554
0
LINE
8
BLACK
6
CONTINUOUS
10
142.496
20
-59.9554
11
142.496
21
-59.9551
0
LINE
8
BLACK
6
CONTINUOUS
10
142.496
20
-59.9551
11
142.505
21
-59.9297
0
LINE
8
BLACK
6
CONTINUOUS
10
142.505
20
-59.9297
11
142.509
21
-59.9197
0
LINE
8
BLACK
6
CONTINUOUS
10
142.509
20
-59.9197
11
142.51
21
-59.9163
0
LINE
8
BLACK
6
CONTINUOUS
10
142.51
20
-59.9163
11
142.513
21
-59.912
0
LINE
8
BLACK
6
CONTINUOUS
10
142.513
20
-59.912
11
142.516
21
-59.9
0
LINE
8
BLACK
6
CONTINUOUS
10
142.516
20
-59.9
11
142.522
21
-59.8651
0
LINE
8
BLACK
6
CONTINUOUS
10
142.522
20
-59.8651
11
142.525
21
-59.8506
0
LINE
8
BLACK
6
CONTINUOUS
10
142.525
20
-59.8506
11
142.532
21
-59.8251
0
LINE
8
BLACK
6
CONTINUOUS
10
142.532
20
-59.8251
11
142.534
21
-59.8165
0
LINE
8
BLACK
6
CONTINUOUS
10
142.534
20
-59.8165
11
142.534
21
-59.8001
0
LINE
8
BLACK
6
CONTINUOUS
10
142.534
20
-59.8001
11
142.536
21
-59.7756
0
LINE
8
BLACK
6
CONTINUOUS
10
142.536
20
-59.7756
11
142.541
21
-59.7476
0
LINE
8
BLACK
6
CONTINUOUS
10
142.541
20
-59.7476
11
142.571
21
-59.5897
0
LINE
8
BLACK
6
CONTINUOUS
10
142.571
20
-59.5897
11
142.575
21
-59.5736
0
LINE
8
BLACK
6
CONTINUOUS
10
142.575
20
-59.5736
11
142.642
21
-59.3689
0
LINE
8
BLACK
6
CONTINUOUS
10
142.642
20
-59.3689
11
142.648
21
-59.3535
0
LINE
8
BLACK
6
CONTINUOUS
10
142.648
20
-59.3535
11
142.741
21
-59.1594
0
LINE
8
BLACK
6
CONTINUOUS
10
142.741
20
-59.1594
11
142.749
21
-59.1449
0
LINE
8
BLACK
6
CONTINUOUS
10
142.749
20
-59.1449
11
142.753
21
-59.1389
0
LINE
8
BLACK
6
CONTINUOUS
10
142.753
20
-59.1389
11
142.788
21
-59.0862
0
LINE
8
BLACK
6
CONTINUOUS
10
142.788
20
-59.0862
11
142.867
21
-58.9648
0
LINE
8
BLACK
6
CONTINUOUS
10
142.867
20
-58.9648
11
142.877
21
-58.9516
0
LINE
8
BLACK
6
CONTINUOUS
10
142.877
20
-58.9516
11
143.018
21
-58.7885
0
LINE
8
BLACK
6
CONTINUOUS
10
143.018
20
-58.7885
11
143.03
21
-58.7767
0
LINE
8
BLACK
6
CONTINUOUS
10
143.03
20
-58.7767
11
143.191
21
-58.6337
0
LINE
8
BLACK
6
CONTINUOUS
10
143.191
20
-58.6337
11
143.204
21
-58.6235
0
LINE
8
BLACK
6
CONTINUOUS
10
143.204
20
-58.6235
11
143.213
21
-58.6174
0
LINE
8
BLACK
6
CONTINUOUS
10
143.213
20
-58.6174
11
143.382
21
-58.5028
0
LINE
8
BLACK
6
CONTINUOUS
10
143.382
20
-58.5028
11
143.396
21
-58.4945
0
LINE
8
BLACK
6
CONTINUOUS
10
143.396
20
-58.4945
11
143.589
21
-58.3984
0
LINE
8
BLACK
6
CONTINUOUS
10
143.589
20
-58.3984
11
143.605
21
-58.392
0
LINE
8
BLACK
6
CONTINUOUS
10
143.605
20
-58.392
11
143.808
21
-58.3222
0
LINE
8
BLACK
6
CONTINUOUS
10
143.808
20
-58.3222
11
143.824
21
-58.3178
0
LINE
8
BLACK
6
CONTINUOUS
10
143.824
20
-58.3178
11
144.035
21
-58.2754
0
LINE
8
BLACK
6
CONTINUOUS
10
144.035
20
-58.2754
11
144.052
21
-58.2732
0
LINE
8
BLACK
6
CONTINUOUS
10
144.052
20
-58.2732
11
144.233
21
-58.2612
0
LINE
8
BLACK
6
CONTINUOUS
10
144.233
20
-58.2612
11
144.256
21
-58.2623
0
LINE
8
BLACK
6
CONTINUOUS
10
144.256
20
-58.2623
11
144.26
21
-58.2623
0
LINE
8
BLACK
6
CONTINUOUS
10
144.26
20
-58.2623
11
144.269
21
-58.2637
0
LINE
8
BLACK
6
CONTINUOUS
10
144.269
20
-58.2637
11
144.3
21
-58.2596
0
LINE
8
BLACK
6
CONTINUOUS
10
144.3
20
-58.2596
11
144.317
21
-58.2585
0
LINE
8
BLACK
6
CONTINUOUS
10
144.317
20
-58.2585
11
162.226
21
-58.2585
0
LINE
8
BLACK
6
CONTINUOUS
10
162.226
20
-58.2585
11
162.245
21
-58.26
  0
ENDSEC
  0
EOF
