  0
SECTION
  2
HEADER
  9
$ANGBASE
  50
0.0
  9
$ANGDIR
  70
1
  9
$MEASUREMENT
  70
1
  0
ENDSEC
  0
SECTION
  2
TABLES
  0
TABLE
  2
LTYPE
  70
4
  0
LTYPE
  5
40F
  2
CONTINUOUS
  70
0
  3
Solid line
  72
65
  73
0
  40
0.0
  0
LTYPE
  5
410
  2
DASHDOT
 70
0
  3
Dash Dot ____ _ ____ _
 72
65
 73
4
 40
2.0
 49
1.25
 49
-0.25
 49
0.25
 49
-0.25
  0
LTYPE
  5
411
  2
DASHED
 70
0
  3
Dashed __ __ __ __ __
 72
65
 73
2
 40
0.75
 49
0.5
 49
-0.25
  0
LTYPE
  5
43B
  2
DOTTED
 70
0
  3
Dotted .  .  .  .
 72
65
 73
2
 40
0.2
 49
0.0
 49
-0.2
  0
ENDTAB
  0
TABLE
  2
STYLE
  70
4
  0
STYLE
  2
KICAD
  70
0
  40
0
  41
1
  42
1
  50
0
  71
0
  3
isocp.shx
  0
STYLE
  2
KICADB
  70
0
  40
0
  41
1
  42
1
  50
0
  71
0
  3
isocp.shx
  0
STYLE
  2
KICADI
  70
0
  40
0
  41
1
  42
1
  50
15
  71
0
  3
isocp.shx
  0
STYLE
  2
KICADBI
  70
0
  40
0
  41
1
  42
1
  50
15
  71
0
  3
isocp.shx
  0
ENDTAB
  0
TABLE
  2
LAYER
  70
1
  0
LAYER
  2
BLACK
  70
0
  62
7
  6
CONTINUOUS
  0
ENDTAB
  0
ENDSEC
  0
SECTION
  2
ENTITIES
0
LINE
8
BLACK
6
CONTINUOUS
10
159.116
20
-118.849
11
159.116
21
-118.849
0
LINE
8
BLACK
6
CONTINUOUS
10
159.116
20
-118.849
11
158.351
21
-118.404
0
LINE
8
BLACK
6
CONTINUOUS
10
158.351
20
-118.404
11
158.351
21
-118.404
0
LINE
8
BLACK
6
CONTINUOUS
10
158.351
20
-118.404
11
158.35
21
-118.403
0
LINE
8
BLACK
6
CONTINUOUS
10
158.35
20
-118.403
11
158.24
21
-118.345
0
LINE
8
BLACK
6
CONTINUOUS
10
158.24
20
-118.345
11
157.567
21
-117.991
0
LINE
8
BLACK
6
CONTINUOUS
10
157.567
20
-117.991
11
157.567
21
-117.991
0
LINE
8
BLACK
6
CONTINUOUS
10
157.567
20
-117.991
11
157.565
21
-117.99
0
LINE
8
BLACK
6
CONTINUOUS
10
157.565
20
-117.99
11
156.763
21
-117.611
0
LINE
8
BLACK
6
CONTINUOUS
10
156.763
20
-117.611
11
156.762
21
-117.611
0
LINE
8
BLACK
6
CONTINUOUS
10
156.762
20
-117.611
11
155.947
21
-117.267
0
LINE
8
BLACK
6
CONTINUOUS
10
155.947
20
-117.267
11
155.947
21
-117.267
0
LINE
8
BLACK
6
CONTINUOUS
10
155.947
20
-117.267
11
155.946
21
-117.267
0
LINE
8
BLACK
6
CONTINUOUS
10
155.946
20
-117.267
11
155.488
21
-117.097
0
LINE
8
BLACK
6
CONTINUOUS
10
155.488
20
-117.097
11
155.116
21
-116.958
0
LINE
8
BLACK
6
CONTINUOUS
10
155.116
20
-116.958
11
155.116
21
-116.958
0
LINE
8
BLACK
6
CONTINUOUS
10
155.116
20
-116.958
11
155.115
21
-116.958
0
LINE
8
BLACK
6
CONTINUOUS
10
155.115
20
-116.958
11
154.472
21
-116.75
0
LINE
8
BLACK
6
CONTINUOUS
10
154.472
20
-116.75
11
154.272
21
-116.685
0
LINE
8
BLACK
6
CONTINUOUS
10
154.272
20
-116.685
11
154.272
21
-116.685
0
LINE
8
BLACK
6
CONTINUOUS
10
154.272
20
-116.685
11
154.271
21
-116.685
0
LINE
8
BLACK
6
CONTINUOUS
10
154.271
20
-116.685
11
154.269
21
-116.685
0
LINE
8
BLACK
6
CONTINUOUS
10
154.269
20
-116.685
11
154.269
21
-116.685
0
LINE
8
BLACK
6
CONTINUOUS
10
154.269
20
-116.685
11
153.772
21
-116.547
0
LINE
8
BLACK
6
CONTINUOUS
10
153.772
20
-116.547
11
153.416
21
-116.448
0
LINE
8
BLACK
6
CONTINUOUS
10
153.416
20
-116.448
11
152.552
21
-116.248
0
LINE
8
BLACK
6
CONTINUOUS
10
152.552
20
-116.248
11
152.55
21
-116.248
0
LINE
8
BLACK
6
CONTINUOUS
10
152.55
20
-116.248
11
152.55
21
-116.248
0
LINE
8
BLACK
6
CONTINUOUS
10
152.55
20
-116.248
11
151.681
21
-116.086
0
LINE
8
BLACK
6
CONTINUOUS
10
151.681
20
-116.086
11
151.681
21
-116.086
0
LINE
8
BLACK
6
CONTINUOUS
10
151.681
20
-116.086
11
151.68
21
-116.086
0
LINE
8
BLACK
6
CONTINUOUS
10
151.68
20
-116.086
11
151.123
21
-116.007
0
LINE
8
BLACK
6
CONTINUOUS
10
151.123
20
-116.007
11
150.803
21
-115.961
0
LINE
8
BLACK
6
CONTINUOUS
10
150.803
20
-115.961
11
150.803
21
-115.961
0
LINE
8
BLACK
6
CONTINUOUS
10
150.803
20
-115.961
11
150.802
21
-115.961
0
LINE
8
BLACK
6
CONTINUOUS
10
150.802
20
-115.961
11
150.8
21
-115.961
0
LINE
8
BLACK
6
CONTINUOUS
10
150.8
20
-115.961
11
150.8
21
-115.961
0
LINE
8
BLACK
6
CONTINUOUS
10
150.8
20
-115.961
11
149.92
21
-115.874
0
LINE
8
BLACK
6
CONTINUOUS
10
149.92
20
-115.874
11
149.92
21
-115.874
0
LINE
8
BLACK
6
CONTINUOUS
10
149.92
20
-115.874
11
149.919
21
-115.874
0
LINE
8
BLACK
6
CONTINUOUS
10
149.919
20
-115.874
11
149.918
21
-115.874
0
LINE
8
BLACK
6
CONTINUOUS
10
149.918
20
-115.874
11
149.918
21
-115.874
0
LINE
8
BLACK
6
CONTINUOUS
10
149.918
20
-115.874
11
149.035
21
-115.824
0
LINE
8
BLACK
6
CONTINUOUS
10
149.035
20
-115.824
11
149.035
21
-115.824
0
LINE
8
BLACK
6
CONTINUOUS
10
149.035
20
-115.824
11
149.033
21
-115.824
0
LINE
8
BLACK
6
CONTINUOUS
10
149.033
20
-115.824
11
148.464
21
-115.817
0
LINE
8
BLACK
6
CONTINUOUS
10
148.464
20
-115.817
11
148.148
21
-115.813
0
LINE
8
BLACK
6
CONTINUOUS
10
148.148
20
-115.813
11
148.148
21
-115.813
0
LINE
8
BLACK
6
CONTINUOUS
10
148.148
20
-115.813
11
148.146
21
-115.813
0
LINE
8
BLACK
6
CONTINUOUS
10
148.146
20
-115.813
11
148.145
21
-115.813
0
LINE
8
BLACK
6
CONTINUOUS
10
148.145
20
-115.813
11
148.145
21
-115.813
0
LINE
8
BLACK
6
CONTINUOUS
10
148.145
20
-115.813
11
147.261
21
-115.839
0
LINE
8
BLACK
6
CONTINUOUS
10
147.261
20
-115.839
11
147.261
21
-115.839
0
LINE
8
BLACK
6
CONTINUOUS
10
147.261
20
-115.839
11
147.26
21
-115.84
0
LINE
8
BLACK
6
CONTINUOUS
10
147.26
20
-115.84
11
146.375
21
-115.904
0
LINE
8
BLACK
6
CONTINUOUS
10
146.375
20
-115.904
11
145.494
21
-116.007
0
LINE
8
BLACK
6
CONTINUOUS
10
145.494
20
-116.007
11
144.618
21
-116.147
0
LINE
8
BLACK
6
CONTINUOUS
10
144.618
20
-116.147
11
144.617
21
-116.147
0
LINE
8
BLACK
6
CONTINUOUS
10
144.617
20
-116.147
11
144.617
21
-116.147
0
LINE
8
BLACK
6
CONTINUOUS
10
144.617
20
-116.147
11
144.202
21
-116.232
0
LINE
8
BLACK
6
CONTINUOUS
10
144.202
20
-116.232
11
143.749
21
-116.324
0
LINE
8
BLACK
6
CONTINUOUS
10
143.749
20
-116.324
11
143.748
21
-116.325
0
LINE
8
BLACK
6
CONTINUOUS
10
143.748
20
-116.325
11
143.748
21
-116.325
0
LINE
8
BLACK
6
CONTINUOUS
10
143.748
20
-116.325
11
142.89
21
-116.539
0
LINE
8
BLACK
6
CONTINUOUS
10
142.89
20
-116.539
11
142.89
21
-116.539
0
LINE
8
BLACK
6
CONTINUOUS
10
142.89
20
-116.539
11
142.889
21
-116.539
0
LINE
8
BLACK
6
CONTINUOUS
10
142.889
20
-116.539
11
142.887
21
-116.539
0
LINE
8
BLACK
6
CONTINUOUS
10
142.887
20
-116.539
11
142.887
21
-116.539
0
LINE
8
BLACK
6
CONTINUOUS
10
142.887
20
-116.539
11
142.681
21
-116.6
0
LINE
8
BLACK
6
CONTINUOUS
10
142.681
20
-116.6
11
142.038
21
-116.79
0
LINE
8
BLACK
6
CONTINUOUS
10
142.038
20
-116.79
11
141.199
21
-117.078
0
LINE
8
BLACK
6
CONTINUOUS
10
141.199
20
-117.078
11
141.198
21
-117.078
0
LINE
8
BLACK
6
CONTINUOUS
10
141.198
20
-117.078
11
141.198
21
-117.078
0
LINE
8
BLACK
6
CONTINUOUS
10
141.198
20
-117.078
11
140.901
21
-117.194
0
LINE
8
BLACK
6
CONTINUOUS
10
140.901
20
-117.194
11
140.373
21
-117.401
0
LINE
8
BLACK
6
CONTINUOUS
10
140.373
20
-117.401
11
140.372
21
-117.402
0
LINE
8
BLACK
6
CONTINUOUS
10
140.372
20
-117.402
11
139.896
21
-117.612
0
LINE
8
BLACK
6
CONTINUOUS
10
139.896
20
-117.612
11
139.562
21
-117.759
0
LINE
8
BLACK
6
CONTINUOUS
10
139.562
20
-117.759
11
139.56
21
-117.76
0
LINE
8
BLACK
6
CONTINUOUS
10
139.56
20
-117.76
11
139.56
21
-117.76
0
LINE
8
BLACK
6
CONTINUOUS
10
139.56
20
-117.76
11
138.767
21
-118.152
0
LINE
8
BLACK
6
CONTINUOUS
10
138.767
20
-118.152
11
138.767
21
-118.152
0
LINE
8
BLACK
6
CONTINUOUS
10
138.767
20
-118.152
11
138.766
21
-118.152
0
LINE
8
BLACK
6
CONTINUOUS
10
138.766
20
-118.152
11
138.765
21
-118.153
0
LINE
8
BLACK
6
CONTINUOUS
10
138.765
20
-118.153
11
138.765
21
-118.153
0
LINE
8
BLACK
6
CONTINUOUS
10
138.765
20
-118.153
11
138.445
21
-118.329
0
LINE
8
BLACK
6
CONTINUOUS
10
138.445
20
-118.329
11
137.989
21
-118.579
0
LINE
8
BLACK
6
CONTINUOUS
10
137.989
20
-118.579
11
137.987
21
-118.579
0
LINE
8
BLACK
6
CONTINUOUS
10
137.987
20
-118.579
11
137.244
21
-119.029
0
LINE
8
BLACK
6
CONTINUOUS
10
137.244
20
-119.029
11
137.23
21
-119.038
0
LINE
8
BLACK
6
CONTINUOUS
10
137.23
20
-119.038
11
136.492
21
-119.53
0
LINE
8
BLACK
6
CONTINUOUS
10
136.492
20
-119.53
11
136.128
21
-119.795
0
LINE
8
BLACK
6
CONTINUOUS
10
136.128
20
-119.795
11
135.776
21
-120.052
0
LINE
8
BLACK
6
CONTINUOUS
10
135.776
20
-120.052
11
135.776
21
-120.052
0
LINE
8
BLACK
6
CONTINUOUS
10
135.776
20
-120.052
11
135.775
21
-120.053
0
LINE
8
BLACK
6
CONTINUOUS
10
135.775
20
-120.053
11
135.774
21
-120.053
0
LINE
8
BLACK
6
CONTINUOUS
10
135.774
20
-120.053
11
135.774
21
-120.053
0
LINE
8
BLACK
6
CONTINUOUS
10
135.774
20
-120.053
11
135.118
21
-120.576
0
LINE
8
BLACK
6
CONTINUOUS
10
135.118
20
-120.576
11
135.081
21
-120.605
0
LINE
8
BLACK
6
CONTINUOUS
10
135.081
20
-120.605
11
134.412
21
-121.188
0
LINE
8
BLACK
6
CONTINUOUS
10
134.412
20
-121.188
11
134.218
21
-121.372
0
LINE
8
BLACK
6
CONTINUOUS
10
134.218
20
-121.372
11
133.811
21
-121.758
0
LINE
8
BLACK
6
CONTINUOUS
10
133.811
20
-121.758
11
133.769
21
-121.798
0
LINE
8
BLACK
6
CONTINUOUS
10
133.769
20
-121.798
11
133.152
21
-122.435
0
LINE
8
BLACK
6
CONTINUOUS
10
133.152
20
-122.435
11
132.563
21
-123.099
0
LINE
8
BLACK
6
CONTINUOUS
10
132.563
20
-123.099
11
132.003
21
-123.786
0
LINE
8
BLACK
6
CONTINUOUS
10
132.003
20
-123.786
11
132.002
21
-123.788
0
LINE
8
BLACK
6
CONTINUOUS
10
132.002
20
-123.788
11
132.002
21
-123.788
0
LINE
8
BLACK
6
CONTINUOUS
10
132.002
20
-123.788
11
131.474
21
-124.497
0
LINE
8
BLACK
6
CONTINUOUS
10
131.474
20
-124.497
11
131.474
21
-124.497
0
LINE
8
BLACK
6
CONTINUOUS
10
131.474
20
-124.497
11
131.473
21
-124.498
0
LINE
8
BLACK
6
CONTINUOUS
10
131.473
20
-124.498
11
131.394
21
-124.614
0
LINE
8
BLACK
6
CONTINUOUS
10
131.394
20
-124.614
11
131.175
21
-124.935
0
LINE
8
BLACK
6
CONTINUOUS
10
131.175
20
-124.935
11
130.974
21
-125.231
0
LINE
8
BLACK
6
CONTINUOUS
10
130.974
20
-125.231
11
130.973
21
-125.232
0
LINE
8
BLACK
6
CONTINUOUS
10
130.973
20
-125.232
11
130.973
21
-125.232
0
LINE
8
BLACK
6
CONTINUOUS
10
130.973
20
-125.232
11
130.934
21
-125.295
0
LINE
8
BLACK
6
CONTINUOUS
10
130.934
20
-125.295
11
130.507
21
-125.985
0
LINE
8
BLACK
6
CONTINUOUS
10
130.507
20
-125.985
11
130.17
21
-126.584
0
LINE
8
BLACK
6
CONTINUOUS
10
130.17
20
-126.584
11
130.082
21
-126.741
0
LINE
8
BLACK
6
CONTINUOUS
10
130.082
20
-126.741
11
130.08
21
-126.745
0
LINE
8
BLACK
6
CONTINUOUS
10
130.08
20
-126.745
11
130.078
21
-126.747
0
LINE
8
BLACK
6
CONTINUOUS
10
130.078
20
-126.747
11
130.076
21
-126.751
0
LINE
8
BLACK
6
CONTINUOUS
10
130.076
20
-126.751
11
130.076
21
-126.751
0
LINE
8
BLACK
6
CONTINUOUS
10
130.076
20
-126.751
11
130.074
21
-126.753
0
LINE
8
BLACK
6
CONTINUOUS
10
130.074
20
-126.753
11
130.072
21
-126.758
0
LINE
8
BLACK
6
CONTINUOUS
10
130.072
20
-126.758
11
130.07
21
-126.763
0
LINE
8
BLACK
6
CONTINUOUS
10
130.07
20
-126.763
11
130.07
21
-126.763
0
LINE
8
BLACK
6
CONTINUOUS
10
130.07
20
-126.763
11
130.061
21
-126.788
0
LINE
8
BLACK
6
CONTINUOUS
10
130.061
20
-126.788
11
130.054
21
-126.803
0
LINE
8
BLACK
6
CONTINUOUS
10
130.054
20
-126.803
11
130.04
21
-126.832
0
LINE
8
BLACK
6
CONTINUOUS
10
130.04
20
-126.832
11
130.038
21
-126.84
0
LINE
8
BLACK
6
CONTINUOUS
10
130.038
20
-126.84
11
130.036
21
-126.849
0
LINE
8
BLACK
6
CONTINUOUS
10
130.036
20
-126.849
11
130.03
21
-126.872
0
LINE
8
BLACK
6
CONTINUOUS
10
130.03
20
-126.872
11
129.948
21
-127.075
0
LINE
8
BLACK
6
CONTINUOUS
10
129.948
20
-127.075
11
129.942
21
-127.089
0
LINE
8
BLACK
6
CONTINUOUS
10
129.942
20
-127.089
11
129.825
21
-127.306
0
LINE
8
BLACK
6
CONTINUOUS
10
129.825
20
-127.306
11
129.817
21
-127.318
0
LINE
8
BLACK
6
CONTINUOUS
10
129.817
20
-127.318
11
129.675
21
-127.521
0
LINE
8
BLACK
6
CONTINUOUS
10
129.675
20
-127.521
11
129.666
21
-127.532
0
LINE
8
BLACK
6
CONTINUOUS
10
129.666
20
-127.532
11
129.502
21
-127.717
0
LINE
8
BLACK
6
CONTINUOUS
10
129.502
20
-127.717
11
129.492
21
-127.727
0
LINE
8
BLACK
6
CONTINUOUS
10
129.492
20
-127.727
11
129.307
21
-127.891
0
LINE
8
BLACK
6
CONTINUOUS
10
129.307
20
-127.891
11
129.296
21
-127.9
0
LINE
8
BLACK
6
CONTINUOUS
10
129.296
20
-127.9
11
129.093
21
-128.042
0
LINE
8
BLACK
6
CONTINUOUS
10
129.093
20
-128.042
11
129.081
21
-128.05
0
LINE
8
BLACK
6
CONTINUOUS
10
129.081
20
-128.05
11
128.864
21
-128.167
0
LINE
8
BLACK
6
CONTINUOUS
10
128.864
20
-128.167
11
128.85
21
-128.173
0
LINE
8
BLACK
6
CONTINUOUS
10
128.85
20
-128.173
11
128.654
21
-128.252
0
LINE
8
BLACK
6
CONTINUOUS
10
128.654
20
-128.252
11
128.628
21
-128.259
0
LINE
8
BLACK
6
CONTINUOUS
10
128.628
20
-128.259
11
128.619
21
-128.261
0
LINE
8
BLACK
6
CONTINUOUS
10
128.619
20
-128.261
11
128.61
21
-128.265
0
LINE
8
BLACK
6
CONTINUOUS
10
128.61
20
-128.265
11
128.599
21
-128.268
0
LINE
8
BLACK
6
CONTINUOUS
10
128.599
20
-128.268
11
122.009
21
-129.68
0
LINE
8
BLACK
6
CONTINUOUS
10
122.009
20
-129.68
11
111.206
21
-131.995
0
LINE
8
BLACK
6
CONTINUOUS
10
111.206
20
-131.995
11
111.191
21
-131.997
0
LINE
8
BLACK
6
CONTINUOUS
10
111.191
20
-131.997
11
111.156
21
-132
0
LINE
8
BLACK
6
CONTINUOUS
10
111.156
20
-132
11
111.142
21
-132.006
0
LINE
8
BLACK
6
CONTINUOUS
10
111.142
20
-132.006
11
111.118
21
-132.013
0
LINE
8
BLACK
6
CONTINUOUS
10
111.118
20
-132.013
11
111.068
21
-132.021
0
LINE
8
BLACK
6
CONTINUOUS
10
111.068
20
-132.021
11
110.942
21
-132.043
0
LINE
8
BLACK
6
CONTINUOUS
10
110.942
20
-132.043
11
110.924
21
-132.045
0
LINE
8
BLACK
6
CONTINUOUS
10
110.924
20
-132.045
11
110.811
21
-132.049
0
LINE
8
BLACK
6
CONTINUOUS
10
110.811
20
-132.049
11
110.721
21
-132.051
0
LINE
8
BLACK
6
CONTINUOUS
10
110.721
20
-132.051
11
110.703
21
-132.051
0
LINE
8
BLACK
6
CONTINUOUS
10
110.703
20
-132.051
11
110.585
21
-132.037
0
LINE
8
BLACK
6
CONTINUOUS
10
110.585
20
-132.037
11
110.501
21
-132.028
0
LINE
8
BLACK
6
CONTINUOUS
10
110.501
20
-132.028
11
110.483
21
-132.025
0
LINE
8
BLACK
6
CONTINUOUS
10
110.483
20
-132.025
11
110.286
21
-131.973
0
LINE
8
BLACK
6
CONTINUOUS
10
110.286
20
-131.973
11
110.269
21
-131.968
0
LINE
8
BLACK
6
CONTINUOUS
10
110.269
20
-131.968
11
110.081
21
-131.889
0
LINE
8
BLACK
6
CONTINUOUS
10
110.081
20
-131.889
11
110.065
21
-131.881
0
LINE
8
BLACK
6
CONTINUOUS
10
110.065
20
-131.881
11
109.891
21
-131.776
0
LINE
8
BLACK
6
CONTINUOUS
10
109.891
20
-131.776
11
109.876
21
-131.766
0
LINE
8
BLACK
6
CONTINUOUS
10
109.876
20
-131.766
11
109.835
21
-131.732
0
LINE
8
BLACK
6
CONTINUOUS
10
109.835
20
-131.732
11
109.718
21
-131.637
0
LINE
8
BLACK
6
CONTINUOUS
10
109.718
20
-131.637
11
109.705
21
-131.625
0
LINE
8
BLACK
6
CONTINUOUS
10
109.705
20
-131.625
11
109.567
21
-131.475
0
LINE
8
BLACK
6
CONTINUOUS
10
109.567
20
-131.475
11
109.556
21
-131.461
0
LINE
8
BLACK
6
CONTINUOUS
10
109.556
20
-131.461
11
109.441
21
-131.293
0
LINE
8
BLACK
6
CONTINUOUS
10
109.441
20
-131.293
11
109.431
21
-131.278
0
LINE
8
BLACK
6
CONTINUOUS
10
109.431
20
-131.278
11
109.341
21
-131.095
0
LINE
8
BLACK
6
CONTINUOUS
10
109.341
20
-131.095
11
109.334
21
-131.079
0
LINE
8
BLACK
6
CONTINUOUS
10
109.334
20
-131.079
11
109.281
21
-130.916
0
LINE
8
BLACK
6
CONTINUOUS
10
109.281
20
-130.916
11
109.278
21
-130.898
0
LINE
8
BLACK
6
CONTINUOUS
10
109.278
20
-130.898
11
109.277
21
-130.897
0
LINE
8
BLACK
6
CONTINUOUS
10
109.277
20
-130.897
11
109.277
21
-130.895
0
LINE
8
BLACK
6
CONTINUOUS
10
109.277
20
-130.895
11
109.275
21
-130.888
0
LINE
8
BLACK
6
CONTINUOUS
10
109.275
20
-130.888
11
109.275
21
-130.888
0
LINE
8
BLACK
6
CONTINUOUS
10
109.275
20
-130.888
11
109.275
21
-130.882
0
LINE
8
BLACK
6
CONTINUOUS
10
109.275
20
-130.882
11
109.274
21
-130.88
0
LINE
8
BLACK
6
CONTINUOUS
10
109.274
20
-130.88
11
109.274
21
-130.879
0
LINE
8
BLACK
6
CONTINUOUS
10
109.274
20
-130.879
11
109.271
21
-130.867
0
LINE
8
BLACK
6
CONTINUOUS
10
109.271
20
-130.867
11
109.27
21
-130.863
0
LINE
8
BLACK
6
CONTINUOUS
10
109.27
20
-130.863
11
109.269
21
-130.861
0
LINE
8
BLACK
6
CONTINUOUS
10
109.269
20
-130.861
11
109.051
21
-130.12
0
LINE
8
BLACK
6
CONTINUOUS
10
109.051
20
-130.12
11
109.051
21
-130.12
0
LINE
8
BLACK
6
CONTINUOUS
10
109.051
20
-130.12
11
109.05
21
-130.119
0
LINE
8
BLACK
6
CONTINUOUS
10
109.05
20
-130.119
11
108.794
21
-129.382
0
LINE
8
BLACK
6
CONTINUOUS
10
108.794
20
-129.382
11
108.738
21
-129.241
0
LINE
8
BLACK
6
CONTINUOUS
10
108.738
20
-129.241
11
108.504
21
-128.66
0
LINE
8
BLACK
6
CONTINUOUS
10
108.504
20
-128.66
11
108.504
21
-128.66
0
LINE
8
BLACK
6
CONTINUOUS
10
108.504
20
-128.66
11
108.503
21
-128.658
0
LINE
8
BLACK
6
CONTINUOUS
10
108.503
20
-128.658
11
108.178
21
-127.949
0
LINE
8
BLACK
6
CONTINUOUS
10
108.178
20
-127.949
11
108.177
21
-127.948
0
LINE
8
BLACK
6
CONTINUOUS
10
108.177
20
-127.948
11
108.177
21
-127.948
0
LINE
8
BLACK
6
CONTINUOUS
10
108.177
20
-127.948
11
107.82
21
-127.258
0
LINE
8
BLACK
6
CONTINUOUS
10
107.82
20
-127.258
11
107.82
21
-127.258
0
LINE
8
BLACK
6
CONTINUOUS
10
107.82
20
-127.258
11
107.819
21
-127.257
0
LINE
8
BLACK
6
CONTINUOUS
10
107.819
20
-127.257
11
107.427
21
-126.582
0
LINE
8
BLACK
6
CONTINUOUS
10
107.427
20
-126.582
11
107.003
21
-125.928
0
LINE
8
BLACK
6
CONTINUOUS
10
107.003
20
-125.928
11
107.003
21
-125.926
0
LINE
8
BLACK
6
CONTINUOUS
10
107.003
20
-125.926
11
107.003
21
-125.926
0
LINE
8
BLACK
6
CONTINUOUS
10
107.003
20
-125.926
11
106.55
21
-125.295
0
LINE
8
BLACK
6
CONTINUOUS
10
106.55
20
-125.295
11
106.55
21
-125.295
0
LINE
8
BLACK
6
CONTINUOUS
10
106.55
20
-125.295
11
106.549
21
-125.294
0
LINE
8
BLACK
6
CONTINUOUS
10
106.549
20
-125.294
11
106.328
21
-125.016
0
LINE
8
BLACK
6
CONTINUOUS
10
106.328
20
-125.016
11
106.065
21
-124.684
0
LINE
8
BLACK
6
CONTINUOUS
10
106.065
20
-124.684
11
106.065
21
-124.684
0
LINE
8
BLACK
6
CONTINUOUS
10
106.065
20
-124.684
11
106.064
21
-124.683
0
LINE
8
BLACK
6
CONTINUOUS
10
106.064
20
-124.683
11
106.063
21
-124.682
0
LINE
8
BLACK
6
CONTINUOUS
10
106.063
20
-124.682
11
106.063
21
-124.682
0
LINE
8
BLACK
6
CONTINUOUS
10
106.063
20
-124.682
11
105.651
21
-124.21
0
LINE
8
BLACK
6
CONTINUOUS
10
105.651
20
-124.21
11
105.551
21
-124.095
0
LINE
8
BLACK
6
CONTINUOUS
10
105.551
20
-124.095
11
105.01
21
-123.533
0
LINE
8
BLACK
6
CONTINUOUS
10
105.01
20
-123.533
11
104.443
21
-122.998
0
LINE
8
BLACK
6
CONTINUOUS
10
104.443
20
-122.998
11
104.025
21
-122.64
0
LINE
8
BLACK
6
CONTINUOUS
10
104.025
20
-122.64
11
103.851
21
-122.492
0
LINE
8
BLACK
6
CONTINUOUS
10
103.851
20
-122.492
11
103.851
21
-122.492
0
LINE
8
BLACK
6
CONTINUOUS
10
103.851
20
-122.492
11
103.85
21
-122.491
0
LINE
8
BLACK
6
CONTINUOUS
10
103.85
20
-122.491
11
103.234
21
-122.012
0
LINE
8
BLACK
6
CONTINUOUS
10
103.234
20
-122.012
11
102.596
21
-121.564
0
LINE
8
BLACK
6
CONTINUOUS
10
102.596
20
-121.564
11
101.937
21
-121.147
0
LINE
8
BLACK
6
CONTINUOUS
10
101.937
20
-121.147
11
101.259
21
-120.761
0
LINE
8
BLACK
6
CONTINUOUS
10
101.259
20
-120.761
11
100.563
21
-120.409
0
LINE
8
BLACK
6
CONTINUOUS
10
100.563
20
-120.409
11
99.8508
21
-120.091
0
LINE
8
BLACK
6
CONTINUOUS
10
99.8508
20
-120.091
11
99.8494
21
-120.09
0
LINE
8
BLACK
6
CONTINUOUS
10
99.8494
20
-120.09
11
99.8494
21
-120.09
0
LINE
8
BLACK
6
CONTINUOUS
10
99.8494
20
-120.09
11
99.3079
21
-119.879
0
LINE
8
BLACK
6
CONTINUOUS
10
99.3079
20
-119.879
11
99.1242
21
-119.807
0
LINE
8
BLACK
6
CONTINUOUS
10
99.1242
20
-119.807
11
99.1228
21
-119.807
0
LINE
8
BLACK
6
CONTINUOUS
10
99.1228
20
-119.807
11
99.1228
21
-119.807
0
LINE
8
BLACK
6
CONTINUOUS
10
99.1228
20
-119.807
11
98.4159
21
-119.569
0
LINE
8
BLACK
6
CONTINUOUS
10
98.4159
20
-119.569
11
98.3849
21
-119.558
0
LINE
8
BLACK
6
CONTINUOUS
10
98.3849
20
-119.558
11
97.6346
21
-119.346
0
LINE
8
BLACK
6
CONTINUOUS
10
97.6346
20
-119.346
11
96.8748
21
-119.169
0
LINE
8
BLACK
6
CONTINUOUS
10
96.8748
20
-119.169
11
96.1075
21
-119.029
0
LINE
8
BLACK
6
CONTINUOUS
10
96.1075
20
-119.029
11
96.106
21
-119.029
0
LINE
8
BLACK
6
CONTINUOUS
10
96.106
20
-119.029
11
96.106
21
-119.029
0
LINE
8
BLACK
6
CONTINUOUS
10
96.106
20
-119.029
11
95.3358
21
-118.926
0
LINE
8
BLACK
6
CONTINUOUS
10
95.3358
20
-118.926
11
95.3358
21
-118.926
0
LINE
8
BLACK
6
CONTINUOUS
10
95.3358
20
-118.926
11
95.3343
21
-118.926
0
LINE
8
BLACK
6
CONTINUOUS
10
95.3343
20
-118.926
11
95.0052
21
-118.898
0
LINE
8
BLACK
6
CONTINUOUS
10
95.0052
20
-118.898
11
94.5586
21
-118.861
0
LINE
8
BLACK
6
CONTINUOUS
10
94.5586
20
-118.861
11
94.5586
21
-118.861
0
LINE
8
BLACK
6
CONTINUOUS
10
94.5586
20
-118.861
11
94.5571
21
-118.86
0
LINE
8
BLACK
6
CONTINUOUS
10
94.5571
20
-118.86
11
94.5544
21
-118.86
0
LINE
8
BLACK
6
CONTINUOUS
10
94.5544
20
-118.86
11
93.7792
21
-118.832
0
LINE
8
BLACK
6
CONTINUOUS
10
93.7792
20
-118.832
11
93.7791
21
-118.832
0
LINE
8
BLACK
6
CONTINUOUS
10
93.7791
20
-118.832
11
93.7776
21
-118.832
0
LINE
8
BLACK
6
CONTINUOUS
10
93.7776
20
-118.832
11
93.6696
21
-118.833
0
LINE
8
BLACK
6
CONTINUOUS
10
93.6696
20
-118.833
11
92.9992
21
-118.841
0
LINE
8
BLACK
6
CONTINUOUS
10
92.9992
20
-118.841
11
92.9992
21
-118.841
0
LINE
8
BLACK
6
CONTINUOUS
10
92.9992
20
-118.841
11
92.9977
21
-118.841
0
LINE
8
BLACK
6
CONTINUOUS
10
92.9977
20
-118.841
11
92.2191
21
-118.888
0
LINE
8
BLACK
6
CONTINUOUS
10
92.2191
20
-118.888
11
92.2176
21
-118.888
0
LINE
8
BLACK
6
CONTINUOUS
10
92.2176
20
-118.888
11
92.2176
21
-118.888
0
LINE
8
BLACK
6
CONTINUOUS
10
92.2176
20
-118.888
11
91.4451
21
-118.971
0
LINE
8
BLACK
6
CONTINUOUS
10
91.4451
20
-118.971
11
91.4451
21
-118.971
0
LINE
8
BLACK
6
CONTINUOUS
10
91.4451
20
-118.971
11
91.4436
21
-118.971
0
LINE
8
BLACK
6
CONTINUOUS
10
91.4436
20
-118.971
11
90.6731
21
-119.092
0
LINE
8
BLACK
6
CONTINUOUS
10
90.6731
20
-119.092
11
89.9304
21
-119.246
0
LINE
8
BLACK
6
CONTINUOUS
10
89.9304
20
-119.246
11
89.925
21
-119.247
0
LINE
8
BLACK
6
CONTINUOUS
10
89.925
20
-119.247
11
89.9213
21
-119.247
0
LINE
8
BLACK
6
CONTINUOUS
10
89.9213
20
-119.247
11
89.9166
21
-119.248
0
LINE
8
BLACK
6
CONTINUOUS
10
89.9166
20
-119.248
11
89.9166
21
-119.248
0
LINE
8
BLACK
6
CONTINUOUS
10
89.9166
20
-119.248
11
89.9151
21
-119.248
0
LINE
8
BLACK
6
CONTINUOUS
10
89.9151
20
-119.248
11
89.9091
21
-119.25
0
LINE
8
BLACK
6
CONTINUOUS
10
89.9091
20
-119.25
11
89.9078
21
-119.25
0
LINE
8
BLACK
6
CONTINUOUS
10
89.9078
20
-119.25
11
89.9065
21
-119.25
0
LINE
8
BLACK
6
CONTINUOUS
10
89.9065
20
-119.25
11
89.8922
21
-119.256
0
LINE
8
BLACK
6
CONTINUOUS
10
89.8922
20
-119.256
11
89.8678
21
-119.263
0
LINE
8
BLACK
6
CONTINUOUS
10
89.8678
20
-119.263
11
89.8181
21
-119.271
0
LINE
8
BLACK
6
CONTINUOUS
10
89.8181
20
-119.271
11
89.6923
21
-119.293
0
LINE
8
BLACK
6
CONTINUOUS
10
89.6923
20
-119.293
11
89.6744
21
-119.295
0
LINE
8
BLACK
6
CONTINUOUS
10
89.6744
20
-119.295
11
89.5614
21
-119.299
0
LINE
8
BLACK
6
CONTINUOUS
10
89.5614
20
-119.299
11
89.4709
21
-119.301
0
LINE
8
BLACK
6
CONTINUOUS
10
89.4709
20
-119.301
11
89.453
21
-119.301
0
LINE
8
BLACK
6
CONTINUOUS
10
89.453
20
-119.301
11
89.3346
21
-119.287
0
LINE
8
BLACK
6
CONTINUOUS
10
89.3346
20
-119.287
11
89.2507
21
-119.278
0
LINE
8
BLACK
6
CONTINUOUS
10
89.2507
20
-119.278
11
89.233
21
-119.275
0
LINE
8
BLACK
6
CONTINUOUS
10
89.233
20
-119.275
11
89.036
21
-119.223
0
LINE
8
BLACK
6
CONTINUOUS
10
89.036
20
-119.223
11
89.019
21
-119.218
0
LINE
8
BLACK
6
CONTINUOUS
10
89.019
20
-119.218
11
88.8313
21
-119.139
0
LINE
8
BLACK
6
CONTINUOUS
10
88.8313
20
-119.139
11
88.8153
21
-119.131
0
LINE
8
BLACK
6
CONTINUOUS
10
88.8153
20
-119.131
11
88.6407
21
-119.026
0
LINE
8
BLACK
6
CONTINUOUS
10
88.6407
20
-119.026
11
88.626
21
-119.016
0
LINE
8
BLACK
6
CONTINUOUS
10
88.626
20
-119.016
11
88.5715
21
-118.971
0
LINE
8
BLACK
6
CONTINUOUS
10
88.5715
20
-118.971
11
88.4681
21
-118.887
0
LINE
8
BLACK
6
CONTINUOUS
10
88.4681
20
-118.887
11
88.455
21
-118.875
0
LINE
8
BLACK
6
CONTINUOUS
10
88.455
20
-118.875
11
88.3171
21
-118.725
0
LINE
8
BLACK
6
CONTINUOUS
10
88.3171
20
-118.725
11
88.3058
21
-118.711
0
LINE
8
BLACK
6
CONTINUOUS
10
88.3058
20
-118.711
11
88.1906
21
-118.543
0
LINE
8
BLACK
6
CONTINUOUS
10
88.1906
20
-118.543
11
88.1815
21
-118.528
0
LINE
8
BLACK
6
CONTINUOUS
10
88.1815
20
-118.528
11
88.0913
21
-118.345
0
LINE
8
BLACK
6
CONTINUOUS
10
88.0913
20
-118.345
11
88.0845
21
-118.329
0
LINE
8
BLACK
6
CONTINUOUS
10
88.0845
20
-118.329
11
88.0312
21
-118.166
0
LINE
8
BLACK
6
CONTINUOUS
10
88.0312
20
-118.166
11
88.0276
21
-118.148
0
LINE
8
BLACK
6
CONTINUOUS
10
88.0276
20
-118.148
11
88.0257
21
-118.14
0
LINE
8
BLACK
6
CONTINUOUS
10
88.0257
20
-118.14
11
88.0249
21
-118.132
0
LINE
8
BLACK
6
CONTINUOUS
10
88.0249
20
-118.132
11
88.0178
21
-118.114
0
LINE
8
BLACK
6
CONTINUOUS
10
88.0178
20
-118.114
11
88.0117
21
-118.093
0
LINE
8
BLACK
6
CONTINUOUS
10
88.0117
20
-118.093
11
88.0012
21
-118.043
0
LINE
8
BLACK
6
CONTINUOUS
10
88.0012
20
-118.043
11
87.1564
21
-114
0
LINE
8
BLACK
6
CONTINUOUS
10
87.1564
20
-114
11
85.0666
21
-103.999
0
LINE
8
BLACK
6
CONTINUOUS
10
85.0666
20
-103.999
11
84.5303
21
-101.432
0
LINE
8
BLACK
6
CONTINUOUS
10
84.5303
20
-101.432
11
84.5282
21
-101.418
0
LINE
8
BLACK
6
CONTINUOUS
10
84.5282
20
-101.418
11
84.5257
21
-101.39
0
LINE
8
BLACK
6
CONTINUOUS
10
84.5257
20
-101.39
11
84.5249
21
-101.382
0
LINE
8
BLACK
6
CONTINUOUS
10
84.5249
20
-101.382
11
84.5192
21
-101.367
0
LINE
8
BLACK
6
CONTINUOUS
10
84.5192
20
-101.367
11
84.5124
21
-101.343
0
LINE
8
BLACK
6
CONTINUOUS
10
84.5124
20
-101.343
11
84.4999
21
-101.272
0
LINE
8
BLACK
6
CONTINUOUS
10
84.4999
20
-101.272
11
84.4816
21
-101.167
0
LINE
8
BLACK
6
CONTINUOUS
10
84.4816
20
-101.167
11
84.4798
21
-101.149
0
LINE
8
BLACK
6
CONTINUOUS
10
84.4798
20
-101.149
11
84.4768
21
-101.053
0
LINE
8
BLACK
6
CONTINUOUS
10
84.4768
20
-101.053
11
84.4735
21
-100.946
0
LINE
8
BLACK
6
CONTINUOUS
10
84.4735
20
-100.946
11
84.4742
21
-100.928
0
LINE
8
BLACK
6
CONTINUOUS
10
84.4742
20
-100.928
11
84.497
21
-100.726
0
LINE
8
BLACK
6
CONTINUOUS
10
84.497
20
-100.726
11
84.5003
21
-100.708
0
LINE
8
BLACK
6
CONTINUOUS
10
84.5003
20
-100.708
11
84.5516
21
-100.511
0
LINE
8
BLACK
6
CONTINUOUS
10
84.5516
20
-100.511
11
84.5573
21
-100.494
0
LINE
8
BLACK
6
CONTINUOUS
10
84.5573
20
-100.494
11
84.6362
21
-100.306
0
LINE
8
BLACK
6
CONTINUOUS
10
84.6362
20
-100.306
11
84.6443
21
-100.29
0
LINE
8
BLACK
6
CONTINUOUS
10
84.6443
20
-100.29
11
84.749
21
-100.116
0
LINE
8
BLACK
6
CONTINUOUS
10
84.749
20
-100.116
11
84.7593
21
-100.101
0
LINE
8
BLACK
6
CONTINUOUS
10
84.7593
20
-100.101
11
84.8879
21
-99.9431
0
LINE
8
BLACK
6
CONTINUOUS
10
84.8879
20
-99.9431
11
84.9002
21
-99.93
0
LINE
8
BLACK
6
CONTINUOUS
10
84.9002
20
-99.93
11
85.0498
21
-99.7921
0
LINE
8
BLACK
6
CONTINUOUS
10
85.0498
20
-99.7921
11
85.0639
21
-99.7808
0
LINE
8
BLACK
6
CONTINUOUS
10
85.0639
20
-99.7808
11
85.2317
21
-99.6656
0
LINE
8
BLACK
6
CONTINUOUS
10
85.2317
20
-99.6656
11
85.2472
21
-99.6565
0
LINE
8
BLACK
6
CONTINUOUS
10
85.2472
20
-99.6565
11
85.4297
21
-99.5663
0
LINE
8
BLACK
6
CONTINUOUS
10
85.4297
20
-99.5663
11
85.4463
21
-99.5595
0
LINE
8
BLACK
6
CONTINUOUS
10
85.4463
20
-99.5595
11
85.6089
21
-99.5062
0
LINE
8
BLACK
6
CONTINUOUS
10
85.6089
20
-99.5062
11
85.6266
21
-99.5026
0
LINE
8
BLACK
6
CONTINUOUS
10
85.6266
20
-99.5026
11
85.6346
21
-99.5007
0
LINE
8
BLACK
6
CONTINUOUS
10
85.6346
20
-99.5007
11
85.6435
21
-99.4999
0
LINE
8
BLACK
6
CONTINUOUS
10
85.6435
20
-99.4999
11
85.6626
21
-99.4924
0
LINE
8
BLACK
6
CONTINUOUS
10
85.6626
20
-99.4924
11
85.6825
21
-99.4864
0
LINE
8
BLACK
6
CONTINUOUS
10
85.6825
20
-99.4864
11
109.091
21
-94.5058
0
LINE
8
BLACK
6
CONTINUOUS
10
109.091
20
-94.5058
11
109.107
21
-94.5035
0
LINE
8
BLACK
6
CONTINUOUS
10
109.107
20
-94.5035
11
109.139
21
-94.5008
0
LINE
8
BLACK
6
CONTINUOUS
10
109.139
20
-94.5008
11
109.144
21
-94.4997
0
LINE
8
BLACK
6
CONTINUOUS
10
109.144
20
-94.4997
11
109.144
21
-94.4997
0
LINE
8
BLACK
6
CONTINUOUS
10
109.144
20
-94.4997
11
109.147
21
-94.499
0
LINE
8
BLACK
6
CONTINUOUS
10
109.147
20
-94.499
11
109.147
21
-94.499
0
LINE
8
BLACK
6
CONTINUOUS
10
109.147
20
-94.499
11
109.152
21
-94.4979
0
LINE
8
BLACK
6
CONTINUOUS
10
109.152
20
-94.4979
11
109.156
21
-94.496
0
LINE
8
BLACK
6
CONTINUOUS
10
109.156
20
-94.496
11
109.161
21
-94.4946
0
LINE
8
BLACK
6
CONTINUOUS
10
109.161
20
-94.4946
11
109.913
21
-94.285
0
LINE
8
BLACK
6
CONTINUOUS
10
109.913
20
-94.285
11
109.913
21
-94.285
0
LINE
8
BLACK
6
CONTINUOUS
10
109.913
20
-94.285
11
109.914
21
-94.2846
0
LINE
8
BLACK
6
CONTINUOUS
10
109.914
20
-94.2846
11
110.295
21
-94.1593
0
LINE
8
BLACK
6
CONTINUOUS
10
110.295
20
-94.1593
11
110.664
21
-94.0378
0
LINE
8
BLACK
6
CONTINUOUS
10
110.664
20
-94.0378
11
110.664
21
-94.0378
0
LINE
8
BLACK
6
CONTINUOUS
10
110.664
20
-94.0378
11
110.666
21
-94.0373
0
LINE
8
BLACK
6
CONTINUOUS
10
110.666
20
-94.0373
11
110.667
21
-94.0368
0
LINE
8
BLACK
6
CONTINUOUS
10
110.667
20
-94.0368
11
110.667
21
-94.0368
0
LINE
8
BLACK
6
CONTINUOUS
10
110.667
20
-94.0368
11
111.404
21
-93.7564
0
LINE
8
BLACK
6
CONTINUOUS
10
111.404
20
-93.7564
11
111.406
21
-93.7559
0
LINE
8
BLACK
6
CONTINUOUS
10
111.406
20
-93.7559
11
111.407
21
-93.7553
0
LINE
8
BLACK
6
CONTINUOUS
10
111.407
20
-93.7553
11
111.407
21
-93.7553
0
LINE
8
BLACK
6
CONTINUOUS
10
111.407
20
-93.7553
11
112.13
21
-93.4415
0
LINE
8
BLACK
6
CONTINUOUS
10
112.13
20
-93.4415
11
112.132
21
-93.4409
0
LINE
8
BLACK
6
CONTINUOUS
10
112.132
20
-93.4409
11
112.843
21
-93.0931
0
LINE
8
BLACK
6
CONTINUOUS
10
112.843
20
-93.0931
11
112.908
21
-93.0572
0
LINE
8
BLACK
6
CONTINUOUS
10
112.908
20
-93.0572
11
113.343
21
-92.8193
0
LINE
8
BLACK
6
CONTINUOUS
10
113.343
20
-92.8193
11
113.537
21
-92.7131
0
LINE
8
BLACK
6
CONTINUOUS
10
113.537
20
-92.7131
11
113.538
21
-92.7123
0
LINE
8
BLACK
6
CONTINUOUS
10
113.538
20
-92.7123
11
113.538
21
-92.7123
0
LINE
8
BLACK
6
CONTINUOUS
10
113.538
20
-92.7123
11
113.983
21
-92.4415
0
LINE
8
BLACK
6
CONTINUOUS
10
113.983
20
-92.4415
11
114.213
21
-92.3017
0
LINE
8
BLACK
6
CONTINUOUS
10
114.213
20
-92.3017
11
114.87
21
-91.8598
0
LINE
8
BLACK
6
CONTINUOUS
10
114.87
20
-91.8598
11
114.871
21
-91.8589
0
LINE
8
BLACK
6
CONTINUOUS
10
114.871
20
-91.8589
11
114.871
21
-91.8589
0
LINE
8
BLACK
6
CONTINUOUS
10
114.871
20
-91.8589
11
115.505
21
-91.3892
0
LINE
8
BLACK
6
CONTINUOUS
10
115.505
20
-91.3892
11
115.505
21
-91.3892
0
LINE
8
BLACK
6
CONTINUOUS
10
115.505
20
-91.3892
11
115.506
21
-91.3883
0
LINE
8
BLACK
6
CONTINUOUS
10
115.506
20
-91.3883
11
115.507
21
-91.3874
0
LINE
8
BLACK
6
CONTINUOUS
10
115.507
20
-91.3874
11
115.507
21
-91.3874
0
LINE
8
BLACK
6
CONTINUOUS
10
115.507
20
-91.3874
11
116.118
21
-90.8892
0
LINE
8
BLACK
6
CONTINUOUS
10
116.118
20
-90.8892
11
116.118
21
-90.8892
0
LINE
8
BLACK
6
CONTINUOUS
10
116.118
20
-90.8892
11
116.119
21
-90.8883
0
LINE
8
BLACK
6
CONTINUOUS
10
116.119
20
-90.8883
11
116.12
21
-90.8873
0
LINE
8
BLACK
6
CONTINUOUS
10
116.12
20
-90.8873
11
116.708
21
-90.3616
0
LINE
8
BLACK
6
CONTINUOUS
10
116.708
20
-90.3616
11
116.708
21
-90.3616
0
LINE
8
BLACK
6
CONTINUOUS
10
116.708
20
-90.3616
11
116.709
21
-90.3607
0
LINE
8
BLACK
6
CONTINUOUS
10
116.709
20
-90.3607
11
117.275
21
-89.8066
0
LINE
8
BLACK
6
CONTINUOUS
10
117.275
20
-89.8066
11
117.814
21
-89.2273
0
LINE
8
BLACK
6
CONTINUOUS
10
117.814
20
-89.2273
11
118.326
21
-88.6239
0
LINE
8
BLACK
6
CONTINUOUS
10
118.326
20
-88.6239
11
118.579
21
-88.2968
0
LINE
8
BLACK
6
CONTINUOUS
10
118.579
20
-88.2968
11
118.809
21
-87.9989
0
LINE
8
BLACK
6
CONTINUOUS
10
118.809
20
-87.9989
11
118.809
21
-87.9989
0
LINE
8
BLACK
6
CONTINUOUS
10
118.809
20
-87.9989
11
118.81
21
-87.9978
0
LINE
8
BLACK
6
CONTINUOUS
10
118.81
20
-87.9978
11
118.859
21
-87.9289
0
LINE
8
BLACK
6
CONTINUOUS
10
118.859
20
-87.9289
11
119.264
21
-87.3513
0
LINE
8
BLACK
6
CONTINUOUS
10
119.264
20
-87.3513
11
119.265
21
-87.3501
0
LINE
8
BLACK
6
CONTINUOUS
10
119.265
20
-87.3501
11
119.488
21
-87
0
LINE
8
BLACK
6
CONTINUOUS
10
119.488
20
-87
11
119.69
21
-86.6823
0
LINE
8
BLACK
6
CONTINUOUS
10
119.69
20
-86.6823
11
120.084
21
-85.9957
0
LINE
8
BLACK
6
CONTINUOUS
10
120.084
20
-85.9957
11
120.446
21
-85.2919
0
LINE
8
BLACK
6
CONTINUOUS
10
120.446
20
-85.2919
11
120.669
21
-84.8041
0
LINE
8
BLACK
6
CONTINUOUS
10
120.669
20
-84.8041
11
120.775
21
-84.5735
0
LINE
8
BLACK
6
CONTINUOUS
10
120.775
20
-84.5735
11
120.775
21
-84.5735
0
LINE
8
BLACK
6
CONTINUOUS
10
120.775
20
-84.5735
11
120.776
21
-84.5722
0
LINE
8
BLACK
6
CONTINUOUS
10
120.776
20
-84.5722
11
120.776
21
-84.5709
0
LINE
8
BLACK
6
CONTINUOUS
10
120.776
20
-84.5709
11
120.776
21
-84.5708
0
LINE
8
BLACK
6
CONTINUOUS
10
120.776
20
-84.5708
11
121.071
21
-83.8396
0
LINE
8
BLACK
6
CONTINUOUS
10
121.071
20
-83.8396
11
121.071
21
-83.8395
0
LINE
8
BLACK
6
CONTINUOUS
10
121.071
20
-83.8395
11
121.072
21
-83.8382
0
LINE
8
BLACK
6
CONTINUOUS
10
121.072
20
-83.8382
11
121.334
21
-83.0914
0
LINE
8
BLACK
6
CONTINUOUS
10
121.334
20
-83.0914
11
121.371
21
-82.968
0
LINE
8
BLACK
6
CONTINUOUS
10
121.371
20
-82.968
11
121.41
21
-82.9085
0
LINE
8
BLACK
6
CONTINUOUS
10
121.41
20
-82.9085
11
121.475
21
-82.8794
0
LINE
8
BLACK
6
CONTINUOUS
10
121.475
20
-82.8794
11
121.545
21
-82.89
0
LINE
8
BLACK
6
CONTINUOUS
10
121.545
20
-82.89
11
121.598
21
-82.9368
0
LINE
8
BLACK
6
CONTINUOUS
10
121.598
20
-82.9368
11
121.613
21
-82.9681
0
LINE
8
BLACK
6
CONTINUOUS
10
121.613
20
-82.9681
11
121.677
21
-83.1825
0
LINE
8
BLACK
6
CONTINUOUS
10
121.677
20
-83.1825
11
121.807
21
-83.4819
0
LINE
8
BLACK
6
CONTINUOUS
10
121.807
20
-83.4819
11
121.809
21
-83.4852
0
LINE
8
BLACK
6
CONTINUOUS
10
121.809
20
-83.4852
11
121.809
21
-83.4852
0
LINE
8
BLACK
6
CONTINUOUS
10
121.809
20
-83.4852
11
121.852
21
-83.5572
0
LINE
8
BLACK
6
CONTINUOUS
10
121.852
20
-83.5572
11
121.973
21
-83.7634
0
LINE
8
BLACK
6
CONTINUOUS
10
121.973
20
-83.7634
11
121.975
21
-83.7664
0
LINE
8
BLACK
6
CONTINUOUS
10
121.975
20
-83.7664
11
122.169
21
-84.02
0
LINE
8
BLACK
6
CONTINUOUS
10
122.169
20
-84.02
11
122.169
21
-84.02
0
LINE
8
BLACK
6
CONTINUOUS
10
122.169
20
-84.02
11
122.171
21
-84.023
0
LINE
8
BLACK
6
CONTINUOUS
10
122.171
20
-84.023
11
122.399
21
-84.257
0
LINE
8
BLACK
6
CONTINUOUS
10
122.399
20
-84.257
11
122.472
21
-84.3156
0
LINE
8
BLACK
6
CONTINUOUS
10
122.472
20
-84.3156
11
122.65
21
-84.4594
0
LINE
8
BLACK
6
CONTINUOUS
10
122.65
20
-84.4594
11
122.65
21
-84.4594
0
LINE
8
BLACK
6
CONTINUOUS
10
122.65
20
-84.4594
11
122.653
21
-84.4618
0
LINE
8
BLACK
6
CONTINUOUS
10
122.653
20
-84.4618
11
122.93
21
-84.6346
0
LINE
8
BLACK
6
CONTINUOUS
10
122.93
20
-84.6346
11
123.226
21
-84.7729
0
LINE
8
BLACK
6
CONTINUOUS
10
123.226
20
-84.7729
11
123.536
21
-84.8746
0
LINE
8
BLACK
6
CONTINUOUS
10
123.536
20
-84.8746
11
123.857
21
-84.9383
0
LINE
8
BLACK
6
CONTINUOUS
10
123.857
20
-84.9383
11
123.861
21
-84.9386
0
LINE
8
BLACK
6
CONTINUOUS
10
123.861
20
-84.9386
11
123.861
21
-84.9386
0
LINE
8
BLACK
6
CONTINUOUS
10
123.861
20
-84.9386
11
124.179
21
-84.9628
0
LINE
8
BLACK
6
CONTINUOUS
10
124.179
20
-84.9628
11
124.179
21
-84.9628
0
LINE
8
BLACK
6
CONTINUOUS
10
124.179
20
-84.9628
11
124.182
21
-84.9631
0
LINE
8
BLACK
6
CONTINUOUS
10
124.182
20
-84.9631
11
124.509
21
-84.9486
0
LINE
8
BLACK
6
CONTINUOUS
10
124.509
20
-84.9486
11
124.568
21
-84.9386
0
LINE
8
BLACK
6
CONTINUOUS
10
124.568
20
-84.9386
11
124.827
21
-84.8956
0
LINE
8
BLACK
6
CONTINUOUS
10
124.827
20
-84.8956
11
124.827
21
-84.8956
0
LINE
8
BLACK
6
CONTINUOUS
10
124.827
20
-84.8956
11
124.831
21
-84.895
0
LINE
8
BLACK
6
CONTINUOUS
10
124.831
20
-84.895
11
125.144
21
-84.803
0
LINE
8
BLACK
6
CONTINUOUS
10
125.144
20
-84.803
11
125.148
21
-84.8015
0
LINE
8
BLACK
6
CONTINUOUS
10
125.148
20
-84.8015
11
125.148
21
-84.8015
0
LINE
8
BLACK
6
CONTINUOUS
10
125.148
20
-84.8015
11
125.441
21
-84.6756
0
LINE
8
BLACK
6
CONTINUOUS
10
125.441
20
-84.6756
11
125.441
21
-84.6756
0
LINE
8
BLACK
6
CONTINUOUS
10
125.441
20
-84.6756
11
125.444
21
-84.6741
0
LINE
8
BLACK
6
CONTINUOUS
10
125.444
20
-84.6741
11
125.727
21
-84.5101
0
LINE
8
BLACK
6
CONTINUOUS
10
125.727
20
-84.5101
11
125.987
21
-84.3133
0
LINE
8
BLACK
6
CONTINUOUS
10
125.987
20
-84.3133
11
126.222
21
-84.0867
0
LINE
8
BLACK
6
CONTINUOUS
10
126.222
20
-84.0867
11
126.424
21
-83.8396
0
LINE
8
BLACK
6
CONTINUOUS
10
126.424
20
-83.8396
11
126.426
21
-83.8364
0
LINE
8
BLACK
6
CONTINUOUS
10
126.426
20
-83.8364
11
126.426
21
-83.8363
0
LINE
8
BLACK
6
CONTINUOUS
10
126.426
20
-83.8363
11
126.429
21
-83.8334
0
LINE
8
BLACK
6
CONTINUOUS
10
126.429
20
-83.8334
11
126.603
21
-83.5572
0
LINE
8
BLACK
6
CONTINUOUS
10
126.603
20
-83.5572
11
126.743
21
-83.2621
0
LINE
8
BLACK
6
CONTINUOUS
10
126.743
20
-83.2621
11
126.769
21
-83.1825
0
LINE
8
BLACK
6
CONTINUOUS
10
126.769
20
-83.1825
11
126.845
21
-82.9559
0
LINE
8
BLACK
6
CONTINUOUS
10
126.845
20
-82.9559
11
126.845
21
-82.9559
0
LINE
8
BLACK
6
CONTINUOUS
10
126.845
20
-82.9559
11
126.846
21
-82.9523
0
LINE
8
BLACK
6
CONTINUOUS
10
126.846
20
-82.9523
11
126.911
21
-82.6323
0
LINE
8
BLACK
6
CONTINUOUS
10
126.911
20
-82.6323
11
126.918
21
-82.5515
0
LINE
8
BLACK
6
CONTINUOUS
10
126.918
20
-82.5515
11
126.938
21
-82.3091
0
LINE
8
BLACK
6
CONTINUOUS
10
126.938
20
-82.3091
11
126.938
21
-82.3068
0
LINE
8
BLACK
6
CONTINUOUS
10
126.938
20
-82.3068
11
126.938
21
-82.25
0
LINE
8
BLACK
6
CONTINUOUS
10
126.938
20
-82.25
11
126.938
21
-82.2348
0
LINE
8
BLACK
6
CONTINUOUS
10
126.938
20
-82.2348
11
126.937
21
-82.2216
0
LINE
8
BLACK
6
CONTINUOUS
10
126.937
20
-82.2216
11
126.919
21
-81.9278
0
LINE
8
BLACK
6
CONTINUOUS
10
126.919
20
-81.9278
11
126.919
21
-81.9278
0
LINE
8
BLACK
6
CONTINUOUS
10
126.919
20
-81.9278
11
126.919
21
-81.924
0
LINE
8
BLACK
6
CONTINUOUS
10
126.919
20
-81.924
11
126.914
21
-81.8958
0
LINE
8
BLACK
6
CONTINUOUS
10
126.914
20
-81.8958
11
126.861
21
-81.6065
0
LINE
8
BLACK
6
CONTINUOUS
10
126.861
20
-81.6065
11
126.861
21
-81.6065
0
LINE
8
BLACK
6
CONTINUOUS
10
126.861
20
-81.6065
11
126.86
21
-81.6028
0
LINE
8
BLACK
6
CONTINUOUS
10
126.86
20
-81.6028
11
126.853
21
-81.5789
0
LINE
8
BLACK
6
CONTINUOUS
10
126.853
20
-81.5789
11
126.764
21
-81.2945
0
LINE
8
BLACK
6
CONTINUOUS
10
126.764
20
-81.2945
11
126.763
21
-81.2909
0
LINE
8
BLACK
6
CONTINUOUS
10
126.763
20
-81.2909
11
126.63
21
-80.9929
0
LINE
8
BLACK
6
CONTINUOUS
10
126.63
20
-80.9929
11
126.461
21
-80.7131
0
LINE
8
BLACK
6
CONTINUOUS
10
126.461
20
-80.7131
11
126.459
21
-80.7101
0
LINE
8
BLACK
6
CONTINUOUS
10
126.459
20
-80.7101
11
126.459
21
-80.7101
0
LINE
8
BLACK
6
CONTINUOUS
10
126.459
20
-80.7101
11
126.263
21
-80.4586
0
LINE
8
BLACK
6
CONTINUOUS
10
126.263
20
-80.4586
11
126.263
21
-80.4586
0
LINE
8
BLACK
6
CONTINUOUS
10
126.263
20
-80.4586
11
126.26
21
-80.4556
0
LINE
8
BLACK
6
CONTINUOUS
10
126.26
20
-80.4556
11
126.03
21
-80.224
0
LINE
8
BLACK
6
CONTINUOUS
10
126.03
20
-80.224
11
125.774
21
-80.0219
0
LINE
8
BLACK
6
CONTINUOUS
10
125.774
20
-80.0219
11
125.495
21
-79.8519
0
LINE
8
BLACK
6
CONTINUOUS
10
125.495
20
-79.8519
11
125.491
21
-79.8504
0
LINE
8
BLACK
6
CONTINUOUS
10
125.491
20
-79.8504
11
125.491
21
-79.8504
0
LINE
8
BLACK
6
CONTINUOUS
10
125.491
20
-79.8504
11
125.381
21
-79.8001
0
LINE
8
BLACK
6
CONTINUOUS
10
125.381
20
-79.8001
11
125.197
21
-79.7168
0
LINE
8
BLACK
6
CONTINUOUS
10
125.197
20
-79.7168
11
124.886
21
-79.6183
0
LINE
8
BLACK
6
CONTINUOUS
10
124.886
20
-79.6183
11
124.668
21
-79.5774
0
LINE
8
BLACK
6
CONTINUOUS
10
124.668
20
-79.5774
11
124.569
21
-79.5586
0
LINE
8
BLACK
6
CONTINUOUS
10
124.569
20
-79.5586
11
124.569
21
-79.5586
0
LINE
8
BLACK
6
CONTINUOUS
10
124.569
20
-79.5586
11
124.565
21
-79.5579
0
LINE
8
BLACK
6
CONTINUOUS
10
124.565
20
-79.5579
11
124.239
21
-79.5366
0
LINE
8
BLACK
6
CONTINUOUS
10
124.239
20
-79.5366
11
124.235
21
-79.5368
0
LINE
8
BLACK
6
CONTINUOUS
10
124.235
20
-79.5368
11
124.235
21
-79.5368
0
LINE
8
BLACK
6
CONTINUOUS
10
124.235
20
-79.5368
11
124.138
21
-79.5422
0
LINE
8
BLACK
6
CONTINUOUS
10
124.138
20
-79.5422
11
123.913
21
-79.5545
0
LINE
8
BLACK
6
CONTINUOUS
10
123.913
20
-79.5545
11
123.909
21
-79.5552
0
LINE
8
BLACK
6
CONTINUOUS
10
123.909
20
-79.5552
11
123.909
21
-79.5552
0
LINE
8
BLACK
6
CONTINUOUS
10
123.909
20
-79.5552
11
123.752
21
-79.583
0
LINE
8
BLACK
6
CONTINUOUS
10
123.752
20
-79.583
11
123.592
21
-79.6115
0
LINE
8
BLACK
6
CONTINUOUS
10
123.592
20
-79.6115
11
123.588
21
-79.6126
0
LINE
8
BLACK
6
CONTINUOUS
10
123.588
20
-79.6126
11
123.588
21
-79.6126
0
LINE
8
BLACK
6
CONTINUOUS
10
123.588
20
-79.6126
11
123.283
21
-79.7056
0
LINE
8
BLACK
6
CONTINUOUS
10
123.283
20
-79.7056
11
123.279
21
-79.7067
0
LINE
8
BLACK
6
CONTINUOUS
10
123.279
20
-79.7067
11
122.98
21
-79.8388
0
LINE
8
BLACK
6
CONTINUOUS
10
122.98
20
-79.8388
11
122.955
21
-79.8539
0
LINE
8
BLACK
6
CONTINUOUS
10
122.955
20
-79.8539
11
122.703
21
-80.0038
0
LINE
8
BLACK
6
CONTINUOUS
10
122.703
20
-80.0038
11
122.703
21
-80.0038
0
LINE
8
BLACK
6
CONTINUOUS
10
122.703
20
-80.0038
11
122.7
21
-80.0058
0
LINE
8
BLACK
6
CONTINUOUS
10
122.7
20
-80.0058
11
122.441
21
-80.2052
0
LINE
8
BLACK
6
CONTINUOUS
10
122.441
20
-80.2052
11
122.209
21
-80.4343
0
LINE
8
BLACK
6
CONTINUOUS
10
122.209
20
-80.4343
11
122.206
21
-80.4374
0
LINE
8
BLACK
6
CONTINUOUS
10
122.206
20
-80.4374
11
122.206
21
-80.4374
0
LINE
8
BLACK
6
CONTINUOUS
10
122.206
20
-80.4374
11
122.204
21
-80.4401
0
LINE
8
BLACK
6
CONTINUOUS
10
122.204
20
-80.4401
11
122.203
21
-80.4396
0
LINE
8
BLACK
6
CONTINUOUS
10
122.203
20
-80.4396
11
122.148
21
-80.4782
0
LINE
8
BLACK
6
CONTINUOUS
10
122.148
20
-80.4782
11
122.077
21
-80.4811
0
LINE
8
BLACK
6
CONTINUOUS
10
122.077
20
-80.4811
11
122.016
21
-80.4452
0
LINE
8
BLACK
6
CONTINUOUS
10
122.016
20
-80.4452
11
121.984
21
-80.3819
0
LINE
8
BLACK
6
CONTINUOUS
10
121.984
20
-80.3819
11
121.983
21
-80.3394
0
LINE
8
BLACK
6
CONTINUOUS
10
121.983
20
-80.3394
11
122.035
21
-80.0095
0
LINE
8
BLACK
6
CONTINUOUS
10
122.035
20
-80.0095
11
122.035
21
-80.0081
0
LINE
8
BLACK
6
CONTINUOUS
10
122.035
20
-80.0081
11
122.121
21
-79.2213
0
LINE
8
BLACK
6
CONTINUOUS
10
122.121
20
-79.2213
11
122.171
21
-78.4314
0
LINE
8
BLACK
6
CONTINUOUS
10
122.171
20
-78.4314
11
122.185
21
-77.64
0
LINE
8
BLACK
6
CONTINUOUS
10
122.185
20
-77.64
11
122.163
21
-76.8721
0
LINE
8
BLACK
6
CONTINUOUS
10
122.163
20
-76.8721
11
122.163
21
-76.8654
0
LINE
8
BLACK
6
CONTINUOUS
10
122.163
20
-76.8654
11
122.164
21
-76.8613
0
LINE
8
BLACK
6
CONTINUOUS
10
122.164
20
-76.8613
11
122.163
21
-76.8487
0
LINE
8
BLACK
6
CONTINUOUS
10
122.163
20
-76.8487
11
122.156
21
-76.8133
0
LINE
8
BLACK
6
CONTINUOUS
10
122.156
20
-76.8133
11
122.154
21
-76.7987
0
LINE
8
BLACK
6
CONTINUOUS
10
122.154
20
-76.7987
11
122.131
21
-76.5
0
LINE
8
BLACK
6
CONTINUOUS
10
122.131
20
-76.5
11
121.285
21
-65.4952
0
LINE
8
BLACK
6
CONTINUOUS
10
121.285
20
-65.4952
11
121.284
21
-65.4818
0
LINE
8
BLACK
6
CONTINUOUS
10
121.284
20
-65.4818
11
121.285
21
-65.4515
0
LINE
8
BLACK
6
CONTINUOUS
10
121.285
20
-65.4515
11
121.285
21
-65.4515
0
LINE
8
BLACK
6
CONTINUOUS
10
121.285
20
-65.4515
11
121.286
21
-65.4425
0
LINE
8
BLACK
6
CONTINUOUS
10
121.286
20
-65.4425
11
121.282
21
-65.4276
0
LINE
8
BLACK
6
CONTINUOUS
10
121.282
20
-65.4276
11
121.278
21
-65.4026
0
LINE
8
BLACK
6
CONTINUOUS
10
121.278
20
-65.4026
11
121.269
21
-65.2312
0
LINE
8
BLACK
6
CONTINUOUS
10
121.269
20
-65.2312
11
121.269
21
-65.2132
0
LINE
8
BLACK
6
CONTINUOUS
10
121.269
20
-65.2132
11
121.27
21
-65.2042
0
LINE
8
BLACK
6
CONTINUOUS
10
121.27
20
-65.2042
11
121.287
21
-65.017
0
LINE
8
BLACK
6
CONTINUOUS
10
121.287
20
-65.017
11
121.29
21
-64.9993
0
LINE
8
BLACK
6
CONTINUOUS
10
121.29
20
-64.9993
11
121.335
21
-64.8076
0
LINE
8
BLACK
6
CONTINUOUS
10
121.335
20
-64.8076
11
121.34
21
-64.7904
0
LINE
8
BLACK
6
CONTINUOUS
10
121.34
20
-64.7904
11
121.343
21
-64.7834
0
LINE
8
BLACK
6
CONTINUOUS
10
121.343
20
-64.7834
11
121.413
21
-64.6072
0
LINE
8
BLACK
6
CONTINUOUS
10
121.413
20
-64.6072
11
121.42
21
-64.5909
0
LINE
8
BLACK
6
CONTINUOUS
10
121.42
20
-64.5909
11
121.518
21
-64.4198
0
LINE
8
BLACK
6
CONTINUOUS
10
121.518
20
-64.4198
11
121.528
21
-64.4049
0
LINE
8
BLACK
6
CONTINUOUS
10
121.528
20
-64.4049
11
121.649
21
-64.2494
0
LINE
8
BLACK
6
CONTINUOUS
10
121.649
20
-64.2494
11
121.661
21
-64.236
0
LINE
8
BLACK
6
CONTINUOUS
10
121.661
20
-64.236
11
121.803
21
-64.0993
0
LINE
8
BLACK
6
CONTINUOUS
10
121.803
20
-64.0993
11
121.817
21
-64.0878
0
LINE
8
BLACK
6
CONTINUOUS
10
121.817
20
-64.0878
11
121.976
21
-63.9726
0
LINE
8
BLACK
6
CONTINUOUS
10
121.976
20
-63.9726
11
121.992
21
-63.9632
0
LINE
8
BLACK
6
CONTINUOUS
10
121.992
20
-63.9632
11
122.101
21
-63.9059
0
LINE
8
BLACK
6
CONTINUOUS
10
122.101
20
-63.9059
11
122.166
21
-63.872
0
LINE
8
BLACK
6
CONTINUOUS
10
122.166
20
-63.872
11
122.183
21
-63.8648
0
LINE
8
BLACK
6
CONTINUOUS
10
122.183
20
-63.8648
11
122.369
21
-63.7994
0
LINE
8
BLACK
6
CONTINUOUS
10
122.369
20
-63.7994
11
122.386
21
-63.7946
0
LINE
8
BLACK
6
CONTINUOUS
10
122.386
20
-63.7946
11
122.547
21
-63.7626
0
LINE
8
BLACK
6
CONTINUOUS
10
122.547
20
-63.7626
11
122.565
21
-63.7612
0
LINE
8
BLACK
6
CONTINUOUS
10
122.565
20
-63.7612
11
122.574
21
-63.7602
0
LINE
8
BLACK
6
CONTINUOUS
10
122.574
20
-63.7602
11
122.582
21
-63.7605
0
LINE
8
BLACK
6
CONTINUOUS
10
122.582
20
-63.7605
11
122.591
21
-63.7582
0
LINE
8
BLACK
6
CONTINUOUS
10
122.591
20
-63.7582
11
122.597
21
-63.7576
0
LINE
8
BLACK
6
CONTINUOUS
10
122.597
20
-63.7576
11
122.615
21
-63.7548
0
LINE
8
BLACK
6
CONTINUOUS
10
122.615
20
-63.7548
11
138.472
21
-63.0104
0
LINE
8
BLACK
6
CONTINUOUS
10
138.472
20
-63.0104
11
138.492
21
-63.0111
0
LINE
8
BLACK
6
CONTINUOUS
10
138.492
20
-63.0111
11
138.509
21
-63.013
0
LINE
8
BLACK
6
CONTINUOUS
10
138.509
20
-63.013
11
138.509
21
-63.013
0
LINE
8
BLACK
6
CONTINUOUS
10
138.509
20
-63.013
11
138.513
21
-63.0136
0
LINE
8
BLACK
6
CONTINUOUS
10
138.513
20
-63.0136
11
138.519
21
-63.0133
0
LINE
8
BLACK
6
CONTINUOUS
10
138.519
20
-63.0133
11
138.521
21
-63.0133
0
LINE
8
BLACK
6
CONTINUOUS
10
138.521
20
-63.0133
11
138.521
21
-63.0133
0
LINE
8
BLACK
6
CONTINUOUS
10
138.521
20
-63.0133
11
138.526
21
-63.0131
0
LINE
8
BLACK
6
CONTINUOUS
10
138.526
20
-63.0131
11
138.531
21
-63.0121
0
LINE
8
BLACK
6
CONTINUOUS
10
138.531
20
-63.0121
11
138.533
21
-63.0119
0
LINE
8
BLACK
6
CONTINUOUS
10
138.533
20
-63.0119
11
138.542
21
-63.0106
0
LINE
8
BLACK
6
CONTINUOUS
10
138.542
20
-63.0106
11
138.906
21
-62.9761
0
LINE
8
BLACK
6
CONTINUOUS
10
138.906
20
-62.9761
11
138.906
21
-62.9761
0
LINE
8
BLACK
6
CONTINUOUS
10
138.906
20
-62.9761
11
138.909
21
-62.9758
0
LINE
8
BLACK
6
CONTINUOUS
10
138.909
20
-62.9758
11
139.209
21
-62.9207
0
LINE
8
BLACK
6
CONTINUOUS
10
139.209
20
-62.9207
11
139.285
21
-62.9068
0
LINE
8
BLACK
6
CONTINUOUS
10
139.285
20
-62.9068
11
139.285
21
-62.9068
0
LINE
8
BLACK
6
CONTINUOUS
10
139.285
20
-62.9068
11
139.288
21
-62.9063
0
LINE
8
BLACK
6
CONTINUOUS
10
139.288
20
-62.9063
11
139.418
21
-62.8703
0
LINE
8
BLACK
6
CONTINUOUS
10
139.418
20
-62.8703
11
139.656
21
-62.8047
0
LINE
8
BLACK
6
CONTINUOUS
10
139.656
20
-62.8047
11
139.656
21
-62.8047
0
LINE
8
BLACK
6
CONTINUOUS
10
139.656
20
-62.8047
11
139.659
21
-62.8039
0
LINE
8
BLACK
6
CONTINUOUS
10
139.659
20
-62.8039
11
139.828
21
-62.741
0
LINE
8
BLACK
6
CONTINUOUS
10
139.828
20
-62.741
11
140.017
21
-62.6706
0
LINE
8
BLACK
6
CONTINUOUS
10
140.017
20
-62.6706
11
140.017
21
-62.6706
0
LINE
8
BLACK
6
CONTINUOUS
10
140.017
20
-62.6706
11
140.019
21
-62.6696
0
LINE
8
BLACK
6
CONTINUOUS
10
140.019
20
-62.6696
11
140.022
21
-62.6684
0
LINE
8
BLACK
6
CONTINUOUS
10
140.022
20
-62.6684
11
140.022
21
-62.6684
0
LINE
8
BLACK
6
CONTINUOUS
10
140.022
20
-62.6684
11
140.364
21
-62.5055
0
LINE
8
BLACK
6
CONTINUOUS
10
140.364
20
-62.5055
11
140.364
21
-62.5055
0
LINE
8
BLACK
6
CONTINUOUS
10
140.364
20
-62.5055
11
140.367
21
-62.5043
0
LINE
8
BLACK
6
CONTINUOUS
10
140.367
20
-62.5043
11
140.369
21
-62.5029
0
LINE
8
BLACK
6
CONTINUOUS
10
140.369
20
-62.5029
11
140.369
21
-62.5029
0
LINE
8
BLACK
6
CONTINUOUS
10
140.369
20
-62.5029
11
140.447
21
-62.4574
0
LINE
8
BLACK
6
CONTINUOUS
10
140.447
20
-62.4574
11
140.516
21
-62.4401
0
LINE
8
BLACK
6
CONTINUOUS
10
140.516
20
-62.4401
11
140.583
21
-62.4628
0
LINE
8
BLACK
6
CONTINUOUS
10
140.583
20
-62.4628
11
140.627
21
-62.5182
0
LINE
8
BLACK
6
CONTINUOUS
10
140.627
20
-62.5182
11
140.634
21
-62.5899
0
LINE
8
BLACK
6
CONTINUOUS
10
140.634
20
-62.5899
11
140.585
21
-62.8421
0
LINE
8
BLACK
6
CONTINUOUS
10
140.585
20
-62.8421
11
140.585
21
-62.8421
0
LINE
8
BLACK
6
CONTINUOUS
10
140.585
20
-62.8421
11
140.585
21
-62.8458
0
LINE
8
BLACK
6
CONTINUOUS
10
140.585
20
-62.8458
11
140.584
21
-62.8496
0
LINE
8
BLACK
6
CONTINUOUS
10
140.584
20
-62.8496
11
140.584
21
-62.8496
0
LINE
8
BLACK
6
CONTINUOUS
10
140.584
20
-62.8496
11
140.571
21
-63.0382
0
LINE
8
BLACK
6
CONTINUOUS
10
140.571
20
-63.0382
11
140.562
21
-63.1716
0
LINE
8
BLACK
6
CONTINUOUS
10
140.562
20
-63.1716
11
140.565
21
-63.2415
0
LINE
8
BLACK
6
CONTINUOUS
10
140.565
20
-63.2415
11
140.577
21
-63.4889
0
LINE
8
BLACK
6
CONTINUOUS
10
140.577
20
-63.4889
11
140.578
21
-63.4978
0
LINE
8
BLACK
6
CONTINUOUS
10
140.578
20
-63.4978
11
140.579
21
-63.5015
0
LINE
8
BLACK
6
CONTINUOUS
10
140.579
20
-63.5015
11
140.579
21
-63.5015
0
LINE
8
BLACK
6
CONTINUOUS
10
140.579
20
-63.5015
11
140.63
21
-63.7994
0
LINE
8
BLACK
6
CONTINUOUS
10
140.63
20
-63.7994
11
140.633
21
-63.8196
0
LINE
8
BLACK
6
CONTINUOUS
10
140.633
20
-63.8196
11
140.634
21
-63.8233
0
LINE
8
BLACK
6
CONTINUOUS
10
140.634
20
-63.8233
11
140.634
21
-63.8233
0
LINE
8
BLACK
6
CONTINUOUS
10
140.634
20
-63.8233
11
140.722
21
-64.1148
0
LINE
8
BLACK
6
CONTINUOUS
10
140.722
20
-64.1148
11
140.727
21
-64.1325
0
LINE
8
BLACK
6
CONTINUOUS
10
140.727
20
-64.1325
11
140.728
21
-64.136
0
LINE
8
BLACK
6
CONTINUOUS
10
140.728
20
-64.136
11
140.728
21
-64.136
0
LINE
8
BLACK
6
CONTINUOUS
10
140.728
20
-64.136
11
140.788
21
-64.2737
0
LINE
8
BLACK
6
CONTINUOUS
10
140.788
20
-64.2737
11
140.857
21
-64.4319
0
LINE
8
BLACK
6
CONTINUOUS
10
140.857
20
-64.4319
11
140.859
21
-64.4352
0
LINE
8
BLACK
6
CONTINUOUS
10
140.859
20
-64.4352
11
140.859
21
-64.4352
0
LINE
8
BLACK
6
CONTINUOUS
10
140.859
20
-64.4352
11
140.902
21
-64.5072
0
LINE
8
BLACK
6
CONTINUOUS
10
140.902
20
-64.5072
11
141.023
21
-64.7134
0
LINE
8
BLACK
6
CONTINUOUS
10
141.023
20
-64.7134
11
141.025
21
-64.7164
0
LINE
8
BLACK
6
CONTINUOUS
10
141.025
20
-64.7164
11
141.219
21
-64.97
0
LINE
8
BLACK
6
CONTINUOUS
10
141.219
20
-64.97
11
141.219
21
-64.97
0
LINE
8
BLACK
6
CONTINUOUS
10
141.219
20
-64.97
11
141.221
21
-64.973
0
LINE
8
BLACK
6
CONTINUOUS
10
141.221
20
-64.973
11
141.449
21
-65.207
0
LINE
8
BLACK
6
CONTINUOUS
10
141.449
20
-65.207
11
141.522
21
-65.2656
0
LINE
8
BLACK
6
CONTINUOUS
10
141.522
20
-65.2656
11
141.7
21
-65.4094
0
LINE
8
BLACK
6
CONTINUOUS
10
141.7
20
-65.4094
11
141.7
21
-65.4094
0
LINE
8
BLACK
6
CONTINUOUS
10
141.7
20
-65.4094
11
141.703
21
-65.4118
0
LINE
8
BLACK
6
CONTINUOUS
10
141.703
20
-65.4118
11
141.98
21
-65.5846
0
LINE
8
BLACK
6
CONTINUOUS
10
141.98
20
-65.5846
11
142.276
21
-65.7229
0
LINE
8
BLACK
6
CONTINUOUS
10
142.276
20
-65.7229
11
142.28
21
-65.7241
0
LINE
8
BLACK
6
CONTINUOUS
10
142.28
20
-65.7241
11
142.486
21
-65.7916
0
LINE
8
BLACK
6
CONTINUOUS
10
142.486
20
-65.7916
11
142.586
21
-65.8246
0
LINE
8
BLACK
6
CONTINUOUS
10
142.586
20
-65.8246
11
142.907
21
-65.8883
0
LINE
8
BLACK
6
CONTINUOUS
10
142.907
20
-65.8883
11
142.911
21
-65.8886
0
LINE
8
BLACK
6
CONTINUOUS
10
142.911
20
-65.8886
11
142.911
21
-65.8886
0
LINE
8
BLACK
6
CONTINUOUS
10
142.911
20
-65.8886
11
143.229
21
-65.9128
0
LINE
8
BLACK
6
CONTINUOUS
10
143.229
20
-65.9128
11
143.229
21
-65.9128
0
LINE
8
BLACK
6
CONTINUOUS
10
143.229
20
-65.9128
11
143.232
21
-65.9131
0
LINE
8
BLACK
6
CONTINUOUS
10
143.232
20
-65.9131
11
143.559
21
-65.8986
0
LINE
8
BLACK
6
CONTINUOUS
10
143.559
20
-65.8986
11
143.618
21
-65.8886
0
LINE
8
BLACK
6
CONTINUOUS
10
143.618
20
-65.8886
11
143.877
21
-65.8456
0
LINE
8
BLACK
6
CONTINUOUS
10
143.877
20
-65.8456
11
143.877
21
-65.8456
0
LINE
8
BLACK
6
CONTINUOUS
10
143.877
20
-65.8456
11
143.881
21
-65.845
0
LINE
8
BLACK
6
CONTINUOUS
10
143.881
20
-65.845
11
144.194
21
-65.753
0
LINE
8
BLACK
6
CONTINUOUS
10
144.194
20
-65.753
11
144.198
21
-65.7515
0
LINE
8
BLACK
6
CONTINUOUS
10
144.198
20
-65.7515
11
144.198
21
-65.7515
0
LINE
8
BLACK
6
CONTINUOUS
10
144.198
20
-65.7515
11
144.491
21
-65.6256
0
LINE
8
BLACK
6
CONTINUOUS
10
144.491
20
-65.6256
11
144.491
21
-65.6256
0
LINE
8
BLACK
6
CONTINUOUS
10
144.491
20
-65.6256
11
144.494
21
-65.6241
0
LINE
8
BLACK
6
CONTINUOUS
10
144.494
20
-65.6241
11
144.777
21
-65.4601
0
LINE
8
BLACK
6
CONTINUOUS
10
144.777
20
-65.4601
11
145.037
21
-65.2633
0
LINE
8
BLACK
6
CONTINUOUS
10
145.037
20
-65.2633
11
145.272
21
-65.0367
0
LINE
8
BLACK
6
CONTINUOUS
10
145.272
20
-65.0367
11
145.417
21
-64.8589
0
LINE
8
BLACK
6
CONTINUOUS
10
145.417
20
-64.8589
11
145.476
21
-64.7864
0
LINE
8
BLACK
6
CONTINUOUS
10
145.476
20
-64.7864
11
145.476
21
-64.7863
0
LINE
8
BLACK
6
CONTINUOUS
10
145.476
20
-64.7863
11
145.479
21
-64.7834
0
LINE
8
BLACK
6
CONTINUOUS
10
145.479
20
-64.7834
11
145.583
21
-64.6174
0
LINE
8
BLACK
6
CONTINUOUS
10
145.583
20
-64.6174
11
145.651
21
-64.5104
0
LINE
8
BLACK
6
CONTINUOUS
10
145.651
20
-64.5104
11
145.651
21
-64.5104
0
LINE
8
BLACK
6
CONTINUOUS
10
145.651
20
-64.5104
11
145.653
21
-64.5072
0
LINE
8
BLACK
6
CONTINUOUS
10
145.653
20
-64.5072
11
145.793
21
-64.2121
0
LINE
8
BLACK
6
CONTINUOUS
10
145.793
20
-64.2121
11
145.794
21
-64.2085
0
LINE
8
BLACK
6
CONTINUOUS
10
145.794
20
-64.2085
11
145.895
21
-63.9059
0
LINE
8
BLACK
6
CONTINUOUS
10
145.895
20
-63.9059
11
145.895
21
-63.9059
0
LINE
8
BLACK
6
CONTINUOUS
10
145.895
20
-63.9059
11
145.896
21
-63.9023
0
LINE
8
BLACK
6
CONTINUOUS
10
145.896
20
-63.9023
11
145.961
21
-63.5823
0
LINE
8
BLACK
6
CONTINUOUS
10
145.961
20
-63.5823
11
145.966
21
-63.5248
0
LINE
8
BLACK
6
CONTINUOUS
10
145.966
20
-63.5248
11
145.988
21
-63.2591
0
LINE
8
BLACK
6
CONTINUOUS
10
145.988
20
-63.2591
11
145.988
21
-63.2568
0
LINE
8
BLACK
6
CONTINUOUS
10
145.988
20
-63.2568
11
145.988
21
-63.2
0
LINE
8
BLACK
6
CONTINUOUS
10
145.988
20
-63.2
11
145.987
21
-63.174
0
LINE
8
BLACK
6
CONTINUOUS
10
145.987
20
-63.174
11
145.969
21
-62.8778
0
LINE
8
BLACK
6
CONTINUOUS
10
145.969
20
-62.8778
11
145.969
21
-62.8778
0
LINE
8
BLACK
6
CONTINUOUS
10
145.969
20
-62.8778
11
145.969
21
-62.874
0
LINE
8
BLACK
6
CONTINUOUS
10
145.969
20
-62.874
11
145.964
21
-62.8458
0
LINE
8
BLACK
6
CONTINUOUS
10
145.964
20
-62.8458
11
145.911
21
-62.5565
0
LINE
8
BLACK
6
CONTINUOUS
10
145.911
20
-62.5565
11
145.911
21
-62.5565
0
LINE
8
BLACK
6
CONTINUOUS
10
145.911
20
-62.5565
11
145.91
21
-62.5528
0
LINE
8
BLACK
6
CONTINUOUS
10
145.91
20
-62.5528
11
145.901
21
-62.5231
0
LINE
8
BLACK
6
CONTINUOUS
10
145.901
20
-62.5231
11
145.82
21
-62.2636
0
LINE
8
BLACK
6
CONTINUOUS
10
145.82
20
-62.2636
11
145.813
21
-62.2409
0
LINE
8
BLACK
6
CONTINUOUS
10
145.813
20
-62.2409
11
145.68
21
-61.9429
0
LINE
8
BLACK
6
CONTINUOUS
10
145.68
20
-61.9429
11
145.511
21
-61.6631
0
LINE
8
BLACK
6
CONTINUOUS
10
145.511
20
-61.6631
11
145.509
21
-61.6601
0
LINE
8
BLACK
6
CONTINUOUS
10
145.509
20
-61.6601
11
145.509
21
-61.6601
0
LINE
8
BLACK
6
CONTINUOUS
10
145.509
20
-61.6601
11
145.313
21
-61.4086
0
LINE
8
BLACK
6
CONTINUOUS
10
145.313
20
-61.4086
11
145.313
21
-61.4086
0
LINE
8
BLACK
6
CONTINUOUS
10
145.313
20
-61.4086
11
145.31
21
-61.4056
0
LINE
8
BLACK
6
CONTINUOUS
10
145.31
20
-61.4056
11
145.08
21
-61.174
0
LINE
8
BLACK
6
CONTINUOUS
10
145.08
20
-61.174
11
144.824
21
-60.9719
0
LINE
8
BLACK
6
CONTINUOUS
10
144.824
20
-60.9719
11
144.545
21
-60.8019
0
LINE
8
BLACK
6
CONTINUOUS
10
144.545
20
-60.8019
11
144.541
21
-60.8004
0
LINE
8
BLACK
6
CONTINUOUS
10
144.541
20
-60.8004
11
144.541
21
-60.8004
0
LINE
8
BLACK
6
CONTINUOUS
10
144.541
20
-60.8004
11
144.431
21
-60.7501
0
LINE
8
BLACK
6
CONTINUOUS
10
144.431
20
-60.7501
11
144.247
21
-60.6668
0
LINE
8
BLACK
6
CONTINUOUS
10
144.247
20
-60.6668
11
143.936
21
-60.5683
0
LINE
8
BLACK
6
CONTINUOUS
10
143.936
20
-60.5683
11
143.718
21
-60.5274
0
LINE
8
BLACK
6
CONTINUOUS
10
143.718
20
-60.5274
11
143.619
21
-60.5086
0
LINE
8
BLACK
6
CONTINUOUS
10
143.619
20
-60.5086
11
143.619
21
-60.5086
0
LINE
8
BLACK
6
CONTINUOUS
10
143.619
20
-60.5086
11
143.615
21
-60.5079
0
LINE
8
BLACK
6
CONTINUOUS
10
143.615
20
-60.5079
11
143.289
21
-60.4866
0
LINE
8
BLACK
6
CONTINUOUS
10
143.289
20
-60.4866
11
143.285
21
-60.4868
0
LINE
8
BLACK
6
CONTINUOUS
10
143.285
20
-60.4868
11
143.285
21
-60.4868
0
LINE
8
BLACK
6
CONTINUOUS
10
143.285
20
-60.4868
11
143.188
21
-60.4922
0
LINE
8
BLACK
6
CONTINUOUS
10
143.188
20
-60.4922
11
142.963
21
-60.5045
0
LINE
8
BLACK
6
CONTINUOUS
10
142.963
20
-60.5045
11
142.959
21
-60.5052
0
LINE
8
BLACK
6
CONTINUOUS
10
142.959
20
-60.5052
11
142.959
21
-60.5052
0
LINE
8
BLACK
6
CONTINUOUS
10
142.959
20
-60.5052
11
142.802
21
-60.533
0
LINE
8
BLACK
6
CONTINUOUS
10
142.802
20
-60.533
11
142.642
21
-60.5615
0
LINE
8
BLACK
6
CONTINUOUS
10
142.642
20
-60.5615
11
142.638
21
-60.5626
0
LINE
8
BLACK
6
CONTINUOUS
10
142.638
20
-60.5626
11
142.638
21
-60.5626
0
LINE
8
BLACK
6
CONTINUOUS
10
142.638
20
-60.5626
11
142.455
21
-60.6184
0
LINE
8
BLACK
6
CONTINUOUS
10
142.455
20
-60.6184
11
142.384
21
-60.6191
0
LINE
8
BLACK
6
CONTINUOUS
10
142.384
20
-60.6191
11
142.324
21
-60.5813
0
LINE
8
BLACK
6
CONTINUOUS
10
142.324
20
-60.5813
11
142.294
21
-60.5171
0
LINE
8
BLACK
6
CONTINUOUS
10
142.294
20
-60.5171
11
142.304
21
-60.4456
0
LINE
8
BLACK
6
CONTINUOUS
10
142.304
20
-60.4456
11
142.386
21
-60.2651
0
LINE
8
BLACK
6
CONTINUOUS
10
142.386
20
-60.2651
11
142.386
21
-60.2651
0
LINE
8
BLACK
6
CONTINUOUS
10
142.386
20
-60.2651
11
142.387
21
-60.2626
0
LINE
8
BLACK
6
CONTINUOUS
10
142.387
20
-60.2626
11
142.495
21
-59.9572
0
LINE
8
BLACK
6
CONTINUOUS
10
142.495
20
-59.9572
11
142.496
21
-59.9576
0
LINE
8
BLACK
6
CONTINUOUS
10
142.496
20
-59.9576
11
142.496
21
-59.9554
0
LINE
8
BLACK
6
CONTINUOUS
10
142.496
20
-59.9554
11
142.496
21
-59.9551
0
LINE
8
BLACK
6
CONTINUOUS
10
142.496
20
-59.9551
11
142.505
21
-59.9297
0
LINE
8
BLACK
6
CONTINUOUS
10
142.505
20
-59.9297
11
142.509
21
-59.9197
0
LINE
8
BLACK
6
CONTINUOUS
10
142.509
20
-59.9197
11
142.51
21
-59.9163
0
LINE
8
BLACK
6
CONTINUOUS
10
142.51
20
-59.9163
11
142.513
21
-59.912
0
LINE
8
BLACK
6
CONTINUOUS
10
142.513
20
-59.912
11
142.516
21
-59.9
0
LINE
8
BLACK
6
CONTINUOUS
10
142.516
20
-59.9
11
142.522
21
-59.8651
0
LINE
8
BLACK
6
CONTINUOUS
10
142.522
20
-59.8651
11
142.525
21
-59.8506
0
LINE
8
BLACK
6
CONTINUOUS
10
142.525
20
-59.8506
11
142.532
21
-59.8251
0
LINE
8
BLACK
6
CONTINUOUS
10
142.532
20
-59.8251
11
142.534
21
-59.8165
0
LINE
8
BLACK
6
CONTINUOUS
10
142.534
20
-59.8165
11
142.534
21
-59.8001
0
LINE
8
BLACK
6
CONTINUOUS
10
142.534
20
-59.8001
11
142.536
21
-59.7756
0
LINE
8
BLACK
6
CONTINUOUS
10
142.536
20
-59.7756
11
142.541
21
-59.7476
0
LINE
8
BLACK
6
CONTINUOUS
10
142.541
20
-59.7476
11
142.571
21
-59.5897
0
LINE
8
BLACK
6
CONTINUOUS
10
142.571
20
-59.5897
11
142.575
21
-59.5736
0
LINE
8
BLACK
6
CONTINUOUS
10
142.575
20
-59.5736
11
142.642
21
-59.3689
0
LINE
8
BLACK
6
CONTINUOUS
10
142.642
20
-59.3689
11
142.648
21
-59.3535
0
LINE
8
BLACK
6
CONTINUOUS
10
142.648
20
-59.3535
11
142.741
21
-59.1594
0
LINE
8
BLACK
6
CONTINUOUS
10
142.741
20
-59.1594
11
142.749
21
-59.1449
0
LINE
8
BLACK
6
CONTINUOUS
10
142.749
20
-59.1449
11
142.753
21
-59.1389
0
LINE
8
BLACK
6
CONTINUOUS
10
142.753
20
-59.1389
11
142.788
21
-59.0862
0
LINE
8
BLACK
6
CONTINUOUS
10
142.788
20
-59.0862
11
142.867
21
-58.9648
0
LINE
8
BLACK
6
CONTINUOUS
10
142.867
20
-58.9648
11
142.877
21
-58.9516
0
LINE
8
BLACK
6
CONTINUOUS
10
142.877
20
-58.9516
11
143.018
21
-58.7885
0
LINE
8
BLACK
6
CONTINUOUS
10
143.018
20
-58.7885
11
143.03
21
-58.7767
0
LINE
8
BLACK
6
CONTINUOUS
10
143.03
20
-58.7767
11
143.191
21
-58.6337
0
LINE
8
BLACK
6
CONTINUOUS
10
143.191
20
-58.6337
11
143.204
21
-58.6235
0
LINE
8
BLACK
6
CONTINUOUS
10
143.204
20
-58.6235
11
143.213
21
-58.6174
0
LINE
8
BLACK
6
CONTINUOUS
10
143.213
20
-58.6174
11
143.382
21
-58.5028
0
LINE
8
BLACK
6
CONTINUOUS
10
143.382
20
-58.5028
11
143.396
21
-58.4945
0
LINE
8
BLACK
6
CONTINUOUS
10
143.396
20
-58.4945
11
143.589
21
-58.3984
0
LINE
8
BLACK
6
CONTINUOUS
10
143.589
20
-58.3984
11
143.605
21
-58.392
0
LINE
8
BLACK
6
CONTINUOUS
10
143.605
20
-58.392
11
143.808
21
-58.3222
0
LINE
8
BLACK
6
CONTINUOUS
10
143.808
20
-58.3222
11
143.824
21
-58.3178
0
LINE
8
BLACK
6
CONTINUOUS
10
143.824
20
-58.3178
11
144.035
21
-58.2754
0
LINE
8
BLACK
6
CONTINUOUS
10
144.035
20
-58.2754
11
144.052
21
-58.2732
0
LINE
8
BLACK
6
CONTINUOUS
10
144.052
20
-58.2732
11
144.233
21
-58.2612
0
LINE
8
BLACK
6
CONTINUOUS
10
144.233
20
-58.2612
11
144.256
21
-58.2623
0
LINE
8
BLACK
6
CONTINUOUS
10
144.256
20
-58.2623
11
144.26
21
-58.2623
0
LINE
8
BLACK
6
CONTINUOUS
10
144.26
20
-58.2623
11
144.269
21
-58.2637
0
LINE
8
BLACK
6
CONTINUOUS
10
144.269
20
-58.2637
11
144.3
21
-58.2596
0
LINE
8
BLACK
6
CONTINUOUS
10
144.3
20
-58.2596
11
144.317
21
-58.2585
0
LINE
8
BLACK
6
CONTINUOUS
10
144.317
20
-58.2585
11
162.226
21
-58.2585
0
LINE
8
BLACK
6
CONTINUOUS
10
162.226
20
-58.2585
11
162.245
21
-58.26
0
LINE
8
BLACK
6
CONTINUOUS
10
162.245
20
-58.26
11
162.26
21
-58.2623
0
LINE
8
BLACK
6
CONTINUOUS
10
162.26
20
-58.2623
11
162.26
21
-58.2623
0
LINE
8
BLACK
6
CONTINUOUS
10
162.26
20
-58.2623
11
162.269
21
-58.2637
0
LINE
8
BLACK
6
CONTINUOUS
10
162.269
20
-58.2637
11
162.284
21
-58.2617
0
LINE
8
BLACK
6
CONTINUOUS
10
162.284
20
-58.2617
11
162.309
21
-58.261
0
LINE
8
BLACK
6
CONTINUOUS
10
162.309
20
-58.261
11
162.478
21
-58.273
0
LINE
8
BLACK
6
CONTINUOUS
10
162.478
20
-58.273
11
162.496
21
-58.2756
0
LINE
8
BLACK
6
CONTINUOUS
10
162.496
20
-58.2756
11
162.686
21
-58.317
0
LINE
8
BLACK
6
CONTINUOUS
10
162.686
20
-58.317
11
162.704
21
-58.3221
0
LINE
8
BLACK
6
CONTINUOUS
10
162.704
20
-58.3221
11
162.886
21
-58.3901
0
LINE
8
BLACK
6
CONTINUOUS
10
162.886
20
-58.3901
11
162.903
21
-58.3976
0
LINE
8
BLACK
6
CONTINUOUS
10
162.903
20
-58.3976
11
163.073
21
-58.491
0
LINE
8
BLACK
6
CONTINUOUS
10
163.073
20
-58.491
11
163.089
21
-58.5007
0
LINE
8
BLACK
6
CONTINUOUS
10
163.089
20
-58.5007
11
163.245
21
-58.6174
0
LINE
8
BLACK
6
CONTINUOUS
10
163.245
20
-58.6174
11
163.258
21
-58.6292
0
LINE
8
BLACK
6
CONTINUOUS
10
163.258
20
-58.6292
11
163.396
21
-58.7669
0
LINE
8
BLACK
6
CONTINUOUS
10
163.396
20
-58.7669
11
163.408
21
-58.7805
0
LINE
8
BLACK
6
CONTINUOUS
10
163.408
20
-58.7805
11
163.524
21
-58.9364
0
LINE
8
BLACK
6
CONTINUOUS
10
163.524
20
-58.9364
11
163.534
21
-58.9515
0
LINE
8
BLACK
6
CONTINUOUS
10
163.534
20
-58.9515
11
163.627
21
-59.1225
0
LINE
8
BLACK
6
CONTINUOUS
10
163.627
20
-59.1225
11
163.635
21
-59.1389
0
LINE
8
BLACK
6
CONTINUOUS
10
163.635
20
-59.1389
11
163.703
21
-59.3214
0
LINE
8
BLACK
6
CONTINUOUS
10
163.703
20
-59.3214
11
163.708
21
-59.3386
0
LINE
8
BLACK
6
CONTINUOUS
10
163.708
20
-59.3386
11
163.749
21
-59.5289
0
LINE
8
BLACK
6
CONTINUOUS
10
163.749
20
-59.5289
11
163.752
21
-59.5467
0
LINE
8
BLACK
6
CONTINUOUS
10
163.752
20
-59.5467
11
163.763
21
-59.705
0
LINE
8
BLACK
6
CONTINUOUS
10
163.763
20
-59.705
11
163.762
21
-59.7278
0
LINE
8
BLACK
6
CONTINUOUS
10
163.762
20
-59.7278
11
163.763
21
-59.7278
0
LINE
8
BLACK
6
CONTINUOUS
10
163.763
20
-59.7278
11
163.762
21
-59.7327
0
LINE
8
BLACK
6
CONTINUOUS
10
163.762
20
-59.7327
11
163.761
21
-59.7375
0
LINE
8
BLACK
6
CONTINUOUS
10
163.761
20
-59.7375
11
163.761
21
-59.7435
0
LINE
8
BLACK
6
CONTINUOUS
10
163.761
20
-59.7435
11
163.761
21
-59.7437
0
LINE
8
BLACK
6
CONTINUOUS
10
163.761
20
-59.7437
11
163.761
21
-59.744
0
LINE
8
BLACK
6
CONTINUOUS
10
163.761
20
-59.744
11
163.761
21
-59.75
0
LINE
8
BLACK
6
CONTINUOUS
10
163.761
20
-59.75
11
163.762
21
-59.7548
0
LINE
8
BLACK
6
CONTINUOUS
10
163.762
20
-59.7548
11
163.762
21
-59.7573
0
LINE
8
BLACK
6
CONTINUOUS
10
163.762
20
-59.7573
11
163.763
21
-59.7629
0
LINE
8
BLACK
6
CONTINUOUS
10
163.763
20
-59.7629
11
163.772
21
-59.9197
0
LINE
8
BLACK
6
CONTINUOUS
10
163.772
20
-59.9197
11
163.774
21
-59.9572
0
LINE
8
BLACK
6
CONTINUOUS
10
163.774
20
-59.9572
11
163.78
21
-60.0529
0
LINE
8
BLACK
6
CONTINUOUS
10
163.78
20
-60.0529
11
163.835
21
-60.3514
0
LINE
8
BLACK
6
CONTINUOUS
10
163.835
20
-60.3514
11
163.925
21
-60.6412
0
LINE
8
BLACK
6
CONTINUOUS
10
163.925
20
-60.6412
11
163.927
21
-60.6446
0
LINE
8
BLACK
6
CONTINUOUS
10
163.927
20
-60.6446
11
163.927
21
-60.6446
0
LINE
8
BLACK
6
CONTINUOUS
10
163.927
20
-60.6446
11
163.964
21
-60.7267
0
LINE
8
BLACK
6
CONTINUOUS
10
163.964
20
-60.7267
11
164.05
21
-60.9179
0
LINE
8
BLACK
6
CONTINUOUS
10
164.05
20
-60.9179
11
164.207
21
-61.1776
0
LINE
8
BLACK
6
CONTINUOUS
10
164.207
20
-61.1776
11
164.209
21
-61.1806
0
LINE
8
BLACK
6
CONTINUOUS
10
164.209
20
-61.1806
11
164.209
21
-61.1806
0
LINE
8
BLACK
6
CONTINUOUS
10
164.209
20
-61.1806
11
164.253
21
-61.2363
0
LINE
8
BLACK
6
CONTINUOUS
10
164.253
20
-61.2363
11
164.394
21
-61.4165
0
LINE
8
BLACK
6
CONTINUOUS
10
164.394
20
-61.4165
11
164.609
21
-61.6311
0
LINE
8
BLACK
6
CONTINUOUS
10
164.609
20
-61.6311
11
164.847
21
-61.8182
0
LINE
8
BLACK
6
CONTINUOUS
10
164.847
20
-61.8182
11
165.025
21
-61.9255
0
LINE
8
BLACK
6
CONTINUOUS
10
165.025
20
-61.9255
11
165.104
21
-61.9733
0
LINE
8
BLACK
6
CONTINUOUS
10
165.104
20
-61.9733
11
165.104
21
-61.9733
0
LINE
8
BLACK
6
CONTINUOUS
10
165.104
20
-61.9733
11
165.107
21
-61.9752
0
LINE
8
BLACK
6
CONTINUOUS
10
165.107
20
-61.9752
11
165.148
21
-61.9937
0
LINE
8
BLACK
6
CONTINUOUS
10
165.148
20
-61.9937
11
165.38
21
-62.0982
0
LINE
8
BLACK
6
CONTINUOUS
10
165.38
20
-62.0982
11
165.38
21
-62.0982
0
LINE
8
BLACK
6
CONTINUOUS
10
165.38
20
-62.0982
11
165.384
21
-62.0998
0
LINE
8
BLACK
6
CONTINUOUS
10
165.384
20
-62.0998
11
165.674
21
-62.1901
0
LINE
8
BLACK
6
CONTINUOUS
10
165.674
20
-62.1901
11
165.972
21
-62.2448
0
LINE
8
BLACK
6
CONTINUOUS
10
165.972
20
-62.2448
11
165.976
21
-62.245
0
LINE
8
BLACK
6
CONTINUOUS
10
165.976
20
-62.245
11
165.976
21
-62.245
0
LINE
8
BLACK
6
CONTINUOUS
10
165.976
20
-62.245
11
166.108
21
-62.253
0
LINE
8
BLACK
6
CONTINUOUS
10
166.108
20
-62.253
11
166.244
21
-62.2612
0
LINE
8
BLACK
6
CONTINUOUS
10
166.244
20
-62.2612
11
166.257
21
-62.2627
0
LINE
8
BLACK
6
CONTINUOUS
10
166.257
20
-62.2627
11
166.262
21
-62.2636
0
LINE
8
BLACK
6
CONTINUOUS
10
166.262
20
-62.2636
11
166.269
21
-62.2637
0
LINE
8
BLACK
6
CONTINUOUS
10
166.269
20
-62.2637
11
166.27
21
-62.2637
0
LINE
8
BLACK
6
CONTINUOUS
10
166.27
20
-62.2637
11
166.27
21
-62.2637
0
LINE
8
BLACK
6
CONTINUOUS
10
166.27
20
-62.2637
11
166.275
21
-62.2637
0
LINE
8
BLACK
6
CONTINUOUS
10
166.275
20
-62.2637
11
166.303
21
-62.2598
0
LINE
8
BLACK
6
CONTINUOUS
10
166.303
20
-62.2598
11
166.32
21
-62.2585
0
LINE
8
BLACK
6
CONTINUOUS
10
166.32
20
-62.2585
11
180.226
21
-62.2585
0
LINE
8
BLACK
6
CONTINUOUS
10
180.226
20
-62.2585
11
180.245
21
-62.26
0
LINE
8
BLACK
6
CONTINUOUS
10
180.245
20
-62.26
11
180.26
21
-62.2623
0
LINE
8
BLACK
6
CONTINUOUS
10
180.26
20
-62.2623
11
180.26
21
-62.2623
0
LINE
8
BLACK
6
CONTINUOUS
10
180.26
20
-62.2623
11
180.269
21
-62.2637
0
LINE
8
BLACK
6
CONTINUOUS
10
180.269
20
-62.2637
11
180.283
21
-62.2618
0
LINE
8
BLACK
6
CONTINUOUS
10
180.283
20
-62.2618
11
180.309
21
-62.2611
0
LINE
8
BLACK
6
CONTINUOUS
10
180.309
20
-62.2611
11
180.376
21
-62.2661
0
LINE
8
BLACK
6
CONTINUOUS
10
180.376
20
-62.2661
11
180.489
21
-62.2746
0
LINE
8
BLACK
6
CONTINUOUS
10
180.489
20
-62.2746
11
180.507
21
-62.2774
0
LINE
8
BLACK
6
CONTINUOUS
10
180.507
20
-62.2774
11
180.707
21
-62.3232
0
LINE
8
BLACK
6
CONTINUOUS
10
180.707
20
-62.3232
11
180.725
21
-62.3288
0
LINE
8
BLACK
6
CONTINUOUS
10
180.725
20
-62.3288
11
180.916
21
-62.404
0
LINE
8
BLACK
6
CONTINUOUS
10
180.916
20
-62.404
11
180.933
21
-62.4122
0
LINE
8
BLACK
6
CONTINUOUS
10
180.933
20
-62.4122
11
181.11
21
-62.515
0
LINE
8
BLACK
6
CONTINUOUS
10
181.11
20
-62.515
11
181.126
21
-62.5257
0
LINE
8
BLACK
6
CONTINUOUS
10
181.126
20
-62.5257
11
181.286
21
-62.654
0
LINE
8
BLACK
6
CONTINUOUS
10
181.286
20
-62.654
11
181.299
21
-62.6669
0
LINE
8
BLACK
6
CONTINUOUS
10
181.299
20
-62.6669
11
181.438
21
-62.8175
0
LINE
8
BLACK
6
CONTINUOUS
10
181.438
20
-62.8175
11
181.45
21
-62.8324
0
LINE
8
BLACK
6
CONTINUOUS
10
181.45
20
-62.8324
11
181.547
21
-62.9758
0
LINE
8
BLACK
6
CONTINUOUS
10
181.547
20
-62.9758
11
181.555
21
-62.9909
0
LINE
8
BLACK
6
CONTINUOUS
10
181.555
20
-62.9909
11
181.555
21
-62.9909
0
LINE
8
BLACK
6
CONTINUOUS
10
181.555
20
-62.9909
11
181.559
21
-62.9976
0
LINE
8
BLACK
6
CONTINUOUS
10
181.559
20
-62.9976
11
181.56
21
-62.9997
0
LINE
8
BLACK
6
CONTINUOUS
10
181.56
20
-62.9997
11
181.562
21
-63.0071
0
LINE
8
BLACK
6
CONTINUOUS
10
181.562
20
-63.0071
11
181.565
21
-63.0101
0
LINE
8
BLACK
6
CONTINUOUS
10
181.565
20
-63.0101
11
181.566
21
-63.0136
0
LINE
8
BLACK
6
CONTINUOUS
10
181.566
20
-63.0136
11
181.572
21
-63.0244
0
LINE
8
BLACK
6
CONTINUOUS
10
181.572
20
-63.0244
11
181.577
21
-63.0297
0
LINE
8
BLACK
6
CONTINUOUS
10
181.577
20
-63.0297
11
181.583
21
-63.0382
0
LINE
8
BLACK
6
CONTINUOUS
10
181.583
20
-63.0382
11
181.735
21
-63.2591
0
LINE
8
BLACK
6
CONTINUOUS
10
181.735
20
-63.2591
11
181.739
21
-63.2654
0
LINE
8
BLACK
6
CONTINUOUS
10
181.739
20
-63.2654
11
181.932
21
-63.4865
0
LINE
8
BLACK
6
CONTINUOUS
10
181.932
20
-63.4865
11
181.935
21
-63.4889
0
LINE
8
BLACK
6
CONTINUOUS
10
181.935
20
-63.4889
11
181.935
21
-63.4889
0
LINE
8
BLACK
6
CONTINUOUS
10
181.935
20
-63.4889
11
182.146
21
-63.6818
0
LINE
8
BLACK
6
CONTINUOUS
10
182.146
20
-63.6818
11
182.149
21
-63.6843
0
LINE
8
BLACK
6
CONTINUOUS
10
182.149
20
-63.6843
11
182.151
21
-63.6864
0
LINE
8
BLACK
6
CONTINUOUS
10
182.151
20
-63.6864
11
182.151
21
-63.6864
0
LINE
8
BLACK
6
CONTINUOUS
10
182.151
20
-63.6864
11
182.383
21
-63.8541
0
LINE
8
BLACK
6
CONTINUOUS
10
182.383
20
-63.8541
11
182.383
21
-63.8541
0
LINE
8
BLACK
6
CONTINUOUS
10
182.383
20
-63.8541
11
182.386
21
-63.8562
0
LINE
8
BLACK
6
CONTINUOUS
10
182.386
20
-63.8562
11
182.389
21
-63.8579
0
LINE
8
BLACK
6
CONTINUOUS
10
182.389
20
-63.8579
11
182.389
21
-63.8579
0
LINE
8
BLACK
6
CONTINUOUS
10
182.389
20
-63.8579
11
182.407
21
-63.8678
0
LINE
8
BLACK
6
CONTINUOUS
10
182.407
20
-63.8678
11
182.642
21
-64
0
LINE
8
BLACK
6
CONTINUOUS
10
182.642
20
-64
11
182.645
21
-64.0014
0
LINE
8
BLACK
6
CONTINUOUS
10
182.645
20
-64.0014
11
182.645
21
-64.0014
0
LINE
8
BLACK
6
CONTINUOUS
10
182.645
20
-64.0014
11
182.877
21
-64.0993
0
LINE
8
BLACK
6
CONTINUOUS
10
182.877
20
-64.0993
11
182.912
21
-64.1138
0
LINE
8
BLACK
6
CONTINUOUS
10
182.912
20
-64.1138
11
183.193
21
-64.1962
0
LINE
8
BLACK
6
CONTINUOUS
10
183.193
20
-64.1962
11
183.482
21
-64.246
0
LINE
8
BLACK
6
CONTINUOUS
10
183.482
20
-64.246
11
183.741
21
-64.2608
0
LINE
8
BLACK
6
CONTINUOUS
10
183.741
20
-64.2608
11
183.755
21
-64.2623
0
LINE
8
BLACK
6
CONTINUOUS
10
183.755
20
-64.2623
11
183.762
21
-64.2636
0
LINE
8
BLACK
6
CONTINUOUS
10
183.762
20
-64.2636
11
183.769
21
-64.2637
0
LINE
8
BLACK
6
CONTINUOUS
10
183.769
20
-64.2637
11
183.77
21
-64.2637
0
LINE
8
BLACK
6
CONTINUOUS
10
183.77
20
-64.2637
11
183.77
21
-64.2637
0
LINE
8
BLACK
6
CONTINUOUS
10
183.77
20
-64.2637
11
183.775
21
-64.2637
0
LINE
8
BLACK
6
CONTINUOUS
10
183.775
20
-64.2637
11
183.803
21
-64.2598
0
LINE
8
BLACK
6
CONTINUOUS
10
183.803
20
-64.2598
11
183.82
21
-64.2585
0
LINE
8
BLACK
6
CONTINUOUS
10
183.82
20
-64.2585
11
198.226
21
-64.2585
0
LINE
8
BLACK
6
CONTINUOUS
10
198.226
20
-64.2585
11
198.245
21
-64.26
0
LINE
8
BLACK
6
CONTINUOUS
10
198.245
20
-64.26
11
198.26
21
-64.2623
0
LINE
8
BLACK
6
CONTINUOUS
10
198.26
20
-64.2623
11
198.26
21
-64.2623
0
LINE
8
BLACK
6
CONTINUOUS
10
198.26
20
-64.2623
11
198.269
21
-64.2637
0
LINE
8
BLACK
6
CONTINUOUS
10
198.269
20
-64.2637
11
198.284
21
-64.2617
0
LINE
8
BLACK
6
CONTINUOUS
10
198.284
20
-64.2617
11
198.309
21
-64.261
0
LINE
8
BLACK
6
CONTINUOUS
10
198.309
20
-64.261
11
198.478
21
-64.273
0
LINE
8
BLACK
6
CONTINUOUS
10
198.478
20
-64.273
11
198.496
21
-64.2756
0
LINE
8
BLACK
6
CONTINUOUS
10
198.496
20
-64.2756
11
198.686
21
-64.317
0
LINE
8
BLACK
6
CONTINUOUS
10
198.686
20
-64.317
11
198.704
21
-64.3221
0
LINE
8
BLACK
6
CONTINUOUS
10
198.704
20
-64.3221
11
198.886
21
-64.3901
0
LINE
8
BLACK
6
CONTINUOUS
10
198.886
20
-64.3901
11
198.903
21
-64.3976
0
LINE
8
BLACK
6
CONTINUOUS
10
198.903
20
-64.3976
11
199.073
21
-64.491
0
LINE
8
BLACK
6
CONTINUOUS
10
199.073
20
-64.491
11
199.089
21
-64.5007
0
LINE
8
BLACK
6
CONTINUOUS
10
199.089
20
-64.5007
11
199.245
21
-64.6174
0
LINE
8
BLACK
6
CONTINUOUS
10
199.245
20
-64.6174
11
199.258
21
-64.6292
0
LINE
8
BLACK
6
CONTINUOUS
10
199.258
20
-64.6292
11
199.396
21
-64.7669
0
LINE
8
BLACK
6
CONTINUOUS
10
199.396
20
-64.7669
11
199.408
21
-64.7805
0
LINE
8
BLACK
6
CONTINUOUS
10
199.408
20
-64.7805
11
199.524
21
-64.9364
0
LINE
8
BLACK
6
CONTINUOUS
10
199.524
20
-64.9364
11
199.534
21
-64.9515
0
LINE
8
BLACK
6
CONTINUOUS
10
199.534
20
-64.9515
11
199.57
21
-65.017
0
LINE
8
BLACK
6
CONTINUOUS
10
199.57
20
-65.017
11
199.627
21
-65.1225
0
LINE
8
BLACK
6
CONTINUOUS
10
199.627
20
-65.1225
11
199.635
21
-65.1389
0
LINE
8
BLACK
6
CONTINUOUS
10
199.635
20
-65.1389
11
199.703
21
-65.3214
0
LINE
8
BLACK
6
CONTINUOUS
10
199.703
20
-65.3214
11
199.708
21
-65.3386
0
LINE
8
BLACK
6
CONTINUOUS
10
199.708
20
-65.3386
11
199.749
21
-65.5289
0
LINE
8
BLACK
6
CONTINUOUS
10
199.749
20
-65.5289
11
199.752
21
-65.5467
0
LINE
8
BLACK
6
CONTINUOUS
10
199.752
20
-65.5467
11
199.764
21
-65.7086
0
LINE
8
BLACK
6
CONTINUOUS
10
199.764
20
-65.7086
11
199.763
21
-65.7266
0
LINE
8
BLACK
6
CONTINUOUS
10
199.763
20
-65.7266
11
199.763
21
-65.7349
0
LINE
8
BLACK
6
CONTINUOUS
10
199.763
20
-65.7349
11
199.761
21
-65.7437
0
LINE
8
BLACK
6
CONTINUOUS
10
199.761
20
-65.7437
11
199.762
21
-65.7526
0
LINE
8
BLACK
6
CONTINUOUS
10
199.762
20
-65.7526
11
199.762
21
-65.7526
0
LINE
8
BLACK
6
CONTINUOUS
10
199.762
20
-65.7526
11
199.765
21
-65.7753
0
LINE
8
BLACK
6
CONTINUOUS
10
199.765
20
-65.7753
11
199.766
21
-65.7916
0
LINE
8
BLACK
6
CONTINUOUS
10
199.766
20
-65.7916
11
199.766
21
-112.697
0
LINE
8
BLACK
6
CONTINUOUS
10
199.766
20
-112.697
11
199.765
21
-112.718
0
LINE
8
BLACK
6
CONTINUOUS
10
199.765
20
-112.718
11
199.761
21
-112.737
0
LINE
8
BLACK
6
CONTINUOUS
10
199.761
20
-112.737
11
199.761
21
-112.75
0
LINE
8
BLACK
6
CONTINUOUS
10
199.761
20
-112.75
11
199.762
21
-112.755
0
LINE
8
BLACK
6
CONTINUOUS
10
199.762
20
-112.755
11
199.762
21
-112.757
0
LINE
8
BLACK
6
CONTINUOUS
10
199.762
20
-112.757
11
199.763
21
-112.763
0
LINE
8
BLACK
6
CONTINUOUS
10
199.763
20
-112.763
11
199.78
21
-113.053
0
LINE
8
BLACK
6
CONTINUOUS
10
199.78
20
-113.053
11
199.835
21
-113.351
0
LINE
8
BLACK
6
CONTINUOUS
10
199.835
20
-113.351
11
199.925
21
-113.641
0
LINE
8
BLACK
6
CONTINUOUS
10
199.925
20
-113.641
11
199.927
21
-113.645
0
LINE
8
BLACK
6
CONTINUOUS
10
199.927
20
-113.645
11
199.927
21
-113.645
0
LINE
8
BLACK
6
CONTINUOUS
10
199.927
20
-113.645
11
199.947
21
-113.689
0
LINE
8
BLACK
6
CONTINUOUS
10
199.947
20
-113.689
11
200.05
21
-113.918
0
LINE
8
BLACK
6
CONTINUOUS
10
200.05
20
-113.918
11
200.207
21
-114.178
0
LINE
8
BLACK
6
CONTINUOUS
10
200.207
20
-114.178
11
200.209
21
-114.181
0
LINE
8
BLACK
6
CONTINUOUS
10
200.209
20
-114.181
11
200.209
21
-114.181
0
LINE
8
BLACK
6
CONTINUOUS
10
200.209
20
-114.181
11
200.253
21
-114.236
0
LINE
8
BLACK
6
CONTINUOUS
10
200.253
20
-114.236
11
200.394
21
-114.416
0
LINE
8
BLACK
6
CONTINUOUS
10
200.394
20
-114.416
11
200.609
21
-114.631
0
LINE
8
BLACK
6
CONTINUOUS
10
200.609
20
-114.631
11
200.847
21
-114.818
0
LINE
8
BLACK
6
CONTINUOUS
10
200.847
20
-114.818
11
200.931
21
-114.869
0
LINE
8
BLACK
6
CONTINUOUS
10
200.931
20
-114.869
11
201.104
21
-114.973
0
LINE
8
BLACK
6
CONTINUOUS
10
201.104
20
-114.973
11
201.104
21
-114.973
0
LINE
8
BLACK
6
CONTINUOUS
10
201.104
20
-114.973
11
201.107
21
-114.975
0
LINE
8
BLACK
6
CONTINUOUS
10
201.107
20
-114.975
11
201.245
21
-115.038
0
LINE
8
BLACK
6
CONTINUOUS
10
201.245
20
-115.038
11
201.38
21
-115.098
0
LINE
8
BLACK
6
CONTINUOUS
10
201.38
20
-115.098
11
201.38
21
-115.098
0
LINE
8
BLACK
6
CONTINUOUS
10
201.38
20
-115.098
11
201.384
21
-115.1
0
LINE
8
BLACK
6
CONTINUOUS
10
201.384
20
-115.1
11
201.674
21
-115.19
0
LINE
8
BLACK
6
CONTINUOUS
10
201.674
20
-115.19
11
201.972
21
-115.245
0
LINE
8
BLACK
6
CONTINUOUS
10
201.972
20
-115.245
11
201.976
21
-115.245
0
LINE
8
BLACK
6
CONTINUOUS
10
201.976
20
-115.245
11
201.976
21
-115.245
0
LINE
8
BLACK
6
CONTINUOUS
10
201.976
20
-115.245
11
202.108
21
-115.253
0
LINE
8
BLACK
6
CONTINUOUS
10
202.108
20
-115.253
11
202.244
21
-115.261
0
LINE
8
BLACK
6
CONTINUOUS
10
202.244
20
-115.261
11
202.257
21
-115.263
0
LINE
8
BLACK
6
CONTINUOUS
10
202.257
20
-115.263
11
202.262
21
-115.264
0
LINE
8
BLACK
6
CONTINUOUS
10
202.262
20
-115.264
11
202.269
21
-115.264
0
LINE
8
BLACK
6
CONTINUOUS
10
202.269
20
-115.264
11
202.27
21
-115.264
0
LINE
8
BLACK
6
CONTINUOUS
10
202.27
20
-115.264
11
202.27
21
-115.264
0
LINE
8
BLACK
6
CONTINUOUS
10
202.27
20
-115.264
11
202.275
21
-115.264
0
LINE
8
BLACK
6
CONTINUOUS
10
202.275
20
-115.264
11
202.303
21
-115.26
0
LINE
8
BLACK
6
CONTINUOUS
10
202.303
20
-115.26
11
202.32
21
-115.259
0
LINE
8
BLACK
6
CONTINUOUS
10
202.32
20
-115.259
11
207.226
21
-115.259
0
LINE
8
BLACK
6
CONTINUOUS
10
207.226
20
-115.259
11
207.245
21
-115.26
0
LINE
8
BLACK
6
CONTINUOUS
10
207.245
20
-115.26
11
207.26
21
-115.262
0
LINE
8
BLACK
6
CONTINUOUS
10
207.26
20
-115.262
11
207.26
21
-115.262
0
LINE
8
BLACK
6
CONTINUOUS
10
207.26
20
-115.262
11
207.269
21
-115.264
0
LINE
8
BLACK
6
CONTINUOUS
10
207.269
20
-115.264
11
207.284
21
-115.262
0
LINE
8
BLACK
6
CONTINUOUS
10
207.284
20
-115.262
11
207.309
21
-115.261
0
LINE
8
BLACK
6
CONTINUOUS
10
207.309
20
-115.261
11
207.478
21
-115.273
0
LINE
8
BLACK
6
CONTINUOUS
10
207.478
20
-115.273
11
207.496
21
-115.276
0
LINE
8
BLACK
6
CONTINUOUS
10
207.496
20
-115.276
11
207.686
21
-115.317
0
LINE
8
BLACK
6
CONTINUOUS
10
207.686
20
-115.317
11
207.704
21
-115.322
0
LINE
8
BLACK
6
CONTINUOUS
10
207.704
20
-115.322
11
207.886
21
-115.39
0
LINE
8
BLACK
6
CONTINUOUS
10
207.886
20
-115.39
11
207.903
21
-115.398
0
LINE
8
BLACK
6
CONTINUOUS
10
207.903
20
-115.398
11
208.073
21
-115.491
0
LINE
8
BLACK
6
CONTINUOUS
10
208.073
20
-115.491
11
208.089
21
-115.501
0
LINE
8
BLACK
6
CONTINUOUS
10
208.089
20
-115.501
11
208.245
21
-115.617
0
LINE
8
BLACK
6
CONTINUOUS
10
208.245
20
-115.617
11
208.258
21
-115.629
0
LINE
8
BLACK
6
CONTINUOUS
10
208.258
20
-115.629
11
208.396
21
-115.767
0
LINE
8
BLACK
6
CONTINUOUS
10
208.396
20
-115.767
11
208.408
21
-115.78
0
LINE
8
BLACK
6
CONTINUOUS
10
208.408
20
-115.78
11
208.522
21
-115.934
0
LINE
8
BLACK
6
CONTINUOUS
10
208.522
20
-115.934
11
208.524
21
-115.936
0
LINE
8
BLACK
6
CONTINUOUS
10
208.524
20
-115.936
11
208.534
21
-115.952
0
LINE
8
BLACK
6
CONTINUOUS
10
208.534
20
-115.952
11
208.627
21
-116.122
0
LINE
8
BLACK
6
CONTINUOUS
10
208.627
20
-116.122
11
208.635
21
-116.139
0
LINE
8
BLACK
6
CONTINUOUS
10
208.635
20
-116.139
11
208.703
21
-116.321
0
LINE
8
BLACK
6
CONTINUOUS
10
208.703
20
-116.321
11
208.708
21
-116.339
0
LINE
8
BLACK
6
CONTINUOUS
10
208.708
20
-116.339
11
208.749
21
-116.529
0
LINE
8
BLACK
6
CONTINUOUS
10
208.749
20
-116.529
11
208.752
21
-116.547
0
LINE
8
BLACK
6
CONTINUOUS
10
208.752
20
-116.547
11
208.764
21
-116.709
0
LINE
8
BLACK
6
CONTINUOUS
10
208.764
20
-116.709
11
208.763
21
-116.727
0
LINE
8
BLACK
6
CONTINUOUS
10
208.763
20
-116.727
11
208.763
21
-116.735
0
LINE
8
BLACK
6
CONTINUOUS
10
208.763
20
-116.735
11
208.761
21
-116.744
0
LINE
8
BLACK
6
CONTINUOUS
10
208.761
20
-116.744
11
208.762
21
-116.753
0
LINE
8
BLACK
6
CONTINUOUS
10
208.762
20
-116.753
11
208.762
21
-116.753
0
LINE
8
BLACK
6
CONTINUOUS
10
208.762
20
-116.753
11
208.765
21
-116.775
0
LINE
8
BLACK
6
CONTINUOUS
10
208.765
20
-116.775
11
208.766
21
-116.792
0
LINE
8
BLACK
6
CONTINUOUS
10
208.766
20
-116.792
11
208.766
21
-133.701
0
LINE
8
BLACK
6
CONTINUOUS
10
208.766
20
-133.701
11
208.765
21
-133.72
0
LINE
8
BLACK
6
CONTINUOUS
10
208.765
20
-133.72
11
208.763
21
-133.735
0
LINE
8
BLACK
6
CONTINUOUS
10
208.763
20
-133.735
11
208.763
21
-133.735
0
LINE
8
BLACK
6
CONTINUOUS
10
208.763
20
-133.735
11
208.761
21
-133.744
0
LINE
8
BLACK
6
CONTINUOUS
10
208.761
20
-133.744
11
208.763
21
-133.759
0
LINE
8
BLACK
6
CONTINUOUS
10
208.763
20
-133.759
11
208.764
21
-133.784
0
LINE
8
BLACK
6
CONTINUOUS
10
208.764
20
-133.784
11
208.752
21
-133.953
0
LINE
8
BLACK
6
CONTINUOUS
10
208.752
20
-133.953
11
208.749
21
-133.971
0
LINE
8
BLACK
6
CONTINUOUS
10
208.749
20
-133.971
11
208.708
21
-134.161
0
LINE
8
BLACK
6
CONTINUOUS
10
208.708
20
-134.161
11
208.703
21
-134.179
0
LINE
8
BLACK
6
CONTINUOUS
10
208.703
20
-134.179
11
208.638
21
-134.351
0
LINE
8
BLACK
6
CONTINUOUS
10
208.638
20
-134.351
11
208.635
21
-134.361
0
LINE
8
BLACK
6
CONTINUOUS
10
208.635
20
-134.361
11
208.627
21
-134.378
0
LINE
8
BLACK
6
CONTINUOUS
10
208.627
20
-134.378
11
208.534
21
-134.548
0
LINE
8
BLACK
6
CONTINUOUS
10
208.534
20
-134.548
11
208.524
21
-134.564
0
LINE
8
BLACK
6
CONTINUOUS
10
208.524
20
-134.564
11
208.408
21
-134.72
0
LINE
8
BLACK
6
CONTINUOUS
10
208.408
20
-134.72
11
208.396
21
-134.733
0
LINE
8
BLACK
6
CONTINUOUS
10
208.396
20
-134.733
11
208.258
21
-134.871
0
LINE
8
BLACK
6
CONTINUOUS
10
208.258
20
-134.871
11
208.245
21
-134.883
0
LINE
8
BLACK
6
CONTINUOUS
10
208.245
20
-134.883
11
208.197
21
-134.918
0
LINE
8
BLACK
6
CONTINUOUS
10
208.197
20
-134.918
11
208.089
21
-134.999
0
LINE
8
BLACK
6
CONTINUOUS
10
208.089
20
-134.999
11
208.073
21
-135.009
0
LINE
8
BLACK
6
CONTINUOUS
10
208.073
20
-135.009
11
207.902
21
-135.102
0
LINE
8
BLACK
6
CONTINUOUS
10
207.902
20
-135.102
11
207.886
21
-135.11
0
LINE
8
BLACK
6
CONTINUOUS
10
207.886
20
-135.11
11
207.704
21
-135.178
0
LINE
8
BLACK
6
CONTINUOUS
10
207.704
20
-135.178
11
207.686
21
-135.183
0
LINE
8
BLACK
6
CONTINUOUS
10
207.686
20
-135.183
11
207.496
21
-135.224
0
LINE
8
BLACK
6
CONTINUOUS
10
207.496
20
-135.224
11
207.478
21
-135.227
0
LINE
8
BLACK
6
CONTINUOUS
10
207.478
20
-135.227
11
207.316
21
-135.239
0
LINE
8
BLACK
6
CONTINUOUS
10
207.316
20
-135.239
11
207.298
21
-135.238
0
LINE
8
BLACK
6
CONTINUOUS
10
207.298
20
-135.238
11
207.29
21
-135.238
0
LINE
8
BLACK
6
CONTINUOUS
10
207.29
20
-135.238
11
207.281
21
-135.236
0
LINE
8
BLACK
6
CONTINUOUS
10
207.281
20
-135.236
11
207.272
21
-135.237
0
LINE
8
BLACK
6
CONTINUOUS
10
207.272
20
-135.237
11
207.272
21
-135.237
0
LINE
8
BLACK
6
CONTINUOUS
10
207.272
20
-135.237
11
207.257
21
-135.239
0
LINE
8
BLACK
6
CONTINUOUS
10
207.257
20
-135.239
11
207.25
21
-135.24
0
LINE
8
BLACK
6
CONTINUOUS
10
207.25
20
-135.24
11
207.233
21
-135.242
0
LINE
8
BLACK
6
CONTINUOUS
10
207.233
20
-135.242
11
201.342
21
-135.242
0
LINE
8
BLACK
6
CONTINUOUS
10
201.342
20
-135.242
11
194.3
21
-135.242
0
LINE
8
BLACK
6
CONTINUOUS
10
194.3
20
-135.242
11
194.28
21
-135.24
0
LINE
8
BLACK
6
CONTINUOUS
10
194.28
20
-135.24
11
194.277
21
-135.24
0
LINE
8
BLACK
6
CONTINUOUS
10
194.277
20
-135.24
11
194.257
21
-135.236
0
LINE
8
BLACK
6
CONTINUOUS
10
194.257
20
-135.236
11
194.25
21
-135.236
0
LINE
8
BLACK
6
CONTINUOUS
10
194.25
20
-135.236
11
194.249
21
-135.236
0
LINE
8
BLACK
6
CONTINUOUS
10
194.249
20
-135.236
11
194.249
21
-135.236
0
LINE
8
BLACK
6
CONTINUOUS
10
194.249
20
-135.236
11
194.244
21
-135.236
0
LINE
8
BLACK
6
CONTINUOUS
10
194.244
20
-135.236
11
194.239
21
-135.237
0
LINE
8
BLACK
6
CONTINUOUS
10
194.239
20
-135.237
11
194.239
21
-135.237
0
LINE
8
BLACK
6
CONTINUOUS
10
194.239
20
-135.237
11
194.223
21
-135.238
0
LINE
8
BLACK
6
CONTINUOUS
10
194.223
20
-135.238
11
193.037
21
-135.266
0
LINE
8
BLACK
6
CONTINUOUS
10
193.037
20
-135.266
11
193.037
21
-135.266
0
LINE
8
BLACK
6
CONTINUOUS
10
193.037
20
-135.266
11
193.037
21
-135.266
0
LINE
8
BLACK
6
CONTINUOUS
10
193.037
20
-135.266
11
191.83
21
-135.322
0
LINE
8
BLACK
6
CONTINUOUS
10
191.83
20
-135.322
11
191.707
21
-135.331
0
LINE
8
BLACK
6
CONTINUOUS
10
191.707
20
-135.331
11
190.626
21
-135.406
0
LINE
8
BLACK
6
CONTINUOUS
10
190.626
20
-135.406
11
190.626
21
-135.406
0
LINE
8
BLACK
6
CONTINUOUS
10
190.626
20
-135.406
11
190.626
21
-135.406
0
LINE
8
BLACK
6
CONTINUOUS
10
190.626
20
-135.406
11
190.039
21
-135.461
0
LINE
8
BLACK
6
CONTINUOUS
10
190.039
20
-135.461
11
189.424
21
-135.519
0
LINE
8
BLACK
6
CONTINUOUS
10
189.424
20
-135.519
11
189.424
21
-135.519
0
LINE
8
BLACK
6
CONTINUOUS
10
189.424
20
-135.519
11
189.423
21
-135.519
0
LINE
8
BLACK
6
CONTINUOUS
10
189.423
20
-135.519
11
189.422
21
-135.519
0
LINE
8
BLACK
6
CONTINUOUS
10
189.422
20
-135.519
11
189.422
21
-135.519
0
LINE
8
BLACK
6
CONTINUOUS
10
189.422
20
-135.519
11
188.224
21
-135.659
0
LINE
8
BLACK
6
CONTINUOUS
10
188.224
20
-135.659
11
188.224
21
-135.659
0
LINE
8
BLACK
6
CONTINUOUS
10
188.224
20
-135.659
11
188.223
21
-135.659
0
LINE
8
BLACK
6
CONTINUOUS
10
188.223
20
-135.659
11
188.223
21
-135.659
0
LINE
8
BLACK
6
CONTINUOUS
10
188.223
20
-135.659
11
188.223
21
-135.659
0
LINE
8
BLACK
6
CONTINUOUS
10
188.223
20
-135.659
11
187.028
21
-135.827
0
LINE
8
BLACK
6
CONTINUOUS
10
187.028
20
-135.827
11
187.028
21
-135.827
0
LINE
8
BLACK
6
CONTINUOUS
10
187.028
20
-135.827
11
187.028
21
-135.828
0
LINE
8
BLACK
6
CONTINUOUS
10
187.028
20
-135.828
11
187.027
21
-135.828
0
LINE
8
BLACK
6
CONTINUOUS
10
187.027
20
-135.828
11
187.027
21
-135.828
0
LINE
8
BLACK
6
CONTINUOUS
10
187.027
20
-135.828
11
185.837
21
-136.024
0
LINE
8
BLACK
6
CONTINUOUS
10
185.837
20
-136.024
11
185.837
21
-136.024
0
LINE
8
BLACK
6
CONTINUOUS
10
185.837
20
-136.024
11
185.836
21
-136.024
0
LINE
8
BLACK
6
CONTINUOUS
10
185.836
20
-136.024
11
184.682
21
-136.242
0
LINE
8
BLACK
6
CONTINUOUS
10
184.682
20
-136.242
11
184.671
21
-136.243
0
LINE
8
BLACK
6
CONTINUOUS
10
184.671
20
-136.243
11
184.671
21
-136.243
0
LINE
8
BLACK
6
CONTINUOUS
10
184.671
20
-136.243
11
184.666
21
-136.244
0
LINE
8
BLACK
6
CONTINUOUS
10
184.666
20
-136.244
11
184.661
21
-136.244
0
LINE
8
BLACK
6
CONTINUOUS
10
184.661
20
-136.244
11
184.656
21
-136.245
0
LINE
8
BLACK
6
CONTINUOUS
10
184.656
20
-136.245
11
184.656
21
-136.245
0
LINE
8
BLACK
6
CONTINUOUS
10
184.656
20
-136.245
11
184.654
21
-136.245
0
LINE
8
BLACK
6
CONTINUOUS
10
184.654
20
-136.245
11
184.654
21
-136.245
0
LINE
8
BLACK
6
CONTINUOUS
10
184.654
20
-136.245
11
184.649
21
-136.246
0
LINE
8
BLACK
6
CONTINUOUS
10
184.649
20
-136.246
11
184.644
21
-136.248
0
LINE
8
BLACK
6
CONTINUOUS
10
184.644
20
-136.248
11
184.619
21
-136.257
0
LINE
8
BLACK
6
CONTINUOUS
10
184.619
20
-136.257
11
184.603
21
-136.261
0
LINE
8
BLACK
6
CONTINUOUS
10
184.603
20
-136.261
11
171.707
21
-138.995
0
LINE
8
BLACK
6
CONTINUOUS
10
171.707
20
-138.995
11
171.692
21
-138.997
0
LINE
8
BLACK
6
CONTINUOUS
10
171.692
20
-138.997
11
171.665
21
-138.999
0
LINE
8
BLACK
6
CONTINUOUS
10
171.665
20
-138.999
11
171.665
21
-138.999
0
LINE
8
BLACK
6
CONTINUOUS
10
171.665
20
-138.999
11
171.656
21
-139
0
LINE
8
BLACK
6
CONTINUOUS
10
171.656
20
-139
11
171.642
21
-139.006
0
LINE
8
BLACK
6
CONTINUOUS
10
171.642
20
-139.006
11
171.618
21
-139.013
0
LINE
8
BLACK
6
CONTINUOUS
10
171.618
20
-139.013
11
171.568
21
-139.021
0
LINE
8
BLACK
6
CONTINUOUS
10
171.568
20
-139.021
11
171.442
21
-139.043
0
LINE
8
BLACK
6
CONTINUOUS
10
171.442
20
-139.043
11
171.424
21
-139.045
0
LINE
8
BLACK
6
CONTINUOUS
10
171.424
20
-139.045
11
171.311
21
-139.049
0
LINE
8
BLACK
6
CONTINUOUS
10
171.311
20
-139.049
11
171.221
21
-139.051
0
LINE
8
BLACK
6
CONTINUOUS
10
171.221
20
-139.051
11
171.203
21
-139.051
0
LINE
8
BLACK
6
CONTINUOUS
10
171.203
20
-139.051
11
171.085
21
-139.037
0
LINE
8
BLACK
6
CONTINUOUS
10
171.085
20
-139.037
11
171.001
21
-139.028
0
LINE
8
BLACK
6
CONTINUOUS
10
171.001
20
-139.028
11
170.983
21
-139.025
0
LINE
8
BLACK
6
CONTINUOUS
10
170.983
20
-139.025
11
170.786
21
-138.973
0
LINE
8
BLACK
6
CONTINUOUS
10
170.786
20
-138.973
11
170.769
21
-138.968
0
LINE
8
BLACK
6
CONTINUOUS
10
170.769
20
-138.968
11
170.581
21
-138.889
0
LINE
8
BLACK
6
CONTINUOUS
10
170.581
20
-138.889
11
170.565
21
-138.881
0
LINE
8
BLACK
6
CONTINUOUS
10
170.565
20
-138.881
11
170.391
21
-138.776
0
LINE
8
BLACK
6
CONTINUOUS
10
170.391
20
-138.776
11
170.376
21
-138.766
0
LINE
8
BLACK
6
CONTINUOUS
10
170.376
20
-138.766
11
170.335
21
-138.732
0
LINE
8
BLACK
6
CONTINUOUS
10
170.335
20
-138.732
11
170.218
21
-138.637
0
LINE
8
BLACK
6
CONTINUOUS
10
170.218
20
-138.637
11
170.205
21
-138.625
0
LINE
8
BLACK
6
CONTINUOUS
10
170.205
20
-138.625
11
170.067
21
-138.475
0
LINE
8
BLACK
6
CONTINUOUS
10
170.067
20
-138.475
11
170.056
21
-138.461
0
LINE
8
BLACK
6
CONTINUOUS
10
170.056
20
-138.461
11
169.941
21
-138.293
0
LINE
8
BLACK
6
CONTINUOUS
10
169.941
20
-138.293
11
169.931
21
-138.278
0
LINE
8
BLACK
6
CONTINUOUS
10
169.931
20
-138.278
11
169.841
21
-138.095
0
LINE
8
BLACK
6
CONTINUOUS
10
169.841
20
-138.095
11
169.834
21
-138.079
0
LINE
8
BLACK
6
CONTINUOUS
10
169.834
20
-138.079
11
169.781
21
-137.916
0
LINE
8
BLACK
6
CONTINUOUS
10
169.781
20
-137.916
11
169.778
21
-137.898
0
LINE
8
BLACK
6
CONTINUOUS
10
169.778
20
-137.898
11
169.776
21
-137.89
0
LINE
8
BLACK
6
CONTINUOUS
10
169.776
20
-137.89
11
169.775
21
-137.882
0
LINE
8
BLACK
6
CONTINUOUS
10
169.775
20
-137.882
11
169.767
21
-137.862
0
LINE
8
BLACK
6
CONTINUOUS
10
169.767
20
-137.862
11
169.761
21
-137.842
0
LINE
8
BLACK
6
CONTINUOUS
10
169.761
20
-137.842
11
168.733
21
-133.021
0
LINE
8
BLACK
6
CONTINUOUS
10
168.733
20
-133.021
11
168.578
21
-132.293
0
LINE
8
BLACK
6
CONTINUOUS
10
168.578
20
-132.293
11
168.575
21
-132.272
0
LINE
8
BLACK
6
CONTINUOUS
10
168.575
20
-132.272
11
168.574
21
-132.257
0
LINE
8
BLACK
6
CONTINUOUS
10
168.574
20
-132.257
11
168.574
21
-132.257
0
LINE
8
BLACK
6
CONTINUOUS
10
168.574
20
-132.257
11
168.574
21
-132.252
0
LINE
8
BLACK
6
CONTINUOUS
10
168.574
20
-132.252
11
168.572
21
-132.24
0
LINE
8
BLACK
6
CONTINUOUS
10
168.572
20
-132.24
11
168.57
21
-132.237
0
LINE
8
BLACK
6
CONTINUOUS
10
168.57
20
-132.237
11
168.57
21
-132.235
0
LINE
8
BLACK
6
CONTINUOUS
10
168.57
20
-132.235
11
168.37
21
-131.376
0
LINE
8
BLACK
6
CONTINUOUS
10
168.37
20
-131.376
11
168.345
21
-131.286
0
LINE
8
BLACK
6
CONTINUOUS
10
168.345
20
-131.286
11
168.132
21
-130.523
0
LINE
8
BLACK
6
CONTINUOUS
10
168.132
20
-130.523
11
168.132
21
-130.523
0
LINE
8
BLACK
6
CONTINUOUS
10
168.132
20
-130.523
11
168.132
21
-130.522
0
LINE
8
BLACK
6
CONTINUOUS
10
168.132
20
-130.522
11
167.985
21
-130.069
0
LINE
8
BLACK
6
CONTINUOUS
10
167.985
20
-130.069
11
167.858
21
-129.68
0
LINE
8
BLACK
6
CONTINUOUS
10
167.858
20
-129.68
11
167.858
21
-129.68
0
LINE
8
BLACK
6
CONTINUOUS
10
167.858
20
-129.68
11
167.857
21
-129.679
0
LINE
8
BLACK
6
CONTINUOUS
10
167.857
20
-129.679
11
167.694
21
-129.241
0
LINE
8
BLACK
6
CONTINUOUS
10
167.694
20
-129.241
11
167.547
21
-128.849
0
LINE
8
BLACK
6
CONTINUOUS
10
167.547
20
-128.849
11
167.547
21
-128.849
0
LINE
8
BLACK
6
CONTINUOUS
10
167.547
20
-128.849
11
167.547
21
-128.848
0
LINE
8
BLACK
6
CONTINUOUS
10
167.547
20
-128.848
11
167.259
21
-128.167
0
LINE
8
BLACK
6
CONTINUOUS
10
167.259
20
-128.167
11
167.202
21
-128.032
0
LINE
8
BLACK
6
CONTINUOUS
10
167.202
20
-128.032
11
167.202
21
-128.032
0
LINE
8
BLACK
6
CONTINUOUS
10
167.202
20
-128.032
11
167.201
21
-128.031
0
LINE
8
BLACK
6
CONTINUOUS
10
167.201
20
-128.031
11
167.163
21
-127.951
0
LINE
8
BLACK
6
CONTINUOUS
10
167.163
20
-127.951
11
166.964
21
-127.532
0
LINE
8
BLACK
6
CONTINUOUS
10
166.964
20
-127.532
11
166.821
21
-127.23
0
LINE
8
BLACK
6
CONTINUOUS
10
166.821
20
-127.23
11
166.82
21
-127.228
0
LINE
8
BLACK
6
CONTINUOUS
10
166.82
20
-127.228
11
166.82
21
-127.228
0
LINE
8
BLACK
6
CONTINUOUS
10
166.82
20
-127.228
11
166.407
21
-126.447
0
LINE
8
BLACK
6
CONTINUOUS
10
166.407
20
-126.447
11
166.406
21
-126.445
0
LINE
8
BLACK
6
CONTINUOUS
10
166.406
20
-126.445
11
166.406
21
-126.444
0
LINE
8
BLACK
6
CONTINUOUS
10
166.406
20
-126.444
11
166.406
21
-126.444
0
LINE
8
BLACK
6
CONTINUOUS
10
166.406
20
-126.444
11
165.959
21
-125.681
0
LINE
8
BLACK
6
CONTINUOUS
10
165.959
20
-125.681
11
165.959
21
-125.681
0
LINE
8
BLACK
6
CONTINUOUS
10
165.959
20
-125.681
11
165.959
21
-125.68
0
LINE
8
BLACK
6
CONTINUOUS
10
165.959
20
-125.68
11
165.479
21
-124.934
0
LINE
8
BLACK
6
CONTINUOUS
10
165.479
20
-124.934
11
164.967
21
-124.209
0
LINE
8
BLACK
6
CONTINUOUS
10
164.967
20
-124.209
11
164.425
21
-123.507
0
LINE
8
BLACK
6
CONTINUOUS
10
164.425
20
-123.507
11
163.853
21
-122.829
0
LINE
8
BLACK
6
CONTINUOUS
10
163.853
20
-122.829
11
163.852
21
-122.828
0
LINE
8
BLACK
6
CONTINUOUS
10
163.852
20
-122.828
11
163.852
21
-122.828
0
LINE
8
BLACK
6
CONTINUOUS
10
163.852
20
-122.828
11
163.541
21
-122.49
0
LINE
8
BLACK
6
CONTINUOUS
10
163.541
20
-122.49
11
163.253
21
-122.176
0
LINE
8
BLACK
6
CONTINUOUS
10
163.253
20
-122.176
11
162.875
21
-121.799
0
LINE
8
BLACK
6
CONTINUOUS
10
162.875
20
-121.799
11
162.626
21
-121.55
0
LINE
8
BLACK
6
CONTINUOUS
10
162.626
20
-121.55
11
162.626
21
-121.55
0
LINE
8
BLACK
6
CONTINUOUS
10
162.626
20
-121.55
11
162.625
21
-121.55
0
LINE
8
BLACK
6
CONTINUOUS
10
162.625
20
-121.55
11
162.624
21
-121.549
0
LINE
8
BLACK
6
CONTINUOUS
10
162.624
20
-121.549
11
162.624
21
-121.549
0
LINE
8
BLACK
6
CONTINUOUS
10
162.624
20
-121.549
11
162.194
21
-121.155
0
LINE
8
BLACK
6
CONTINUOUS
10
162.194
20
-121.155
11
161.971
21
-120.95
0
LINE
8
BLACK
6
CONTINUOUS
10
161.971
20
-120.95
11
161.292
21
-120.38
0
LINE
8
BLACK
6
CONTINUOUS
10
161.292
20
-120.38
11
161.19
21
-120.301
0
LINE
8
BLACK
6
CONTINUOUS
10
161.19
20
-120.301
11
160.918
21
-120.092
0
LINE
8
BLACK
6
CONTINUOUS
10
160.918
20
-120.092
11
160.589
21
-119.839
0
LINE
8
BLACK
6
CONTINUOUS
10
160.589
20
-119.839
11
159.863
21
-119.328
0
LINE
8
BLACK
6
CONTINUOUS
10
159.863
20
-119.328
11
159.741
21
-119.25
0
LINE
8
BLACK
6
CONTINUOUS
10
159.741
20
-119.25
11
159.117
21
-118.85
0
LINE
8
BLACK
6
CONTINUOUS
10
159.117
20
-118.85
11
159.116
21
-118.849
0
LINE
8
BLACK
6
CONTINUOUS
10
185.091
20
-119.875
11
185.188
21
-120.175
0
LINE
8
BLACK
6
CONTINUOUS
10
185.188
20
-120.175
11
185.19
21
-120.179
0
LINE
8
BLACK
6
CONTINUOUS
10
185.19
20
-120.179
11
185.19
21
-120.179
0
LINE
8
BLACK
6
CONTINUOUS
10
185.19
20
-120.179
11
185.321
21
-120.457
0
LINE
8
BLACK
6
CONTINUOUS
10
185.321
20
-120.457
11
185.321
21
-120.457
0
LINE
8
BLACK
6
CONTINUOUS
10
185.321
20
-120.457
11
185.322
21
-120.461
0
LINE
8
BLACK
6
CONTINUOUS
10
185.322
20
-120.461
11
185.492
21
-120.727
0
LINE
8
BLACK
6
CONTINUOUS
10
185.492
20
-120.727
11
185.693
21
-120.971
0
LINE
8
BLACK
6
CONTINUOUS
10
185.693
20
-120.971
11
185.923
21
-121.187
0
LINE
8
BLACK
6
CONTINUOUS
10
185.923
20
-121.187
11
186.178
21
-121.372
0
LINE
8
BLACK
6
CONTINUOUS
10
186.178
20
-121.372
11
186.455
21
-121.524
0
LINE
8
BLACK
6
CONTINUOUS
10
186.455
20
-121.524
11
186.458
21
-121.526
0
LINE
8
BLACK
6
CONTINUOUS
10
186.458
20
-121.526
11
186.458
21
-121.526
0
LINE
8
BLACK
6
CONTINUOUS
10
186.458
20
-121.526
11
186.555
21
-121.564
0
LINE
8
BLACK
6
CONTINUOUS
10
186.555
20
-121.564
11
186.748
21
-121.64
0
LINE
8
BLACK
6
CONTINUOUS
10
186.748
20
-121.64
11
187.054
21
-121.719
0
LINE
8
BLACK
6
CONTINUOUS
10
187.054
20
-121.719
11
187.367
21
-121.759
0
LINE
8
BLACK
6
CONTINUOUS
10
187.367
20
-121.759
11
187.683
21
-121.759
0
LINE
8
BLACK
6
CONTINUOUS
10
187.683
20
-121.759
11
187.996
21
-121.719
0
LINE
8
BLACK
6
CONTINUOUS
10
187.996
20
-121.719
11
188.302
21
-121.64
0
LINE
8
BLACK
6
CONTINUOUS
10
188.302
20
-121.64
11
188.495
21
-121.564
0
LINE
8
BLACK
6
CONTINUOUS
10
188.495
20
-121.564
11
188.592
21
-121.526
0
LINE
8
BLACK
6
CONTINUOUS
10
188.592
20
-121.526
11
188.592
21
-121.526
0
LINE
8
BLACK
6
CONTINUOUS
10
188.592
20
-121.526
11
188.595
21
-121.524
0
LINE
8
BLACK
6
CONTINUOUS
10
188.595
20
-121.524
11
188.872
21
-121.372
0
LINE
8
BLACK
6
CONTINUOUS
10
188.872
20
-121.372
11
189.127
21
-121.187
0
LINE
8
BLACK
6
CONTINUOUS
10
189.127
20
-121.187
11
189.357
21
-120.971
0
LINE
8
BLACK
6
CONTINUOUS
10
189.357
20
-120.971
11
189.558
21
-120.727
0
LINE
8
BLACK
6
CONTINUOUS
10
189.558
20
-120.727
11
189.728
21
-120.461
0
LINE
8
BLACK
6
CONTINUOUS
10
189.728
20
-120.461
11
189.729
21
-120.457
0
LINE
8
BLACK
6
CONTINUOUS
10
189.729
20
-120.457
11
189.729
21
-120.457
0
LINE
8
BLACK
6
CONTINUOUS
10
189.729
20
-120.457
11
189.86
21
-120.179
0
LINE
8
BLACK
6
CONTINUOUS
10
189.86
20
-120.179
11
189.86
21
-120.179
0
LINE
8
BLACK
6
CONTINUOUS
10
189.86
20
-120.179
11
189.862
21
-120.175
0
LINE
8
BLACK
6
CONTINUOUS
10
189.862
20
-120.175
11
189.959
21
-119.875
0
LINE
8
BLACK
6
CONTINUOUS
10
189.959
20
-119.875
11
190.019
21
-119.565
0
LINE
8
BLACK
6
CONTINUOUS
10
190.019
20
-119.565
11
190.038
21
-119.25
0
LINE
8
BLACK
6
CONTINUOUS
10
190.038
20
-119.25
11
190.019
21
-118.935
0
LINE
8
BLACK
6
CONTINUOUS
10
190.019
20
-118.935
11
189.959
21
-118.625
0
LINE
8
BLACK
6
CONTINUOUS
10
189.959
20
-118.625
11
189.862
21
-118.325
0
LINE
8
BLACK
6
CONTINUOUS
10
189.862
20
-118.325
11
189.86
21
-118.321
0
LINE
8
BLACK
6
CONTINUOUS
10
189.86
20
-118.321
11
189.729
21
-118.043
0
LINE
8
BLACK
6
CONTINUOUS
10
189.729
20
-118.043
11
189.729
21
-118.043
0
LINE
8
BLACK
6
CONTINUOUS
10
189.729
20
-118.043
11
189.728
21
-118.039
0
LINE
8
BLACK
6
CONTINUOUS
10
189.728
20
-118.039
11
189.558
21
-117.773
0
LINE
8
BLACK
6
CONTINUOUS
10
189.558
20
-117.773
11
189.357
21
-117.529
0
LINE
8
BLACK
6
CONTINUOUS
10
189.357
20
-117.529
11
189.127
21
-117.313
0
LINE
8
BLACK
6
CONTINUOUS
10
189.127
20
-117.313
11
188.872
21
-117.128
0
LINE
8
BLACK
6
CONTINUOUS
10
188.872
20
-117.128
11
188.815
21
-117.097
0
LINE
8
BLACK
6
CONTINUOUS
10
188.815
20
-117.097
11
188.599
21
-116.978
0
LINE
8
BLACK
6
CONTINUOUS
10
188.599
20
-116.978
11
188.599
21
-116.978
0
LINE
8
BLACK
6
CONTINUOUS
10
188.599
20
-116.978
11
188.595
21
-116.976
0
LINE
8
BLACK
6
CONTINUOUS
10
188.595
20
-116.976
11
188.592
21
-116.974
0
LINE
8
BLACK
6
CONTINUOUS
10
188.592
20
-116.974
11
188.592
21
-116.974
0
LINE
8
BLACK
6
CONTINUOUS
10
188.592
20
-116.974
11
188.305
21
-116.861
0
LINE
8
BLACK
6
CONTINUOUS
10
188.305
20
-116.861
11
188.305
21
-116.861
0
LINE
8
BLACK
6
CONTINUOUS
10
188.305
20
-116.861
11
188.302
21
-116.86
0
LINE
8
BLACK
6
CONTINUOUS
10
188.302
20
-116.86
11
187.996
21
-116.781
0
LINE
8
BLACK
6
CONTINUOUS
10
187.996
20
-116.781
11
187.683
21
-116.742
0
LINE
8
BLACK
6
CONTINUOUS
10
187.683
20
-116.742
11
187.367
21
-116.742
0
LINE
8
BLACK
6
CONTINUOUS
10
187.367
20
-116.742
11
187.054
21
-116.781
0
LINE
8
BLACK
6
CONTINUOUS
10
187.054
20
-116.781
11
186.748
21
-116.86
0
LINE
8
BLACK
6
CONTINUOUS
10
186.748
20
-116.86
11
186.745
21
-116.861
0
LINE
8
BLACK
6
CONTINUOUS
10
186.745
20
-116.861
11
186.745
21
-116.861
0
LINE
8
BLACK
6
CONTINUOUS
10
186.745
20
-116.861
11
186.458
21
-116.974
0
LINE
8
BLACK
6
CONTINUOUS
10
186.458
20
-116.974
11
186.458
21
-116.974
0
LINE
8
BLACK
6
CONTINUOUS
10
186.458
20
-116.974
11
186.455
21
-116.976
0
LINE
8
BLACK
6
CONTINUOUS
10
186.455
20
-116.976
11
186.451
21
-116.978
0
LINE
8
BLACK
6
CONTINUOUS
10
186.451
20
-116.978
11
186.451
21
-116.978
0
LINE
8
BLACK
6
CONTINUOUS
10
186.451
20
-116.978
11
186.235
21
-117.097
0
LINE
8
BLACK
6
CONTINUOUS
10
186.235
20
-117.097
11
186.178
21
-117.128
0
LINE
8
BLACK
6
CONTINUOUS
10
186.178
20
-117.128
11
185.923
21
-117.313
0
LINE
8
BLACK
6
CONTINUOUS
10
185.923
20
-117.313
11
185.693
21
-117.529
0
LINE
8
BLACK
6
CONTINUOUS
10
185.693
20
-117.529
11
185.492
21
-117.773
0
LINE
8
BLACK
6
CONTINUOUS
10
185.492
20
-117.773
11
185.322
21
-118.039
0
LINE
8
BLACK
6
CONTINUOUS
10
185.322
20
-118.039
11
185.321
21
-118.043
0
LINE
8
BLACK
6
CONTINUOUS
10
185.321
20
-118.043
11
185.321
21
-118.043
0
LINE
8
BLACK
6
CONTINUOUS
10
185.321
20
-118.043
11
185.19
21
-118.321
0
LINE
8
BLACK
6
CONTINUOUS
10
185.19
20
-118.321
11
185.188
21
-118.325
0
LINE
8
BLACK
6
CONTINUOUS
10
185.188
20
-118.325
11
185.091
21
-118.625
0
LINE
8
BLACK
6
CONTINUOUS
10
185.091
20
-118.625
11
185.031
21
-118.935
0
LINE
8
BLACK
6
CONTINUOUS
10
185.031
20
-118.935
11
185.012
21
-119.25
0
LINE
8
BLACK
6
CONTINUOUS
10
185.012
20
-119.25
11
185.031
21
-119.565
0
LINE
8
BLACK
6
CONTINUOUS
10
185.031
20
-119.565
11
185.091
21
-119.875
0
LINE
8
BLACK
6
CONTINUOUS
10
104.841
20
-114.625
11
104.938
21
-114.925
0
LINE
8
BLACK
6
CONTINUOUS
10
104.938
20
-114.925
11
104.94
21
-114.929
0
LINE
8
BLACK
6
CONTINUOUS
10
104.94
20
-114.929
11
104.94
21
-114.929
0
LINE
8
BLACK
6
CONTINUOUS
10
104.94
20
-114.929
11
105.071
21
-115.207
0
LINE
8
BLACK
6
CONTINUOUS
10
105.071
20
-115.207
11
105.071
21
-115.207
0
LINE
8
BLACK
6
CONTINUOUS
10
105.071
20
-115.207
11
105.072
21
-115.211
0
LINE
8
BLACK
6
CONTINUOUS
10
105.072
20
-115.211
11
105.242
21
-115.477
0
LINE
8
BLACK
6
CONTINUOUS
10
105.242
20
-115.477
11
105.443
21
-115.721
0
LINE
8
BLACK
6
CONTINUOUS
10
105.443
20
-115.721
11
105.673
21
-115.937
0
LINE
8
BLACK
6
CONTINUOUS
10
105.673
20
-115.937
11
105.676
21
-115.939
0
LINE
8
BLACK
6
CONTINUOUS
10
105.676
20
-115.939
11
105.676
21
-115.939
0
LINE
8
BLACK
6
CONTINUOUS
10
105.676
20
-115.939
11
105.729
21
-115.977
0
LINE
8
BLACK
6
CONTINUOUS
10
105.729
20
-115.977
11
105.928
21
-116.122
0
LINE
8
BLACK
6
CONTINUOUS
10
105.928
20
-116.122
11
105.932
21
-116.124
0
LINE
8
BLACK
6
CONTINUOUS
10
105.932
20
-116.124
11
105.932
21
-116.124
0
LINE
8
BLACK
6
CONTINUOUS
10
105.932
20
-116.124
11
106.201
21
-116.272
0
LINE
8
BLACK
6
CONTINUOUS
10
106.201
20
-116.272
11
106.205
21
-116.274
0
LINE
8
BLACK
6
CONTINUOUS
10
106.205
20
-116.274
11
106.208
21
-116.276
0
LINE
8
BLACK
6
CONTINUOUS
10
106.208
20
-116.276
11
106.208
21
-116.276
0
LINE
8
BLACK
6
CONTINUOUS
10
106.208
20
-116.276
11
106.367
21
-116.339
0
LINE
8
BLACK
6
CONTINUOUS
10
106.367
20
-116.339
11
106.498
21
-116.39
0
LINE
8
BLACK
6
CONTINUOUS
10
106.498
20
-116.39
11
106.804
21
-116.469
0
LINE
8
BLACK
6
CONTINUOUS
10
106.804
20
-116.469
11
107.117
21
-116.509
0
LINE
8
BLACK
6
CONTINUOUS
10
107.117
20
-116.509
11
107.433
21
-116.509
0
LINE
8
BLACK
6
CONTINUOUS
10
107.433
20
-116.509
11
107.746
21
-116.469
0
LINE
8
BLACK
6
CONTINUOUS
10
107.746
20
-116.469
11
108.052
21
-116.39
0
LINE
8
BLACK
6
CONTINUOUS
10
108.052
20
-116.39
11
108.183
21
-116.339
0
LINE
8
BLACK
6
CONTINUOUS
10
108.183
20
-116.339
11
108.342
21
-116.276
0
LINE
8
BLACK
6
CONTINUOUS
10
108.342
20
-116.276
11
108.342
21
-116.276
0
LINE
8
BLACK
6
CONTINUOUS
10
108.342
20
-116.276
11
108.345
21
-116.274
0
LINE
8
BLACK
6
CONTINUOUS
10
108.345
20
-116.274
11
108.349
21
-116.272
0
LINE
8
BLACK
6
CONTINUOUS
10
108.349
20
-116.272
11
108.618
21
-116.124
0
LINE
8
BLACK
6
CONTINUOUS
10
108.618
20
-116.124
11
108.618
21
-116.124
0
LINE
8
BLACK
6
CONTINUOUS
10
108.618
20
-116.124
11
108.622
21
-116.122
0
LINE
8
BLACK
6
CONTINUOUS
10
108.622
20
-116.122
11
108.821
21
-115.977
0
LINE
8
BLACK
6
CONTINUOUS
10
108.821
20
-115.977
11
108.874
21
-115.939
0
LINE
8
BLACK
6
CONTINUOUS
10
108.874
20
-115.939
11
108.874
21
-115.939
0
LINE
8
BLACK
6
CONTINUOUS
10
108.874
20
-115.939
11
108.877
21
-115.937
0
LINE
8
BLACK
6
CONTINUOUS
10
108.877
20
-115.937
11
109.107
21
-115.721
0
LINE
8
BLACK
6
CONTINUOUS
10
109.107
20
-115.721
11
109.308
21
-115.477
0
LINE
8
BLACK
6
CONTINUOUS
10
109.308
20
-115.477
11
109.478
21
-115.211
0
LINE
8
BLACK
6
CONTINUOUS
10
109.478
20
-115.211
11
109.479
21
-115.207
0
LINE
8
BLACK
6
CONTINUOUS
10
109.479
20
-115.207
11
109.479
21
-115.207
0
LINE
8
BLACK
6
CONTINUOUS
10
109.479
20
-115.207
11
109.61
21
-114.929
0
LINE
8
BLACK
6
CONTINUOUS
10
109.61
20
-114.929
11
109.61
21
-114.929
0
LINE
8
BLACK
6
CONTINUOUS
10
109.61
20
-114.929
11
109.612
21
-114.925
0
LINE
8
BLACK
6
CONTINUOUS
10
109.612
20
-114.925
11
109.709
21
-114.625
0
LINE
8
BLACK
6
CONTINUOUS
10
109.709
20
-114.625
11
109.769
21
-114.315
0
LINE
8
BLACK
6
CONTINUOUS
10
109.769
20
-114.315
11
109.788
21
-114
0
LINE
8
BLACK
6
CONTINUOUS
10
109.788
20
-114
11
109.769
21
-113.685
0
LINE
8
BLACK
6
CONTINUOUS
10
109.769
20
-113.685
11
109.709
21
-113.375
0
LINE
8
BLACK
6
CONTINUOUS
10
109.709
20
-113.375
11
109.612
21
-113.075
0
LINE
8
BLACK
6
CONTINUOUS
10
109.612
20
-113.075
11
109.602
21
-113.053
0
LINE
8
BLACK
6
CONTINUOUS
10
109.602
20
-113.053
11
109.479
21
-112.793
0
LINE
8
BLACK
6
CONTINUOUS
10
109.479
20
-112.793
11
109.479
21
-112.793
0
LINE
8
BLACK
6
CONTINUOUS
10
109.479
20
-112.793
11
109.478
21
-112.789
0
LINE
8
BLACK
6
CONTINUOUS
10
109.478
20
-112.789
11
109.308
21
-112.523
0
LINE
8
BLACK
6
CONTINUOUS
10
109.308
20
-112.523
11
109.107
21
-112.279
0
LINE
8
BLACK
6
CONTINUOUS
10
109.107
20
-112.279
11
108.877
21
-112.063
0
LINE
8
BLACK
6
CONTINUOUS
10
108.877
20
-112.063
11
108.622
21
-111.878
0
LINE
8
BLACK
6
CONTINUOUS
10
108.622
20
-111.878
11
108.345
21
-111.726
0
LINE
8
BLACK
6
CONTINUOUS
10
108.345
20
-111.726
11
108.342
21
-111.724
0
LINE
8
BLACK
6
CONTINUOUS
10
108.342
20
-111.724
11
108.342
21
-111.724
0
LINE
8
BLACK
6
CONTINUOUS
10
108.342
20
-111.724
11
108.055
21
-111.611
0
LINE
8
BLACK
6
CONTINUOUS
10
108.055
20
-111.611
11
108.055
21
-111.611
0
LINE
8
BLACK
6
CONTINUOUS
10
108.055
20
-111.611
11
108.052
21
-111.61
0
LINE
8
BLACK
6
CONTINUOUS
10
108.052
20
-111.61
11
107.746
21
-111.531
0
LINE
8
BLACK
6
CONTINUOUS
10
107.746
20
-111.531
11
107.433
21
-111.492
0
LINE
8
BLACK
6
CONTINUOUS
10
107.433
20
-111.492
11
107.117
21
-111.492
0
LINE
8
BLACK
6
CONTINUOUS
10
107.117
20
-111.492
11
106.804
21
-111.531
0
LINE
8
BLACK
6
CONTINUOUS
10
106.804
20
-111.531
11
106.498
21
-111.61
0
LINE
8
BLACK
6
CONTINUOUS
10
106.498
20
-111.61
11
106.495
21
-111.611
0
LINE
8
BLACK
6
CONTINUOUS
10
106.495
20
-111.611
11
106.495
21
-111.611
0
LINE
8
BLACK
6
CONTINUOUS
10
106.495
20
-111.611
11
106.208
21
-111.724
0
LINE
8
BLACK
6
CONTINUOUS
10
106.208
20
-111.724
11
106.208
21
-111.724
0
LINE
8
BLACK
6
CONTINUOUS
10
106.208
20
-111.724
11
106.205
21
-111.726
0
LINE
8
BLACK
6
CONTINUOUS
10
106.205
20
-111.726
11
105.928
21
-111.878
0
LINE
8
BLACK
6
CONTINUOUS
10
105.928
20
-111.878
11
105.673
21
-112.063
0
LINE
8
BLACK
6
CONTINUOUS
10
105.673
20
-112.063
11
105.443
21
-112.279
0
LINE
8
BLACK
6
CONTINUOUS
10
105.443
20
-112.279
11
105.242
21
-112.523
0
LINE
8
BLACK
6
CONTINUOUS
10
105.242
20
-112.523
11
105.072
21
-112.789
0
LINE
8
BLACK
6
CONTINUOUS
10
105.072
20
-112.789
11
105.071
21
-112.793
0
LINE
8
BLACK
6
CONTINUOUS
10
105.071
20
-112.793
11
105.071
21
-112.793
0
LINE
8
BLACK
6
CONTINUOUS
10
105.071
20
-112.793
11
104.948
21
-113.053
0
LINE
8
BLACK
6
CONTINUOUS
10
104.948
20
-113.053
11
104.938
21
-113.075
0
LINE
8
BLACK
6
CONTINUOUS
10
104.938
20
-113.075
11
104.841
21
-113.375
0
LINE
8
BLACK
6
CONTINUOUS
10
104.841
20
-113.375
11
104.781
21
-113.685
0
LINE
8
BLACK
6
CONTINUOUS
10
104.781
20
-113.685
11
104.762
21
-114
0
LINE
8
BLACK
6
CONTINUOUS
10
104.762
20
-114
11
104.781
21
-114.315
0
LINE
8
BLACK
6
CONTINUOUS
10
104.781
20
-114.315
11
104.841
21
-114.625
0
LINE
8
BLACK
6
CONTINUOUS
10
140.579
20
-101.601
11
140.579
21
-101.602
0
LINE
8
BLACK
6
CONTINUOUS
10
140.579
20
-101.602
11
140.593
21
-101.686
0
LINE
8
BLACK
6
CONTINUOUS
10
140.593
20
-101.686
11
140.633
21
-101.92
0
LINE
8
BLACK
6
CONTINUOUS
10
140.633
20
-101.92
11
140.727
21
-102.233
0
LINE
8
BLACK
6
CONTINUOUS
10
140.727
20
-102.233
11
140.857
21
-102.532
0
LINE
8
BLACK
6
CONTINUOUS
10
140.857
20
-102.532
11
140.859
21
-102.535
0
LINE
8
BLACK
6
CONTINUOUS
10
140.859
20
-102.535
11
140.859
21
-102.535
0
LINE
8
BLACK
6
CONTINUOUS
10
140.859
20
-102.535
11
140.902
21
-102.607
0
LINE
8
BLACK
6
CONTINUOUS
10
140.902
20
-102.607
11
141.023
21
-102.813
0
LINE
8
BLACK
6
CONTINUOUS
10
141.023
20
-102.813
11
141.025
21
-102.816
0
LINE
8
BLACK
6
CONTINUOUS
10
141.025
20
-102.816
11
141.219
21
-103.07
0
LINE
8
BLACK
6
CONTINUOUS
10
141.219
20
-103.07
11
141.219
21
-103.07
0
LINE
8
BLACK
6
CONTINUOUS
10
141.219
20
-103.07
11
141.221
21
-103.073
0
LINE
8
BLACK
6
CONTINUOUS
10
141.221
20
-103.073
11
141.449
21
-103.307
0
LINE
8
BLACK
6
CONTINUOUS
10
141.449
20
-103.307
11
141.522
21
-103.366
0
LINE
8
BLACK
6
CONTINUOUS
10
141.522
20
-103.366
11
141.7
21
-103.509
0
LINE
8
BLACK
6
CONTINUOUS
10
141.7
20
-103.509
11
141.7
21
-103.509
0
LINE
8
BLACK
6
CONTINUOUS
10
141.7
20
-103.509
11
141.703
21
-103.512
0
LINE
8
BLACK
6
CONTINUOUS
10
141.703
20
-103.512
11
141.98
21
-103.685
0
LINE
8
BLACK
6
CONTINUOUS
10
141.98
20
-103.685
11
142.276
21
-103.823
0
LINE
8
BLACK
6
CONTINUOUS
10
142.276
20
-103.823
11
142.586
21
-103.925
0
LINE
8
BLACK
6
CONTINUOUS
10
142.586
20
-103.925
11
142.907
21
-103.988
0
LINE
8
BLACK
6
CONTINUOUS
10
142.907
20
-103.988
11
142.911
21
-103.989
0
LINE
8
BLACK
6
CONTINUOUS
10
142.911
20
-103.989
11
142.911
21
-103.989
0
LINE
8
BLACK
6
CONTINUOUS
10
142.911
20
-103.989
11
143.229
21
-104.013
0
LINE
8
BLACK
6
CONTINUOUS
10
143.229
20
-104.013
11
143.229
21
-104.013
0
LINE
8
BLACK
6
CONTINUOUS
10
143.229
20
-104.013
11
143.232
21
-104.013
0
LINE
8
BLACK
6
CONTINUOUS
10
143.232
20
-104.013
11
143.559
21
-103.999
0
LINE
8
BLACK
6
CONTINUOUS
10
143.559
20
-103.999
11
143.618
21
-103.989
0
LINE
8
BLACK
6
CONTINUOUS
10
143.618
20
-103.989
11
143.877
21
-103.946
0
LINE
8
BLACK
6
CONTINUOUS
10
143.877
20
-103.946
11
143.877
21
-103.946
0
LINE
8
BLACK
6
CONTINUOUS
10
143.877
20
-103.946
11
143.881
21
-103.945
0
LINE
8
BLACK
6
CONTINUOUS
10
143.881
20
-103.945
11
144.194
21
-103.853
0
LINE
8
BLACK
6
CONTINUOUS
10
144.194
20
-103.853
11
144.198
21
-103.852
0
LINE
8
BLACK
6
CONTINUOUS
10
144.198
20
-103.852
11
144.198
21
-103.852
0
LINE
8
BLACK
6
CONTINUOUS
10
144.198
20
-103.852
11
144.491
21
-103.726
0
LINE
8
BLACK
6
CONTINUOUS
10
144.491
20
-103.726
11
144.491
21
-103.726
0
LINE
8
BLACK
6
CONTINUOUS
10
144.491
20
-103.726
11
144.494
21
-103.724
0
LINE
8
BLACK
6
CONTINUOUS
10
144.494
20
-103.724
11
144.777
21
-103.56
0
LINE
8
BLACK
6
CONTINUOUS
10
144.777
20
-103.56
11
145.037
21
-103.363
0
LINE
8
BLACK
6
CONTINUOUS
10
145.037
20
-103.363
11
145.272
21
-103.137
0
LINE
8
BLACK
6
CONTINUOUS
10
145.272
20
-103.137
11
145.479
21
-102.883
0
LINE
8
BLACK
6
CONTINUOUS
10
145.479
20
-102.883
11
145.653
21
-102.607
0
LINE
8
BLACK
6
CONTINUOUS
10
145.653
20
-102.607
11
145.793
21
-102.312
0
LINE
8
BLACK
6
CONTINUOUS
10
145.793
20
-102.312
11
145.819
21
-102.233
0
LINE
8
BLACK
6
CONTINUOUS
10
145.819
20
-102.233
11
145.895
21
-102.006
0
LINE
8
BLACK
6
CONTINUOUS
10
145.895
20
-102.006
11
145.895
21
-102.006
0
LINE
8
BLACK
6
CONTINUOUS
10
145.895
20
-102.006
11
145.896
21
-102.002
0
LINE
8
BLACK
6
CONTINUOUS
10
145.896
20
-102.002
11
145.961
21
-101.682
0
LINE
8
BLACK
6
CONTINUOUS
10
145.961
20
-101.682
11
145.964
21
-101.649
0
LINE
8
BLACK
6
CONTINUOUS
10
145.964
20
-101.649
11
145.988
21
-101.359
0
LINE
8
BLACK
6
CONTINUOUS
10
145.988
20
-101.359
11
145.988
21
-101.357
0
LINE
8
BLACK
6
CONTINUOUS
10
145.988
20
-101.357
11
145.988
21
-101.3
0
LINE
8
BLACK
6
CONTINUOUS
10
145.988
20
-101.3
11
145.987
21
-101.268
0
LINE
8
BLACK
6
CONTINUOUS
10
145.987
20
-101.268
11
145.969
21
-100.978
0
LINE
8
BLACK
6
CONTINUOUS
10
145.969
20
-100.978
11
145.969
21
-100.978
0
LINE
8
BLACK
6
CONTINUOUS
10
145.969
20
-100.978
11
145.969
21
-100.974
0
LINE
8
BLACK
6
CONTINUOUS
10
145.969
20
-100.974
11
145.964
21
-100.946
0
LINE
8
BLACK
6
CONTINUOUS
10
145.964
20
-100.946
11
145.911
21
-100.656
0
LINE
8
BLACK
6
CONTINUOUS
10
145.911
20
-100.656
11
145.911
21
-100.656
0
LINE
8
BLACK
6
CONTINUOUS
10
145.911
20
-100.656
11
145.91
21
-100.653
0
LINE
8
BLACK
6
CONTINUOUS
10
145.91
20
-100.653
11
145.903
21
-100.629
0
LINE
8
BLACK
6
CONTINUOUS
10
145.903
20
-100.629
11
145.814
21
-100.344
0
LINE
8
BLACK
6
CONTINUOUS
10
145.814
20
-100.344
11
145.813
21
-100.341
0
LINE
8
BLACK
6
CONTINUOUS
10
145.813
20
-100.341
11
145.68
21
-100.043
0
LINE
8
BLACK
6
CONTINUOUS
10
145.68
20
-100.043
11
145.511
21
-99.7631
0
LINE
8
BLACK
6
CONTINUOUS
10
145.511
20
-99.7631
11
145.509
21
-99.7601
0
LINE
8
BLACK
6
CONTINUOUS
10
145.509
20
-99.7601
11
145.509
21
-99.7601
0
LINE
8
BLACK
6
CONTINUOUS
10
145.509
20
-99.7601
11
145.313
21
-99.5086
0
LINE
8
BLACK
6
CONTINUOUS
10
145.313
20
-99.5086
11
145.313
21
-99.5086
0
LINE
8
BLACK
6
CONTINUOUS
10
145.313
20
-99.5086
11
145.31
21
-99.5056
0
LINE
8
BLACK
6
CONTINUOUS
10
145.31
20
-99.5056
11
145.08
21
-99.274
0
LINE
8
BLACK
6
CONTINUOUS
10
145.08
20
-99.274
11
144.824
21
-99.0719
0
LINE
8
BLACK
6
CONTINUOUS
10
144.824
20
-99.0719
11
144.545
21
-98.9019
0
LINE
8
BLACK
6
CONTINUOUS
10
144.545
20
-98.9019
11
144.541
21
-98.9004
0
LINE
8
BLACK
6
CONTINUOUS
10
144.541
20
-98.9004
11
144.541
21
-98.9004
0
LINE
8
BLACK
6
CONTINUOUS
10
144.541
20
-98.9004
11
144.428
21
-98.8491
0
LINE
8
BLACK
6
CONTINUOUS
10
144.428
20
-98.8491
11
144.247
21
-98.7668
0
LINE
8
BLACK
6
CONTINUOUS
10
144.247
20
-98.7668
11
143.936
21
-98.6683
0
LINE
8
BLACK
6
CONTINUOUS
10
143.936
20
-98.6683
11
143.718
21
-98.6274
0
LINE
8
BLACK
6
CONTINUOUS
10
143.718
20
-98.6274
11
143.619
21
-98.6086
0
LINE
8
BLACK
6
CONTINUOUS
10
143.619
20
-98.6086
11
143.619
21
-98.6086
0
LINE
8
BLACK
6
CONTINUOUS
10
143.619
20
-98.6086
11
143.615
21
-98.6079
0
LINE
8
BLACK
6
CONTINUOUS
10
143.615
20
-98.6079
11
143.289
21
-98.5866
0
LINE
8
BLACK
6
CONTINUOUS
10
143.289
20
-98.5866
11
143.285
21
-98.5868
0
LINE
8
BLACK
6
CONTINUOUS
10
143.285
20
-98.5868
11
143.285
21
-98.5868
0
LINE
8
BLACK
6
CONTINUOUS
10
143.285
20
-98.5868
11
143.188
21
-98.5922
0
LINE
8
BLACK
6
CONTINUOUS
10
143.188
20
-98.5922
11
142.963
21
-98.6045
0
LINE
8
BLACK
6
CONTINUOUS
10
142.963
20
-98.6045
11
142.959
21
-98.6052
0
LINE
8
BLACK
6
CONTINUOUS
10
142.959
20
-98.6052
11
142.959
21
-98.6052
0
LINE
8
BLACK
6
CONTINUOUS
10
142.959
20
-98.6052
11
142.802
21
-98.633
0
LINE
8
BLACK
6
CONTINUOUS
10
142.802
20
-98.633
11
142.642
21
-98.6615
0
LINE
8
BLACK
6
CONTINUOUS
10
142.642
20
-98.6615
11
142.638
21
-98.6626
0
LINE
8
BLACK
6
CONTINUOUS
10
142.638
20
-98.6626
11
142.638
21
-98.6626
0
LINE
8
BLACK
6
CONTINUOUS
10
142.638
20
-98.6626
11
142.333
21
-98.7556
0
LINE
8
BLACK
6
CONTINUOUS
10
142.333
20
-98.7556
11
142.329
21
-98.7567
0
LINE
8
BLACK
6
CONTINUOUS
10
142.329
20
-98.7567
11
142.03
21
-98.8888
0
LINE
8
BLACK
6
CONTINUOUS
10
142.03
20
-98.8888
11
142.005
21
-98.9039
0
LINE
8
BLACK
6
CONTINUOUS
10
142.005
20
-98.9039
11
141.753
21
-99.0538
0
LINE
8
BLACK
6
CONTINUOUS
10
141.753
20
-99.0538
11
141.753
21
-99.0538
0
LINE
8
BLACK
6
CONTINUOUS
10
141.753
20
-99.0538
11
141.75
21
-99.0558
0
LINE
8
BLACK
6
CONTINUOUS
10
141.75
20
-99.0558
11
141.491
21
-99.2552
0
LINE
8
BLACK
6
CONTINUOUS
10
141.491
20
-99.2552
11
141.259
21
-99.4843
0
LINE
8
BLACK
6
CONTINUOUS
10
141.259
20
-99.4843
11
141.256
21
-99.4873
0
LINE
8
BLACK
6
CONTINUOUS
10
141.256
20
-99.4873
11
141.256
21
-99.4873
0
LINE
8
BLACK
6
CONTINUOUS
10
141.256
20
-99.4873
11
141.241
21
-99.5062
0
LINE
8
BLACK
6
CONTINUOUS
10
141.241
20
-99.5062
11
141.055
21
-99.7398
0
LINE
8
BLACK
6
CONTINUOUS
10
141.055
20
-99.7398
11
140.884
21
-100.018
0
LINE
8
BLACK
6
CONTINUOUS
10
140.884
20
-100.018
11
140.747
21
-100.314
0
LINE
8
BLACK
6
CONTINUOUS
10
140.747
20
-100.314
11
140.746
21
-100.318
0
LINE
8
BLACK
6
CONTINUOUS
10
140.746
20
-100.318
11
140.746
21
-100.318
0
LINE
8
BLACK
6
CONTINUOUS
10
140.746
20
-100.318
11
140.737
21
-100.344
0
LINE
8
BLACK
6
CONTINUOUS
10
140.737
20
-100.344
11
140.647
21
-100.625
0
LINE
8
BLACK
6
CONTINUOUS
10
140.647
20
-100.625
11
140.646
21
-100.629
0
LINE
8
BLACK
6
CONTINUOUS
10
140.646
20
-100.629
11
140.646
21
-100.629
0
LINE
8
BLACK
6
CONTINUOUS
10
140.646
20
-100.629
11
140.585
21
-100.942
0
LINE
8
BLACK
6
CONTINUOUS
10
140.585
20
-100.942
11
140.585
21
-100.942
0
LINE
8
BLACK
6
CONTINUOUS
10
140.585
20
-100.942
11
140.585
21
-100.946
0
LINE
8
BLACK
6
CONTINUOUS
10
140.585
20
-100.946
11
140.584
21
-100.95
0
LINE
8
BLACK
6
CONTINUOUS
10
140.584
20
-100.95
11
140.584
21
-100.95
0
LINE
8
BLACK
6
CONTINUOUS
10
140.584
20
-100.95
11
140.57
21
-101.149
0
LINE
8
BLACK
6
CONTINUOUS
10
140.57
20
-101.149
11
140.562
21
-101.272
0
LINE
8
BLACK
6
CONTINUOUS
10
140.562
20
-101.272
11
140.578
21
-101.598
0
LINE
8
BLACK
6
CONTINUOUS
10
140.578
20
-101.598
11
140.579
21
-101.601
0
LINE
8
BLACK
6
CONTINUOUS
10
177.816
20
-87.6251
11
177.913
21
-87.9253
0
LINE
8
BLACK
6
CONTINUOUS
10
177.913
20
-87.9253
11
177.915
21
-87.9289
0
LINE
8
BLACK
6
CONTINUOUS
10
177.915
20
-87.9289
11
177.915
21
-87.9289
0
LINE
8
BLACK
6
CONTINUOUS
10
177.915
20
-87.9289
11
178.046
21
-88.2073
0
LINE
8
BLACK
6
CONTINUOUS
10
178.046
20
-88.2073
11
178.046
21
-88.2073
0
LINE
8
BLACK
6
CONTINUOUS
10
178.046
20
-88.2073
11
178.047
21
-88.2109
0
LINE
8
BLACK
6
CONTINUOUS
10
178.047
20
-88.2109
11
178.217
21
-88.4774
0
LINE
8
BLACK
6
CONTINUOUS
10
178.217
20
-88.4774
11
178.418
21
-88.7206
0
LINE
8
BLACK
6
CONTINUOUS
10
178.418
20
-88.7206
11
178.648
21
-88.9367
0
LINE
8
BLACK
6
CONTINUOUS
10
178.648
20
-88.9367
11
178.903
21
-89.1222
0
LINE
8
BLACK
6
CONTINUOUS
10
178.903
20
-89.1222
11
179.18
21
-89.2742
0
LINE
8
BLACK
6
CONTINUOUS
10
179.18
20
-89.2742
11
179.183
21
-89.2757
0
LINE
8
BLACK
6
CONTINUOUS
10
179.183
20
-89.2757
11
179.183
21
-89.2757
0
LINE
8
BLACK
6
CONTINUOUS
10
179.183
20
-89.2757
11
179.47
21
-89.389
0
LINE
8
BLACK
6
CONTINUOUS
10
179.47
20
-89.389
11
179.473
21
-89.3904
0
LINE
8
BLACK
6
CONTINUOUS
10
179.473
20
-89.3904
11
179.779
21
-89.4689
0
LINE
8
BLACK
6
CONTINUOUS
10
179.779
20
-89.4689
11
180.092
21
-89.5085
0
LINE
8
BLACK
6
CONTINUOUS
10
180.092
20
-89.5085
11
180.408
21
-89.5085
0
LINE
8
BLACK
6
CONTINUOUS
10
180.408
20
-89.5085
11
180.721
21
-89.4689
0
LINE
8
BLACK
6
CONTINUOUS
10
180.721
20
-89.4689
11
181.027
21
-89.3904
0
LINE
8
BLACK
6
CONTINUOUS
10
181.027
20
-89.3904
11
181.03
21
-89.389
0
LINE
8
BLACK
6
CONTINUOUS
10
181.03
20
-89.389
11
181.317
21
-89.2757
0
LINE
8
BLACK
6
CONTINUOUS
10
181.317
20
-89.2757
11
181.317
21
-89.2757
0
LINE
8
BLACK
6
CONTINUOUS
10
181.317
20
-89.2757
11
181.32
21
-89.2742
0
LINE
8
BLACK
6
CONTINUOUS
10
181.32
20
-89.2742
11
181.597
21
-89.1222
0
LINE
8
BLACK
6
CONTINUOUS
10
181.597
20
-89.1222
11
181.852
21
-88.9367
0
LINE
8
BLACK
6
CONTINUOUS
10
181.852
20
-88.9367
11
182.082
21
-88.7206
0
LINE
8
BLACK
6
CONTINUOUS
10
182.082
20
-88.7206
11
182.283
21
-88.4774
0
LINE
8
BLACK
6
CONTINUOUS
10
182.283
20
-88.4774
11
182.453
21
-88.2109
0
LINE
8
BLACK
6
CONTINUOUS
10
182.453
20
-88.2109
11
182.454
21
-88.2073
0
LINE
8
BLACK
6
CONTINUOUS
10
182.454
20
-88.2073
11
182.454
21
-88.2073
0
LINE
8
BLACK
6
CONTINUOUS
10
182.454
20
-88.2073
11
182.585
21
-87.9289
0
LINE
8
BLACK
6
CONTINUOUS
10
182.585
20
-87.9289
11
182.585
21
-87.9289
0
LINE
8
BLACK
6
CONTINUOUS
10
182.585
20
-87.9289
11
182.587
21
-87.9253
0
LINE
8
BLACK
6
CONTINUOUS
10
182.587
20
-87.9253
11
182.684
21
-87.6251
0
LINE
8
BLACK
6
CONTINUOUS
10
182.684
20
-87.6251
11
182.744
21
-87.315
0
LINE
8
BLACK
6
CONTINUOUS
10
182.744
20
-87.315
11
182.763
21
-87
0
LINE
8
BLACK
6
CONTINUOUS
10
182.763
20
-87
11
182.744
21
-86.685
0
LINE
8
BLACK
6
CONTINUOUS
10
182.744
20
-86.685
11
182.684
21
-86.3749
0
LINE
8
BLACK
6
CONTINUOUS
10
182.684
20
-86.3749
11
182.587
21
-86.0747
0
LINE
8
BLACK
6
CONTINUOUS
10
182.587
20
-86.0747
11
182.585
21
-86.0711
0
LINE
8
BLACK
6
CONTINUOUS
10
182.585
20
-86.0711
11
182.454
21
-85.7927
0
LINE
8
BLACK
6
CONTINUOUS
10
182.454
20
-85.7927
11
182.454
21
-85.7927
0
LINE
8
BLACK
6
CONTINUOUS
10
182.454
20
-85.7927
11
182.453
21
-85.7891
0
LINE
8
BLACK
6
CONTINUOUS
10
182.453
20
-85.7891
11
182.283
21
-85.5226
0
LINE
8
BLACK
6
CONTINUOUS
10
182.283
20
-85.5226
11
182.093
21
-85.2919
0
LINE
8
BLACK
6
CONTINUOUS
10
182.093
20
-85.2919
11
182.085
21
-85.2825
0
LINE
8
BLACK
6
CONTINUOUS
10
182.085
20
-85.2825
11
182.085
21
-85.2825
0
LINE
8
BLACK
6
CONTINUOUS
10
182.085
20
-85.2825
11
182.082
21
-85.2794
0
LINE
8
BLACK
6
CONTINUOUS
10
182.082
20
-85.2794
11
181.852
21
-85.0633
0
LINE
8
BLACK
6
CONTINUOUS
10
181.852
20
-85.0633
11
181.597
21
-84.8778
0
LINE
8
BLACK
6
CONTINUOUS
10
181.597
20
-84.8778
11
181.461
21
-84.803
0
LINE
8
BLACK
6
CONTINUOUS
10
181.461
20
-84.803
11
181.324
21
-84.7277
0
LINE
8
BLACK
6
CONTINUOUS
10
181.324
20
-84.7277
11
181.324
21
-84.7277
0
LINE
8
BLACK
6
CONTINUOUS
10
181.324
20
-84.7277
11
181.32
21
-84.7258
0
LINE
8
BLACK
6
CONTINUOUS
10
181.32
20
-84.7258
11
181.317
21
-84.7243
0
LINE
8
BLACK
6
CONTINUOUS
10
181.317
20
-84.7243
11
181.317
21
-84.7243
0
LINE
8
BLACK
6
CONTINUOUS
10
181.317
20
-84.7243
11
181.03
21
-84.611
0
LINE
8
BLACK
6
CONTINUOUS
10
181.03
20
-84.611
11
181.03
21
-84.611
0
LINE
8
BLACK
6
CONTINUOUS
10
181.03
20
-84.611
11
181.027
21
-84.6096
0
LINE
8
BLACK
6
CONTINUOUS
10
181.027
20
-84.6096
11
180.721
21
-84.5311
0
LINE
8
BLACK
6
CONTINUOUS
10
180.721
20
-84.5311
11
180.408
21
-84.4915
0
LINE
8
BLACK
6
CONTINUOUS
10
180.408
20
-84.4915
11
180.092
21
-84.4915
0
LINE
8
BLACK
6
CONTINUOUS
10
180.092
20
-84.4915
11
179.779
21
-84.5311
0
LINE
8
BLACK
6
CONTINUOUS
10
179.779
20
-84.5311
11
179.473
21
-84.6096
0
LINE
8
BLACK
6
CONTINUOUS
10
179.473
20
-84.6096
11
179.47
21
-84.611
0
LINE
8
BLACK
6
CONTINUOUS
10
179.47
20
-84.611
11
179.47
21
-84.611
0
LINE
8
BLACK
6
CONTINUOUS
10
179.47
20
-84.611
11
179.183
21
-84.7243
0
LINE
8
BLACK
6
CONTINUOUS
10
179.183
20
-84.7243
11
179.183
21
-84.7243
0
LINE
8
BLACK
6
CONTINUOUS
10
179.183
20
-84.7243
11
179.18
21
-84.7258
0
LINE
8
BLACK
6
CONTINUOUS
10
179.18
20
-84.7258
11
179.176
21
-84.7277
0
LINE
8
BLACK
6
CONTINUOUS
10
179.176
20
-84.7277
11
179.176
21
-84.7277
0
LINE
8
BLACK
6
CONTINUOUS
10
179.176
20
-84.7277
11
179.039
21
-84.803
0
LINE
8
BLACK
6
CONTINUOUS
10
179.039
20
-84.803
11
178.903
21
-84.8778
0
LINE
8
BLACK
6
CONTINUOUS
10
178.903
20
-84.8778
11
178.648
21
-85.0633
0
LINE
8
BLACK
6
CONTINUOUS
10
178.648
20
-85.0633
11
178.418
21
-85.2794
0
LINE
8
BLACK
6
CONTINUOUS
10
178.418
20
-85.2794
11
178.415
21
-85.2825
0
LINE
8
BLACK
6
CONTINUOUS
10
178.415
20
-85.2825
11
178.415
21
-85.2825
0
LINE
8
BLACK
6
CONTINUOUS
10
178.415
20
-85.2825
11
178.407
21
-85.2919
0
LINE
8
BLACK
6
CONTINUOUS
10
178.407
20
-85.2919
11
178.217
21
-85.5226
0
LINE
8
BLACK
6
CONTINUOUS
10
178.217
20
-85.5226
11
178.047
21
-85.7891
0
LINE
8
BLACK
6
CONTINUOUS
10
178.047
20
-85.7891
11
178.046
21
-85.7927
0
LINE
8
BLACK
6
CONTINUOUS
10
178.046
20
-85.7927
11
178.046
21
-85.7927
0
LINE
8
BLACK
6
CONTINUOUS
10
178.046
20
-85.7927
11
177.915
21
-86.0711
0
LINE
8
BLACK
6
CONTINUOUS
10
177.915
20
-86.0711
11
177.913
21
-86.0747
0
LINE
8
BLACK
6
CONTINUOUS
10
177.913
20
-86.0747
11
177.816
21
-86.3749
0
LINE
8
BLACK
6
CONTINUOUS
10
177.816
20
-86.3749
11
177.756
21
-86.685
0
LINE
8
BLACK
6
CONTINUOUS
10
177.756
20
-86.685
11
177.737
21
-87
0
LINE
8
BLACK
6
CONTINUOUS
10
177.737
20
-87
11
177.756
21
-87.315
0
LINE
8
BLACK
6
CONTINUOUS
10
177.756
20
-87.315
11
177.816
21
-87.6251
0
LINE
8
BLACK
6
CONTINUOUS
10
159.624
20
-82.4614
11
159.628
21
-82.5478
0
LINE
8
BLACK
6
CONTINUOUS
10
159.628
20
-82.5478
11
159.629
21
-82.5515
0
LINE
8
BLACK
6
CONTINUOUS
10
159.629
20
-82.5515
11
159.629
21
-82.5515
0
LINE
8
BLACK
6
CONTINUOUS
10
159.629
20
-82.5515
11
159.643
21
-82.6361
0
LINE
8
BLACK
6
CONTINUOUS
10
159.643
20
-82.6361
11
159.683
21
-82.8696
0
LINE
8
BLACK
6
CONTINUOUS
10
159.683
20
-82.8696
11
159.684
21
-82.8733
0
LINE
8
BLACK
6
CONTINUOUS
10
159.684
20
-82.8733
11
159.684
21
-82.8733
0
LINE
8
BLACK
6
CONTINUOUS
10
159.684
20
-82.8733
11
159.75
21
-83.0928
0
LINE
8
BLACK
6
CONTINUOUS
10
159.75
20
-83.0928
11
159.777
21
-83.1825
0
LINE
8
BLACK
6
CONTINUOUS
10
159.777
20
-83.1825
11
159.907
21
-83.4819
0
LINE
8
BLACK
6
CONTINUOUS
10
159.907
20
-83.4819
11
159.909
21
-83.4852
0
LINE
8
BLACK
6
CONTINUOUS
10
159.909
20
-83.4852
11
159.909
21
-83.4852
0
LINE
8
BLACK
6
CONTINUOUS
10
159.909
20
-83.4852
11
159.952
21
-83.5572
0
LINE
8
BLACK
6
CONTINUOUS
10
159.952
20
-83.5572
11
160.073
21
-83.7634
0
LINE
8
BLACK
6
CONTINUOUS
10
160.073
20
-83.7634
11
160.075
21
-83.7664
0
LINE
8
BLACK
6
CONTINUOUS
10
160.075
20
-83.7664
11
160.269
21
-84.02
0
LINE
8
BLACK
6
CONTINUOUS
10
160.269
20
-84.02
11
160.269
21
-84.02
0
LINE
8
BLACK
6
CONTINUOUS
10
160.269
20
-84.02
11
160.271
21
-84.023
0
LINE
8
BLACK
6
CONTINUOUS
10
160.271
20
-84.023
11
160.499
21
-84.257
0
LINE
8
BLACK
6
CONTINUOUS
10
160.499
20
-84.257
11
160.572
21
-84.3156
0
LINE
8
BLACK
6
CONTINUOUS
10
160.572
20
-84.3156
11
160.75
21
-84.4594
0
LINE
8
BLACK
6
CONTINUOUS
10
160.75
20
-84.4594
11
160.75
21
-84.4594
0
LINE
8
BLACK
6
CONTINUOUS
10
160.75
20
-84.4594
11
160.753
21
-84.4618
0
LINE
8
BLACK
6
CONTINUOUS
10
160.753
20
-84.4618
11
161.03
21
-84.6346
0
LINE
8
BLACK
6
CONTINUOUS
10
161.03
20
-84.6346
11
161.326
21
-84.7729
0
LINE
8
BLACK
6
CONTINUOUS
10
161.326
20
-84.7729
11
161.636
21
-84.8746
0
LINE
8
BLACK
6
CONTINUOUS
10
161.636
20
-84.8746
11
161.957
21
-84.9383
0
LINE
8
BLACK
6
CONTINUOUS
10
161.957
20
-84.9383
11
161.961
21
-84.9386
0
LINE
8
BLACK
6
CONTINUOUS
10
161.961
20
-84.9386
11
161.961
21
-84.9386
0
LINE
8
BLACK
6
CONTINUOUS
10
161.961
20
-84.9386
11
162.279
21
-84.9628
0
LINE
8
BLACK
6
CONTINUOUS
10
162.279
20
-84.9628
11
162.279
21
-84.9628
0
LINE
8
BLACK
6
CONTINUOUS
10
162.279
20
-84.9628
11
162.282
21
-84.9631
0
LINE
8
BLACK
6
CONTINUOUS
10
162.282
20
-84.9631
11
162.609
21
-84.9486
0
LINE
8
BLACK
6
CONTINUOUS
10
162.609
20
-84.9486
11
162.668
21
-84.9386
0
LINE
8
BLACK
6
CONTINUOUS
10
162.668
20
-84.9386
11
162.927
21
-84.8956
0
LINE
8
BLACK
6
CONTINUOUS
10
162.927
20
-84.8956
11
162.927
21
-84.8956
0
LINE
8
BLACK
6
CONTINUOUS
10
162.927
20
-84.8956
11
162.931
21
-84.895
0
LINE
8
BLACK
6
CONTINUOUS
10
162.931
20
-84.895
11
163.244
21
-84.803
0
LINE
8
BLACK
6
CONTINUOUS
10
163.244
20
-84.803
11
163.248
21
-84.8015
0
LINE
8
BLACK
6
CONTINUOUS
10
163.248
20
-84.8015
11
163.248
21
-84.8015
0
LINE
8
BLACK
6
CONTINUOUS
10
163.248
20
-84.8015
11
163.541
21
-84.6756
0
LINE
8
BLACK
6
CONTINUOUS
10
163.541
20
-84.6756
11
163.541
21
-84.6756
0
LINE
8
BLACK
6
CONTINUOUS
10
163.541
20
-84.6756
11
163.544
21
-84.6741
0
LINE
8
BLACK
6
CONTINUOUS
10
163.544
20
-84.6741
11
163.827
21
-84.5101
0
LINE
8
BLACK
6
CONTINUOUS
10
163.827
20
-84.5101
11
164.087
21
-84.3133
0
LINE
8
BLACK
6
CONTINUOUS
10
164.087
20
-84.3133
11
164.322
21
-84.0867
0
LINE
8
BLACK
6
CONTINUOUS
10
164.322
20
-84.0867
11
164.524
21
-83.8396
0
LINE
8
BLACK
6
CONTINUOUS
10
164.524
20
-83.8396
11
164.526
21
-83.8364
0
LINE
8
BLACK
6
CONTINUOUS
10
164.526
20
-83.8364
11
164.526
21
-83.8363
0
LINE
8
BLACK
6
CONTINUOUS
10
164.526
20
-83.8363
11
164.529
21
-83.8334
0
LINE
8
BLACK
6
CONTINUOUS
10
164.529
20
-83.8334
11
164.703
21
-83.5572
0
LINE
8
BLACK
6
CONTINUOUS
10
164.703
20
-83.5572
11
164.843
21
-83.2621
0
LINE
8
BLACK
6
CONTINUOUS
10
164.843
20
-83.2621
11
164.869
21
-83.1825
0
LINE
8
BLACK
6
CONTINUOUS
10
164.869
20
-83.1825
11
164.945
21
-82.9559
0
LINE
8
BLACK
6
CONTINUOUS
10
164.945
20
-82.9559
11
164.945
21
-82.9559
0
LINE
8
BLACK
6
CONTINUOUS
10
164.945
20
-82.9559
11
164.946
21
-82.9523
0
LINE
8
BLACK
6
CONTINUOUS
10
164.946
20
-82.9523
11
165.011
21
-82.6323
0
LINE
8
BLACK
6
CONTINUOUS
10
165.011
20
-82.6323
11
165.018
21
-82.5515
0
LINE
8
BLACK
6
CONTINUOUS
10
165.018
20
-82.5515
11
165.038
21
-82.3091
0
LINE
8
BLACK
6
CONTINUOUS
10
165.038
20
-82.3091
11
165.038
21
-82.3068
0
LINE
8
BLACK
6
CONTINUOUS
10
165.038
20
-82.3068
11
165.038
21
-82.25
0
LINE
8
BLACK
6
CONTINUOUS
10
165.038
20
-82.25
11
165.038
21
-82.2348
0
LINE
8
BLACK
6
CONTINUOUS
10
165.038
20
-82.2348
11
165.019
21
-81.9278
0
LINE
8
BLACK
6
CONTINUOUS
10
165.019
20
-81.9278
11
165.019
21
-81.9278
0
LINE
8
BLACK
6
CONTINUOUS
10
165.019
20
-81.9278
11
165.019
21
-81.924
0
LINE
8
BLACK
6
CONTINUOUS
10
165.019
20
-81.924
11
165.014
21
-81.8958
0
LINE
8
BLACK
6
CONTINUOUS
10
165.014
20
-81.8958
11
164.961
21
-81.6065
0
LINE
8
BLACK
6
CONTINUOUS
10
164.961
20
-81.6065
11
164.961
21
-81.6065
0
LINE
8
BLACK
6
CONTINUOUS
10
164.961
20
-81.6065
11
164.96
21
-81.6028
0
LINE
8
BLACK
6
CONTINUOUS
10
164.96
20
-81.6028
11
164.953
21
-81.5789
0
LINE
8
BLACK
6
CONTINUOUS
10
164.953
20
-81.5789
11
164.864
21
-81.2945
0
LINE
8
BLACK
6
CONTINUOUS
10
164.864
20
-81.2945
11
164.863
21
-81.2909
0
LINE
8
BLACK
6
CONTINUOUS
10
164.863
20
-81.2909
11
164.73
21
-80.9929
0
LINE
8
BLACK
6
CONTINUOUS
10
164.73
20
-80.9929
11
164.561
21
-80.7131
0
LINE
8
BLACK
6
CONTINUOUS
10
164.561
20
-80.7131
11
164.559
21
-80.7101
0
LINE
8
BLACK
6
CONTINUOUS
10
164.559
20
-80.7101
11
164.559
21
-80.7101
0
LINE
8
BLACK
6
CONTINUOUS
10
164.559
20
-80.7101
11
164.363
21
-80.4586
0
LINE
8
BLACK
6
CONTINUOUS
10
164.363
20
-80.4586
11
164.363
21
-80.4586
0
LINE
8
BLACK
6
CONTINUOUS
10
164.363
20
-80.4586
11
164.36
21
-80.4556
0
LINE
8
BLACK
6
CONTINUOUS
10
164.36
20
-80.4556
11
164.13
21
-80.224
0
LINE
8
BLACK
6
CONTINUOUS
10
164.13
20
-80.224
11
163.874
21
-80.0219
0
LINE
8
BLACK
6
CONTINUOUS
10
163.874
20
-80.0219
11
163.595
21
-79.8519
0
LINE
8
BLACK
6
CONTINUOUS
10
163.595
20
-79.8519
11
163.591
21
-79.8504
0
LINE
8
BLACK
6
CONTINUOUS
10
163.591
20
-79.8504
11
163.591
21
-79.8504
0
LINE
8
BLACK
6
CONTINUOUS
10
163.591
20
-79.8504
11
163.481
21
-79.8001
0
LINE
8
BLACK
6
CONTINUOUS
10
163.481
20
-79.8001
11
163.297
21
-79.7168
0
LINE
8
BLACK
6
CONTINUOUS
10
163.297
20
-79.7168
11
162.986
21
-79.6183
0
LINE
8
BLACK
6
CONTINUOUS
10
162.986
20
-79.6183
11
162.768
21
-79.5774
0
LINE
8
BLACK
6
CONTINUOUS
10
162.768
20
-79.5774
11
162.669
21
-79.5586
0
LINE
8
BLACK
6
CONTINUOUS
10
162.669
20
-79.5586
11
162.669
21
-79.5586
0
LINE
8
BLACK
6
CONTINUOUS
10
162.669
20
-79.5586
11
162.665
21
-79.5579
0
LINE
8
BLACK
6
CONTINUOUS
10
162.665
20
-79.5579
11
162.339
21
-79.5366
0
LINE
8
BLACK
6
CONTINUOUS
10
162.339
20
-79.5366
11
162.335
21
-79.5368
0
LINE
8
BLACK
6
CONTINUOUS
10
162.335
20
-79.5368
11
162.335
21
-79.5368
0
LINE
8
BLACK
6
CONTINUOUS
10
162.335
20
-79.5368
11
162.238
21
-79.5422
0
LINE
8
BLACK
6
CONTINUOUS
10
162.238
20
-79.5422
11
162.013
21
-79.5545
0
LINE
8
BLACK
6
CONTINUOUS
10
162.013
20
-79.5545
11
162.009
21
-79.5552
0
LINE
8
BLACK
6
CONTINUOUS
10
162.009
20
-79.5552
11
162.009
21
-79.5552
0
LINE
8
BLACK
6
CONTINUOUS
10
162.009
20
-79.5552
11
161.852
21
-79.583
0
LINE
8
BLACK
6
CONTINUOUS
10
161.852
20
-79.583
11
161.692
21
-79.6115
0
LINE
8
BLACK
6
CONTINUOUS
10
161.692
20
-79.6115
11
161.688
21
-79.6126
0
LINE
8
BLACK
6
CONTINUOUS
10
161.688
20
-79.6126
11
161.688
21
-79.6126
0
LINE
8
BLACK
6
CONTINUOUS
10
161.688
20
-79.6126
11
161.383
21
-79.7056
0
LINE
8
BLACK
6
CONTINUOUS
10
161.383
20
-79.7056
11
161.379
21
-79.7067
0
LINE
8
BLACK
6
CONTINUOUS
10
161.379
20
-79.7067
11
161.08
21
-79.8388
0
LINE
8
BLACK
6
CONTINUOUS
10
161.08
20
-79.8388
11
161.055
21
-79.8539
0
LINE
8
BLACK
6
CONTINUOUS
10
161.055
20
-79.8539
11
160.803
21
-80.0038
0
LINE
8
BLACK
6
CONTINUOUS
10
160.803
20
-80.0038
11
160.803
21
-80.0038
0
LINE
8
BLACK
6
CONTINUOUS
10
160.803
20
-80.0038
11
160.8
21
-80.0058
0
LINE
8
BLACK
6
CONTINUOUS
10
160.8
20
-80.0058
11
160.541
21
-80.2052
0
LINE
8
BLACK
6
CONTINUOUS
10
160.541
20
-80.2052
11
160.309
21
-80.4343
0
LINE
8
BLACK
6
CONTINUOUS
10
160.309
20
-80.4343
11
160.306
21
-80.4373
0
LINE
8
BLACK
6
CONTINUOUS
10
160.306
20
-80.4373
11
160.306
21
-80.4373
0
LINE
8
BLACK
6
CONTINUOUS
10
160.306
20
-80.4373
11
160.289
21
-80.4586
0
LINE
8
BLACK
6
CONTINUOUS
10
160.289
20
-80.4586
11
160.105
21
-80.6898
0
LINE
8
BLACK
6
CONTINUOUS
10
160.105
20
-80.6898
11
159.934
21
-80.9678
0
LINE
8
BLACK
6
CONTINUOUS
10
159.934
20
-80.9678
11
159.797
21
-81.2643
0
LINE
8
BLACK
6
CONTINUOUS
10
159.797
20
-81.2643
11
159.796
21
-81.2679
0
LINE
8
BLACK
6
CONTINUOUS
10
159.796
20
-81.2679
11
159.796
21
-81.2679
0
LINE
8
BLACK
6
CONTINUOUS
10
159.796
20
-81.2679
11
159.787
21
-81.2945
0
LINE
8
BLACK
6
CONTINUOUS
10
159.787
20
-81.2945
11
159.697
21
-81.5752
0
LINE
8
BLACK
6
CONTINUOUS
10
159.697
20
-81.5752
11
159.696
21
-81.5789
0
LINE
8
BLACK
6
CONTINUOUS
10
159.696
20
-81.5789
11
159.696
21
-81.5789
0
LINE
8
BLACK
6
CONTINUOUS
10
159.696
20
-81.5789
11
159.635
21
-81.8921
0
LINE
8
BLACK
6
CONTINUOUS
10
159.635
20
-81.8921
11
159.635
21
-81.8921
0
LINE
8
BLACK
6
CONTINUOUS
10
159.635
20
-81.8921
11
159.635
21
-81.8958
0
LINE
8
BLACK
6
CONTINUOUS
10
159.635
20
-81.8958
11
159.612
21
-82.2216
0
LINE
8
BLACK
6
CONTINUOUS
10
159.612
20
-82.2216
11
159.612
21
-82.2254
0
LINE
8
BLACK
6
CONTINUOUS
10
159.612
20
-82.2254
11
159.624
21
-82.4614
0
LINE
8
BLACK
6
CONTINUOUS
10
142.091
20
-77.1251
11
142.188
21
-77.4253
0
LINE
8
BLACK
6
CONTINUOUS
10
142.188
20
-77.4253
11
142.19
21
-77.4289
0
LINE
8
BLACK
6
CONTINUOUS
10
142.19
20
-77.4289
11
142.19
21
-77.4289
0
LINE
8
BLACK
6
CONTINUOUS
10
142.19
20
-77.4289
11
142.321
21
-77.7073
0
LINE
8
BLACK
6
CONTINUOUS
10
142.321
20
-77.7073
11
142.321
21
-77.7073
0
LINE
8
BLACK
6
CONTINUOUS
10
142.321
20
-77.7073
11
142.322
21
-77.7109
0
LINE
8
BLACK
6
CONTINUOUS
10
142.322
20
-77.7109
11
142.492
21
-77.9774
0
LINE
8
BLACK
6
CONTINUOUS
10
142.492
20
-77.9774
11
142.693
21
-78.2206
0
LINE
8
BLACK
6
CONTINUOUS
10
142.693
20
-78.2206
11
142.923
21
-78.4367
0
LINE
8
BLACK
6
CONTINUOUS
10
142.923
20
-78.4367
11
143.178
21
-78.6222
0
LINE
8
BLACK
6
CONTINUOUS
10
143.178
20
-78.6222
11
143.455
21
-78.7742
0
LINE
8
BLACK
6
CONTINUOUS
10
143.455
20
-78.7742
11
143.458
21
-78.7757
0
LINE
8
BLACK
6
CONTINUOUS
10
143.458
20
-78.7757
11
143.458
21
-78.7757
0
LINE
8
BLACK
6
CONTINUOUS
10
143.458
20
-78.7757
11
143.745
21
-78.889
0
LINE
8
BLACK
6
CONTINUOUS
10
143.745
20
-78.889
11
143.748
21
-78.8904
0
LINE
8
BLACK
6
CONTINUOUS
10
143.748
20
-78.8904
11
144.054
21
-78.9689
0
LINE
8
BLACK
6
CONTINUOUS
10
144.054
20
-78.9689
11
144.367
21
-79.0085
0
LINE
8
BLACK
6
CONTINUOUS
10
144.367
20
-79.0085
11
144.683
21
-79.0085
0
LINE
8
BLACK
6
CONTINUOUS
10
144.683
20
-79.0085
11
144.996
21
-78.9689
0
LINE
8
BLACK
6
CONTINUOUS
10
144.996
20
-78.9689
11
145.302
21
-78.8904
0
LINE
8
BLACK
6
CONTINUOUS
10
145.302
20
-78.8904
11
145.305
21
-78.889
0
LINE
8
BLACK
6
CONTINUOUS
10
145.305
20
-78.889
11
145.592
21
-78.7757
0
LINE
8
BLACK
6
CONTINUOUS
10
145.592
20
-78.7757
11
145.592
21
-78.7757
0
LINE
8
BLACK
6
CONTINUOUS
10
145.592
20
-78.7757
11
145.595
21
-78.7742
0
LINE
8
BLACK
6
CONTINUOUS
10
145.595
20
-78.7742
11
145.872
21
-78.6222
0
LINE
8
BLACK
6
CONTINUOUS
10
145.872
20
-78.6222
11
146.127
21
-78.4367
0
LINE
8
BLACK
6
CONTINUOUS
10
146.127
20
-78.4367
11
146.357
21
-78.2206
0
LINE
8
BLACK
6
CONTINUOUS
10
146.357
20
-78.2206
11
146.558
21
-77.9774
0
LINE
8
BLACK
6
CONTINUOUS
10
146.558
20
-77.9774
11
146.728
21
-77.7109
0
LINE
8
BLACK
6
CONTINUOUS
10
146.728
20
-77.7109
11
146.729
21
-77.7073
0
LINE
8
BLACK
6
CONTINUOUS
10
146.729
20
-77.7073
11
146.729
21
-77.7073
0
LINE
8
BLACK
6
CONTINUOUS
10
146.729
20
-77.7073
11
146.86
21
-77.4289
0
LINE
8
BLACK
6
CONTINUOUS
10
146.86
20
-77.4289
11
146.86
21
-77.4289
0
LINE
8
BLACK
6
CONTINUOUS
10
146.86
20
-77.4289
11
146.862
21
-77.4253
0
LINE
8
BLACK
6
CONTINUOUS
10
146.862
20
-77.4253
11
146.959
21
-77.1251
0
LINE
8
BLACK
6
CONTINUOUS
10
146.959
20
-77.1251
11
147.019
21
-76.815
0
LINE
8
BLACK
6
CONTINUOUS
10
147.019
20
-76.815
11
147.038
21
-76.5
0
LINE
8
BLACK
6
CONTINUOUS
10
147.038
20
-76.5
11
147.019
21
-76.185
0
LINE
8
BLACK
6
CONTINUOUS
10
147.019
20
-76.185
11
146.959
21
-75.8749
0
LINE
8
BLACK
6
CONTINUOUS
10
146.959
20
-75.8749
11
146.862
21
-75.5747
0
LINE
8
BLACK
6
CONTINUOUS
10
146.862
20
-75.5747
11
146.86
21
-75.5711
0
LINE
8
BLACK
6
CONTINUOUS
10
146.86
20
-75.5711
11
146.729
21
-75.2927
0
LINE
8
BLACK
6
CONTINUOUS
10
146.729
20
-75.2927
11
146.729
21
-75.2927
0
LINE
8
BLACK
6
CONTINUOUS
10
146.729
20
-75.2927
11
146.728
21
-75.2891
0
LINE
8
BLACK
6
CONTINUOUS
10
146.728
20
-75.2891
11
146.558
21
-75.0226
0
LINE
8
BLACK
6
CONTINUOUS
10
146.558
20
-75.0226
11
146.357
21
-74.7794
0
LINE
8
BLACK
6
CONTINUOUS
10
146.357
20
-74.7794
11
146.127
21
-74.5633
0
LINE
8
BLACK
6
CONTINUOUS
10
146.127
20
-74.5633
11
145.872
21
-74.3778
0
LINE
8
BLACK
6
CONTINUOUS
10
145.872
20
-74.3778
11
145.595
21
-74.2258
0
LINE
8
BLACK
6
CONTINUOUS
10
145.595
20
-74.2258
11
145.592
21
-74.2243
0
LINE
8
BLACK
6
CONTINUOUS
10
145.592
20
-74.2243
11
145.592
21
-74.2243
0
LINE
8
BLACK
6
CONTINUOUS
10
145.592
20
-74.2243
11
145.305
21
-74.111
0
LINE
8
BLACK
6
CONTINUOUS
10
145.305
20
-74.111
11
145.305
21
-74.111
0
LINE
8
BLACK
6
CONTINUOUS
10
145.305
20
-74.111
11
145.302
21
-74.1096
0
LINE
8
BLACK
6
CONTINUOUS
10
145.302
20
-74.1096
11
144.996
21
-74.0311
0
LINE
8
BLACK
6
CONTINUOUS
10
144.996
20
-74.0311
11
144.683
21
-73.9915
0
LINE
8
BLACK
6
CONTINUOUS
10
144.683
20
-73.9915
11
144.367
21
-73.9915
0
LINE
8
BLACK
6
CONTINUOUS
10
144.367
20
-73.9915
11
144.054
21
-74.0311
0
LINE
8
BLACK
6
CONTINUOUS
10
144.054
20
-74.0311
11
143.748
21
-74.1096
0
LINE
8
BLACK
6
CONTINUOUS
10
143.748
20
-74.1096
11
143.745
21
-74.111
0
LINE
8
BLACK
6
CONTINUOUS
10
143.745
20
-74.111
11
143.745
21
-74.111
0
LINE
8
BLACK
6
CONTINUOUS
10
143.745
20
-74.111
11
143.458
21
-74.2243
0
LINE
8
BLACK
6
CONTINUOUS
10
143.458
20
-74.2243
11
143.458
21
-74.2243
0
LINE
8
BLACK
6
CONTINUOUS
10
143.458
20
-74.2243
11
143.455
21
-74.2258
0
LINE
8
BLACK
6
CONTINUOUS
10
143.455
20
-74.2258
11
143.178
21
-74.3778
0
LINE
8
BLACK
6
CONTINUOUS
10
143.178
20
-74.3778
11
142.923
21
-74.5633
0
LINE
8
BLACK
6
CONTINUOUS
10
142.923
20
-74.5633
11
142.693
21
-74.7794
0
LINE
8
BLACK
6
CONTINUOUS
10
142.693
20
-74.7794
11
142.492
21
-75.0226
0
LINE
8
BLACK
6
CONTINUOUS
10
142.492
20
-75.0226
11
142.322
21
-75.2891
0
LINE
8
BLACK
6
CONTINUOUS
10
142.322
20
-75.2891
11
142.321
21
-75.2927
0
LINE
8
BLACK
6
CONTINUOUS
10
142.321
20
-75.2927
11
142.321
21
-75.2927
0
LINE
8
BLACK
6
CONTINUOUS
10
142.321
20
-75.2927
11
142.19
21
-75.5711
0
LINE
8
BLACK
6
CONTINUOUS
10
142.19
20
-75.5711
11
142.188
21
-75.5747
0
LINE
8
BLACK
6
CONTINUOUS
10
142.188
20
-75.5747
11
142.091
21
-75.8749
0
LINE
8
BLACK
6
CONTINUOUS
10
142.091
20
-75.8749
11
142.031
21
-76.185
0
LINE
8
BLACK
6
CONTINUOUS
10
142.031
20
-76.185
11
142.012
21
-76.5
0
LINE
8
BLACK
6
CONTINUOUS
10
142.012
20
-76.5
11
142.031
21
-76.815
0
LINE
8
BLACK
6
CONTINUOUS
10
142.031
20
-76.815
11
142.091
21
-77.1251
0
LINE
8
BLACK
6
CONTINUOUS
10
187.838
20
-117.275
11
188.113
21
-117.338
0
LINE
8
BLACK
6
CONTINUOUS
10
188.113
20
-117.338
11
188.377
21
-117.44
0
LINE
8
BLACK
6
CONTINUOUS
10
188.377
20
-117.44
11
188.623
21
-117.578
0
LINE
8
BLACK
6
CONTINUOUS
10
188.623
20
-117.578
11
188.848
21
-117.75
0
LINE
8
BLACK
6
CONTINUOUS
10
188.848
20
-117.75
11
189.046
21
-117.951
0
LINE
8
BLACK
6
CONTINUOUS
10
189.046
20
-117.951
11
189.214
21
-118.178
0
LINE
8
BLACK
6
CONTINUOUS
10
189.214
20
-118.178
11
189.348
21
-118.427
0
LINE
8
BLACK
6
CONTINUOUS
10
189.348
20
-118.427
11
189.446
21
-118.692
0
LINE
8
BLACK
6
CONTINUOUS
10
189.446
20
-118.692
11
189.505
21
-118.968
0
LINE
8
BLACK
6
CONTINUOUS
10
189.505
20
-118.968
11
189.525
21
-119.25
0
LINE
8
BLACK
6
CONTINUOUS
10
189.525
20
-119.25
11
189.521
21
-119.376
0
LINE
8
BLACK
6
CONTINUOUS
10
189.521
20
-119.376
11
189.483
21
-119.656
0
LINE
8
BLACK
6
CONTINUOUS
10
189.483
20
-119.656
11
189.407
21
-119.927
0
LINE
8
BLACK
6
CONTINUOUS
10
189.407
20
-119.927
11
189.293
21
-120.186
0
LINE
8
BLACK
6
CONTINUOUS
10
189.293
20
-120.186
11
189.143
21
-120.426
0
LINE
8
BLACK
6
CONTINUOUS
10
189.143
20
-120.426
11
188.961
21
-120.642
0
LINE
8
BLACK
6
CONTINUOUS
10
188.961
20
-120.642
11
188.751
21
-120.83
0
LINE
8
BLACK
6
CONTINUOUS
10
188.751
20
-120.83
11
188.516
21
-120.987
0
LINE
8
BLACK
6
CONTINUOUS
10
188.516
20
-120.987
11
188.261
21
-121.11
0
LINE
8
BLACK
6
CONTINUOUS
10
188.261
20
-121.11
11
187.992
21
-121.195
0
LINE
8
BLACK
6
CONTINUOUS
10
187.992
20
-121.195
11
187.713
21
-121.241
0
LINE
8
BLACK
6
CONTINUOUS
10
187.713
20
-121.241
11
187.431
21
-121.248
0
LINE
8
BLACK
6
CONTINUOUS
10
187.431
20
-121.248
11
187.15
21
-121.215
0
LINE
8
BLACK
6
CONTINUOUS
10
187.15
20
-121.215
11
186.877
21
-121.142
0
LINE
8
BLACK
6
CONTINUOUS
10
186.877
20
-121.142
11
186.617
21
-121.032
0
LINE
8
BLACK
6
CONTINUOUS
10
186.617
20
-121.032
11
186.375
21
-120.886
0
LINE
8
BLACK
6
CONTINUOUS
10
186.375
20
-120.886
11
186.156
21
-120.708
0
LINE
8
BLACK
6
CONTINUOUS
10
186.156
20
-120.708
11
185.964
21
-120.5
0
LINE
8
BLACK
6
CONTINUOUS
10
185.964
20
-120.5
11
185.804
21
-120.268
0
LINE
8
BLACK
6
CONTINUOUS
10
185.804
20
-120.268
11
185.677
21
-120.015
0
LINE
8
BLACK
6
CONTINUOUS
10
185.677
20
-120.015
11
185.588
21
-119.747
0
LINE
8
BLACK
6
CONTINUOUS
10
185.588
20
-119.747
11
185.537
21
-119.469
0
LINE
8
BLACK
6
CONTINUOUS
10
185.537
20
-119.469
11
185.526
21
-119.187
0
LINE
8
BLACK
6
CONTINUOUS
10
185.526
20
-119.187
11
185.555
21
-118.906
0
LINE
8
BLACK
6
CONTINUOUS
10
185.555
20
-118.906
11
185.623
21
-118.632
0
LINE
8
BLACK
6
CONTINUOUS
10
185.623
20
-118.632
11
185.729
21
-118.37
0
LINE
8
BLACK
6
CONTINUOUS
10
185.729
20
-118.37
11
185.871
21
-118.126
0
LINE
8
BLACK
6
CONTINUOUS
10
185.871
20
-118.126
11
186.046
21
-117.904
0
LINE
8
BLACK
6
CONTINUOUS
10
186.046
20
-117.904
11
186.25
21
-117.709
0
LINE
8
BLACK
6
CONTINUOUS
10
186.25
20
-117.709
11
186.48
21
-117.545
0
LINE
8
BLACK
6
CONTINUOUS
10
186.48
20
-117.545
11
186.731
21
-117.414
0
LINE
8
BLACK
6
CONTINUOUS
10
186.731
20
-117.414
11
186.997
21
-117.321
0
LINE
8
BLACK
6
CONTINUOUS
10
186.997
20
-117.321
11
187.274
21
-117.266
0
LINE
8
BLACK
6
CONTINUOUS
10
187.274
20
-117.266
11
187.556
21
-117.25
0
LINE
8
BLACK
6
CONTINUOUS
10
187.556
20
-117.25
11
187.838
21
-117.275
0
LINE
8
BLACK
6
CONTINUOUS
10
107.588
20
-112.025
11
107.863
21
-112.088
0
LINE
8
BLACK
6
CONTINUOUS
10
107.863
20
-112.088
11
108.127
21
-112.19
0
LINE
8
BLACK
6
CONTINUOUS
10
108.127
20
-112.19
11
108.373
21
-112.328
0
LINE
8
BLACK
6
CONTINUOUS
10
108.373
20
-112.328
11
108.598
21
-112.5
0
LINE
8
BLACK
6
CONTINUOUS
10
108.598
20
-112.5
11
108.796
21
-112.701
0
LINE
8
BLACK
6
CONTINUOUS
10
108.796
20
-112.701
11
108.964
21
-112.928
0
LINE
8
BLACK
6
CONTINUOUS
10
108.964
20
-112.928
11
109.098
21
-113.177
0
LINE
8
BLACK
6
CONTINUOUS
10
109.098
20
-113.177
11
109.196
21
-113.442
0
LINE
8
BLACK
6
CONTINUOUS
10
109.196
20
-113.442
11
109.255
21
-113.718
0
LINE
8
BLACK
6
CONTINUOUS
10
109.255
20
-113.718
11
109.275
21
-114
0
LINE
8
BLACK
6
CONTINUOUS
10
109.275
20
-114
11
109.271
21
-114.126
0
LINE
8
BLACK
6
CONTINUOUS
10
109.271
20
-114.126
11
109.233
21
-114.406
0
LINE
8
BLACK
6
CONTINUOUS
10
109.233
20
-114.406
11
109.157
21
-114.677
0
LINE
8
BLACK
6
CONTINUOUS
10
109.157
20
-114.677
11
109.043
21
-114.936
0
LINE
8
BLACK
6
CONTINUOUS
10
109.043
20
-114.936
11
108.893
21
-115.176
0
LINE
8
BLACK
6
CONTINUOUS
10
108.893
20
-115.176
11
108.711
21
-115.392
0
LINE
8
BLACK
6
CONTINUOUS
10
108.711
20
-115.392
11
108.501
21
-115.58
0
LINE
8
BLACK
6
CONTINUOUS
10
108.501
20
-115.58
11
108.266
21
-115.737
0
LINE
8
BLACK
6
CONTINUOUS
10
108.266
20
-115.737
11
108.011
21
-115.86
0
LINE
8
BLACK
6
CONTINUOUS
10
108.011
20
-115.86
11
107.742
21
-115.945
0
LINE
8
BLACK
6
CONTINUOUS
10
107.742
20
-115.945
11
107.463
21
-115.991
0
LINE
8
BLACK
6
CONTINUOUS
10
107.463
20
-115.991
11
107.181
21
-115.998
0
LINE
8
BLACK
6
CONTINUOUS
10
107.181
20
-115.998
11
106.9
21
-115.965
0
LINE
8
BLACK
6
CONTINUOUS
10
106.9
20
-115.965
11
106.627
21
-115.892
0
LINE
8
BLACK
6
CONTINUOUS
10
106.627
20
-115.892
11
106.367
21
-115.782
0
LINE
8
BLACK
6
CONTINUOUS
10
106.367
20
-115.782
11
106.125
21
-115.636
0
LINE
8
BLACK
6
CONTINUOUS
10
106.125
20
-115.636
11
105.906
21
-115.458
0
LINE
8
BLACK
6
CONTINUOUS
10
105.906
20
-115.458
11
105.714
21
-115.25
0
LINE
8
BLACK
6
CONTINUOUS
10
105.714
20
-115.25
11
105.554
21
-115.018
0
LINE
8
BLACK
6
CONTINUOUS
10
105.554
20
-115.018
11
105.427
21
-114.765
0
LINE
8
BLACK
6
CONTINUOUS
10
105.427
20
-114.765
11
105.338
21
-114.497
0
LINE
8
BLACK
6
CONTINUOUS
10
105.338
20
-114.497
11
105.287
21
-114.219
0
LINE
8
BLACK
6
CONTINUOUS
10
105.287
20
-114.219
11
105.276
21
-113.937
0
LINE
8
BLACK
6
CONTINUOUS
10
105.276
20
-113.937
11
105.305
21
-113.656
0
LINE
8
BLACK
6
CONTINUOUS
10
105.305
20
-113.656
11
105.373
21
-113.382
0
LINE
8
BLACK
6
CONTINUOUS
10
105.373
20
-113.382
11
105.479
21
-113.12
0
LINE
8
BLACK
6
CONTINUOUS
10
105.479
20
-113.12
11
105.621
21
-112.876
0
LINE
8
BLACK
6
CONTINUOUS
10
105.621
20
-112.876
11
105.796
21
-112.654
0
LINE
8
BLACK
6
CONTINUOUS
10
105.796
20
-112.654
11
106
21
-112.459
0
LINE
8
BLACK
6
CONTINUOUS
10
106
20
-112.459
11
106.23
21
-112.295
0
LINE
8
BLACK
6
CONTINUOUS
10
106.23
20
-112.295
11
106.481
21
-112.164
0
LINE
8
BLACK
6
CONTINUOUS
10
106.481
20
-112.164
11
106.747
21
-112.071
0
LINE
8
BLACK
6
CONTINUOUS
10
106.747
20
-112.071
11
107.024
21
-112.016
0
LINE
8
BLACK
6
CONTINUOUS
10
107.024
20
-112.016
11
107.306
21
-112
0
LINE
8
BLACK
6
CONTINUOUS
10
107.306
20
-112
11
107.588
21
-112.025
0
LINE
8
BLACK
6
CONTINUOUS
10
143.562
20
-99.1188
11
143.844
21
-99.175
0
LINE
8
BLACK
6
CONTINUOUS
10
143.844
20
-99.175
11
144.117
21
-99.2675
0
LINE
8
BLACK
6
CONTINUOUS
10
144.117
20
-99.2675
11
144.375
21
-99.3947
0
LINE
8
BLACK
6
CONTINUOUS
10
144.375
20
-99.3947
11
144.614
21
-99.5546
0
LINE
8
BLACK
6
CONTINUOUS
10
144.614
20
-99.5546
11
144.831
21
-99.7444
0
LINE
8
BLACK
6
CONTINUOUS
10
144.831
20
-99.7444
11
145.02
21
-99.9607
0
LINE
8
BLACK
6
CONTINUOUS
10
145.02
20
-99.9607
11
145.18
21
-100.2
0
LINE
8
BLACK
6
CONTINUOUS
10
145.18
20
-100.2
11
145.308
21
-100.458
0
LINE
8
BLACK
6
CONTINUOUS
10
145.308
20
-100.458
11
145.4
21
-100.731
0
LINE
8
BLACK
6
CONTINUOUS
10
145.4
20
-100.731
11
145.456
21
-101.013
0
LINE
8
BLACK
6
CONTINUOUS
10
145.456
20
-101.013
11
145.475
21
-101.3
0
LINE
8
BLACK
6
CONTINUOUS
10
145.475
20
-101.3
11
145.456
21
-101.587
0
LINE
8
BLACK
6
CONTINUOUS
10
145.456
20
-101.587
11
145.4
21
-101.869
0
LINE
8
BLACK
6
CONTINUOUS
10
145.4
20
-101.869
11
145.308
21
-102.142
0
LINE
8
BLACK
6
CONTINUOUS
10
145.308
20
-102.142
11
145.18
21
-102.4
0
LINE
8
BLACK
6
CONTINUOUS
10
145.18
20
-102.4
11
145.02
21
-102.639
0
LINE
8
BLACK
6
CONTINUOUS
10
145.02
20
-102.639
11
144.831
21
-102.856
0
LINE
8
BLACK
6
CONTINUOUS
10
144.831
20
-102.856
11
144.614
21
-103.045
0
LINE
8
BLACK
6
CONTINUOUS
10
144.614
20
-103.045
11
144.375
21
-103.205
0
LINE
8
BLACK
6
CONTINUOUS
10
144.375
20
-103.205
11
144.117
21
-103.333
0
LINE
8
BLACK
6
CONTINUOUS
10
144.117
20
-103.333
11
143.844
21
-103.425
0
LINE
8
BLACK
6
CONTINUOUS
10
143.844
20
-103.425
11
143.562
21
-103.481
0
LINE
8
BLACK
6
CONTINUOUS
10
143.562
20
-103.481
11
143.275
21
-103.5
0
LINE
8
BLACK
6
CONTINUOUS
10
143.275
20
-103.5
11
142.988
21
-103.481
0
LINE
8
BLACK
6
CONTINUOUS
10
142.988
20
-103.481
11
142.706
21
-103.425
0
LINE
8
BLACK
6
CONTINUOUS
10
142.706
20
-103.425
11
142.433
21
-103.333
0
LINE
8
BLACK
6
CONTINUOUS
10
142.433
20
-103.333
11
142.175
21
-103.205
0
LINE
8
BLACK
6
CONTINUOUS
10
142.175
20
-103.205
11
141.936
21
-103.045
0
LINE
8
BLACK
6
CONTINUOUS
10
141.936
20
-103.045
11
141.719
21
-102.856
0
LINE
8
BLACK
6
CONTINUOUS
10
141.719
20
-102.856
11
141.53
21
-102.639
0
LINE
8
BLACK
6
CONTINUOUS
10
141.53
20
-102.639
11
141.37
21
-102.4
0
LINE
8
BLACK
6
CONTINUOUS
10
141.37
20
-102.4
11
141.242
21
-102.142
0
LINE
8
BLACK
6
CONTINUOUS
10
141.242
20
-102.142
11
141.15
21
-101.869
0
LINE
8
BLACK
6
CONTINUOUS
10
141.15
20
-101.869
11
141.094
21
-101.587
0
LINE
8
BLACK
6
CONTINUOUS
10
141.094
20
-101.587
11
141.075
21
-101.3
0
LINE
8
BLACK
6
CONTINUOUS
10
141.075
20
-101.3
11
141.094
21
-101.013
0
LINE
8
BLACK
6
CONTINUOUS
10
141.094
20
-101.013
11
141.15
21
-100.731
0
LINE
8
BLACK
6
CONTINUOUS
10
141.15
20
-100.731
11
141.242
21
-100.458
0
LINE
8
BLACK
6
CONTINUOUS
10
141.242
20
-100.458
11
141.37
21
-100.2
0
LINE
8
BLACK
6
CONTINUOUS
10
141.37
20
-100.2
11
141.53
21
-99.9607
0
LINE
8
BLACK
6
CONTINUOUS
10
141.53
20
-99.9607
11
141.719
21
-99.7444
0
LINE
8
BLACK
6
CONTINUOUS
10
141.719
20
-99.7444
11
141.936
21
-99.5546
0
LINE
8
BLACK
6
CONTINUOUS
10
141.936
20
-99.5546
11
142.175
21
-99.3947
0
LINE
8
BLACK
6
CONTINUOUS
10
142.175
20
-99.3947
11
142.433
21
-99.2675
0
LINE
8
BLACK
6
CONTINUOUS
10
142.433
20
-99.2675
11
142.706
21
-99.175
0
LINE
8
BLACK
6
CONTINUOUS
10
142.706
20
-99.175
11
142.988
21
-99.1188
0
LINE
8
BLACK
6
CONTINUOUS
10
142.988
20
-99.1188
11
143.275
21
-99.1
0
LINE
8
BLACK
6
CONTINUOUS
10
143.275
20
-99.1
11
143.562
21
-99.1188
0
LINE
8
BLACK
6
CONTINUOUS
10
180.563
20
-85.0246
11
180.838
21
-85.0884
0
LINE
8
BLACK
6
CONTINUOUS
10
180.838
20
-85.0884
11
181.102
21
-85.1903
0
LINE
8
BLACK
6
CONTINUOUS
10
181.102
20
-85.1903
11
181.348
21
-85.3284
0
LINE
8
BLACK
6
CONTINUOUS
10
181.348
20
-85.3284
11
181.573
21
-85.4998
0
LINE
8
BLACK
6
CONTINUOUS
10
181.573
20
-85.4998
11
181.771
21
-85.7011
0
LINE
8
BLACK
6
CONTINUOUS
10
181.771
20
-85.7011
11
181.939
21
-85.9283
0
LINE
8
BLACK
6
CONTINUOUS
10
181.939
20
-85.9283
11
182.073
21
-86.177
0
LINE
8
BLACK
6
CONTINUOUS
10
182.073
20
-86.177
11
182.171
21
-86.442
0
LINE
8
BLACK
6
CONTINUOUS
10
182.171
20
-86.442
11
182.23
21
-86.7182
0
LINE
8
BLACK
6
CONTINUOUS
10
182.23
20
-86.7182
11
182.25
21
-87
0
LINE
8
BLACK
6
CONTINUOUS
10
182.25
20
-87
11
182.246
21
-87.1256
0
LINE
8
BLACK
6
CONTINUOUS
10
182.246
20
-87.1256
11
182.208
21
-87.4056
0
LINE
8
BLACK
6
CONTINUOUS
10
182.208
20
-87.4056
11
182.132
21
-87.6775
0
LINE
8
BLACK
6
CONTINUOUS
10
182.132
20
-87.6775
11
182.018
21
-87.9359
0
LINE
8
BLACK
6
CONTINUOUS
10
182.018
20
-87.9359
11
181.868
21
-88.1756
0
LINE
8
BLACK
6
CONTINUOUS
10
181.868
20
-88.1756
11
181.686
21
-88.3918
0
LINE
8
BLACK
6
CONTINUOUS
10
181.686
20
-88.3918
11
181.476
21
-88.5803
0
LINE
8
BLACK
6
CONTINUOUS
10
181.476
20
-88.5803
11
181.241
21
-88.7373
0
LINE
8
BLACK
6
CONTINUOUS
10
181.241
20
-88.7373
11
180.986
21
-88.8596
0
LINE
8
BLACK
6
CONTINUOUS
10
180.986
20
-88.8596
11
180.717
21
-88.9447
0
LINE
8
BLACK
6
CONTINUOUS
10
180.717
20
-88.9447
11
180.438
21
-88.9911
0
LINE
8
BLACK
6
CONTINUOUS
10
180.438
20
-88.9911
11
180.156
21
-88.9978
0
LINE
8
BLACK
6
CONTINUOUS
10
180.156
20
-88.9978
11
179.875
21
-88.9646
0
LINE
8
BLACK
6
CONTINUOUS
10
179.875
20
-88.9646
11
179.602
21
-88.8922
0
LINE
8
BLACK
6
CONTINUOUS
10
179.602
20
-88.8922
11
179.342
21
-88.782
0
LINE
8
BLACK
6
CONTINUOUS
10
179.342
20
-88.782
11
179.1
21
-88.6363
0
LINE
8
BLACK
6
CONTINUOUS
10
179.1
20
-88.6363
11
178.881
21
-88.4579
0
LINE
8
BLACK
6
CONTINUOUS
10
178.881
20
-88.4579
11
178.689
21
-88.2505
0
LINE
8
BLACK
6
CONTINUOUS
10
178.689
20
-88.2505
11
178.529
21
-88.0181
0
LINE
8
BLACK
6
CONTINUOUS
10
178.529
20
-88.0181
11
178.402
21
-87.7654
0
LINE
8
BLACK
6
CONTINUOUS
10
178.402
20
-87.7654
11
178.313
21
-87.4974
0
LINE
8
BLACK
6
CONTINUOUS
10
178.313
20
-87.4974
11
178.262
21
-87.2195
0
LINE
8
BLACK
6
CONTINUOUS
10
178.262
20
-87.2195
11
178.251
21
-86.9372
0
LINE
8
BLACK
6
CONTINUOUS
10
178.251
20
-86.9372
11
178.28
21
-86.6561
0
LINE
8
BLACK
6
CONTINUOUS
10
178.28
20
-86.6561
11
178.348
21
-86.382
0
LINE
8
BLACK
6
CONTINUOUS
10
178.348
20
-86.382
11
178.454
21
-86.1201
0
LINE
8
BLACK
6
CONTINUOUS
10
178.454
20
-86.1201
11
178.596
21
-85.8758
0
LINE
8
BLACK
6
CONTINUOUS
10
178.596
20
-85.8758
11
178.771
21
-85.654
0
LINE
8
BLACK
6
CONTINUOUS
10
178.771
20
-85.654
11
178.975
21
-85.459
0
LINE
8
BLACK
6
CONTINUOUS
10
178.975
20
-85.459
11
179.205
21
-85.2947
0
LINE
8
BLACK
6
CONTINUOUS
10
179.205
20
-85.2947
11
179.456
21
-85.1645
0
LINE
8
BLACK
6
CONTINUOUS
10
179.456
20
-85.1645
11
179.722
21
-85.0709
0
LINE
8
BLACK
6
CONTINUOUS
10
179.722
20
-85.0709
11
179.999
21
-85.0158
0
LINE
8
BLACK
6
CONTINUOUS
10
179.999
20
-85.0158
11
180.281
21
-85.0002
0
LINE
8
BLACK
6
CONTINUOUS
10
180.281
20
-85.0002
11
180.563
21
-85.0246
0
LINE
8
BLACK
6
CONTINUOUS
10
124.512
20
-80.0688
11
124.794
21
-80.125
0
LINE
8
BLACK
6
CONTINUOUS
10
124.794
20
-80.125
11
125.067
21
-80.2175
0
LINE
8
BLACK
6
CONTINUOUS
10
125.067
20
-80.2175
11
125.325
21
-80.3447
0
LINE
8
BLACK
6
CONTINUOUS
10
125.325
20
-80.3447
11
125.564
21
-80.5046
0
LINE
8
BLACK
6
CONTINUOUS
10
125.564
20
-80.5046
11
125.781
21
-80.6944
0
LINE
8
BLACK
6
CONTINUOUS
10
125.781
20
-80.6944
11
125.97
21
-80.9107
0
LINE
8
BLACK
6
CONTINUOUS
10
125.97
20
-80.9107
11
126.13
21
-81.15
0
LINE
8
BLACK
6
CONTINUOUS
10
126.13
20
-81.15
11
126.258
21
-81.4081
0
LINE
8
BLACK
6
CONTINUOUS
10
126.258
20
-81.4081
11
126.35
21
-81.6806
0
LINE
8
BLACK
6
CONTINUOUS
10
126.35
20
-81.6806
11
126.406
21
-81.9628
0
LINE
8
BLACK
6
CONTINUOUS
10
126.406
20
-81.9628
11
126.425
21
-82.25
0
LINE
8
BLACK
6
CONTINUOUS
10
126.425
20
-82.25
11
126.406
21
-82.5372
0
LINE
8
BLACK
6
CONTINUOUS
10
126.406
20
-82.5372
11
126.35
21
-82.8194
0
LINE
8
BLACK
6
CONTINUOUS
10
126.35
20
-82.8194
11
126.258
21
-83.0919
0
LINE
8
BLACK
6
CONTINUOUS
10
126.258
20
-83.0919
11
126.13
21
-83.35
0
LINE
8
BLACK
6
CONTINUOUS
10
126.13
20
-83.35
11
125.97
21
-83.5893
0
LINE
8
BLACK
6
CONTINUOUS
10
125.97
20
-83.5893
11
125.781
21
-83.8056
0
LINE
8
BLACK
6
CONTINUOUS
10
125.781
20
-83.8056
11
125.564
21
-83.9954
0
LINE
8
BLACK
6
CONTINUOUS
10
125.564
20
-83.9954
11
125.325
21
-84.1553
0
LINE
8
BLACK
6
CONTINUOUS
10
125.325
20
-84.1553
11
125.067
21
-84.2825
0
LINE
8
BLACK
6
CONTINUOUS
10
125.067
20
-84.2825
11
124.794
21
-84.375
0
LINE
8
BLACK
6
CONTINUOUS
10
124.794
20
-84.375
11
124.512
21
-84.4312
0
LINE
8
BLACK
6
CONTINUOUS
10
124.512
20
-84.4312
11
124.225
21
-84.45
0
LINE
8
BLACK
6
CONTINUOUS
10
124.225
20
-84.45
11
123.938
21
-84.4312
0
LINE
8
BLACK
6
CONTINUOUS
10
123.938
20
-84.4312
11
123.656
21
-84.375
0
LINE
8
BLACK
6
CONTINUOUS
10
123.656
20
-84.375
11
123.383
21
-84.2825
0
LINE
8
BLACK
6
CONTINUOUS
10
123.383
20
-84.2825
11
123.125
21
-84.1553
0
LINE
8
BLACK
6
CONTINUOUS
10
123.125
20
-84.1553
11
122.886
21
-83.9954
0
LINE
8
BLACK
6
CONTINUOUS
10
122.886
20
-83.9954
11
122.669
21
-83.8056
0
LINE
8
BLACK
6
CONTINUOUS
10
122.669
20
-83.8056
11
122.48
21
-83.5893
0
LINE
8
BLACK
6
CONTINUOUS
10
122.48
20
-83.5893
11
122.32
21
-83.35
0
LINE
8
BLACK
6
CONTINUOUS
10
122.32
20
-83.35
11
122.192
21
-83.0919
0
LINE
8
BLACK
6
CONTINUOUS
10
122.192
20
-83.0919
11
122.1
21
-82.8194
0
LINE
8
BLACK
6
CONTINUOUS
10
122.1
20
-82.8194
11
122.044
21
-82.5372
0
LINE
8
BLACK
6
CONTINUOUS
10
122.044
20
-82.5372
11
122.025
21
-82.25
0
LINE
8
BLACK
6
CONTINUOUS
10
122.025
20
-82.25
11
122.044
21
-81.9628
0
LINE
8
BLACK
6
CONTINUOUS
10
122.044
20
-81.9628
11
122.1
21
-81.6806
0
LINE
8
BLACK
6
CONTINUOUS
10
122.1
20
-81.6806
11
122.192
21
-81.4081
0
LINE
8
BLACK
6
CONTINUOUS
10
122.192
20
-81.4081
11
122.32
21
-81.15
0
LINE
8
BLACK
6
CONTINUOUS
10
122.32
20
-81.15
11
122.48
21
-80.9107
0
LINE
8
BLACK
6
CONTINUOUS
10
122.48
20
-80.9107
11
122.669
21
-80.6944
0
LINE
8
BLACK
6
CONTINUOUS
10
122.669
20
-80.6944
11
122.886
21
-80.5046
0
LINE
8
BLACK
6
CONTINUOUS
10
122.886
20
-80.5046
11
123.125
21
-80.3447
0
LINE
8
BLACK
6
CONTINUOUS
10
123.125
20
-80.3447
11
123.383
21
-80.2175
0
LINE
8
BLACK
6
CONTINUOUS
10
123.383
20
-80.2175
11
123.656
21
-80.125
0
LINE
8
BLACK
6
CONTINUOUS
10
123.656
20
-80.125
11
123.938
21
-80.0688
0
LINE
8
BLACK
6
CONTINUOUS
10
123.938
20
-80.0688
11
124.225
21
-80.05
0
LINE
8
BLACK
6
CONTINUOUS
10
124.225
20
-80.05
11
124.512
21
-80.0688
0
LINE
8
BLACK
6
CONTINUOUS
10
162.612
20
-80.0688
11
162.894
21
-80.125
0
LINE
8
BLACK
6
CONTINUOUS
10
162.894
20
-80.125
11
163.167
21
-80.2175
0
LINE
8
BLACK
6
CONTINUOUS
10
163.167
20
-80.2175
11
163.425
21
-80.3447
0
LINE
8
BLACK
6
CONTINUOUS
10
163.425
20
-80.3447
11
163.664
21
-80.5046
0
LINE
8
BLACK
6
CONTINUOUS
10
163.664
20
-80.5046
11
163.881
21
-80.6944
0
LINE
8
BLACK
6
CONTINUOUS
10
163.881
20
-80.6944
11
164.07
21
-80.9107
0
LINE
8
BLACK
6
CONTINUOUS
10
164.07
20
-80.9107
11
164.23
21
-81.15
0
LINE
8
BLACK
6
CONTINUOUS
10
164.23
20
-81.15
11
164.358
21
-81.4081
0
LINE
8
BLACK
6
CONTINUOUS
10
164.358
20
-81.4081
11
164.45
21
-81.6806
0
LINE
8
BLACK
6
CONTINUOUS
10
164.45
20
-81.6806
11
164.506
21
-81.9628
0
LINE
8
BLACK
6
CONTINUOUS
10
164.506
20
-81.9628
11
164.525
21
-82.25
0
LINE
8
BLACK
6
CONTINUOUS
10
164.525
20
-82.25
11
164.506
21
-82.5372
0
LINE
8
BLACK
6
CONTINUOUS
10
164.506
20
-82.5372
11
164.45
21
-82.8194
0
LINE
8
BLACK
6
CONTINUOUS
10
164.45
20
-82.8194
11
164.358
21
-83.0919
0
LINE
8
BLACK
6
CONTINUOUS
10
164.358
20
-83.0919
11
164.23
21
-83.35
0
LINE
8
BLACK
6
CONTINUOUS
10
164.23
20
-83.35
11
164.07
21
-83.5893
0
LINE
8
BLACK
6
CONTINUOUS
10
164.07
20
-83.5893
11
163.881
21
-83.8056
0
LINE
8
BLACK
6
CONTINUOUS
10
163.881
20
-83.8056
11
163.664
21
-83.9954
0
LINE
8
BLACK
6
CONTINUOUS
10
163.664
20
-83.9954
11
163.425
21
-84.1553
0
LINE
8
BLACK
6
CONTINUOUS
10
163.425
20
-84.1553
11
163.167
21
-84.2825
0
LINE
8
BLACK
6
CONTINUOUS
10
163.167
20
-84.2825
11
162.894
21
-84.375
0
LINE
8
BLACK
6
CONTINUOUS
10
162.894
20
-84.375
11
162.612
21
-84.4312
0
LINE
8
BLACK
6
CONTINUOUS
10
162.612
20
-84.4312
11
162.325
21
-84.45
0
LINE
8
BLACK
6
CONTINUOUS
10
162.325
20
-84.45
11
162.038
21
-84.4312
0
LINE
8
BLACK
6
CONTINUOUS
10
162.038
20
-84.4312
11
161.756
21
-84.375
0
LINE
8
BLACK
6
CONTINUOUS
10
161.756
20
-84.375
11
161.483
21
-84.2825
0
LINE
8
BLACK
6
CONTINUOUS
10
161.483
20
-84.2825
11
161.225
21
-84.1553
0
LINE
8
BLACK
6
CONTINUOUS
10
161.225
20
-84.1553
11
160.986
21
-83.9954
0
LINE
8
BLACK
6
CONTINUOUS
10
160.986
20
-83.9954
11
160.769
21
-83.8056
0
LINE
8
BLACK
6
CONTINUOUS
10
160.769
20
-83.8056
11
160.58
21
-83.5893
0
LINE
8
BLACK
6
CONTINUOUS
10
160.58
20
-83.5893
11
160.42
21
-83.35
0
LINE
8
BLACK
6
CONTINUOUS
10
160.42
20
-83.35
11
160.292
21
-83.0919
0
LINE
8
BLACK
6
CONTINUOUS
10
160.292
20
-83.0919
11
160.2
21
-82.8194
0
LINE
8
BLACK
6
CONTINUOUS
10
160.2
20
-82.8194
11
160.144
21
-82.5372
0
LINE
8
BLACK
6
CONTINUOUS
10
160.144
20
-82.5372
11
160.125
21
-82.25
0
LINE
8
BLACK
6
CONTINUOUS
10
160.125
20
-82.25
11
160.144
21
-81.9628
0
LINE
8
BLACK
6
CONTINUOUS
10
160.144
20
-81.9628
11
160.2
21
-81.6806
0
LINE
8
BLACK
6
CONTINUOUS
10
160.2
20
-81.6806
11
160.292
21
-81.4081
0
LINE
8
BLACK
6
CONTINUOUS
10
160.292
20
-81.4081
11
160.42
21
-81.15
0
LINE
8
BLACK
6
CONTINUOUS
10
160.42
20
-81.15
11
160.58
21
-80.9107
0
LINE
8
BLACK
6
CONTINUOUS
10
160.58
20
-80.9107
11
160.769
21
-80.6944
0
LINE
8
BLACK
6
CONTINUOUS
10
160.769
20
-80.6944
11
160.986
21
-80.5046
0
LINE
8
BLACK
6
CONTINUOUS
10
160.986
20
-80.5046
11
161.225
21
-80.3447
0
LINE
8
BLACK
6
CONTINUOUS
10
161.225
20
-80.3447
11
161.483
21
-80.2175
0
LINE
8
BLACK
6
CONTINUOUS
10
161.483
20
-80.2175
11
161.756
21
-80.125
0
LINE
8
BLACK
6
CONTINUOUS
10
161.756
20
-80.125
11
162.038
21
-80.0688
0
LINE
8
BLACK
6
CONTINUOUS
10
162.038
20
-80.0688
11
162.325
21
-80.05
0
LINE
8
BLACK
6
CONTINUOUS
10
162.325
20
-80.05
11
162.612
21
-80.0688
0
LINE
8
BLACK
6
CONTINUOUS
10
144.838
20
-74.5246
11
145.113
21
-74.5884
0
LINE
8
BLACK
6
CONTINUOUS
10
145.113
20
-74.5884
11
145.377
21
-74.6903
0
LINE
8
BLACK
6
CONTINUOUS
10
145.377
20
-74.6903
11
145.623
21
-74.8284
0
LINE
8
BLACK
6
CONTINUOUS
10
145.623
20
-74.8284
11
145.848
21
-74.9998
0
LINE
8
BLACK
6
CONTINUOUS
10
145.848
20
-74.9998
11
146.046
21
-75.2011
0
LINE
8
BLACK
6
CONTINUOUS
10
146.046
20
-75.2011
11
146.214
21
-75.4283
0
LINE
8
BLACK
6
CONTINUOUS
10
146.214
20
-75.4283
11
146.348
21
-75.677
0
LINE
8
BLACK
6
CONTINUOUS
10
146.348
20
-75.677
11
146.446
21
-75.942
0
LINE
8
BLACK
6
CONTINUOUS
10
146.446
20
-75.942
11
146.505
21
-76.2182
0
LINE
8
BLACK
6
CONTINUOUS
10
146.505
20
-76.2182
11
146.525
21
-76.5
0
LINE
8
BLACK
6
CONTINUOUS
10
146.525
20
-76.5
11
146.521
21
-76.6256
0
LINE
8
BLACK
6
CONTINUOUS
10
146.521
20
-76.6256
11
146.483
21
-76.9056
0
LINE
8
BLACK
6
CONTINUOUS
10
146.483
20
-76.9056
11
146.407
21
-77.1775
0
LINE
8
BLACK
6
CONTINUOUS
10
146.407
20
-77.1775
11
146.293
21
-77.4359
0
LINE
8
BLACK
6
CONTINUOUS
10
146.293
20
-77.4359
11
146.143
21
-77.6756
0
LINE
8
BLACK
6
CONTINUOUS
10
146.143
20
-77.6756
11
145.961
21
-77.8918
0
LINE
8
BLACK
6
CONTINUOUS
10
145.961
20
-77.8918
11
145.751
21
-78.0803
0
LINE
8
BLACK
6
CONTINUOUS
10
145.751
20
-78.0803
11
145.516
21
-78.2373
0
LINE
8
BLACK
6
CONTINUOUS
10
145.516
20
-78.2373
11
145.261
21
-78.3596
0
LINE
8
BLACK
6
CONTINUOUS
10
145.261
20
-78.3596
11
144.992
21
-78.4447
0
LINE
8
BLACK
6
CONTINUOUS
10
144.992
20
-78.4447
11
144.713
21
-78.4911
0
LINE
8
BLACK
6
CONTINUOUS
10
144.713
20
-78.4911
11
144.431
21
-78.4978
0
LINE
8
BLACK
6
CONTINUOUS
10
144.431
20
-78.4978
11
144.15
21
-78.4646
0
LINE
8
BLACK
6
CONTINUOUS
10
144.15
20
-78.4646
11
143.877
21
-78.3922
0
LINE
8
BLACK
6
CONTINUOUS
10
143.877
20
-78.3922
11
143.617
21
-78.282
0
LINE
8
BLACK
6
CONTINUOUS
10
143.617
20
-78.282
11
143.375
21
-78.1363
0
LINE
8
BLACK
6
CONTINUOUS
10
143.375
20
-78.1363
11
143.156
21
-77.9579
0
LINE
8
BLACK
6
CONTINUOUS
10
143.156
20
-77.9579
11
142.964
21
-77.7505
0
LINE
8
BLACK
6
CONTINUOUS
10
142.964
20
-77.7505
11
142.804
21
-77.5181
0
LINE
8
BLACK
6
CONTINUOUS
10
142.804
20
-77.5181
11
142.677
21
-77.2654
0
LINE
8
BLACK
6
CONTINUOUS
10
142.677
20
-77.2654
11
142.588
21
-76.9974
0
LINE
8
BLACK
6
CONTINUOUS
10
142.588
20
-76.9974
11
142.537
21
-76.7195
0
LINE
8
BLACK
6
CONTINUOUS
10
142.537
20
-76.7195
11
142.526
21
-76.4372
0
LINE
8
BLACK
6
CONTINUOUS
10
142.526
20
-76.4372
11
142.555
21
-76.1561
0
LINE
8
BLACK
6
CONTINUOUS
10
142.555
20
-76.1561
11
142.623
21
-75.882
0
LINE
8
BLACK
6
CONTINUOUS
10
142.623
20
-75.882
11
142.729
21
-75.6201
0
LINE
8
BLACK
6
CONTINUOUS
10
142.729
20
-75.6201
11
142.871
21
-75.3758
0
LINE
8
BLACK
6
CONTINUOUS
10
142.871
20
-75.3758
11
143.046
21
-75.154
0
LINE
8
BLACK
6
CONTINUOUS
10
143.046
20
-75.154
11
143.25
21
-74.959
0
LINE
8
BLACK
6
CONTINUOUS
10
143.25
20
-74.959
11
143.48
21
-74.7947
0
LINE
8
BLACK
6
CONTINUOUS
10
143.48
20
-74.7947
11
143.731
21
-74.6645
0
LINE
8
BLACK
6
CONTINUOUS
10
143.731
20
-74.6645
11
143.997
21
-74.5709
0
LINE
8
BLACK
6
CONTINUOUS
10
143.997
20
-74.5709
11
144.274
21
-74.5158
0
LINE
8
BLACK
6
CONTINUOUS
10
144.274
20
-74.5158
11
144.556
21
-74.5002
0
LINE
8
BLACK
6
CONTINUOUS
10
144.556
20
-74.5002
11
144.838
21
-74.5246
0
LINE
8
BLACK
6
CONTINUOUS
10
143.562
20
-61.0188
11
143.844
21
-61.075
0
LINE
8
BLACK
6
CONTINUOUS
10
143.844
20
-61.075
11
144.117
21
-61.1675
0
LINE
8
BLACK
6
CONTINUOUS
10
144.117
20
-61.1675
11
144.375
21
-61.2947
0
LINE
8
BLACK
6
CONTINUOUS
10
144.375
20
-61.2947
11
144.614
21
-61.4546
0
LINE
8
BLACK
6
CONTINUOUS
10
144.614
20
-61.4546
11
144.831
21
-61.6444
0
LINE
8
BLACK
6
CONTINUOUS
10
144.831
20
-61.6444
11
145.02
21
-61.8607
0
LINE
8
BLACK
6
CONTINUOUS
10
145.02
20
-61.8607
11
145.18
21
-62.1
0
LINE
8
BLACK
6
CONTINUOUS
10
145.18
20
-62.1
11
145.308
21
-62.3581
0
LINE
8
BLACK
6
CONTINUOUS
10
145.308
20
-62.3581
11
145.4
21
-62.6306
0
LINE
8
BLACK
6
CONTINUOUS
10
145.4
20
-62.6306
11
145.456
21
-62.9128
0
LINE
8
BLACK
6
CONTINUOUS
10
145.456
20
-62.9128
11
145.475
21
-63.2
0
LINE
8
BLACK
6
CONTINUOUS
10
145.475
20
-63.2
11
145.456
21
-63.4872
0
LINE
8
BLACK
6
CONTINUOUS
10
145.456
20
-63.4872
11
145.4
21
-63.7694
0
LINE
8
BLACK
6
CONTINUOUS
10
145.4
20
-63.7694
11
145.308
21
-64.0419
0
LINE
8
BLACK
6
CONTINUOUS
10
145.308
20
-64.0419
11
145.18
21
-64.3
0
LINE
8
BLACK
6
CONTINUOUS
10
145.18
20
-64.3
11
145.02
21
-64.5393
0
LINE
8
BLACK
6
CONTINUOUS
10
145.02
20
-64.5393
11
144.831
21
-64.7556
0
LINE
8
BLACK
6
CONTINUOUS
10
144.831
20
-64.7556
11
144.614
21
-64.9454
0
LINE
8
BLACK
6
CONTINUOUS
10
144.614
20
-64.9454
11
144.375
21
-65.1053
0
LINE
8
BLACK
6
CONTINUOUS
10
144.375
20
-65.1053
11
144.117
21
-65.2325
0
LINE
8
BLACK
6
CONTINUOUS
10
144.117
20
-65.2325
11
143.844
21
-65.325
0
LINE
8
BLACK
6
CONTINUOUS
10
143.844
20
-65.325
11
143.562
21
-65.3812
0
LINE
8
BLACK
6
CONTINUOUS
10
143.562
20
-65.3812
11
143.275
21
-65.4
0
LINE
8
BLACK
6
CONTINUOUS
10
143.275
20
-65.4
11
142.988
21
-65.3812
0
LINE
8
BLACK
6
CONTINUOUS
10
142.988
20
-65.3812
11
142.706
21
-65.325
0
LINE
8
BLACK
6
CONTINUOUS
10
142.706
20
-65.325
11
142.433
21
-65.2325
0
LINE
8
BLACK
6
CONTINUOUS
10
142.433
20
-65.2325
11
142.175
21
-65.1053
0
LINE
8
BLACK
6
CONTINUOUS
10
142.175
20
-65.1053
11
141.936
21
-64.9454
0
LINE
8
BLACK
6
CONTINUOUS
10
141.936
20
-64.9454
11
141.719
21
-64.7556
0
LINE
8
BLACK
6
CONTINUOUS
10
141.719
20
-64.7556
11
141.53
21
-64.5393
0
LINE
8
BLACK
6
CONTINUOUS
10
141.53
20
-64.5393
11
141.37
21
-64.3
0
LINE
8
BLACK
6
CONTINUOUS
10
141.37
20
-64.3
11
141.242
21
-64.0419
0
LINE
8
BLACK
6
CONTINUOUS
10
141.242
20
-64.0419
11
141.15
21
-63.7694
0
LINE
8
BLACK
6
CONTINUOUS
10
141.15
20
-63.7694
11
141.094
21
-63.4872
0
LINE
8
BLACK
6
CONTINUOUS
10
141.094
20
-63.4872
11
141.075
21
-63.2
0
LINE
8
BLACK
6
CONTINUOUS
10
141.075
20
-63.2
11
141.094
21
-62.9128
0
LINE
8
BLACK
6
CONTINUOUS
10
141.094
20
-62.9128
11
141.15
21
-62.6306
0
LINE
8
BLACK
6
CONTINUOUS
10
141.15
20
-62.6306
11
141.242
21
-62.3581
0
LINE
8
BLACK
6
CONTINUOUS
10
141.242
20
-62.3581
11
141.37
21
-62.1
0
LINE
8
BLACK
6
CONTINUOUS
10
141.37
20
-62.1
11
141.53
21
-61.8607
0
LINE
8
BLACK
6
CONTINUOUS
10
141.53
20
-61.8607
11
141.719
21
-61.6444
0
LINE
8
BLACK
6
CONTINUOUS
10
141.719
20
-61.6444
11
141.936
21
-61.4546
0
LINE
8
BLACK
6
CONTINUOUS
10
141.936
20
-61.4546
11
142.175
21
-61.2947
0
LINE
8
BLACK
6
CONTINUOUS
10
142.175
20
-61.2947
11
142.433
21
-61.1675
0
LINE
8
BLACK
6
CONTINUOUS
10
142.433
20
-61.1675
11
142.706
21
-61.075
0
LINE
8
BLACK
6
CONTINUOUS
10
142.706
20
-61.075
11
142.988
21
-61.0188
0
LINE
8
BLACK
6
CONTINUOUS
10
142.988
20
-61.0188
11
143.275
21
-61
0
LINE
8
BLACK
6
CONTINUOUS
10
143.275
20
-61
11
143.562
21
-61.0188
  0
ENDSEC
  0
EOF
