  0
SECTION
  2
HEADER
  9
$ANGBASE
  50
0.0
  9
$ANGDIR
  70
1
  9
$MEASUREMENT
  70
1
  0
ENDSEC
  0
SECTION
  2
TABLES
  0
TABLE
  2
LTYPE
  70
4
  0
LTYPE
  5
40F
  2
CONTINUOUS
  70
0
  3
Solid line
  72
65
  73
0
  40
0.0
  0
LTYPE
  5
410
  2
DASHDOT
 70
0
  3
Dash Dot ____ _ ____ _
 72
65
 73
4
 40
2.0
 49
1.25
 49
-0.25
 49
0.25
 49
-0.25
  0
LTYPE
  5
411
  2
DASHED
 70
0
  3
Dashed __ __ __ __ __
 72
65
 73
2
 40
0.75
 49
0.5
 49
-0.25
  0
LTYPE
  5
43B
  2
DOTTED
 70
0
  3
Dotted .  .  .  .
 72
65
 73
2
 40
0.2
 49
0.0
 49
-0.2
  0
ENDTAB
  0
TABLE
  2
STYLE
  70
4
  0
STYLE
  2
KICAD
  70
0
  40
0
  41
1
  42
1
  50
0
  71
0
  3
isocp.shx
  0
STYLE
  2
KICADB
  70
0
  40
0
  41
1
  42
1
  50
0
  71
0
  3
isocp.shx
  0
STYLE
  2
KICADI
  70
0
  40
0
  41
1
  42
1
  50
15
  71
0
  3
isocp.shx
  0
STYLE
  2
KICADBI
  70
0
  40
0
  41
1
  42
1
  50
15
  71
0
  3
isocp.shx
  0
ENDTAB
  0
TABLE
  2
LAYER
  70
1
  0
LAYER
  2
BLACK
  70
0
  62
7
  6
CONTINUOUS
  0
ENDTAB
  0
ENDSEC
  0
SECTION
  2
ENTITIES
0
LINE
8
BLACK
6
CONTINUOUS
10
162.275
20
-57.751
11
162.275
21
-57.7511
0
LINE
8
BLACK
6
CONTINUOUS
10
162.275
20
-57.7511
11
162.275
21
-57.751
0
LINE
8
BLACK
6
CONTINUOUS
10
162.275
20
-57.751
11
162.275
21
-57.751
0
LINE
8
BLACK
6
CONTINUOUS
10
162.275
20
-57.751
11
162.279
21
-57.7513
0
LINE
8
BLACK
6
CONTINUOUS
10
162.279
20
-57.7513
11
162.442
21
-57.762
0
LINE
8
BLACK
6
CONTINUOUS
10
162.442
20
-57.762
11
162.442
21
-57.762
0
LINE
8
BLACK
6
CONTINUOUS
10
162.442
20
-57.762
11
162.54
21
-57.7689
0
LINE
8
BLACK
6
CONTINUOUS
10
162.54
20
-57.7689
11
162.541
21
-57.7691
0
LINE
8
BLACK
6
CONTINUOUS
10
162.541
20
-57.7691
11
162.692
21
-57.7991
0
LINE
8
BLACK
6
CONTINUOUS
10
162.692
20
-57.7991
11
162.692
21
-57.7991
0
LINE
8
BLACK
6
CONTINUOUS
10
162.692
20
-57.7991
11
162.807
21
-57.8242
0
LINE
8
BLACK
6
CONTINUOUS
10
162.807
20
-57.8242
11
162.808
21
-57.8245
0
LINE
8
BLACK
6
CONTINUOUS
10
162.808
20
-57.8245
11
162.95
21
-57.8726
0
LINE
8
BLACK
6
CONTINUOUS
10
162.95
20
-57.8726
11
162.95
21
-57.8727
0
LINE
8
BLACK
6
CONTINUOUS
10
162.95
20
-57.8727
11
163.064
21
-57.9153
0
LINE
8
BLACK
6
CONTINUOUS
10
163.064
20
-57.9153
11
163.066
21
-57.9158
0
LINE
8
BLACK
6
CONTINUOUS
10
163.066
20
-57.9158
11
163.198
21
-57.9812
0
LINE
8
BLACK
6
CONTINUOUS
10
163.198
20
-57.9812
11
163.199
21
-57.9814
0
LINE
8
BLACK
6
CONTINUOUS
10
163.199
20
-57.9814
11
163.247
21
-58.0076
0
LINE
8
BLACK
6
CONTINUOUS
10
163.247
20
-58.0076
11
163.307
21
-58.0406
0
LINE
8
BLACK
6
CONTINUOUS
10
163.307
20
-58.0406
11
163.308
21
-58.0411
0
LINE
8
BLACK
6
CONTINUOUS
10
163.308
20
-58.0411
11
163.395
21
-58.0993
0
LINE
8
BLACK
6
CONTINUOUS
10
163.395
20
-58.0993
11
163.43
21
-58.1229
0
LINE
8
BLACK
6
CONTINUOUS
10
163.43
20
-58.1229
11
163.431
21
-58.1232
0
LINE
8
BLACK
6
CONTINUOUS
10
163.431
20
-58.1232
11
163.53
21
-58.1976
0
LINE
8
BLACK
6
CONTINUOUS
10
163.53
20
-58.1976
11
163.531
21
-58.1981
0
LINE
8
BLACK
6
CONTINUOUS
10
163.531
20
-58.1981
11
163.627
21
-58.2823
0
LINE
8
BLACK
6
CONTINUOUS
10
163.627
20
-58.2823
11
163.641
21
-58.295
0
LINE
8
BLACK
6
CONTINUOUS
10
163.641
20
-58.295
11
163.642
21
-58.2955
0
LINE
8
BLACK
6
CONTINUOUS
10
163.642
20
-58.2955
11
163.73
21
-58.3833
0
LINE
8
BLACK
6
CONTINUOUS
10
163.73
20
-58.3833
11
163.73
21
-58.3838
0
LINE
8
BLACK
6
CONTINUOUS
10
163.73
20
-58.3838
11
163.827
21
-58.4943
0
LINE
8
BLACK
6
CONTINUOUS
10
163.827
20
-58.4943
11
163.827
21
-58.495
0
LINE
8
BLACK
6
CONTINUOUS
10
163.827
20
-58.495
11
163.902
21
-58.5942
0
LINE
8
BLACK
6
CONTINUOUS
10
163.902
20
-58.5942
11
163.902
21
-58.5948
0
LINE
8
BLACK
6
CONTINUOUS
10
163.902
20
-58.5948
11
163.984
21
-58.7171
0
LINE
8
BLACK
6
CONTINUOUS
10
163.984
20
-58.7171
11
163.984
21
-58.718
0
LINE
8
BLACK
6
CONTINUOUS
10
163.984
20
-58.718
11
164.044
21
-58.8263
0
LINE
8
BLACK
6
CONTINUOUS
10
164.044
20
-58.8263
11
164.044
21
-58.8267
0
LINE
8
BLACK
6
CONTINUOUS
10
164.044
20
-58.8267
11
164.109
21
-58.9594
0
LINE
8
BLACK
6
CONTINUOUS
10
164.109
20
-58.9594
11
164.11
21
-58.9605
0
LINE
8
BLACK
6
CONTINUOUS
10
164.11
20
-58.9605
11
164.145
21
-59.0558
0
LINE
8
BLACK
6
CONTINUOUS
10
164.145
20
-59.0558
11
164.152
21
-59.0747
0
LINE
8
BLACK
6
CONTINUOUS
10
164.152
20
-59.0747
11
164.152
21
-59.075
0
LINE
8
BLACK
6
CONTINUOUS
10
164.152
20
-59.075
11
164.2
21
-59.2166
0
LINE
8
BLACK
6
CONTINUOUS
10
164.2
20
-59.2166
11
164.201
21
-59.2179
0
LINE
8
BLACK
6
CONTINUOUS
10
164.201
20
-59.2179
11
164.226
21
-59.3332
0
LINE
8
BLACK
6
CONTINUOUS
10
164.226
20
-59.3332
11
164.226
21
-59.3334
0
LINE
8
BLACK
6
CONTINUOUS
10
164.226
20
-59.3334
11
164.256
21
-59.484
0
LINE
8
BLACK
6
CONTINUOUS
10
164.256
20
-59.484
11
164.256
21
-59.4854
0
LINE
8
BLACK
6
CONTINUOUS
10
164.256
20
-59.4854
11
164.263
21
-59.5826
0
LINE
8
BLACK
6
CONTINUOUS
10
164.263
20
-59.5826
11
164.263
21
-59.5826
0
LINE
8
BLACK
6
CONTINUOUS
10
164.263
20
-59.5826
11
164.273
21
-59.7408
0
LINE
8
BLACK
6
CONTINUOUS
10
164.273
20
-59.7408
11
164.272
21
-59.7456
0
LINE
8
BLACK
6
CONTINUOUS
10
164.272
20
-59.7456
11
164.272
21
-59.7459
0
LINE
8
BLACK
6
CONTINUOUS
10
164.272
20
-59.7459
11
164.271
21
-59.75
0
LINE
8
BLACK
6
CONTINUOUS
10
164.271
20
-59.75
11
164.27
21
-59.75
0
LINE
8
BLACK
6
CONTINUOUS
10
164.27
20
-59.75
11
164.27
21
-59.7525
0
LINE
8
BLACK
6
CONTINUOUS
10
164.27
20
-59.7525
11
164.27
21
-59.7525
0
LINE
8
BLACK
6
CONTINUOUS
10
164.27
20
-59.7525
11
164.278
21
-59.8829
0
LINE
8
BLACK
6
CONTINUOUS
10
164.278
20
-59.8829
11
164.287
21
-60.0117
0
LINE
8
BLACK
6
CONTINUOUS
10
164.287
20
-60.0117
11
164.338
21
-60.269
0
LINE
8
BLACK
6
CONTINUOUS
10
164.338
20
-60.269
11
164.422
21
-60.5174
0
LINE
8
BLACK
6
CONTINUOUS
10
164.422
20
-60.5174
11
164.538
21
-60.7526
0
LINE
8
BLACK
6
CONTINUOUS
10
164.538
20
-60.7526
11
164.684
21
-60.9707
0
LINE
8
BLACK
6
CONTINUOUS
10
164.684
20
-60.9707
11
164.857
21
-61.168
0
LINE
8
BLACK
6
CONTINUOUS
10
164.857
20
-61.168
11
165.054
21
-61.3409
0
LINE
8
BLACK
6
CONTINUOUS
10
165.054
20
-61.3409
11
165.272
21
-61.4866
0
LINE
8
BLACK
6
CONTINUOUS
10
165.272
20
-61.4866
11
165.508
21
-61.6027
0
LINE
8
BLACK
6
CONTINUOUS
10
165.508
20
-61.6027
11
165.756
21
-61.687
0
LINE
8
BLACK
6
CONTINUOUS
10
165.756
20
-61.687
11
165.756
21
-61.687
0
LINE
8
BLACK
6
CONTINUOUS
10
165.756
20
-61.687
11
165.756
21
-61.687
0
LINE
8
BLACK
6
CONTINUOUS
10
165.756
20
-61.687
11
165.841
21
-61.7039
0
LINE
8
BLACK
6
CONTINUOUS
10
165.841
20
-61.7039
11
166.013
21
-61.7381
0
LINE
8
BLACK
6
CONTINUOUS
10
166.013
20
-61.7381
11
166.17
21
-61.7484
0
LINE
8
BLACK
6
CONTINUOUS
10
166.17
20
-61.7484
11
166.273
21
-61.7551
0
LINE
8
BLACK
6
CONTINUOUS
10
166.273
20
-61.7551
11
166.275
21
-61.7553
0
LINE
8
BLACK
6
CONTINUOUS
10
166.275
20
-61.7553
11
166.275
21
-61.7544
0
LINE
8
BLACK
6
CONTINUOUS
10
166.275
20
-61.7544
11
166.277
21
-61.7536
0
LINE
8
BLACK
6
CONTINUOUS
10
166.277
20
-61.7536
11
166.279
21
-61.7518
0
LINE
8
BLACK
6
CONTINUOUS
10
166.279
20
-61.7518
11
166.283
21
-61.751
0
LINE
8
BLACK
6
CONTINUOUS
10
166.283
20
-61.751
11
180.275
21
-61.751
0
LINE
8
BLACK
6
CONTINUOUS
10
180.275
20
-61.751
11
180.275
21
-61.751
0
LINE
8
BLACK
6
CONTINUOUS
10
180.275
20
-61.751
11
180.275
21
-61.7511
0
LINE
8
BLACK
6
CONTINUOUS
10
180.275
20
-61.7511
11
180.275
21
-61.751
0
LINE
8
BLACK
6
CONTINUOUS
10
180.275
20
-61.751
11
180.275
21
-61.751
0
LINE
8
BLACK
6
CONTINUOUS
10
180.275
20
-61.751
11
180.381
21
-61.758
0
LINE
8
BLACK
6
CONTINUOUS
10
180.381
20
-61.758
11
180.381
21
-61.758
0
LINE
8
BLACK
6
CONTINUOUS
10
180.381
20
-61.758
11
180.397
21
-61.7592
0
LINE
8
BLACK
6
CONTINUOUS
10
180.397
20
-61.7592
11
180.548
21
-61.7706
0
LINE
8
BLACK
6
CONTINUOUS
10
180.548
20
-61.7706
11
180.55
21
-61.7708
0
LINE
8
BLACK
6
CONTINUOUS
10
180.55
20
-61.7708
11
180.623
21
-61.7855
0
LINE
8
BLACK
6
CONTINUOUS
10
180.623
20
-61.7855
11
180.682
21
-61.7972
0
LINE
8
BLACK
6
CONTINUOUS
10
180.682
20
-61.7972
11
180.682
21
-61.7972
0
LINE
8
BLACK
6
CONTINUOUS
10
180.682
20
-61.7972
11
180.824
21
-61.8297
0
LINE
8
BLACK
6
CONTINUOUS
10
180.824
20
-61.8297
11
180.825
21
-61.83
0
LINE
8
BLACK
6
CONTINUOUS
10
180.825
20
-61.83
11
180.855
21
-61.8403
0
LINE
8
BLACK
6
CONTINUOUS
10
180.855
20
-61.8403
11
180.956
21
-61.8749
0
LINE
8
BLACK
6
CONTINUOUS
10
180.956
20
-61.8749
11
180.957
21
-61.8751
0
LINE
8
BLACK
6
CONTINUOUS
10
180.957
20
-61.8751
11
181.044
21
-61.9095
0
LINE
8
BLACK
6
CONTINUOUS
10
181.044
20
-61.9095
11
181.088
21
-61.9268
0
LINE
8
BLACK
6
CONTINUOUS
10
181.088
20
-61.9268
11
181.089
21
-61.9272
0
LINE
8
BLACK
6
CONTINUOUS
10
181.089
20
-61.9272
11
181.21
21
-61.9873
0
LINE
8
BLACK
6
CONTINUOUS
10
181.21
20
-61.9873
11
181.215
21
-61.9895
0
LINE
8
BLACK
6
CONTINUOUS
10
181.215
20
-61.9895
11
181.215
21
-61.9899
0
LINE
8
BLACK
6
CONTINUOUS
10
181.215
20
-61.9899
11
181.337
21
-62.0602
0
LINE
8
BLACK
6
CONTINUOUS
10
181.337
20
-62.0602
11
181.337
21
-62.0607
0
LINE
8
BLACK
6
CONTINUOUS
10
181.337
20
-62.0607
11
181.454
21
-62.1389
0
LINE
8
BLACK
6
CONTINUOUS
10
181.454
20
-62.1389
11
181.455
21
-62.1395
0
LINE
8
BLACK
6
CONTINUOUS
10
181.455
20
-62.1395
11
181.565
21
-62.2278
0
LINE
8
BLACK
6
CONTINUOUS
10
181.565
20
-62.2278
11
181.565
21
-62.2281
0
LINE
8
BLACK
6
CONTINUOUS
10
181.565
20
-62.2281
11
181.669
21
-62.3201
0
LINE
8
BLACK
6
CONTINUOUS
10
181.669
20
-62.3201
11
181.67
21
-62.3209
0
LINE
8
BLACK
6
CONTINUOUS
10
181.67
20
-62.3209
11
181.768
21
-62.4276
0
LINE
8
BLACK
6
CONTINUOUS
10
181.768
20
-62.4276
11
181.769
21
-62.4278
0
LINE
8
BLACK
6
CONTINUOUS
10
181.769
20
-62.4278
11
181.834
21
-62.5029
0
LINE
8
BLACK
6
CONTINUOUS
10
181.834
20
-62.5029
11
181.857
21
-62.5296
0
LINE
8
BLACK
6
CONTINUOUS
10
181.857
20
-62.5296
11
181.858
21
-62.5308
0
LINE
8
BLACK
6
CONTINUOUS
10
181.858
20
-62.5308
11
181.952
21
-62.6696
0
LINE
8
BLACK
6
CONTINUOUS
10
181.952
20
-62.6696
11
181.952
21
-62.6697
0
LINE
8
BLACK
6
CONTINUOUS
10
181.952
20
-62.6697
11
182.006
21
-62.7508
0
LINE
8
BLACK
6
CONTINUOUS
10
182.006
20
-62.7508
11
182.007
21
-62.7556
0
LINE
8
BLACK
6
CONTINUOUS
10
182.007
20
-62.7556
11
182.007
21
-62.7555
0
LINE
8
BLACK
6
CONTINUOUS
10
182.007
20
-62.7555
11
182.008
21
-62.7599
0
LINE
8
BLACK
6
CONTINUOUS
10
182.008
20
-62.7599
11
182.007
21
-62.7604
0
LINE
8
BLACK
6
CONTINUOUS
10
182.007
20
-62.7604
11
182.008
21
-62.7625
0
LINE
8
BLACK
6
CONTINUOUS
10
182.008
20
-62.7625
11
182.158
21
-62.9772
0
LINE
8
BLACK
6
CONTINUOUS
10
182.158
20
-62.9772
11
182.158
21
-62.9773
0
LINE
8
BLACK
6
CONTINUOUS
10
182.158
20
-62.9773
11
182.159
21
-62.9776
0
LINE
8
BLACK
6
CONTINUOUS
10
182.159
20
-62.9776
11
182.337
21
-63.1735
0
LINE
8
BLACK
6
CONTINUOUS
10
182.337
20
-63.1735
11
182.539
21
-63.3451
0
LINE
8
BLACK
6
CONTINUOUS
10
182.539
20
-63.3451
11
182.539
21
-63.3453
0
LINE
8
BLACK
6
CONTINUOUS
10
182.539
20
-63.3453
11
182.539
21
-63.3453
0
LINE
8
BLACK
6
CONTINUOUS
10
182.539
20
-63.3453
11
182.574
21
-63.3683
0
LINE
8
BLACK
6
CONTINUOUS
10
182.574
20
-63.3683
11
182.761
21
-63.4895
0
LINE
8
BLACK
6
CONTINUOUS
10
182.761
20
-63.4895
11
182.761
21
-63.4896
0
LINE
8
BLACK
6
CONTINUOUS
10
182.761
20
-63.4896
11
182.999
21
-63.6041
0
LINE
8
BLACK
6
CONTINUOUS
10
182.999
20
-63.6041
11
182.999
21
-63.6041
0
LINE
8
BLACK
6
CONTINUOUS
10
182.999
20
-63.6041
11
182.999
21
-63.6043
0
LINE
8
BLACK
6
CONTINUOUS
10
182.999
20
-63.6043
11
183
21
-63.6044
0
LINE
8
BLACK
6
CONTINUOUS
10
183
20
-63.6044
11
183
21
-63.6044
0
LINE
8
BLACK
6
CONTINUOUS
10
183
20
-63.6044
11
183.118
21
-63.6437
0
LINE
8
BLACK
6
CONTINUOUS
10
183.118
20
-63.6437
11
183.251
21
-63.6877
0
LINE
8
BLACK
6
CONTINUOUS
10
183.251
20
-63.6877
11
183.251
21
-63.6878
0
LINE
8
BLACK
6
CONTINUOUS
10
183.251
20
-63.6878
11
183.251
21
-63.6878
0
LINE
8
BLACK
6
CONTINUOUS
10
183.251
20
-63.6878
11
183.51
21
-63.7382
0
LINE
8
BLACK
6
CONTINUOUS
10
183.51
20
-63.7382
11
183.51
21
-63.7382
0
LINE
8
BLACK
6
CONTINUOUS
10
183.51
20
-63.7382
11
183.511
21
-63.7383
0
LINE
8
BLACK
6
CONTINUOUS
10
183.511
20
-63.7383
11
183.775
21
-63.7553
0
LINE
8
BLACK
6
CONTINUOUS
10
183.775
20
-63.7553
11
183.775
21
-63.7543
0
LINE
8
BLACK
6
CONTINUOUS
10
183.775
20
-63.7543
11
183.777
21
-63.7535
0
LINE
8
BLACK
6
CONTINUOUS
10
183.777
20
-63.7535
11
183.779
21
-63.7518
0
LINE
8
BLACK
6
CONTINUOUS
10
183.779
20
-63.7518
11
183.783
21
-63.751
0
LINE
8
BLACK
6
CONTINUOUS
10
183.783
20
-63.751
11
198.275
21
-63.751
0
LINE
8
BLACK
6
CONTINUOUS
10
198.275
20
-63.751
11
198.275
21
-63.751
0
LINE
8
BLACK
6
CONTINUOUS
10
198.275
20
-63.751
11
198.275
21
-63.7511
0
LINE
8
BLACK
6
CONTINUOUS
10
198.275
20
-63.7511
11
198.275
21
-63.751
0
LINE
8
BLACK
6
CONTINUOUS
10
198.275
20
-63.751
11
198.275
21
-63.751
0
LINE
8
BLACK
6
CONTINUOUS
10
198.275
20
-63.751
11
198.29
21
-63.752
0
LINE
8
BLACK
6
CONTINUOUS
10
198.29
20
-63.752
11
198.442
21
-63.762
0
LINE
8
BLACK
6
CONTINUOUS
10
198.442
20
-63.762
11
198.442
21
-63.762
0
LINE
8
BLACK
6
CONTINUOUS
10
198.442
20
-63.762
11
198.54
21
-63.7689
0
LINE
8
BLACK
6
CONTINUOUS
10
198.54
20
-63.7689
11
198.541
21
-63.7691
0
LINE
8
BLACK
6
CONTINUOUS
10
198.541
20
-63.7691
11
198.692
21
-63.7991
0
LINE
8
BLACK
6
CONTINUOUS
10
198.692
20
-63.7991
11
198.692
21
-63.7991
0
LINE
8
BLACK
6
CONTINUOUS
10
198.692
20
-63.7991
11
198.807
21
-63.8242
0
LINE
8
BLACK
6
CONTINUOUS
10
198.807
20
-63.8242
11
198.808
21
-63.8245
0
LINE
8
BLACK
6
CONTINUOUS
10
198.808
20
-63.8245
11
198.95
21
-63.8726
0
LINE
8
BLACK
6
CONTINUOUS
10
198.95
20
-63.8726
11
198.95
21
-63.8727
0
LINE
8
BLACK
6
CONTINUOUS
10
198.95
20
-63.8727
11
199.064
21
-63.9153
0
LINE
8
BLACK
6
CONTINUOUS
10
199.064
20
-63.9153
11
199.066
21
-63.9158
0
LINE
8
BLACK
6
CONTINUOUS
10
199.066
20
-63.9158
11
199.198
21
-63.9812
0
LINE
8
BLACK
6
CONTINUOUS
10
199.198
20
-63.9812
11
199.199
21
-63.9814
0
LINE
8
BLACK
6
CONTINUOUS
10
199.199
20
-63.9814
11
199.247
21
-64.0076
0
LINE
8
BLACK
6
CONTINUOUS
10
199.247
20
-64.0076
11
199.307
21
-64.0406
0
LINE
8
BLACK
6
CONTINUOUS
10
199.307
20
-64.0406
11
199.308
21
-64.0411
0
LINE
8
BLACK
6
CONTINUOUS
10
199.308
20
-64.0411
11
199.344
21
-64.0652
0
LINE
8
BLACK
6
CONTINUOUS
10
199.344
20
-64.0652
11
199.43
21
-64.1229
0
LINE
8
BLACK
6
CONTINUOUS
10
199.43
20
-64.1229
11
199.431
21
-64.1232
0
LINE
8
BLACK
6
CONTINUOUS
10
199.431
20
-64.1232
11
199.53
21
-64.1976
0
LINE
8
BLACK
6
CONTINUOUS
10
199.53
20
-64.1976
11
199.531
21
-64.1981
0
LINE
8
BLACK
6
CONTINUOUS
10
199.531
20
-64.1981
11
199.641
21
-64.295
0
LINE
8
BLACK
6
CONTINUOUS
10
199.641
20
-64.295
11
199.642
21
-64.2955
0
LINE
8
BLACK
6
CONTINUOUS
10
199.642
20
-64.2955
11
199.73
21
-64.3833
0
LINE
8
BLACK
6
CONTINUOUS
10
199.73
20
-64.3833
11
199.73
21
-64.3838
0
LINE
8
BLACK
6
CONTINUOUS
10
199.73
20
-64.3838
11
199.827
21
-64.4943
0
LINE
8
BLACK
6
CONTINUOUS
10
199.827
20
-64.4943
11
199.827
21
-64.495
0
LINE
8
BLACK
6
CONTINUOUS
10
199.827
20
-64.495
11
199.902
21
-64.5943
0
LINE
8
BLACK
6
CONTINUOUS
10
199.902
20
-64.5943
11
199.902
21
-64.5948
0
LINE
8
BLACK
6
CONTINUOUS
10
199.902
20
-64.5948
11
199.982
21
-64.7142
0
LINE
8
BLACK
6
CONTINUOUS
10
199.982
20
-64.7142
11
199.984
21
-64.7171
0
LINE
8
BLACK
6
CONTINUOUS
10
199.984
20
-64.7171
11
199.984
21
-64.718
0
LINE
8
BLACK
6
CONTINUOUS
10
199.984
20
-64.718
11
200.044
21
-64.8263
0
LINE
8
BLACK
6
CONTINUOUS
10
200.044
20
-64.8263
11
200.044
21
-64.8267
0
LINE
8
BLACK
6
CONTINUOUS
10
200.044
20
-64.8267
11
200.109
21
-64.9594
0
LINE
8
BLACK
6
CONTINUOUS
10
200.109
20
-64.9594
11
200.11
21
-64.9605
0
LINE
8
BLACK
6
CONTINUOUS
10
200.11
20
-64.9605
11
200.145
21
-65.0558
0
LINE
8
BLACK
6
CONTINUOUS
10
200.145
20
-65.0558
11
200.152
21
-65.0747
0
LINE
8
BLACK
6
CONTINUOUS
10
200.152
20
-65.0747
11
200.152
21
-65.075
0
LINE
8
BLACK
6
CONTINUOUS
10
200.152
20
-65.075
11
200.2
21
-65.2166
0
LINE
8
BLACK
6
CONTINUOUS
10
200.2
20
-65.2166
11
200.201
21
-65.2179
0
LINE
8
BLACK
6
CONTINUOUS
10
200.201
20
-65.2179
11
200.226
21
-65.3332
0
LINE
8
BLACK
6
CONTINUOUS
10
200.226
20
-65.3332
11
200.226
21
-65.3334
0
LINE
8
BLACK
6
CONTINUOUS
10
200.226
20
-65.3334
11
200.256
21
-65.484
0
LINE
8
BLACK
6
CONTINUOUS
10
200.256
20
-65.484
11
200.256
21
-65.4854
0
LINE
8
BLACK
6
CONTINUOUS
10
200.256
20
-65.4854
11
200.257
21
-65.5
0
LINE
8
BLACK
6
CONTINUOUS
10
200.257
20
-65.5
11
200.263
21
-65.5826
0
LINE
8
BLACK
6
CONTINUOUS
10
200.263
20
-65.5826
11
200.263
21
-65.5826
0
LINE
8
BLACK
6
CONTINUOUS
10
200.263
20
-65.5826
11
200.274
21
-65.7496
0
LINE
8
BLACK
6
CONTINUOUS
10
200.274
20
-65.7496
11
200.274
21
-65.7498
0
LINE
8
BLACK
6
CONTINUOUS
10
200.274
20
-65.7498
11
200.274
21
-65.75
0
LINE
8
BLACK
6
CONTINUOUS
10
200.274
20
-65.75
11
200.274
21
-65.7502
0
LINE
8
BLACK
6
CONTINUOUS
10
200.274
20
-65.7502
11
200.274
21
-65.7504
0
LINE
8
BLACK
6
CONTINUOUS
10
200.274
20
-65.7504
11
200.274
21
-112.741
0
LINE
8
BLACK
6
CONTINUOUS
10
200.274
20
-112.741
11
200.272
21
-112.746
0
LINE
8
BLACK
6
CONTINUOUS
10
200.272
20
-112.746
11
200.272
21
-112.746
0
LINE
8
BLACK
6
CONTINUOUS
10
200.272
20
-112.746
11
200.271
21
-112.75
0
LINE
8
BLACK
6
CONTINUOUS
10
200.271
20
-112.75
11
200.27
21
-112.75
0
LINE
8
BLACK
6
CONTINUOUS
10
200.27
20
-112.75
11
200.287
21
-113.012
0
LINE
8
BLACK
6
CONTINUOUS
10
200.287
20
-113.012
11
200.338
21
-113.269
0
LINE
8
BLACK
6
CONTINUOUS
10
200.338
20
-113.269
11
200.422
21
-113.517
0
LINE
8
BLACK
6
CONTINUOUS
10
200.422
20
-113.517
11
200.538
21
-113.753
0
LINE
8
BLACK
6
CONTINUOUS
10
200.538
20
-113.753
11
200.684
21
-113.971
0
LINE
8
BLACK
6
CONTINUOUS
10
200.684
20
-113.971
11
200.857
21
-114.168
0
LINE
8
BLACK
6
CONTINUOUS
10
200.857
20
-114.168
11
201.054
21
-114.341
0
LINE
8
BLACK
6
CONTINUOUS
10
201.054
20
-114.341
11
201.272
21
-114.487
0
LINE
8
BLACK
6
CONTINUOUS
10
201.272
20
-114.487
11
201.508
21
-114.603
0
LINE
8
BLACK
6
CONTINUOUS
10
201.508
20
-114.603
11
201.756
21
-114.687
0
LINE
8
BLACK
6
CONTINUOUS
10
201.756
20
-114.687
11
201.756
21
-114.687
0
LINE
8
BLACK
6
CONTINUOUS
10
201.756
20
-114.687
11
201.756
21
-114.687
0
LINE
8
BLACK
6
CONTINUOUS
10
201.756
20
-114.687
11
201.841
21
-114.704
0
LINE
8
BLACK
6
CONTINUOUS
10
201.841
20
-114.704
11
202.013
21
-114.738
0
LINE
8
BLACK
6
CONTINUOUS
10
202.013
20
-114.738
11
202.17
21
-114.748
0
LINE
8
BLACK
6
CONTINUOUS
10
202.17
20
-114.748
11
202.273
21
-114.755
0
LINE
8
BLACK
6
CONTINUOUS
10
202.273
20
-114.755
11
202.275
21
-114.755
0
LINE
8
BLACK
6
CONTINUOUS
10
202.275
20
-114.755
11
202.275
21
-114.754
0
LINE
8
BLACK
6
CONTINUOUS
10
202.275
20
-114.754
11
202.277
21
-114.754
0
LINE
8
BLACK
6
CONTINUOUS
10
202.277
20
-114.754
11
202.279
21
-114.752
0
LINE
8
BLACK
6
CONTINUOUS
10
202.279
20
-114.752
11
202.283
21
-114.751
0
LINE
8
BLACK
6
CONTINUOUS
10
202.283
20
-114.751
11
207.275
21
-114.751
0
LINE
8
BLACK
6
CONTINUOUS
10
207.275
20
-114.751
11
207.275
21
-114.751
0
LINE
8
BLACK
6
CONTINUOUS
10
207.275
20
-114.751
11
207.275
21
-114.751
0
LINE
8
BLACK
6
CONTINUOUS
10
207.275
20
-114.751
11
207.275
21
-114.751
0
LINE
8
BLACK
6
CONTINUOUS
10
207.275
20
-114.751
11
207.275
21
-114.751
0
LINE
8
BLACK
6
CONTINUOUS
10
207.275
20
-114.751
11
207.286
21
-114.752
0
LINE
8
BLACK
6
CONTINUOUS
10
207.286
20
-114.752
11
207.442
21
-114.762
0
LINE
8
BLACK
6
CONTINUOUS
10
207.442
20
-114.762
11
207.442
21
-114.762
0
LINE
8
BLACK
6
CONTINUOUS
10
207.442
20
-114.762
11
207.54
21
-114.769
0
LINE
8
BLACK
6
CONTINUOUS
10
207.54
20
-114.769
11
207.541
21
-114.769
0
LINE
8
BLACK
6
CONTINUOUS
10
207.541
20
-114.769
11
207.692
21
-114.799
0
LINE
8
BLACK
6
CONTINUOUS
10
207.692
20
-114.799
11
207.692
21
-114.799
0
LINE
8
BLACK
6
CONTINUOUS
10
207.692
20
-114.799
11
207.807
21
-114.824
0
LINE
8
BLACK
6
CONTINUOUS
10
207.807
20
-114.824
11
207.808
21
-114.825
0
LINE
8
BLACK
6
CONTINUOUS
10
207.808
20
-114.825
11
207.95
21
-114.873
0
LINE
8
BLACK
6
CONTINUOUS
10
207.95
20
-114.873
11
207.95
21
-114.873
0
LINE
8
BLACK
6
CONTINUOUS
10
207.95
20
-114.873
11
208.064
21
-114.915
0
LINE
8
BLACK
6
CONTINUOUS
10
208.064
20
-114.915
11
208.066
21
-114.916
0
LINE
8
BLACK
6
CONTINUOUS
10
208.066
20
-114.916
11
208.198
21
-114.981
0
LINE
8
BLACK
6
CONTINUOUS
10
208.198
20
-114.981
11
208.199
21
-114.981
0
LINE
8
BLACK
6
CONTINUOUS
10
208.199
20
-114.981
11
208.247
21
-115.008
0
LINE
8
BLACK
6
CONTINUOUS
10
208.247
20
-115.008
11
208.307
21
-115.041
0
LINE
8
BLACK
6
CONTINUOUS
10
208.307
20
-115.041
11
208.308
21
-115.041
0
LINE
8
BLACK
6
CONTINUOUS
10
208.308
20
-115.041
11
208.395
21
-115.099
0
LINE
8
BLACK
6
CONTINUOUS
10
208.395
20
-115.099
11
208.43
21
-115.123
0
LINE
8
BLACK
6
CONTINUOUS
10
208.43
20
-115.123
11
208.431
21
-115.123
0
LINE
8
BLACK
6
CONTINUOUS
10
208.431
20
-115.123
11
208.53
21
-115.198
0
LINE
8
BLACK
6
CONTINUOUS
10
208.53
20
-115.198
11
208.531
21
-115.198
0
LINE
8
BLACK
6
CONTINUOUS
10
208.531
20
-115.198
11
208.641
21
-115.295
0
LINE
8
BLACK
6
CONTINUOUS
10
208.641
20
-115.295
11
208.642
21
-115.295
0
LINE
8
BLACK
6
CONTINUOUS
10
208.642
20
-115.295
11
208.73
21
-115.383
0
LINE
8
BLACK
6
CONTINUOUS
10
208.73
20
-115.383
11
208.73
21
-115.384
0
LINE
8
BLACK
6
CONTINUOUS
10
208.73
20
-115.384
11
208.827
21
-115.494
0
LINE
8
BLACK
6
CONTINUOUS
10
208.827
20
-115.494
11
208.827
21
-115.495
0
LINE
8
BLACK
6
CONTINUOUS
10
208.827
20
-115.495
11
208.902
21
-115.594
0
LINE
8
BLACK
6
CONTINUOUS
10
208.902
20
-115.594
11
208.902
21
-115.595
0
LINE
8
BLACK
6
CONTINUOUS
10
208.902
20
-115.595
11
208.984
21
-115.717
0
LINE
8
BLACK
6
CONTINUOUS
10
208.984
20
-115.717
11
208.984
21
-115.718
0
LINE
8
BLACK
6
CONTINUOUS
10
208.984
20
-115.718
11
209.044
21
-115.826
0
LINE
8
BLACK
6
CONTINUOUS
10
209.044
20
-115.826
11
209.044
21
-115.827
0
LINE
8
BLACK
6
CONTINUOUS
10
209.044
20
-115.827
11
209.109
21
-115.959
0
LINE
8
BLACK
6
CONTINUOUS
10
209.109
20
-115.959
11
209.11
21
-115.961
0
LINE
8
BLACK
6
CONTINUOUS
10
209.11
20
-115.961
11
209.145
21
-116.056
0
LINE
8
BLACK
6
CONTINUOUS
10
209.145
20
-116.056
11
209.152
21
-116.075
0
LINE
8
BLACK
6
CONTINUOUS
10
209.152
20
-116.075
11
209.152
21
-116.075
0
LINE
8
BLACK
6
CONTINUOUS
10
209.152
20
-116.075
11
209.2
21
-116.217
0
LINE
8
BLACK
6
CONTINUOUS
10
209.2
20
-116.217
11
209.201
21
-116.218
0
LINE
8
BLACK
6
CONTINUOUS
10
209.201
20
-116.218
11
209.226
21
-116.333
0
LINE
8
BLACK
6
CONTINUOUS
10
209.226
20
-116.333
11
209.226
21
-116.333
0
LINE
8
BLACK
6
CONTINUOUS
10
209.226
20
-116.333
11
209.256
21
-116.484
0
LINE
8
BLACK
6
CONTINUOUS
10
209.256
20
-116.484
11
209.256
21
-116.485
0
LINE
8
BLACK
6
CONTINUOUS
10
209.256
20
-116.485
11
209.263
21
-116.583
0
LINE
8
BLACK
6
CONTINUOUS
10
209.263
20
-116.583
11
209.263
21
-116.583
0
LINE
8
BLACK
6
CONTINUOUS
10
209.263
20
-116.583
11
209.274
21
-116.75
0
LINE
8
BLACK
6
CONTINUOUS
10
209.274
20
-116.75
11
209.274
21
-116.75
0
LINE
8
BLACK
6
CONTINUOUS
10
209.274
20
-116.75
11
209.274
21
-116.75
0
LINE
8
BLACK
6
CONTINUOUS
10
209.274
20
-116.75
11
209.274
21
-116.75
0
LINE
8
BLACK
6
CONTINUOUS
10
209.274
20
-116.75
11
209.274
21
-116.75
0
LINE
8
BLACK
6
CONTINUOUS
10
209.274
20
-116.75
11
209.274
21
-133.75
0
LINE
8
BLACK
6
CONTINUOUS
10
209.274
20
-133.75
11
209.274
21
-133.75
0
LINE
8
BLACK
6
CONTINUOUS
10
209.274
20
-133.75
11
209.274
21
-133.75
0
LINE
8
BLACK
6
CONTINUOUS
10
209.274
20
-133.75
11
209.274
21
-133.75
0
LINE
8
BLACK
6
CONTINUOUS
10
209.274
20
-133.75
11
209.274
21
-133.75
0
LINE
8
BLACK
6
CONTINUOUS
10
209.274
20
-133.75
11
209.263
21
-133.918
0
LINE
8
BLACK
6
CONTINUOUS
10
209.263
20
-133.918
11
209.263
21
-133.918
0
LINE
8
BLACK
6
CONTINUOUS
10
209.263
20
-133.918
11
209.256
21
-134.015
0
LINE
8
BLACK
6
CONTINUOUS
10
209.256
20
-134.015
11
209.256
21
-134.016
0
LINE
8
BLACK
6
CONTINUOUS
10
209.256
20
-134.016
11
209.226
21
-134.167
0
LINE
8
BLACK
6
CONTINUOUS
10
209.226
20
-134.167
11
209.226
21
-134.167
0
LINE
8
BLACK
6
CONTINUOUS
10
209.226
20
-134.167
11
209.201
21
-134.282
0
LINE
8
BLACK
6
CONTINUOUS
10
209.201
20
-134.282
11
209.2
21
-134.283
0
LINE
8
BLACK
6
CONTINUOUS
10
209.2
20
-134.283
11
209.152
21
-134.425
0
LINE
8
BLACK
6
CONTINUOUS
10
209.152
20
-134.425
11
209.152
21
-134.425
0
LINE
8
BLACK
6
CONTINUOUS
10
209.152
20
-134.425
11
209.11
21
-134.539
0
LINE
8
BLACK
6
CONTINUOUS
10
209.11
20
-134.539
11
209.109
21
-134.541
0
LINE
8
BLACK
6
CONTINUOUS
10
209.109
20
-134.541
11
209.044
21
-134.673
0
LINE
8
BLACK
6
CONTINUOUS
10
209.044
20
-134.673
11
209.044
21
-134.674
0
LINE
8
BLACK
6
CONTINUOUS
10
209.044
20
-134.674
11
208.984
21
-134.782
0
LINE
8
BLACK
6
CONTINUOUS
10
208.984
20
-134.782
11
208.984
21
-134.783
0
LINE
8
BLACK
6
CONTINUOUS
10
208.984
20
-134.783
11
208.902
21
-134.905
0
LINE
8
BLACK
6
CONTINUOUS
10
208.902
20
-134.905
11
208.902
21
-134.906
0
LINE
8
BLACK
6
CONTINUOUS
10
208.902
20
-134.906
11
208.827
21
-135.005
0
LINE
8
BLACK
6
CONTINUOUS
10
208.827
20
-135.005
11
208.827
21
-135.006
0
LINE
8
BLACK
6
CONTINUOUS
10
208.827
20
-135.006
11
208.73
21
-135.116
0
LINE
8
BLACK
6
CONTINUOUS
10
208.73
20
-135.116
11
208.729
21
-135.117
0
LINE
8
BLACK
6
CONTINUOUS
10
208.729
20
-135.117
11
208.642
21
-135.204
0
LINE
8
BLACK
6
CONTINUOUS
10
208.642
20
-135.204
11
208.641
21
-135.205
0
LINE
8
BLACK
6
CONTINUOUS
10
208.641
20
-135.205
11
208.531
21
-135.302
0
LINE
8
BLACK
6
CONTINUOUS
10
208.531
20
-135.302
11
208.53
21
-135.302
0
LINE
8
BLACK
6
CONTINUOUS
10
208.53
20
-135.302
11
208.431
21
-135.377
0
LINE
8
BLACK
6
CONTINUOUS
10
208.431
20
-135.377
11
208.43
21
-135.377
0
LINE
8
BLACK
6
CONTINUOUS
10
208.43
20
-135.377
11
208.308
21
-135.459
0
LINE
8
BLACK
6
CONTINUOUS
10
208.308
20
-135.459
11
208.307
21
-135.459
0
LINE
8
BLACK
6
CONTINUOUS
10
208.307
20
-135.459
11
208.199
21
-135.519
0
LINE
8
BLACK
6
CONTINUOUS
10
208.199
20
-135.519
11
208.198
21
-135.519
0
LINE
8
BLACK
6
CONTINUOUS
10
208.198
20
-135.519
11
208.066
21
-135.584
0
LINE
8
BLACK
6
CONTINUOUS
10
208.066
20
-135.584
11
208.064
21
-135.585
0
LINE
8
BLACK
6
CONTINUOUS
10
208.064
20
-135.585
11
207.991
21
-135.612
0
LINE
8
BLACK
6
CONTINUOUS
10
207.991
20
-135.612
11
207.95
21
-135.627
0
LINE
8
BLACK
6
CONTINUOUS
10
207.95
20
-135.627
11
207.95
21
-135.627
0
LINE
8
BLACK
6
CONTINUOUS
10
207.95
20
-135.627
11
207.808
21
-135.675
0
LINE
8
BLACK
6
CONTINUOUS
10
207.808
20
-135.675
11
207.807
21
-135.676
0
LINE
8
BLACK
6
CONTINUOUS
10
207.807
20
-135.676
11
207.692
21
-135.701
0
LINE
8
BLACK
6
CONTINUOUS
10
207.692
20
-135.701
11
207.692
21
-135.701
0
LINE
8
BLACK
6
CONTINUOUS
10
207.692
20
-135.701
11
207.541
21
-135.731
0
LINE
8
BLACK
6
CONTINUOUS
10
207.541
20
-135.731
11
207.54
21
-135.731
0
LINE
8
BLACK
6
CONTINUOUS
10
207.54
20
-135.731
11
207.443
21
-135.738
0
LINE
8
BLACK
6
CONTINUOUS
10
207.443
20
-135.738
11
207.443
21
-135.738
0
LINE
8
BLACK
6
CONTINUOUS
10
207.443
20
-135.738
11
207.328
21
-135.746
0
LINE
8
BLACK
6
CONTINUOUS
10
207.328
20
-135.746
11
207.276
21
-135.749
0
LINE
8
BLACK
6
CONTINUOUS
10
207.276
20
-135.749
11
207.275
21
-135.749
0
LINE
8
BLACK
6
CONTINUOUS
10
207.275
20
-135.749
11
207.275
21
-135.749
0
LINE
8
BLACK
6
CONTINUOUS
10
207.275
20
-135.749
11
207.275
21
-135.749
0
LINE
8
BLACK
6
CONTINUOUS
10
207.275
20
-135.749
11
207.275
21
-135.749
0
LINE
8
BLACK
6
CONTINUOUS
10
207.275
20
-135.749
11
207.275
21
-135.749
0
LINE
8
BLACK
6
CONTINUOUS
10
207.275
20
-135.749
11
206.905
21
-135.749
0
LINE
8
BLACK
6
CONTINUOUS
10
206.905
20
-135.749
11
194.258
21
-135.749
0
LINE
8
BLACK
6
CONTINUOUS
10
194.258
20
-135.749
11
194.254
21
-135.747
0
LINE
8
BLACK
6
CONTINUOUS
10
194.254
20
-135.747
11
194.254
21
-135.748
0
LINE
8
BLACK
6
CONTINUOUS
10
194.254
20
-135.748
11
194.25
21
-135.746
0
LINE
8
BLACK
6
CONTINUOUS
10
194.25
20
-135.746
11
194.25
21
-135.746
0
LINE
8
BLACK
6
CONTINUOUS
10
194.25
20
-135.746
11
193.054
21
-135.773
0
LINE
8
BLACK
6
CONTINUOUS
10
193.054
20
-135.773
11
193.054
21
-135.773
0
LINE
8
BLACK
6
CONTINUOUS
10
193.054
20
-135.773
11
193.054
21
-135.773
0
LINE
8
BLACK
6
CONTINUOUS
10
193.054
20
-135.773
11
192.42
21
-135.803
0
LINE
8
BLACK
6
CONTINUOUS
10
192.42
20
-135.803
11
191.86
21
-135.829
0
LINE
8
BLACK
6
CONTINUOUS
10
191.86
20
-135.829
11
191.86
21
-135.829
0
LINE
8
BLACK
6
CONTINUOUS
10
191.86
20
-135.829
11
191.86
21
-135.829
0
LINE
8
BLACK
6
CONTINUOUS
10
191.86
20
-135.829
11
190.667
21
-135.912
0
LINE
8
BLACK
6
CONTINUOUS
10
190.667
20
-135.912
11
190.667
21
-135.912
0
LINE
8
BLACK
6
CONTINUOUS
10
190.667
20
-135.912
11
190.667
21
-135.912
0
LINE
8
BLACK
6
CONTINUOUS
10
190.667
20
-135.912
11
190.667
21
-135.912
0
LINE
8
BLACK
6
CONTINUOUS
10
190.667
20
-135.912
11
190.667
21
-135.912
0
LINE
8
BLACK
6
CONTINUOUS
10
190.667
20
-135.912
11
189.99
21
-135.975
0
LINE
8
BLACK
6
CONTINUOUS
10
189.99
20
-135.975
11
189.476
21
-136.023
0
LINE
8
BLACK
6
CONTINUOUS
10
189.476
20
-136.023
11
188.288
21
-136.163
0
LINE
8
BLACK
6
CONTINUOUS
10
188.288
20
-136.163
11
187.631
21
-136.255
0
LINE
8
BLACK
6
CONTINUOUS
10
187.631
20
-136.255
11
187.104
21
-136.329
0
LINE
8
BLACK
6
CONTINUOUS
10
187.104
20
-136.329
11
187.104
21
-136.329
0
LINE
8
BLACK
6
CONTINUOUS
10
187.104
20
-136.329
11
187.104
21
-136.329
0
LINE
8
BLACK
6
CONTINUOUS
10
187.104
20
-136.329
11
185.924
21
-136.524
0
LINE
8
BLACK
6
CONTINUOUS
10
185.924
20
-136.524
11
184.749
21
-136.746
0
LINE
8
BLACK
6
CONTINUOUS
10
184.749
20
-136.746
11
184.749
21
-136.747
0
LINE
8
BLACK
6
CONTINUOUS
10
184.749
20
-136.747
11
184.746
21
-136.749
0
LINE
8
BLACK
6
CONTINUOUS
10
184.746
20
-136.749
11
184.746
21
-136.749
0
LINE
8
BLACK
6
CONTINUOUS
10
184.746
20
-136.749
11
184.742
21
-136.751
0
LINE
8
BLACK
6
CONTINUOUS
10
184.742
20
-136.751
11
184.74
21
-136.751
0
LINE
8
BLACK
6
CONTINUOUS
10
184.74
20
-136.751
11
171.775
21
-139.499
0
LINE
8
BLACK
6
CONTINUOUS
10
171.775
20
-139.499
11
171.775
21
-139.499
0
LINE
8
BLACK
6
CONTINUOUS
10
171.775
20
-139.499
11
171.775
21
-139.499
0
LINE
8
BLACK
6
CONTINUOUS
10
171.775
20
-139.499
11
171.74
21
-139.505
0
LINE
8
BLACK
6
CONTINUOUS
10
171.74
20
-139.505
11
171.61
21
-139.529
0
LINE
8
BLACK
6
CONTINUOUS
10
171.61
20
-139.529
11
171.61
21
-139.529
0
LINE
8
BLACK
6
CONTINUOUS
10
171.61
20
-139.529
11
171.505
21
-139.547
0
LINE
8
BLACK
6
CONTINUOUS
10
171.505
20
-139.547
11
171.504
21
-139.547
0
LINE
8
BLACK
6
CONTINUOUS
10
171.504
20
-139.547
11
171.348
21
-139.555
0
LINE
8
BLACK
6
CONTINUOUS
10
171.348
20
-139.555
11
171.348
21
-139.555
0
LINE
8
BLACK
6
CONTINUOUS
10
171.348
20
-139.555
11
171.224
21
-139.559
0
LINE
8
BLACK
6
CONTINUOUS
10
171.224
20
-139.559
11
171.223
21
-139.559
0
LINE
8
BLACK
6
CONTINUOUS
10
171.223
20
-139.559
11
171.07
21
-139.546
0
LINE
8
BLACK
6
CONTINUOUS
10
171.07
20
-139.546
11
171.07
21
-139.546
0
LINE
8
BLACK
6
CONTINUOUS
10
171.07
20
-139.546
11
170.956
21
-139.533
0
LINE
8
BLACK
6
CONTINUOUS
10
170.956
20
-139.533
11
170.944
21
-139.532
0
LINE
8
BLACK
6
CONTINUOUS
10
170.944
20
-139.532
11
170.943
21
-139.532
0
LINE
8
BLACK
6
CONTINUOUS
10
170.943
20
-139.532
11
170.795
21
-139.5
0
LINE
8
BLACK
6
CONTINUOUS
10
170.795
20
-139.5
11
170.794
21
-139.5
0
LINE
8
BLACK
6
CONTINUOUS
10
170.794
20
-139.5
11
170.72
21
-139.48
0
LINE
8
BLACK
6
CONTINUOUS
10
170.72
20
-139.48
11
170.67
21
-139.467
0
LINE
8
BLACK
6
CONTINUOUS
10
170.67
20
-139.467
11
170.669
21
-139.467
0
LINE
8
BLACK
6
CONTINUOUS
10
170.669
20
-139.467
11
170.527
21
-139.416
0
LINE
8
BLACK
6
CONTINUOUS
10
170.527
20
-139.416
11
170.526
21
-139.416
0
LINE
8
BLACK
6
CONTINUOUS
10
170.526
20
-139.416
11
170.458
21
-139.387
0
LINE
8
BLACK
6
CONTINUOUS
10
170.458
20
-139.387
11
170.408
21
-139.366
0
LINE
8
BLACK
6
CONTINUOUS
10
170.408
20
-139.366
11
170.407
21
-139.366
0
LINE
8
BLACK
6
CONTINUOUS
10
170.407
20
-139.366
11
170.273
21
-139.297
0
LINE
8
BLACK
6
CONTINUOUS
10
170.273
20
-139.297
11
170.272
21
-139.296
0
LINE
8
BLACK
6
CONTINUOUS
10
170.272
20
-139.296
11
170.162
21
-139.23
0
LINE
8
BLACK
6
CONTINUOUS
10
170.162
20
-139.23
11
170.161
21
-139.23
0
LINE
8
BLACK
6
CONTINUOUS
10
170.161
20
-139.23
11
170.037
21
-139.144
0
LINE
8
BLACK
6
CONTINUOUS
10
170.037
20
-139.144
11
170.037
21
-139.143
0
LINE
8
BLACK
6
CONTINUOUS
10
170.037
20
-139.143
11
169.964
21
-139.085
0
LINE
8
BLACK
6
CONTINUOUS
10
169.964
20
-139.085
11
169.937
21
-139.062
0
LINE
8
BLACK
6
CONTINUOUS
10
169.937
20
-139.062
11
169.936
21
-139.062
0
LINE
8
BLACK
6
CONTINUOUS
10
169.936
20
-139.062
11
169.883
21
-139.013
0
LINE
8
BLACK
6
CONTINUOUS
10
169.883
20
-139.013
11
169.825
21
-138.96
0
LINE
8
BLACK
6
CONTINUOUS
10
169.825
20
-138.96
11
169.824
21
-138.96
0
LINE
8
BLACK
6
CONTINUOUS
10
169.824
20
-138.96
11
169.737
21
-138.865
0
LINE
8
BLACK
6
CONTINUOUS
10
169.737
20
-138.865
11
169.737
21
-138.865
0
LINE
8
BLACK
6
CONTINUOUS
10
169.737
20
-138.865
11
169.639
21
-138.749
0
LINE
8
BLACK
6
CONTINUOUS
10
169.639
20
-138.749
11
169.638
21
-138.748
0
LINE
8
BLACK
6
CONTINUOUS
10
169.638
20
-138.748
11
169.566
21
-138.644
0
LINE
8
BLACK
6
CONTINUOUS
10
169.566
20
-138.644
11
169.566
21
-138.644
0
LINE
8
BLACK
6
CONTINUOUS
10
169.566
20
-138.644
11
169.483
21
-138.515
0
LINE
8
BLACK
6
CONTINUOUS
10
169.483
20
-138.515
11
169.482
21
-138.514
0
LINE
8
BLACK
6
CONTINUOUS
10
169.482
20
-138.514
11
169.428
21
-138.403
0
LINE
8
BLACK
6
CONTINUOUS
10
169.428
20
-138.403
11
169.427
21
-138.403
0
LINE
8
BLACK
6
CONTINUOUS
10
169.427
20
-138.403
11
169.361
21
-138.261
0
LINE
8
BLACK
6
CONTINUOUS
10
169.361
20
-138.261
11
169.36
21
-138.26
0
LINE
8
BLACK
6
CONTINUOUS
10
169.36
20
-138.26
11
169.327
21
-138.16
0
LINE
8
BLACK
6
CONTINUOUS
10
169.327
20
-138.16
11
169.327
21
-138.159
0
LINE
8
BLACK
6
CONTINUOUS
10
169.327
20
-138.159
11
169.276
21
-138
0
LINE
8
BLACK
6
CONTINUOUS
10
169.276
20
-138
11
169.276
21
-138
0
LINE
8
BLACK
6
CONTINUOUS
10
169.276
20
-138
11
169.276
21
-138
0
LINE
8
BLACK
6
CONTINUOUS
10
169.276
20
-138
11
169.276
21
-138
0
LINE
8
BLACK
6
CONTINUOUS
10
169.276
20
-138
11
169.276
21
-137.999
0
LINE
8
BLACK
6
CONTINUOUS
10
169.276
20
-137.999
11
169.01
21
-136.751
0
LINE
8
BLACK
6
CONTINUOUS
10
169.01
20
-136.751
11
168.072
21
-132.354
0
LINE
8
BLACK
6
CONTINUOUS
10
168.072
20
-132.354
11
168.074
21
-132.346
0
LINE
8
BLACK
6
CONTINUOUS
10
168.074
20
-132.346
11
168.074
21
-132.345
0
LINE
8
BLACK
6
CONTINUOUS
10
168.074
20
-132.345
11
168.074
21
-132.345
0
LINE
8
BLACK
6
CONTINUOUS
10
168.074
20
-132.345
11
168.075
21
-132.345
0
LINE
8
BLACK
6
CONTINUOUS
10
168.075
20
-132.345
11
167.875
21
-131.487
0
LINE
8
BLACK
6
CONTINUOUS
10
167.875
20
-131.487
11
167.637
21
-130.639
0
LINE
8
BLACK
6
CONTINUOUS
10
167.637
20
-130.639
11
167.363
21
-129.802
0
LINE
8
BLACK
6
CONTINUOUS
10
167.363
20
-129.802
11
167.363
21
-129.802
0
LINE
8
BLACK
6
CONTINUOUS
10
167.363
20
-129.802
11
167.053
21
-128.978
0
LINE
8
BLACK
6
CONTINUOUS
10
167.053
20
-128.978
11
167.053
21
-128.978
0
LINE
8
BLACK
6
CONTINUOUS
10
167.053
20
-128.978
11
167.053
21
-128.978
0
LINE
8
BLACK
6
CONTINUOUS
10
167.053
20
-128.978
11
166.706
21
-128.168
0
LINE
8
BLACK
6
CONTINUOUS
10
166.706
20
-128.168
11
166.405
21
-127.541
0
LINE
8
BLACK
6
CONTINUOUS
10
166.405
20
-127.541
11
166.325
21
-127.374
0
LINE
8
BLACK
6
CONTINUOUS
10
166.325
20
-127.374
11
166.325
21
-127.374
0
LINE
8
BLACK
6
CONTINUOUS
10
166.325
20
-127.374
11
166.325
21
-127.374
0
LINE
8
BLACK
6
CONTINUOUS
10
166.325
20
-127.374
11
165.91
21
-126.598
0
LINE
8
BLACK
6
CONTINUOUS
10
165.91
20
-126.598
11
165.461
21
-125.84
0
LINE
8
BLACK
6
CONTINUOUS
10
165.461
20
-125.84
11
164.98
21
-125.102
0
LINE
8
BLACK
6
CONTINUOUS
10
164.98
20
-125.102
11
164.73
21
-124.754
0
LINE
8
BLACK
6
CONTINUOUS
10
164.73
20
-124.754
11
164.467
21
-124.387
0
LINE
8
BLACK
6
CONTINUOUS
10
164.467
20
-124.387
11
164.467
21
-124.387
0
LINE
8
BLACK
6
CONTINUOUS
10
164.467
20
-124.387
11
163.923
21
-123.694
0
LINE
8
BLACK
6
CONTINUOUS
10
163.923
20
-123.694
11
163.349
21
-123.026
0
LINE
8
BLACK
6
CONTINUOUS
10
163.349
20
-123.026
11
162.747
21
-122.383
0
LINE
8
BLACK
6
CONTINUOUS
10
162.747
20
-122.383
11
162.117
21
-121.768
0
LINE
8
BLACK
6
CONTINUOUS
10
162.117
20
-121.768
11
161.461
21
-121.18
0
LINE
8
BLACK
6
CONTINUOUS
10
161.461
20
-121.18
11
160.857
21
-120.684
0
LINE
8
BLACK
6
CONTINUOUS
10
160.857
20
-120.684
11
160.78
21
-120.621
0
LINE
8
BLACK
6
CONTINUOUS
10
160.78
20
-120.621
11
160.78
21
-120.621
0
LINE
8
BLACK
6
CONTINUOUS
10
160.78
20
-120.621
11
160.78
21
-120.621
0
LINE
8
BLACK
6
CONTINUOUS
10
160.78
20
-120.621
11
160.076
21
-120.093
0
LINE
8
BLACK
6
CONTINUOUS
10
160.076
20
-120.093
11
159.572
21
-119.749
0
LINE
8
BLACK
6
CONTINUOUS
10
159.572
20
-119.749
11
159.349
21
-119.596
0
LINE
8
BLACK
6
CONTINUOUS
10
159.349
20
-119.596
11
159.349
21
-119.596
0
LINE
8
BLACK
6
CONTINUOUS
10
159.349
20
-119.596
11
158.601
21
-119.131
0
LINE
8
BLACK
6
CONTINUOUS
10
158.601
20
-119.131
11
157.833
21
-118.7
0
LINE
8
BLACK
6
CONTINUOUS
10
157.833
20
-118.7
11
157.047
21
-118.302
0
LINE
8
BLACK
6
CONTINUOUS
10
157.047
20
-118.302
11
156.245
21
-117.939
0
LINE
8
BLACK
6
CONTINUOUS
10
156.245
20
-117.939
11
155.428
21
-117.611
0
LINE
8
BLACK
6
CONTINUOUS
10
155.428
20
-117.611
11
154.902
21
-117.426
0
LINE
8
BLACK
6
CONTINUOUS
10
154.902
20
-117.426
11
154.597
21
-117.319
0
LINE
8
BLACK
6
CONTINUOUS
10
154.597
20
-117.319
11
154.597
21
-117.319
0
LINE
8
BLACK
6
CONTINUOUS
10
154.597
20
-117.319
11
154.597
21
-117.319
0
LINE
8
BLACK
6
CONTINUOUS
10
154.597
20
-117.319
11
154.175
21
-117.191
0
LINE
8
BLACK
6
CONTINUOUS
10
154.175
20
-117.191
11
153.754
21
-117.064
0
LINE
8
BLACK
6
CONTINUOUS
10
153.754
20
-117.064
11
153.754
21
-117.064
0
LINE
8
BLACK
6
CONTINUOUS
10
153.754
20
-117.064
11
153.754
21
-117.063
0
LINE
8
BLACK
6
CONTINUOUS
10
153.754
20
-117.063
11
152.901
21
-116.845
0
LINE
8
BLACK
6
CONTINUOUS
10
152.901
20
-116.845
11
152.039
21
-116.664
0
LINE
8
BLACK
6
CONTINUOUS
10
152.039
20
-116.664
11
152.039
21
-116.664
0
LINE
8
BLACK
6
CONTINUOUS
10
152.039
20
-116.664
11
152.039
21
-116.664
0
LINE
8
BLACK
6
CONTINUOUS
10
152.039
20
-116.664
11
151.17
21
-116.521
0
LINE
8
BLACK
6
CONTINUOUS
10
151.17
20
-116.521
11
151.17
21
-116.521
0
LINE
8
BLACK
6
CONTINUOUS
10
151.17
20
-116.521
11
151.17
21
-116.521
0
LINE
8
BLACK
6
CONTINUOUS
10
151.17
20
-116.521
11
151.17
21
-116.521
0
LINE
8
BLACK
6
CONTINUOUS
10
151.17
20
-116.521
11
150.589
21
-116.451
0
LINE
8
BLACK
6
CONTINUOUS
10
150.589
20
-116.451
11
150.295
21
-116.416
0
LINE
8
BLACK
6
CONTINUOUS
10
150.295
20
-116.416
11
150.295
21
-116.416
0
LINE
8
BLACK
6
CONTINUOUS
10
150.295
20
-116.416
11
150.295
21
-116.416
0
LINE
8
BLACK
6
CONTINUOUS
10
150.295
20
-116.416
11
149.737
21
-116.373
0
LINE
8
BLACK
6
CONTINUOUS
10
149.737
20
-116.373
11
149.417
21
-116.349
0
LINE
8
BLACK
6
CONTINUOUS
10
149.417
20
-116.349
11
149.417
21
-116.349
0
LINE
8
BLACK
6
CONTINUOUS
10
149.417
20
-116.349
11
149.417
21
-116.349
0
LINE
8
BLACK
6
CONTINUOUS
10
149.417
20
-116.349
11
148.537
21
-116.321
0
LINE
8
BLACK
6
CONTINUOUS
10
148.537
20
-116.321
11
148.537
21
-116.321
0
LINE
8
BLACK
6
CONTINUOUS
10
148.537
20
-116.321
11
148.537
21
-116.321
0
LINE
8
BLACK
6
CONTINUOUS
10
148.537
20
-116.321
11
148.537
21
-116.321
0
LINE
8
BLACK
6
CONTINUOUS
10
148.537
20
-116.321
11
148.537
21
-116.321
0
LINE
8
BLACK
6
CONTINUOUS
10
148.537
20
-116.321
11
147.657
21
-116.331
0
LINE
8
BLACK
6
CONTINUOUS
10
147.657
20
-116.331
11
147.657
21
-116.331
0
LINE
8
BLACK
6
CONTINUOUS
10
147.657
20
-116.331
11
147.656
21
-116.331
0
LINE
8
BLACK
6
CONTINUOUS
10
147.656
20
-116.331
11
147.656
21
-116.331
0
LINE
8
BLACK
6
CONTINUOUS
10
147.656
20
-116.331
11
147.656
21
-116.331
0
LINE
8
BLACK
6
CONTINUOUS
10
147.656
20
-116.331
11
147.449
21
-116.342
0
LINE
8
BLACK
6
CONTINUOUS
10
147.449
20
-116.342
11
146.777
21
-116.379
0
LINE
8
BLACK
6
CONTINUOUS
10
146.777
20
-116.379
11
146.448
21
-116.412
0
LINE
8
BLACK
6
CONTINUOUS
10
146.448
20
-116.412
11
145.901
21
-116.466
0
LINE
8
BLACK
6
CONTINUOUS
10
145.901
20
-116.466
11
145.901
21
-116.466
0
LINE
8
BLACK
6
CONTINUOUS
10
145.901
20
-116.466
11
145.901
21
-116.466
0
LINE
8
BLACK
6
CONTINUOUS
10
145.901
20
-116.466
11
145.901
21
-116.466
0
LINE
8
BLACK
6
CONTINUOUS
10
145.901
20
-116.466
11
145.901
21
-116.466
0
LINE
8
BLACK
6
CONTINUOUS
10
145.901
20
-116.466
11
145.513
21
-116.521
0
LINE
8
BLACK
6
CONTINUOUS
10
145.513
20
-116.521
11
145.029
21
-116.59
0
LINE
8
BLACK
6
CONTINUOUS
10
145.029
20
-116.59
11
145.029
21
-116.59
0
LINE
8
BLACK
6
CONTINUOUS
10
145.029
20
-116.59
11
145.029
21
-116.59
0
LINE
8
BLACK
6
CONTINUOUS
10
145.029
20
-116.59
11
144.636
21
-116.664
0
LINE
8
BLACK
6
CONTINUOUS
10
144.636
20
-116.664
11
144.163
21
-116.753
0
LINE
8
BLACK
6
CONTINUOUS
10
144.163
20
-116.753
11
143.306
21
-116.953
0
LINE
8
BLACK
6
CONTINUOUS
10
143.306
20
-116.953
11
143.306
21
-116.954
0
LINE
8
BLACK
6
CONTINUOUS
10
143.306
20
-116.954
11
143.306
21
-116.954
0
LINE
8
BLACK
6
CONTINUOUS
10
143.306
20
-116.954
11
142.458
21
-117.191
0
LINE
8
BLACK
6
CONTINUOUS
10
142.458
20
-117.191
11
142.458
21
-117.191
0
LINE
8
BLACK
6
CONTINUOUS
10
142.458
20
-117.191
11
142.458
21
-117.191
0
LINE
8
BLACK
6
CONTINUOUS
10
142.458
20
-117.191
11
142.458
21
-117.191
0
LINE
8
BLACK
6
CONTINUOUS
10
142.458
20
-117.191
11
142.458
21
-117.191
0
LINE
8
BLACK
6
CONTINUOUS
10
142.458
20
-117.191
11
141.621
21
-117.465
0
LINE
8
BLACK
6
CONTINUOUS
10
141.621
20
-117.465
11
141.621
21
-117.465
0
LINE
8
BLACK
6
CONTINUOUS
10
141.621
20
-117.465
11
141.621
21
-117.465
0
LINE
8
BLACK
6
CONTINUOUS
10
141.621
20
-117.465
11
141.621
21
-117.465
0
LINE
8
BLACK
6
CONTINUOUS
10
141.621
20
-117.465
11
141.621
21
-117.465
0
LINE
8
BLACK
6
CONTINUOUS
10
141.621
20
-117.465
11
141.235
21
-117.611
0
LINE
8
BLACK
6
CONTINUOUS
10
141.235
20
-117.611
11
140.797
21
-117.776
0
LINE
8
BLACK
6
CONTINUOUS
10
140.797
20
-117.776
11
139.987
21
-118.122
0
LINE
8
BLACK
6
CONTINUOUS
10
139.987
20
-118.122
11
139.193
21
-118.503
0
LINE
8
BLACK
6
CONTINUOUS
10
139.193
20
-118.503
11
139.182
21
-118.509
0
LINE
8
BLACK
6
CONTINUOUS
10
139.182
20
-118.509
11
138.417
21
-118.919
0
LINE
8
BLACK
6
CONTINUOUS
10
138.417
20
-118.919
11
138.417
21
-118.919
0
LINE
8
BLACK
6
CONTINUOUS
10
138.417
20
-118.919
11
138.417
21
-118.919
0
LINE
8
BLACK
6
CONTINUOUS
10
138.417
20
-118.919
11
138.086
21
-119.115
0
LINE
8
BLACK
6
CONTINUOUS
10
138.086
20
-119.115
11
137.659
21
-119.368
0
LINE
8
BLACK
6
CONTINUOUS
10
137.659
20
-119.368
11
137.659
21
-119.368
0
LINE
8
BLACK
6
CONTINUOUS
10
137.659
20
-119.368
11
137.659
21
-119.368
0
LINE
8
BLACK
6
CONTINUOUS
10
137.659
20
-119.368
11
137.659
21
-119.368
0
LINE
8
BLACK
6
CONTINUOUS
10
137.659
20
-119.368
11
137.659
21
-119.368
0
LINE
8
BLACK
6
CONTINUOUS
10
137.659
20
-119.368
11
136.992
21
-119.804
0
LINE
8
BLACK
6
CONTINUOUS
10
136.992
20
-119.804
11
136.922
21
-119.849
0
LINE
8
BLACK
6
CONTINUOUS
10
136.922
20
-119.849
11
136.206
21
-120.363
0
LINE
8
BLACK
6
CONTINUOUS
10
136.206
20
-120.363
11
135.513
21
-120.907
0
LINE
8
BLACK
6
CONTINUOUS
10
135.513
20
-120.907
11
135.513
21
-120.907
0
LINE
8
BLACK
6
CONTINUOUS
10
135.513
20
-120.907
11
135.513
21
-120.907
0
LINE
8
BLACK
6
CONTINUOUS
10
135.513
20
-120.907
11
134.956
21
-121.385
0
LINE
8
BLACK
6
CONTINUOUS
10
134.956
20
-121.385
11
134.845
21
-121.48
0
LINE
8
BLACK
6
CONTINUOUS
10
134.845
20
-121.48
11
134.845
21
-121.481
0
LINE
8
BLACK
6
CONTINUOUS
10
134.845
20
-121.481
11
134.513
21
-121.792
0
LINE
8
BLACK
6
CONTINUOUS
10
134.513
20
-121.792
11
134.203
21
-122.083
0
LINE
8
BLACK
6
CONTINUOUS
10
134.203
20
-122.083
11
134.203
21
-122.083
0
LINE
8
BLACK
6
CONTINUOUS
10
134.203
20
-122.083
11
134.203
21
-122.083
0
LINE
8
BLACK
6
CONTINUOUS
10
134.203
20
-122.083
11
133.909
21
-122.383
0
LINE
8
BLACK
6
CONTINUOUS
10
133.909
20
-122.383
11
133.587
21
-122.713
0
LINE
8
BLACK
6
CONTINUOUS
10
133.587
20
-122.713
11
133
21
-123.369
0
LINE
8
BLACK
6
CONTINUOUS
10
133
20
-123.369
11
132.803
21
-123.609
0
LINE
8
BLACK
6
CONTINUOUS
10
132.803
20
-123.609
11
132.718
21
-123.712
0
LINE
8
BLACK
6
CONTINUOUS
10
132.718
20
-123.712
11
132.441
21
-124.05
0
LINE
8
BLACK
6
CONTINUOUS
10
132.441
20
-124.05
11
132.441
21
-124.05
0
LINE
8
BLACK
6
CONTINUOUS
10
132.441
20
-124.05
11
132.441
21
-124.05
0
LINE
8
BLACK
6
CONTINUOUS
10
132.441
20
-124.05
11
132.058
21
-124.561
0
LINE
8
BLACK
6
CONTINUOUS
10
132.058
20
-124.561
11
131.913
21
-124.754
0
LINE
8
BLACK
6
CONTINUOUS
10
131.913
20
-124.754
11
131.416
21
-125.481
0
LINE
8
BLACK
6
CONTINUOUS
10
131.416
20
-125.481
11
130.951
21
-126.23
0
LINE
8
BLACK
6
CONTINUOUS
10
130.951
20
-126.23
11
130.52
21
-126.997
0
LINE
8
BLACK
6
CONTINUOUS
10
130.52
20
-126.997
11
130.521
21
-126.998
0
LINE
8
BLACK
6
CONTINUOUS
10
130.521
20
-126.998
11
130.521
21
-126.999
0
LINE
8
BLACK
6
CONTINUOUS
10
130.521
20
-126.999
11
130.522
21
-127.004
0
LINE
8
BLACK
6
CONTINUOUS
10
130.522
20
-127.004
11
130.521
21
-127.007
0
LINE
8
BLACK
6
CONTINUOUS
10
130.521
20
-127.007
11
130.467
21
-127.144
0
LINE
8
BLACK
6
CONTINUOUS
10
130.467
20
-127.144
11
130.467
21
-127.144
0
LINE
8
BLACK
6
CONTINUOUS
10
130.467
20
-127.144
11
130.416
21
-127.272
0
LINE
8
BLACK
6
CONTINUOUS
10
130.416
20
-127.272
11
130.416
21
-127.273
0
LINE
8
BLACK
6
CONTINUOUS
10
130.416
20
-127.273
11
130.342
21
-127.416
0
LINE
8
BLACK
6
CONTINUOUS
10
130.342
20
-127.416
11
130.342
21
-127.417
0
LINE
8
BLACK
6
CONTINUOUS
10
130.342
20
-127.417
11
130.275
21
-127.54
0
LINE
8
BLACK
6
CONTINUOUS
10
130.275
20
-127.54
11
130.275
21
-127.541
0
LINE
8
BLACK
6
CONTINUOUS
10
130.275
20
-127.541
11
130.187
21
-127.675
0
LINE
8
BLACK
6
CONTINUOUS
10
130.187
20
-127.675
11
130.187
21
-127.675
0
LINE
8
BLACK
6
CONTINUOUS
10
130.187
20
-127.675
11
130.106
21
-127.79
0
LINE
8
BLACK
6
CONTINUOUS
10
130.106
20
-127.79
11
130.105
21
-127.791
0
LINE
8
BLACK
6
CONTINUOUS
10
130.105
20
-127.791
11
130.004
21
-127.916
0
LINE
8
BLACK
6
CONTINUOUS
10
130.004
20
-127.916
11
130.004
21
-127.916
0
LINE
8
BLACK
6
CONTINUOUS
10
130.004
20
-127.916
11
129.91
21
-128.021
0
LINE
8
BLACK
6
CONTINUOUS
10
129.91
20
-128.021
11
129.91
21
-128.022
0
LINE
8
BLACK
6
CONTINUOUS
10
129.91
20
-128.022
11
129.797
21
-128.135
0
LINE
8
BLACK
6
CONTINUOUS
10
129.797
20
-128.135
11
129.796
21
-128.135
0
LINE
8
BLACK
6
CONTINUOUS
10
129.796
20
-128.135
11
129.691
21
-128.229
0
LINE
8
BLACK
6
CONTINUOUS
10
129.691
20
-128.229
11
129.691
21
-128.229
0
LINE
8
BLACK
6
CONTINUOUS
10
129.691
20
-128.229
11
129.566
21
-128.33
0
LINE
8
BLACK
6
CONTINUOUS
10
129.566
20
-128.33
11
129.565
21
-128.331
0
LINE
8
BLACK
6
CONTINUOUS
10
129.565
20
-128.331
11
129.45
21
-128.412
0
LINE
8
BLACK
6
CONTINUOUS
10
129.45
20
-128.412
11
129.45
21
-128.412
0
LINE
8
BLACK
6
CONTINUOUS
10
129.45
20
-128.412
11
129.316
21
-128.5
0
LINE
8
BLACK
6
CONTINUOUS
10
129.316
20
-128.5
11
129.315
21
-128.5
0
LINE
8
BLACK
6
CONTINUOUS
10
129.315
20
-128.5
11
129.192
21
-128.567
0
LINE
8
BLACK
6
CONTINUOUS
10
129.192
20
-128.567
11
129.191
21
-128.567
0
LINE
8
BLACK
6
CONTINUOUS
10
129.191
20
-128.567
11
129.048
21
-128.641
0
LINE
8
BLACK
6
CONTINUOUS
10
129.048
20
-128.641
11
129.047
21
-128.641
0
LINE
8
BLACK
6
CONTINUOUS
10
129.047
20
-128.641
11
128.97
21
-128.672
0
LINE
8
BLACK
6
CONTINUOUS
10
128.97
20
-128.672
11
128.919
21
-128.692
0
LINE
8
BLACK
6
CONTINUOUS
10
128.919
20
-128.692
11
128.919
21
-128.692
0
LINE
8
BLACK
6
CONTINUOUS
10
128.919
20
-128.692
11
128.919
21
-128.692
0
LINE
8
BLACK
6
CONTINUOUS
10
128.919
20
-128.692
11
128.919
21
-128.692
0
LINE
8
BLACK
6
CONTINUOUS
10
128.919
20
-128.692
11
128.776
21
-128.749
0
LINE
8
BLACK
6
CONTINUOUS
10
128.776
20
-128.749
11
128.775
21
-128.749
0
LINE
8
BLACK
6
CONTINUOUS
10
128.775
20
-128.749
11
128.775
21
-128.749
0
LINE
8
BLACK
6
CONTINUOUS
10
128.775
20
-128.749
11
128.775
21
-128.749
0
LINE
8
BLACK
6
CONTINUOUS
10
128.775
20
-128.749
11
128.774
21
-128.749
0
LINE
8
BLACK
6
CONTINUOUS
10
128.774
20
-128.749
11
123.86
21
-129.802
0
LINE
8
BLACK
6
CONTINUOUS
10
123.86
20
-129.802
11
111.277
21
-132.499
0
LINE
8
BLACK
6
CONTINUOUS
10
111.277
20
-132.499
11
111.277
21
-132.499
0
LINE
8
BLACK
6
CONTINUOUS
10
111.277
20
-132.499
11
111.275
21
-132.499
0
LINE
8
BLACK
6
CONTINUOUS
10
111.275
20
-132.499
11
111.275
21
-132.499
0
LINE
8
BLACK
6
CONTINUOUS
10
111.275
20
-132.499
11
111.275
21
-132.499
0
LINE
8
BLACK
6
CONTINUOUS
10
111.275
20
-132.499
11
111.273
21
-132.499
0
LINE
8
BLACK
6
CONTINUOUS
10
111.273
20
-132.499
11
111.273
21
-132.499
0
LINE
8
BLACK
6
CONTINUOUS
10
111.273
20
-132.499
11
111.11
21
-132.529
0
LINE
8
BLACK
6
CONTINUOUS
10
111.11
20
-132.529
11
111.11
21
-132.529
0
LINE
8
BLACK
6
CONTINUOUS
10
111.11
20
-132.529
11
111.005
21
-132.547
0
LINE
8
BLACK
6
CONTINUOUS
10
111.005
20
-132.547
11
111.004
21
-132.547
0
LINE
8
BLACK
6
CONTINUOUS
10
111.004
20
-132.547
11
110.848
21
-132.555
0
LINE
8
BLACK
6
CONTINUOUS
10
110.848
20
-132.555
11
110.848
21
-132.555
0
LINE
8
BLACK
6
CONTINUOUS
10
110.848
20
-132.555
11
110.724
21
-132.559
0
LINE
8
BLACK
6
CONTINUOUS
10
110.724
20
-132.559
11
110.723
21
-132.559
0
LINE
8
BLACK
6
CONTINUOUS
10
110.723
20
-132.559
11
110.57
21
-132.546
0
LINE
8
BLACK
6
CONTINUOUS
10
110.57
20
-132.546
11
110.57
21
-132.546
0
LINE
8
BLACK
6
CONTINUOUS
10
110.57
20
-132.546
11
110.456
21
-132.533
0
LINE
8
BLACK
6
CONTINUOUS
10
110.456
20
-132.533
11
110.444
21
-132.532
0
LINE
8
BLACK
6
CONTINUOUS
10
110.444
20
-132.532
11
110.443
21
-132.532
0
LINE
8
BLACK
6
CONTINUOUS
10
110.443
20
-132.532
11
110.295
21
-132.5
0
LINE
8
BLACK
6
CONTINUOUS
10
110.295
20
-132.5
11
110.294
21
-132.5
0
LINE
8
BLACK
6
CONTINUOUS
10
110.294
20
-132.5
11
110.22
21
-132.48
0
LINE
8
BLACK
6
CONTINUOUS
10
110.22
20
-132.48
11
110.17
21
-132.467
0
LINE
8
BLACK
6
CONTINUOUS
10
110.17
20
-132.467
11
110.169
21
-132.467
0
LINE
8
BLACK
6
CONTINUOUS
10
110.169
20
-132.467
11
110.027
21
-132.416
0
LINE
8
BLACK
6
CONTINUOUS
10
110.027
20
-132.416
11
110.026
21
-132.416
0
LINE
8
BLACK
6
CONTINUOUS
10
110.026
20
-132.416
11
109.958
21
-132.387
0
LINE
8
BLACK
6
CONTINUOUS
10
109.958
20
-132.387
11
109.908
21
-132.366
0
LINE
8
BLACK
6
CONTINUOUS
10
109.908
20
-132.366
11
109.907
21
-132.366
0
LINE
8
BLACK
6
CONTINUOUS
10
109.907
20
-132.366
11
109.773
21
-132.297
0
LINE
8
BLACK
6
CONTINUOUS
10
109.773
20
-132.297
11
109.772
21
-132.296
0
LINE
8
BLACK
6
CONTINUOUS
10
109.772
20
-132.296
11
109.662
21
-132.23
0
LINE
8
BLACK
6
CONTINUOUS
10
109.662
20
-132.23
11
109.661
21
-132.23
0
LINE
8
BLACK
6
CONTINUOUS
10
109.661
20
-132.23
11
109.537
21
-132.144
0
LINE
8
BLACK
6
CONTINUOUS
10
109.537
20
-132.144
11
109.537
21
-132.143
0
LINE
8
BLACK
6
CONTINUOUS
10
109.537
20
-132.143
11
109.464
21
-132.085
0
LINE
8
BLACK
6
CONTINUOUS
10
109.464
20
-132.085
11
109.437
21
-132.062
0
LINE
8
BLACK
6
CONTINUOUS
10
109.437
20
-132.062
11
109.436
21
-132.062
0
LINE
8
BLACK
6
CONTINUOUS
10
109.436
20
-132.062
11
109.383
21
-132.013
0
LINE
8
BLACK
6
CONTINUOUS
10
109.383
20
-132.013
11
109.325
21
-131.96
0
LINE
8
BLACK
6
CONTINUOUS
10
109.325
20
-131.96
11
109.324
21
-131.96
0
LINE
8
BLACK
6
CONTINUOUS
10
109.324
20
-131.96
11
109.237
21
-131.865
0
LINE
8
BLACK
6
CONTINUOUS
10
109.237
20
-131.865
11
109.237
21
-131.865
0
LINE
8
BLACK
6
CONTINUOUS
10
109.237
20
-131.865
11
109.139
21
-131.749
0
LINE
8
BLACK
6
CONTINUOUS
10
109.139
20
-131.749
11
109.138
21
-131.748
0
LINE
8
BLACK
6
CONTINUOUS
10
109.138
20
-131.748
11
109.066
21
-131.644
0
LINE
8
BLACK
6
CONTINUOUS
10
109.066
20
-131.644
11
109.066
21
-131.644
0
LINE
8
BLACK
6
CONTINUOUS
10
109.066
20
-131.644
11
108.983
21
-131.515
0
LINE
8
BLACK
6
CONTINUOUS
10
108.983
20
-131.515
11
108.982
21
-131.514
0
LINE
8
BLACK
6
CONTINUOUS
10
108.982
20
-131.514
11
108.928
21
-131.403
0
LINE
8
BLACK
6
CONTINUOUS
10
108.928
20
-131.403
11
108.927
21
-131.403
0
LINE
8
BLACK
6
CONTINUOUS
10
108.927
20
-131.403
11
108.861
21
-131.261
0
LINE
8
BLACK
6
CONTINUOUS
10
108.861
20
-131.261
11
108.86
21
-131.26
0
LINE
8
BLACK
6
CONTINUOUS
10
108.86
20
-131.26
11
108.827
21
-131.159
0
LINE
8
BLACK
6
CONTINUOUS
10
108.827
20
-131.159
11
108.827
21
-131.159
0
LINE
8
BLACK
6
CONTINUOUS
10
108.827
20
-131.159
11
108.779
21
-131.009
0
LINE
8
BLACK
6
CONTINUOUS
10
108.779
20
-131.009
11
108.779
21
-131.003
0
LINE
8
BLACK
6
CONTINUOUS
10
108.779
20
-131.003
11
108.779
21
-131.003
0
LINE
8
BLACK
6
CONTINUOUS
10
108.779
20
-131.003
11
108.779
21
-131
0
LINE
8
BLACK
6
CONTINUOUS
10
108.779
20
-131
11
108.78
21
-131
0
LINE
8
BLACK
6
CONTINUOUS
10
108.78
20
-131
11
108.78
21
-131
0
LINE
8
BLACK
6
CONTINUOUS
10
108.78
20
-131
11
108.78
21
-130.999
0
LINE
8
BLACK
6
CONTINUOUS
10
108.78
20
-130.999
11
108.781
21
-130.998
0
LINE
8
BLACK
6
CONTINUOUS
10
108.781
20
-130.998
11
108.675
21
-130.639
0
LINE
8
BLACK
6
CONTINUOUS
10
108.675
20
-130.639
11
108.56
21
-130.251
0
LINE
8
BLACK
6
CONTINUOUS
10
108.56
20
-130.251
11
108.56
21
-130.251
0
LINE
8
BLACK
6
CONTINUOUS
10
108.56
20
-130.251
11
108.56
21
-130.25
0
LINE
8
BLACK
6
CONTINUOUS
10
108.56
20
-130.25
11
108.56
21
-130.25
0
LINE
8
BLACK
6
CONTINUOUS
10
108.56
20
-130.25
11
108.56
21
-130.25
0
LINE
8
BLACK
6
CONTINUOUS
10
108.56
20
-130.25
11
108.302
21
-129.514
0
LINE
8
BLACK
6
CONTINUOUS
10
108.302
20
-129.514
11
108.302
21
-129.514
0
LINE
8
BLACK
6
CONTINUOUS
10
108.302
20
-129.514
11
108.008
21
-128.792
0
LINE
8
BLACK
6
CONTINUOUS
10
108.008
20
-128.792
11
107.679
21
-128.084
0
LINE
8
BLACK
6
CONTINUOUS
10
107.679
20
-128.084
11
107.679
21
-128.084
0
LINE
8
BLACK
6
CONTINUOUS
10
107.679
20
-128.084
11
107.679
21
-128.084
0
LINE
8
BLACK
6
CONTINUOUS
10
107.679
20
-128.084
11
107.315
21
-127.395
0
LINE
8
BLACK
6
CONTINUOUS
10
107.315
20
-127.395
11
107.315
21
-127.395
0
LINE
8
BLACK
6
CONTINUOUS
10
107.315
20
-127.395
11
107.079
21
-126.995
0
LINE
8
BLACK
6
CONTINUOUS
10
107.079
20
-126.995
11
106.918
21
-126.724
0
LINE
8
BLACK
6
CONTINUOUS
10
106.918
20
-126.724
11
106.918
21
-126.724
0
LINE
8
BLACK
6
CONTINUOUS
10
106.918
20
-126.724
11
106.918
21
-126.723
0
LINE
8
BLACK
6
CONTINUOUS
10
106.918
20
-126.723
11
106.487
21
-126.073
0
LINE
8
BLACK
6
CONTINUOUS
10
106.487
20
-126.073
11
106.025
21
-125.444
0
LINE
8
BLACK
6
CONTINUOUS
10
106.025
20
-125.444
11
105.747
21
-125.102
0
LINE
8
BLACK
6
CONTINUOUS
10
105.747
20
-125.102
11
105.533
21
-124.84
0
LINE
8
BLACK
6
CONTINUOUS
10
105.533
20
-124.84
11
105.533
21
-124.84
0
LINE
8
BLACK
6
CONTINUOUS
10
105.533
20
-124.84
11
105.533
21
-124.84
0
LINE
8
BLACK
6
CONTINUOUS
10
105.533
20
-124.84
11
105.125
21
-124.387
0
LINE
8
BLACK
6
CONTINUOUS
10
105.125
20
-124.387
11
105.011
21
-124.26
0
LINE
8
BLACK
6
CONTINUOUS
10
105.011
20
-124.26
11
105.011
21
-124.26
0
LINE
8
BLACK
6
CONTINUOUS
10
105.011
20
-124.26
11
105.011
21
-124.26
0
LINE
8
BLACK
6
CONTINUOUS
10
105.011
20
-124.26
11
104.806
21
-124.054
0
LINE
8
BLACK
6
CONTINUOUS
10
104.806
20
-124.054
11
104.691
21
-123.938
0
LINE
8
BLACK
6
CONTINUOUS
10
104.691
20
-123.938
11
104.461
21
-123.707
0
LINE
8
BLACK
6
CONTINUOUS
10
104.461
20
-123.707
11
104.447
21
-123.694
0
LINE
8
BLACK
6
CONTINUOUS
10
104.447
20
-123.694
11
104.089
21
-123.369
0
LINE
8
BLACK
6
CONTINUOUS
10
104.089
20
-123.369
11
103.884
21
-123.182
0
LINE
8
BLACK
6
CONTINUOUS
10
103.884
20
-123.182
11
103.315
21
-122.713
0
LINE
8
BLACK
6
CONTINUOUS
10
103.315
20
-122.713
11
103.282
21
-122.686
0
LINE
8
BLACK
6
CONTINUOUS
10
103.282
20
-122.686
11
103.282
21
-122.686
0
LINE
8
BLACK
6
CONTINUOUS
10
103.282
20
-122.686
11
103.282
21
-122.686
0
LINE
8
BLACK
6
CONTINUOUS
10
103.282
20
-122.686
11
102.656
21
-122.22
0
LINE
8
BLACK
6
CONTINUOUS
10
102.656
20
-122.22
11
102.656
21
-122.22
0
LINE
8
BLACK
6
CONTINUOUS
10
102.656
20
-122.22
11
102.656
21
-122.22
0
LINE
8
BLACK
6
CONTINUOUS
10
102.656
20
-122.22
11
102.008
21
-121.786
0
LINE
8
BLACK
6
CONTINUOUS
10
102.008
20
-121.786
11
102.008
21
-121.786
0
LINE
8
BLACK
6
CONTINUOUS
10
102.008
20
-121.786
11
102.008
21
-121.786
0
LINE
8
BLACK
6
CONTINUOUS
10
102.008
20
-121.786
11
102.008
21
-121.786
0
LINE
8
BLACK
6
CONTINUOUS
10
102.008
20
-121.786
11
101.498
21
-121.481
0
LINE
8
BLACK
6
CONTINUOUS
10
101.498
20
-121.481
11
101.339
21
-121.385
0
LINE
8
BLACK
6
CONTINUOUS
10
101.339
20
-121.385
11
101.339
21
-121.385
0
LINE
8
BLACK
6
CONTINUOUS
10
101.339
20
-121.385
11
101.339
21
-121.385
0
LINE
8
BLACK
6
CONTINUOUS
10
101.339
20
-121.385
11
100.651
21
-121.017
0
LINE
8
BLACK
6
CONTINUOUS
10
100.651
20
-121.017
11
100.651
21
-121.017
0
LINE
8
BLACK
6
CONTINUOUS
10
100.651
20
-121.017
11
100.651
21
-121.017
0
LINE
8
BLACK
6
CONTINUOUS
10
100.651
20
-121.017
11
99.9461
21
-120.684
0
LINE
8
BLACK
6
CONTINUOUS
10
99.9461
20
-120.684
11
99.9461
21
-120.684
0
LINE
8
BLACK
6
CONTINUOUS
10
99.9461
20
-120.684
11
99.946
21
-120.684
0
LINE
8
BLACK
6
CONTINUOUS
10
99.946
20
-120.684
11
99.9458
21
-120.684
0
LINE
8
BLACK
6
CONTINUOUS
10
99.9458
20
-120.684
11
99.9458
21
-120.684
0
LINE
8
BLACK
6
CONTINUOUS
10
99.9458
20
-120.684
11
99.2252
21
-120.386
0
LINE
8
BLACK
6
CONTINUOUS
10
99.2252
20
-120.386
11
99.225
21
-120.386
0
LINE
8
BLACK
6
CONTINUOUS
10
99.225
20
-120.386
11
98.4903
21
-120.125
0
LINE
8
BLACK
6
CONTINUOUS
10
98.4903
20
-120.125
11
98.4901
21
-120.125
0
LINE
8
BLACK
6
CONTINUOUS
10
98.4901
20
-120.125
11
98.4901
21
-120.125
0
LINE
8
BLACK
6
CONTINUOUS
10
98.4901
20
-120.125
11
98.1168
21
-120.012
0
LINE
8
BLACK
6
CONTINUOUS
10
98.1168
20
-120.012
11
97.7434
21
-119.9
0
LINE
8
BLACK
6
CONTINUOUS
10
97.7434
20
-119.9
11
97.7433
21
-119.9
0
LINE
8
BLACK
6
CONTINUOUS
10
97.7433
20
-119.9
11
96.9865
21
-119.712
0
LINE
8
BLACK
6
CONTINUOUS
10
96.9865
20
-119.712
11
96.9865
21
-119.712
0
LINE
8
BLACK
6
CONTINUOUS
10
96.9865
20
-119.712
11
96.9864
21
-119.712
0
LINE
8
BLACK
6
CONTINUOUS
10
96.9864
20
-119.712
11
96.2209
21
-119.562
0
LINE
8
BLACK
6
CONTINUOUS
10
96.2209
20
-119.562
11
96.2208
21
-119.562
0
LINE
8
BLACK
6
CONTINUOUS
10
96.2208
20
-119.562
11
96.2208
21
-119.562
0
LINE
8
BLACK
6
CONTINUOUS
10
96.2208
20
-119.562
11
95.6897
21
-119.485
0
LINE
8
BLACK
6
CONTINUOUS
10
95.6897
20
-119.485
11
95.449
21
-119.45
0
LINE
8
BLACK
6
CONTINUOUS
10
95.449
20
-119.45
11
95.4488
21
-119.45
0
LINE
8
BLACK
6
CONTINUOUS
10
95.4488
20
-119.45
11
95.4488
21
-119.45
0
LINE
8
BLACK
6
CONTINUOUS
10
95.4488
20
-119.45
11
94.6726
21
-119.376
0
LINE
8
BLACK
6
CONTINUOUS
10
94.6726
20
-119.376
11
94.6726
21
-119.376
0
LINE
8
BLACK
6
CONTINUOUS
10
94.6726
20
-119.376
11
94.6724
21
-119.376
0
LINE
8
BLACK
6
CONTINUOUS
10
94.6724
20
-119.376
11
94.6723
21
-119.376
0
LINE
8
BLACK
6
CONTINUOUS
10
94.6723
20
-119.376
11
94.6723
21
-119.376
0
LINE
8
BLACK
6
CONTINUOUS
10
94.6723
20
-119.376
11
94.1372
21
-119.352
0
LINE
8
BLACK
6
CONTINUOUS
10
94.1372
20
-119.352
11
93.8932
21
-119.341
0
LINE
8
BLACK
6
CONTINUOUS
10
93.8932
20
-119.341
11
93.4654
21
-119.343
0
LINE
8
BLACK
6
CONTINUOUS
10
93.4654
20
-119.343
11
93.1134
21
-119.345
0
LINE
8
BLACK
6
CONTINUOUS
10
93.1134
20
-119.345
11
93.1134
21
-119.345
0
LINE
8
BLACK
6
CONTINUOUS
10
93.1134
20
-119.345
11
93.1132
21
-119.345
0
LINE
8
BLACK
6
CONTINUOUS
10
93.1132
20
-119.345
11
92.3344
21
-119.387
0
LINE
8
BLACK
6
CONTINUOUS
10
92.3344
20
-119.387
11
92.3342
21
-119.387
0
LINE
8
BLACK
6
CONTINUOUS
10
92.3342
20
-119.387
11
92.3342
21
-119.387
0
LINE
8
BLACK
6
CONTINUOUS
10
92.3342
20
-119.387
11
91.9766
21
-119.425
0
LINE
8
BLACK
6
CONTINUOUS
10
91.9766
20
-119.425
11
91.5586
21
-119.468
0
LINE
8
BLACK
6
CONTINUOUS
10
91.5586
20
-119.468
11
90.7877
21
-119.587
0
LINE
8
BLACK
6
CONTINUOUS
10
90.7877
20
-119.587
11
90.0237
21
-119.744
0
LINE
8
BLACK
6
CONTINUOUS
10
90.0237
20
-119.744
11
90.0239
21
-119.745
0
LINE
8
BLACK
6
CONTINUOUS
10
90.0239
20
-119.745
11
90.0216
21
-119.747
0
LINE
8
BLACK
6
CONTINUOUS
10
90.0216
20
-119.747
11
90.0204
21
-119.749
0
LINE
8
BLACK
6
CONTINUOUS
10
90.0204
20
-119.749
11
90.0158
21
-119.751
0
LINE
8
BLACK
6
CONTINUOUS
10
90.0158
20
-119.751
11
89.8597
21
-119.779
0
LINE
8
BLACK
6
CONTINUOUS
10
89.8597
20
-119.779
11
89.8597
21
-119.779
0
LINE
8
BLACK
6
CONTINUOUS
10
89.8597
20
-119.779
11
89.7554
21
-119.797
0
LINE
8
BLACK
6
CONTINUOUS
10
89.7554
20
-119.797
11
89.754
21
-119.797
0
LINE
8
BLACK
6
CONTINUOUS
10
89.754
20
-119.797
11
89.5977
21
-119.805
0
LINE
8
BLACK
6
CONTINUOUS
10
89.5977
20
-119.805
11
89.5976
21
-119.805
0
LINE
8
BLACK
6
CONTINUOUS
10
89.5976
20
-119.805
11
89.4741
21
-119.809
0
LINE
8
BLACK
6
CONTINUOUS
10
89.4741
20
-119.809
11
89.4727
21
-119.809
0
LINE
8
BLACK
6
CONTINUOUS
10
89.4727
20
-119.809
11
89.3203
21
-119.796
0
LINE
8
BLACK
6
CONTINUOUS
10
89.3203
20
-119.796
11
89.3201
21
-119.796
0
LINE
8
BLACK
6
CONTINUOUS
10
89.3201
20
-119.796
11
89.2064
21
-119.783
0
LINE
8
BLACK
6
CONTINUOUS
10
89.2064
20
-119.783
11
89.1939
21
-119.782
0
LINE
8
BLACK
6
CONTINUOUS
10
89.1939
20
-119.782
11
89.1927
21
-119.782
0
LINE
8
BLACK
6
CONTINUOUS
10
89.1927
20
-119.782
11
89.0446
21
-119.75
0
LINE
8
BLACK
6
CONTINUOUS
10
89.0446
20
-119.75
11
89.0442
21
-119.75
0
LINE
8
BLACK
6
CONTINUOUS
10
89.0442
20
-119.75
11
88.9702
21
-119.73
0
LINE
8
BLACK
6
CONTINUOUS
10
88.9702
20
-119.73
11
88.92
21
-119.717
0
LINE
8
BLACK
6
CONTINUOUS
10
88.92
20
-119.717
11
88.9191
21
-119.717
0
LINE
8
BLACK
6
CONTINUOUS
10
88.9191
20
-119.717
11
88.7771
21
-119.666
0
LINE
8
BLACK
6
CONTINUOUS
10
88.7771
20
-119.666
11
88.7765
21
-119.666
0
LINE
8
BLACK
6
CONTINUOUS
10
88.7765
20
-119.666
11
88.7078
21
-119.637
0
LINE
8
BLACK
6
CONTINUOUS
10
88.7078
20
-119.637
11
88.6577
21
-119.616
0
LINE
8
BLACK
6
CONTINUOUS
10
88.6577
20
-119.616
11
88.6569
21
-119.616
0
LINE
8
BLACK
6
CONTINUOUS
10
88.6569
20
-119.616
11
88.523
21
-119.547
0
LINE
8
BLACK
6
CONTINUOUS
10
88.523
20
-119.547
11
88.5223
21
-119.546
0
LINE
8
BLACK
6
CONTINUOUS
10
88.5223
20
-119.546
11
88.4117
21
-119.48
0
LINE
8
BLACK
6
CONTINUOUS
10
88.4117
20
-119.48
11
88.4111
21
-119.48
0
LINE
8
BLACK
6
CONTINUOUS
10
88.4111
20
-119.48
11
88.2874
21
-119.394
0
LINE
8
BLACK
6
CONTINUOUS
10
88.2874
20
-119.394
11
88.2866
21
-119.393
0
LINE
8
BLACK
6
CONTINUOUS
10
88.2866
20
-119.393
11
88.2144
21
-119.335
0
LINE
8
BLACK
6
CONTINUOUS
10
88.2144
20
-119.335
11
88.1867
21
-119.312
0
LINE
8
BLACK
6
CONTINUOUS
10
88.1867
20
-119.312
11
88.1862
21
-119.312
0
LINE
8
BLACK
6
CONTINUOUS
10
88.1862
20
-119.312
11
88.1331
21
-119.263
0
LINE
8
BLACK
6
CONTINUOUS
10
88.1331
20
-119.263
11
88.0745
21
-119.21
0
LINE
8
BLACK
6
CONTINUOUS
10
88.0745
20
-119.21
11
88.0738
21
-119.21
0
LINE
8
BLACK
6
CONTINUOUS
10
88.0738
20
-119.21
11
87.9869
21
-119.115
0
LINE
8
BLACK
6
CONTINUOUS
10
87.9869
20
-119.115
11
87.9865
21
-119.115
0
LINE
8
BLACK
6
CONTINUOUS
10
87.9865
20
-119.115
11
87.8886
21
-118.999
0
LINE
8
BLACK
6
CONTINUOUS
10
87.8886
20
-118.999
11
87.8879
21
-118.998
0
LINE
8
BLACK
6
CONTINUOUS
10
87.8879
20
-118.998
11
87.816
21
-118.894
0
LINE
8
BLACK
6
CONTINUOUS
10
87.816
20
-118.894
11
87.8158
21
-118.894
0
LINE
8
BLACK
6
CONTINUOUS
10
87.8158
20
-118.894
11
87.733
21
-118.765
0
LINE
8
BLACK
6
CONTINUOUS
10
87.733
20
-118.765
11
87.7323
21
-118.764
0
LINE
8
BLACK
6
CONTINUOUS
10
87.7323
20
-118.764
11
87.6776
21
-118.653
0
LINE
8
BLACK
6
CONTINUOUS
10
87.6776
20
-118.653
11
87.6775
21
-118.653
0
LINE
8
BLACK
6
CONTINUOUS
10
87.6775
20
-118.653
11
87.6107
21
-118.511
0
LINE
8
BLACK
6
CONTINUOUS
10
87.6107
20
-118.511
11
87.6102
21
-118.51
0
LINE
8
BLACK
6
CONTINUOUS
10
87.6102
20
-118.51
11
87.5772
21
-118.41
0
LINE
8
BLACK
6
CONTINUOUS
10
87.5772
20
-118.41
11
87.5772
21
-118.409
0
LINE
8
BLACK
6
CONTINUOUS
10
87.5772
20
-118.409
11
87.5262
21
-118.25
0
LINE
8
BLACK
6
CONTINUOUS
10
87.5262
20
-118.25
11
87.526
21
-118.25
0
LINE
8
BLACK
6
CONTINUOUS
10
87.526
20
-118.25
11
87.526
21
-118.25
0
LINE
8
BLACK
6
CONTINUOUS
10
87.526
20
-118.25
11
87.526
21
-118.25
0
LINE
8
BLACK
6
CONTINUOUS
10
87.526
20
-118.25
11
87.5258
21
-118.249
0
LINE
8
BLACK
6
CONTINUOUS
10
87.5258
20
-118.249
11
86.8497
21
-115.013
0
LINE
8
BLACK
6
CONTINUOUS
10
86.8497
20
-115.013
11
84.026
21
-101.5
0
LINE
8
BLACK
6
CONTINUOUS
10
84.026
20
-101.5
11
84.026
21
-101.5
0
LINE
8
BLACK
6
CONTINUOUS
10
84.026
20
-101.5
11
84.0259
21
-101.5
0
LINE
8
BLACK
6
CONTINUOUS
10
84.0259
20
-101.5
11
83.9961
21
-101.335
0
LINE
8
BLACK
6
CONTINUOUS
10
83.9961
20
-101.335
11
83.9777
21
-101.23
0
LINE
8
BLACK
6
CONTINUOUS
10
83.9777
20
-101.23
11
83.9776
21
-101.229
0
LINE
8
BLACK
6
CONTINUOUS
10
83.9776
20
-101.229
11
83.97
21
-101.073
0
LINE
8
BLACK
6
CONTINUOUS
10
83.97
20
-101.073
11
83.9662
21
-100.949
0
LINE
8
BLACK
6
CONTINUOUS
10
83.9662
20
-100.949
11
83.9662
21
-100.948
0
LINE
8
BLACK
6
CONTINUOUS
10
83.9662
20
-100.948
11
83.9716
21
-100.882
0
LINE
8
BLACK
6
CONTINUOUS
10
83.9716
20
-100.882
11
83.9787
21
-100.795
0
LINE
8
BLACK
6
CONTINUOUS
10
83.9787
20
-100.795
11
83.9788
21
-100.795
0
LINE
8
BLACK
6
CONTINUOUS
10
83.9788
20
-100.795
11
83.993
21
-100.669
0
LINE
8
BLACK
6
CONTINUOUS
10
83.993
20
-100.669
11
83.9932
21
-100.668
0
LINE
8
BLACK
6
CONTINUOUS
10
83.9932
20
-100.668
11
84.0252
21
-100.52
0
LINE
8
BLACK
6
CONTINUOUS
10
84.0252
20
-100.52
11
84.0253
21
-100.519
0
LINE
8
BLACK
6
CONTINUOUS
10
84.0253
20
-100.519
11
84.0577
21
-100.395
0
LINE
8
BLACK
6
CONTINUOUS
10
84.0577
20
-100.395
11
84.058
21
-100.394
0
LINE
8
BLACK
6
CONTINUOUS
10
84.058
20
-100.394
11
84.1088
21
-100.252
0
LINE
8
BLACK
6
CONTINUOUS
10
84.1088
20
-100.252
11
84.1091
21
-100.252
0
LINE
8
BLACK
6
CONTINUOUS
10
84.1091
20
-100.252
11
84.159
21
-100.133
0
LINE
8
BLACK
6
CONTINUOUS
10
84.159
20
-100.133
11
84.1593
21
-100.132
0
LINE
8
BLACK
6
CONTINUOUS
10
84.1593
20
-100.132
11
84.2282
21
-99.998
0
LINE
8
BLACK
6
CONTINUOUS
10
84.2282
20
-99.998
11
84.2285
21
-99.9974
0
LINE
8
BLACK
6
CONTINUOUS
10
84.2285
20
-99.9974
11
84.2949
21
-99.8867
0
LINE
8
BLACK
6
CONTINUOUS
10
84.2949
20
-99.8867
11
84.2953
21
-99.8861
0
LINE
8
BLACK
6
CONTINUOUS
10
84.2953
20
-99.8861
11
84.381
21
-99.7624
0
LINE
8
BLACK
6
CONTINUOUS
10
84.381
20
-99.7624
11
84.3816
21
-99.7617
0
LINE
8
BLACK
6
CONTINUOUS
10
84.3816
20
-99.7617
11
84.463
21
-99.6617
0
LINE
8
BLACK
6
CONTINUOUS
10
84.463
20
-99.6617
11
84.4634
21
-99.6612
0
LINE
8
BLACK
6
CONTINUOUS
10
84.4634
20
-99.6612
11
84.5647
21
-99.5496
0
LINE
8
BLACK
6
CONTINUOUS
10
84.5647
20
-99.5496
11
84.5654
21
-99.5488
0
LINE
8
BLACK
6
CONTINUOUS
10
84.5654
20
-99.5488
11
84.6598
21
-99.4618
0
LINE
8
BLACK
6
CONTINUOUS
10
84.6598
20
-99.4618
11
84.6601
21
-99.4615
0
LINE
8
BLACK
6
CONTINUOUS
10
84.6601
20
-99.4615
11
84.7756
21
-99.3636
0
LINE
8
BLACK
6
CONTINUOUS
10
84.7756
20
-99.3636
11
84.7766
21
-99.3629
0
LINE
8
BLACK
6
CONTINUOUS
10
84.7766
20
-99.3629
11
84.8813
21
-99.2909
0
LINE
8
BLACK
6
CONTINUOUS
10
84.8813
20
-99.2909
11
84.8816
21
-99.2907
0
LINE
8
BLACK
6
CONTINUOUS
10
84.8816
20
-99.2907
11
85.01
21
-99.208
0
LINE
8
BLACK
6
CONTINUOUS
10
85.01
20
-99.208
11
85.0112
21
-99.2074
0
LINE
8
BLACK
6
CONTINUOUS
10
85.0112
20
-99.2074
11
85.1221
21
-99.1525
0
LINE
8
BLACK
6
CONTINUOUS
10
85.1221
20
-99.1525
11
85.1223
21
-99.1524
0
LINE
8
BLACK
6
CONTINUOUS
10
85.1223
20
-99.1524
11
85.2635
21
-99.0857
0
LINE
8
BLACK
6
CONTINUOUS
10
85.2635
20
-99.0857
11
85.2649
21
-99.0852
0
LINE
8
BLACK
6
CONTINUOUS
10
85.2649
20
-99.0852
11
85.3659
21
-99.0521
0
LINE
8
BLACK
6
CONTINUOUS
10
85.3659
20
-99.0521
11
85.3659
21
-99.0521
0
LINE
8
BLACK
6
CONTINUOUS
10
85.3659
20
-99.0521
11
85.472
21
-99.018
0
LINE
8
BLACK
6
CONTINUOUS
10
85.472
20
-99.018
11
85.5247
21
-99.0012
0
LINE
8
BLACK
6
CONTINUOUS
10
85.5247
20
-99.0012
11
85.5251
21
-99.001
0
LINE
8
BLACK
6
CONTINUOUS
10
85.5251
20
-99.001
11
85.5253
21
-99.0011
0
LINE
8
BLACK
6
CONTINUOUS
10
85.5253
20
-99.0011
11
85.5254
21
-99.001
0
LINE
8
BLACK
6
CONTINUOUS
10
85.5254
20
-99.001
11
85.5258
21
-99.0009
0
LINE
8
BLACK
6
CONTINUOUS
10
85.5258
20
-99.0009
11
95.193
21
-96.944
0
LINE
8
BLACK
6
CONTINUOUS
10
95.193
20
-96.944
11
109.017
21
-94.0027
0
LINE
8
BLACK
6
CONTINUOUS
10
109.017
20
-94.0027
11
109.026
21
-94.0044
0
LINE
8
BLACK
6
CONTINUOUS
10
109.026
20
-94.0044
11
109.026
21
-94.0045
0
LINE
8
BLACK
6
CONTINUOUS
10
109.026
20
-94.0045
11
109.026
21
-94.0045
0
LINE
8
BLACK
6
CONTINUOUS
10
109.026
20
-94.0045
11
109.026
21
-94.0055
0
LINE
8
BLACK
6
CONTINUOUS
10
109.026
20
-94.0055
11
109.03
21
-94.0045
0
LINE
8
BLACK
6
CONTINUOUS
10
109.03
20
-94.0045
11
109.096
21
-93.9861
0
LINE
8
BLACK
6
CONTINUOUS
10
109.096
20
-93.9861
11
109.792
21
-93.7914
0
LINE
8
BLACK
6
CONTINUOUS
10
109.792
20
-93.7914
11
110.176
21
-93.6639
0
LINE
8
BLACK
6
CONTINUOUS
10
110.176
20
-93.6639
11
110.546
21
-93.5414
0
LINE
8
BLACK
6
CONTINUOUS
10
110.546
20
-93.5414
11
110.546
21
-93.5413
0
LINE
8
BLACK
6
CONTINUOUS
10
110.546
20
-93.5413
11
110.546
21
-93.5413
0
LINE
8
BLACK
6
CONTINUOUS
10
110.546
20
-93.5413
11
110.546
21
-93.5413
0
LINE
8
BLACK
6
CONTINUOUS
10
110.546
20
-93.5413
11
110.546
21
-93.5413
0
LINE
8
BLACK
6
CONTINUOUS
10
110.546
20
-93.5413
11
111.288
21
-93.2558
0
LINE
8
BLACK
6
CONTINUOUS
10
111.288
20
-93.2558
11
111.288
21
-93.2558
0
LINE
8
BLACK
6
CONTINUOUS
10
111.288
20
-93.2558
11
111.288
21
-93.2558
0
LINE
8
BLACK
6
CONTINUOUS
10
111.288
20
-93.2558
11
112.015
21
-92.9355
0
LINE
8
BLACK
6
CONTINUOUS
10
112.015
20
-92.9355
11
112.015
21
-92.9354
0
LINE
8
BLACK
6
CONTINUOUS
10
112.015
20
-92.9354
11
112.727
21
-92.5812
0
LINE
8
BLACK
6
CONTINUOUS
10
112.727
20
-92.5812
11
112.727
21
-92.5812
0
LINE
8
BLACK
6
CONTINUOUS
10
112.727
20
-92.5812
11
112.727
21
-92.5812
0
LINE
8
BLACK
6
CONTINUOUS
10
112.727
20
-92.5812
11
113.421
21
-92.1935
0
LINE
8
BLACK
6
CONTINUOUS
10
113.421
20
-92.1935
11
113.421
21
-92.1935
0
LINE
8
BLACK
6
CONTINUOUS
10
113.421
20
-92.1935
11
113.421
21
-92.1935
0
LINE
8
BLACK
6
CONTINUOUS
10
113.421
20
-92.1935
11
114.095
21
-91.7736
0
LINE
8
BLACK
6
CONTINUOUS
10
114.095
20
-91.7736
11
114.095
21
-91.7736
0
LINE
8
BLACK
6
CONTINUOUS
10
114.095
20
-91.7736
11
114.095
21
-91.7735
0
LINE
8
BLACK
6
CONTINUOUS
10
114.095
20
-91.7735
11
114.27
21
-91.653
0
LINE
8
BLACK
6
CONTINUOUS
10
114.27
20
-91.653
11
114.749
21
-91.3221
0
LINE
8
BLACK
6
CONTINUOUS
10
114.749
20
-91.3221
11
114.749
21
-91.3221
0
LINE
8
BLACK
6
CONTINUOUS
10
114.749
20
-91.3221
11
114.749
21
-91.322
0
LINE
8
BLACK
6
CONTINUOUS
10
114.749
20
-91.322
11
115.381
21
-90.8401
0
LINE
8
BLACK
6
CONTINUOUS
10
115.381
20
-90.8401
11
115.99
21
-90.3288
0
LINE
8
BLACK
6
CONTINUOUS
10
115.99
20
-90.3288
11
116.574
21
-89.7893
0
LINE
8
BLACK
6
CONTINUOUS
10
116.574
20
-89.7893
11
116.574
21
-89.7892
0
LINE
8
BLACK
6
CONTINUOUS
10
116.574
20
-89.7892
11
116.574
21
-89.7892
0
LINE
8
BLACK
6
CONTINUOUS
10
116.574
20
-89.7892
11
117.131
21
-89.2228
0
LINE
8
BLACK
6
CONTINUOUS
10
117.131
20
-89.2228
11
117.131
21
-89.2228
0
LINE
8
BLACK
6
CONTINUOUS
10
117.131
20
-89.2228
11
117.131
21
-89.2227
0
LINE
8
BLACK
6
CONTINUOUS
10
117.131
20
-89.2227
11
117.661
21
-88.6305
0
LINE
8
BLACK
6
CONTINUOUS
10
117.661
20
-88.6305
11
118.162
21
-88.0138
0
LINE
8
BLACK
6
CONTINUOUS
10
118.162
20
-88.0138
11
118.162
21
-88.0137
0
LINE
8
BLACK
6
CONTINUOUS
10
118.162
20
-88.0137
11
118.162
21
-88.0137
0
LINE
8
BLACK
6
CONTINUOUS
10
118.162
20
-88.0137
11
118.634
21
-87.3742
0
LINE
8
BLACK
6
CONTINUOUS
10
118.634
20
-87.3742
11
118.634
21
-87.3742
0
LINE
8
BLACK
6
CONTINUOUS
10
118.634
20
-87.3742
11
118.634
21
-87.374
0
LINE
8
BLACK
6
CONTINUOUS
10
118.634
20
-87.374
11
118.637
21
-87.3702
0
LINE
8
BLACK
6
CONTINUOUS
10
118.637
20
-87.3702
11
119.075
21
-86.7128
0
LINE
8
BLACK
6
CONTINUOUS
10
119.075
20
-86.7128
11
119.075
21
-86.7128
0
LINE
8
BLACK
6
CONTINUOUS
10
119.075
20
-86.7128
11
119.075
21
-86.7127
0
LINE
8
BLACK
6
CONTINUOUS
10
119.075
20
-86.7127
11
119.484
21
-86.0313
0
LINE
8
BLACK
6
CONTINUOUS
10
119.484
20
-86.0313
11
119.86
21
-85.3312
0
LINE
8
BLACK
6
CONTINUOUS
10
119.86
20
-85.3312
11
120.203
21
-84.6141
0
LINE
8
BLACK
6
CONTINUOUS
10
120.203
20
-84.6141
11
120.203
21
-84.614
0
LINE
8
BLACK
6
CONTINUOUS
10
120.203
20
-84.614
11
120.203
21
-84.614
0
LINE
8
BLACK
6
CONTINUOUS
10
120.203
20
-84.614
11
120.511
21
-83.8818
0
LINE
8
BLACK
6
CONTINUOUS
10
120.511
20
-83.8818
11
120.511
21
-83.8818
0
LINE
8
BLACK
6
CONTINUOUS
10
120.511
20
-83.8818
11
120.511
21
-83.8817
0
LINE
8
BLACK
6
CONTINUOUS
10
120.511
20
-83.8817
11
120.785
21
-83.1354
0
LINE
8
BLACK
6
CONTINUOUS
10
120.785
20
-83.1354
11
121.023
21
-82.377
0
LINE
8
BLACK
6
CONTINUOUS
10
121.023
20
-82.377
11
121.224
21
-81.6083
0
LINE
8
BLACK
6
CONTINUOUS
10
121.224
20
-81.6083
11
121.389
21
-80.8308
0
LINE
8
BLACK
6
CONTINUOUS
10
121.389
20
-80.8308
11
121.518
21
-80.0464
0
LINE
8
BLACK
6
CONTINUOUS
10
121.518
20
-80.0464
11
121.518
21
-80.0455
0
LINE
8
BLACK
6
CONTINUOUS
10
121.518
20
-80.0455
11
121.608
21
-79.257
0
LINE
8
BLACK
6
CONTINUOUS
10
121.608
20
-79.257
11
121.608
21
-79.2569
0
LINE
8
BLACK
6
CONTINUOUS
10
121.608
20
-79.2569
11
121.608
21
-79.2568
0
LINE
8
BLACK
6
CONTINUOUS
10
121.608
20
-79.2568
11
121.662
21
-78.4638
0
LINE
8
BLACK
6
CONTINUOUS
10
121.662
20
-78.4638
11
121.678
21
-77.6692
0
LINE
8
BLACK
6
CONTINUOUS
10
121.678
20
-77.6692
11
121.656
21
-76.8747
0
LINE
8
BLACK
6
CONTINUOUS
10
121.656
20
-76.8747
11
121.655
21
-76.8748
0
LINE
8
BLACK
6
CONTINUOUS
10
121.655
20
-76.8748
11
121.654
21
-76.8727
0
LINE
8
BLACK
6
CONTINUOUS
10
121.654
20
-76.8727
11
121.651
21
-76.8705
0
LINE
8
BLACK
6
CONTINUOUS
10
121.651
20
-76.8705
11
121.65
21
-76.8665
0
LINE
8
BLACK
6
CONTINUOUS
10
121.65
20
-76.8665
11
120.795
21
-65.7504
0
LINE
8
BLACK
6
CONTINUOUS
10
120.795
20
-65.7504
11
120.776
21
-65.5001
0
LINE
8
BLACK
6
CONTINUOUS
10
120.776
20
-65.5001
11
120.776
21
-65.4999
0
LINE
8
BLACK
6
CONTINUOUS
10
120.776
20
-65.4999
11
120.776
21
-65.4997
0
LINE
8
BLACK
6
CONTINUOUS
10
120.776
20
-65.4997
11
120.766
21
-65.3334
0
LINE
8
BLACK
6
CONTINUOUS
10
120.766
20
-65.3334
11
120.766
21
-65.3327
0
LINE
8
BLACK
6
CONTINUOUS
10
120.766
20
-65.3327
11
120.766
21
-65.3326
0
LINE
8
BLACK
6
CONTINUOUS
10
120.766
20
-65.3326
11
120.761
21
-65.233
0
LINE
8
BLACK
6
CONTINUOUS
10
120.761
20
-65.233
11
120.761
21
-65.2315
0
LINE
8
BLACK
6
CONTINUOUS
10
120.761
20
-65.2315
11
120.772
21
-65.0778
0
LINE
8
BLACK
6
CONTINUOUS
10
120.772
20
-65.0778
11
120.772
21
-65.0776
0
LINE
8
BLACK
6
CONTINUOUS
10
120.772
20
-65.0776
11
120.783
21
-64.9585
0
LINE
8
BLACK
6
CONTINUOUS
10
120.783
20
-64.9585
11
120.783
21
-64.9572
0
LINE
8
BLACK
6
CONTINUOUS
10
120.783
20
-64.9572
11
120.813
21
-64.81
0
LINE
8
BLACK
6
CONTINUOUS
10
120.813
20
-64.81
11
120.813
21
-64.8097
0
LINE
8
BLACK
6
CONTINUOUS
10
120.813
20
-64.8097
11
120.82
21
-64.7811
0
LINE
8
BLACK
6
CONTINUOUS
10
120.82
20
-64.7811
11
120.842
21
-64.6897
0
LINE
8
BLACK
6
CONTINUOUS
10
120.842
20
-64.6897
11
120.842
21
-64.6886
0
LINE
8
BLACK
6
CONTINUOUS
10
120.842
20
-64.6886
11
120.865
21
-64.6216
0
LINE
8
BLACK
6
CONTINUOUS
10
120.865
20
-64.6216
11
120.891
21
-64.5481
0
LINE
8
BLACK
6
CONTINUOUS
10
120.891
20
-64.5481
11
120.891
21
-64.5476
0
LINE
8
BLACK
6
CONTINUOUS
10
120.891
20
-64.5476
11
120.937
21
-64.4316
0
LINE
8
BLACK
6
CONTINUOUS
10
120.937
20
-64.4316
11
120.937
21
-64.4306
0
LINE
8
BLACK
6
CONTINUOUS
10
120.937
20
-64.4306
11
121.003
21
-64.2984
0
LINE
8
BLACK
6
CONTINUOUS
10
121.003
20
-64.2984
11
121.004
21
-64.2978
0
LINE
8
BLACK
6
CONTINUOUS
10
121.004
20
-64.2978
11
121.066
21
-64.1889
0
LINE
8
BLACK
6
CONTINUOUS
10
121.066
20
-64.1889
11
121.066
21
-64.1881
0
LINE
8
BLACK
6
CONTINUOUS
10
121.066
20
-64.1881
11
121.149
21
-64.0659
0
LINE
8
BLACK
6
CONTINUOUS
10
121.149
20
-64.0659
11
121.15
21
-64.0652
0
LINE
8
BLACK
6
CONTINUOUS
10
121.15
20
-64.0652
11
121.227
21
-63.9662
0
LINE
8
BLACK
6
CONTINUOUS
10
121.227
20
-63.9662
11
121.227
21
-63.9656
0
LINE
8
BLACK
6
CONTINUOUS
10
121.227
20
-63.9656
11
121.292
21
-63.8929
0
LINE
8
BLACK
6
CONTINUOUS
10
121.292
20
-63.8929
11
121.325
21
-63.8552
0
LINE
8
BLACK
6
CONTINUOUS
10
121.325
20
-63.8552
11
121.326
21
-63.8545
0
LINE
8
BLACK
6
CONTINUOUS
10
121.326
20
-63.8545
11
121.416
21
-63.7676
0
LINE
8
BLACK
6
CONTINUOUS
10
121.416
20
-63.7676
11
121.417
21
-63.7672
0
LINE
8
BLACK
6
CONTINUOUS
10
121.417
20
-63.7672
11
121.528
21
-63.6703
0
LINE
8
BLACK
6
CONTINUOUS
10
121.528
20
-63.6703
11
121.529
21
-63.6696
0
LINE
8
BLACK
6
CONTINUOUS
10
121.529
20
-63.6696
11
121.63
21
-63.5968
0
LINE
8
BLACK
6
CONTINUOUS
10
121.63
20
-63.5968
11
121.631
21
-63.5965
0
LINE
8
BLACK
6
CONTINUOUS
10
121.631
20
-63.5965
11
121.755
21
-63.5147
0
LINE
8
BLACK
6
CONTINUOUS
10
121.755
20
-63.5147
11
121.756
21
-63.5141
0
LINE
8
BLACK
6
CONTINUOUS
10
121.756
20
-63.5141
11
121.803
21
-63.4896
0
LINE
8
BLACK
6
CONTINUOUS
10
121.803
20
-63.4896
11
121.865
21
-63.457
0
LINE
8
BLACK
6
CONTINUOUS
10
121.865
20
-63.457
11
121.866
21
-63.4568
0
LINE
8
BLACK
6
CONTINUOUS
10
121.866
20
-63.4568
11
122.001
21
-63.3912
0
LINE
8
BLACK
6
CONTINUOUS
10
122.001
20
-63.3912
11
122.002
21
-63.3907
0
LINE
8
BLACK
6
CONTINUOUS
10
122.002
20
-63.3907
11
122.115
21
-63.351
0
LINE
8
BLACK
6
CONTINUOUS
10
122.115
20
-63.351
11
122.115
21
-63.351
0
LINE
8
BLACK
6
CONTINUOUS
10
122.115
20
-63.351
11
122.151
21
-63.339
0
LINE
8
BLACK
6
CONTINUOUS
10
122.151
20
-63.339
11
122.261
21
-63.3024
0
LINE
8
BLACK
6
CONTINUOUS
10
122.261
20
-63.3024
11
122.263
21
-63.302
0
LINE
8
BLACK
6
CONTINUOUS
10
122.263
20
-63.302
11
122.361
21
-63.2825
0
LINE
8
BLACK
6
CONTINUOUS
10
122.361
20
-63.2825
11
122.524
21
-63.2512
0
LINE
8
BLACK
6
CONTINUOUS
10
122.524
20
-63.2512
11
122.525
21
-63.2511
0
LINE
8
BLACK
6
CONTINUOUS
10
122.525
20
-63.2511
11
122.525
21
-63.2511
0
LINE
8
BLACK
6
CONTINUOUS
10
122.525
20
-63.2511
11
122.525
21
-63.251
0
LINE
8
BLACK
6
CONTINUOUS
10
122.525
20
-63.251
11
122.526
21
-63.251
0
LINE
8
BLACK
6
CONTINUOUS
10
122.526
20
-63.251
11
138.491
21
-62.5014
0
LINE
8
BLACK
6
CONTINUOUS
10
138.491
20
-62.5014
11
138.496
21
-62.5031
0
LINE
8
BLACK
6
CONTINUOUS
10
138.496
20
-62.5031
11
138.496
21
-62.5029
0
LINE
8
BLACK
6
CONTINUOUS
10
138.496
20
-62.5029
11
138.5
21
-62.5043
0
LINE
8
BLACK
6
CONTINUOUS
10
138.5
20
-62.5043
11
138.5
21
-62.5053
0
LINE
8
BLACK
6
CONTINUOUS
10
138.5
20
-62.5053
11
138.614
21
-62.4942
0
LINE
8
BLACK
6
CONTINUOUS
10
138.614
20
-62.4942
11
138.865
21
-62.4696
0
LINE
8
BLACK
6
CONTINUOUS
10
138.865
20
-62.4696
11
138.865
21
-62.4696
0
LINE
8
BLACK
6
CONTINUOUS
10
138.865
20
-62.4696
11
138.865
21
-62.4696
0
LINE
8
BLACK
6
CONTINUOUS
10
138.865
20
-62.4696
11
139.08
21
-62.4278
0
LINE
8
BLACK
6
CONTINUOUS
10
139.08
20
-62.4278
11
139.225
21
-62.3997
0
LINE
8
BLACK
6
CONTINUOUS
10
139.225
20
-62.3997
11
139.225
21
-62.3997
0
LINE
8
BLACK
6
CONTINUOUS
10
139.225
20
-62.3997
11
139.225
21
-62.3997
0
LINE
8
BLACK
6
CONTINUOUS
10
139.225
20
-62.3997
11
139.577
21
-62.2962
0
LINE
8
BLACK
6
CONTINUOUS
10
139.577
20
-62.2962
11
139.577
21
-62.2961
0
LINE
8
BLACK
6
CONTINUOUS
10
139.577
20
-62.2961
11
139.577
21
-62.2961
0
LINE
8
BLACK
6
CONTINUOUS
10
139.577
20
-62.2961
11
139.748
21
-62.2281
0
LINE
8
BLACK
6
CONTINUOUS
10
139.748
20
-62.2281
11
139.918
21
-62.1602
0
LINE
8
BLACK
6
CONTINUOUS
10
139.918
20
-62.1602
11
140.244
21
-61.9927
0
LINE
8
BLACK
6
CONTINUOUS
10
140.244
20
-61.9927
11
140.244
21
-61.9926
0
LINE
8
BLACK
6
CONTINUOUS
10
140.244
20
-61.9926
11
140.244
21
-61.9926
0
LINE
8
BLACK
6
CONTINUOUS
10
140.244
20
-61.9926
11
140.443
21
-61.8656
0
LINE
8
BLACK
6
CONTINUOUS
10
140.443
20
-61.8656
11
140.553
21
-61.7953
0
LINE
8
BLACK
6
CONTINUOUS
10
140.553
20
-61.7953
11
140.553
21
-61.7952
0
LINE
8
BLACK
6
CONTINUOUS
10
140.553
20
-61.7952
11
140.553
21
-61.7952
0
LINE
8
BLACK
6
CONTINUOUS
10
140.553
20
-61.7952
11
140.842
21
-61.5699
0
LINE
8
BLACK
6
CONTINUOUS
10
140.842
20
-61.5699
11
140.842
21
-61.5699
0
LINE
8
BLACK
6
CONTINUOUS
10
140.842
20
-61.5699
11
140.842
21
-61.5697
0
LINE
8
BLACK
6
CONTINUOUS
10
140.842
20
-61.5697
11
141.109
21
-61.318
0
LINE
8
BLACK
6
CONTINUOUS
10
141.109
20
-61.318
11
141.35
21
-61.0423
0
LINE
8
BLACK
6
CONTINUOUS
10
141.35
20
-61.0423
11
141.353
21
-61.0384
0
LINE
8
BLACK
6
CONTINUOUS
10
141.353
20
-61.0384
11
141.56
21
-60.7523
0
LINE
8
BLACK
6
CONTINUOUS
10
141.56
20
-60.7523
11
141.565
21
-60.7451
0
LINE
8
BLACK
6
CONTINUOUS
10
141.565
20
-60.7451
11
141.751
21
-60.429
0
LINE
8
BLACK
6
CONTINUOUS
10
141.751
20
-60.429
11
141.753
21
-60.4261
0
LINE
8
BLACK
6
CONTINUOUS
10
141.753
20
-60.4261
11
141.906
21
-60.0971
0
LINE
8
BLACK
6
CONTINUOUS
10
141.906
20
-60.0971
11
141.906
21
-60.0971
0
LINE
8
BLACK
6
CONTINUOUS
10
141.906
20
-60.0971
11
141.907
21
-60.0968
0
LINE
8
BLACK
6
CONTINUOUS
10
141.907
20
-60.0968
11
142.03
21
-59.7515
0
LINE
8
BLACK
6
CONTINUOUS
10
142.03
20
-59.7515
11
142.029
21
-59.7513
0
LINE
8
BLACK
6
CONTINUOUS
10
142.029
20
-59.7513
11
142.029
21
-59.7497
0
LINE
8
BLACK
6
CONTINUOUS
10
142.029
20
-59.7497
11
142.027
21
-59.7458
0
LINE
8
BLACK
6
CONTINUOUS
10
142.027
20
-59.7458
11
142.027
21
-59.7429
0
LINE
8
BLACK
6
CONTINUOUS
10
142.027
20
-59.7429
11
142.058
21
-59.5743
0
LINE
8
BLACK
6
CONTINUOUS
10
142.058
20
-59.5743
11
142.076
21
-59.4766
0
LINE
8
BLACK
6
CONTINUOUS
10
142.076
20
-59.4766
11
142.076
21
-59.4753
0
LINE
8
BLACK
6
CONTINUOUS
10
142.076
20
-59.4753
11
142.124
21
-59.3208
0
LINE
8
BLACK
6
CONTINUOUS
10
142.124
20
-59.3208
11
142.162
21
-59.2035
0
LINE
8
BLACK
6
CONTINUOUS
10
142.162
20
-59.2035
11
142.162
21
-59.2024
0
LINE
8
BLACK
6
CONTINUOUS
10
142.162
20
-59.2024
11
142.227
21
-59.0589
0
LINE
8
BLACK
6
CONTINUOUS
10
142.227
20
-59.0589
11
142.227
21
-59.0586
0
LINE
8
BLACK
6
CONTINUOUS
10
142.227
20
-59.0586
11
142.282
21
-58.9436
0
LINE
8
BLACK
6
CONTINUOUS
10
142.282
20
-58.9436
11
142.282
21
-58.9427
0
LINE
8
BLACK
6
CONTINUOUS
10
142.282
20
-58.9427
11
142.363
21
-58.8095
0
LINE
8
BLACK
6
CONTINUOUS
10
142.363
20
-58.8095
11
142.363
21
-58.8091
0
LINE
8
BLACK
6
CONTINUOUS
10
142.363
20
-58.8091
11
142.434
21
-58.701
0
LINE
8
BLACK
6
CONTINUOUS
10
142.434
20
-58.701
11
142.434
21
-58.7002
0
LINE
8
BLACK
6
CONTINUOUS
10
142.434
20
-58.7002
11
142.529
21
-58.5784
0
LINE
8
BLACK
6
CONTINUOUS
10
142.529
20
-58.5784
11
142.53
21
-58.5779
0
LINE
8
BLACK
6
CONTINUOUS
10
142.53
20
-58.5779
11
142.615
21
-58.4796
0
LINE
8
BLACK
6
CONTINUOUS
10
142.615
20
-58.4796
11
142.615
21
-58.4789
0
LINE
8
BLACK
6
CONTINUOUS
10
142.615
20
-58.4789
11
142.724
21
-58.3697
0
LINE
8
BLACK
6
CONTINUOUS
10
142.724
20
-58.3697
11
142.724
21
-58.3692
0
LINE
8
BLACK
6
CONTINUOUS
10
142.724
20
-58.3692
11
142.807
21
-58.2955
0
LINE
8
BLACK
6
CONTINUOUS
10
142.807
20
-58.2955
11
142.822
21
-58.2828
0
LINE
8
BLACK
6
CONTINUOUS
10
142.822
20
-58.2828
11
142.822
21
-58.2823
0
LINE
8
BLACK
6
CONTINUOUS
10
142.822
20
-58.2823
11
142.944
21
-58.187
0
LINE
8
BLACK
6
CONTINUOUS
10
142.944
20
-58.187
11
142.944
21
-58.1865
0
LINE
8
BLACK
6
CONTINUOUS
10
142.944
20
-58.1865
11
143.052
21
-58.1137
0
LINE
8
BLACK
6
CONTINUOUS
10
143.052
20
-58.1137
11
143.052
21
-58.1134
0
LINE
8
BLACK
6
CONTINUOUS
10
143.052
20
-58.1134
11
143.144
21
-58.0579
0
LINE
8
BLACK
6
CONTINUOUS
10
143.144
20
-58.0579
11
143.185
21
-58.0333
0
LINE
8
BLACK
6
CONTINUOUS
10
143.185
20
-58.0333
11
143.185
21
-58.0328
0
LINE
8
BLACK
6
CONTINUOUS
10
143.185
20
-58.0328
11
143.301
21
-57.9752
0
LINE
8
BLACK
6
CONTINUOUS
10
143.301
20
-57.9752
11
143.301
21
-57.975
0
LINE
8
BLACK
6
CONTINUOUS
10
143.301
20
-57.975
11
143.443
21
-57.9111
0
LINE
8
BLACK
6
CONTINUOUS
10
143.443
20
-57.9111
11
143.444
21
-57.9107
0
LINE
8
BLACK
6
CONTINUOUS
10
143.444
20
-57.9107
11
143.565
21
-57.8693
0
LINE
8
BLACK
6
CONTINUOUS
10
143.565
20
-57.8693
11
143.565
21
-57.8692
0
LINE
8
BLACK
6
CONTINUOUS
10
143.565
20
-57.8692
11
143.715
21
-57.8223
0
LINE
8
BLACK
6
CONTINUOUS
10
143.715
20
-57.8223
11
143.716
21
-57.822
0
LINE
8
BLACK
6
CONTINUOUS
10
143.716
20
-57.822
11
143.837
21
-57.7977
0
LINE
8
BLACK
6
CONTINUOUS
10
143.837
20
-57.7977
11
143.837
21
-57.7977
0
LINE
8
BLACK
6
CONTINUOUS
10
143.837
20
-57.7977
11
143.996
21
-57.7685
0
LINE
8
BLACK
6
CONTINUOUS
10
143.996
20
-57.7685
11
143.998
21
-57.7684
0
LINE
8
BLACK
6
CONTINUOUS
10
143.998
20
-57.7684
11
144.098
21
-57.7617
0
LINE
8
BLACK
6
CONTINUOUS
10
144.098
20
-57.7617
11
144.098
21
-57.7617
0
LINE
8
BLACK
6
CONTINUOUS
10
144.098
20
-57.7617
11
144.098
21
-57.7617
0
LINE
8
BLACK
6
CONTINUOUS
10
144.098
20
-57.7617
11
144.098
21
-57.7617
0
LINE
8
BLACK
6
CONTINUOUS
10
144.098
20
-57.7617
11
144.098
21
-57.7617
0
LINE
8
BLACK
6
CONTINUOUS
10
144.098
20
-57.7617
11
144.098
21
-57.7617
0
LINE
8
BLACK
6
CONTINUOUS
10
144.098
20
-57.7617
11
144.147
21
-57.7588
0
LINE
8
BLACK
6
CONTINUOUS
10
144.147
20
-57.7588
11
144.274
21
-57.751
0
LINE
8
BLACK
6
CONTINUOUS
10
144.274
20
-57.751
11
144.275
21
-57.7513
0
LINE
8
BLACK
6
CONTINUOUS
10
144.275
20
-57.7513
11
144.275
21
-57.751
0
LINE
8
BLACK
6
CONTINUOUS
10
144.275
20
-57.751
11
162.275
21
-57.751
0
LINE
8
BLACK
6
CONTINUOUS
10
162.275
20
-57.751
11
162.275
21
-57.751
  0
ENDSEC
  0
EOF
